<svg width="81" height="81" viewBox="0 0 81 81" fill="none" xmlns="http://www.w3.org/2000/svg">
<circle cx="40.5" cy="40.5" r="39" fill="white" stroke="#FFC244" stroke-width="3"/>
<path d="M32.4 43.3124C32.8774 43.3124 33.3352 43.1511 33.6728 42.8639C34.0104 42.5768 34.2 42.1873 34.2 41.7812C34.2 41.3751 34.0104 40.9856 33.6728 40.6984C33.3352 40.4113 32.8774 40.25 32.4 40.25C31.9226 40.25 31.4648 40.4113 31.1272 40.6984C30.7896 40.9856 30.6 41.3751 30.6 41.7812C30.6 42.1873 30.7896 42.5768 31.1272 42.8639C31.4648 43.1511 31.9226 43.3124 32.4 43.3124ZM32.4 47.9062C32.8774 47.9062 33.3352 47.7448 33.6728 47.4577C34.0104 47.1705 34.2 46.781 34.2 46.3749C34.2 45.9688 34.0104 45.5793 33.6728 45.2922C33.3352 45.005 32.8774 44.8437 32.4 44.8437C31.9226 44.8437 31.4648 45.005 31.1272 45.2922C30.7896 45.5793 30.6 45.9688 30.6 46.3749C30.6 46.781 30.7896 47.1705 31.1272 47.4577C31.4648 47.7448 31.9226 47.9062 32.4 47.9062ZM37.1286 43.2022C37.6695 42.3257 38.3873 41.5369 39.249 40.8716C39.0253 40.61 38.7097 40.4155 38.3477 40.3162C37.9857 40.2169 37.5961 40.2179 37.2348 40.3191C36.8736 40.4202 36.5593 40.6163 36.3374 40.879C36.1155 41.1418 35.9974 41.4577 36 41.7812C35.9999 42.0868 36.1074 42.3855 36.3085 42.6387C36.5097 42.8919 36.7953 43.0882 37.1286 43.2022ZM31.5 50.9687H37.098C37.431 51.5168 37.8324 52.0298 38.2914 52.4999H31.5C30.3065 52.4999 29.1619 52.0966 28.318 51.3787C27.4741 50.6608 27 49.6871 27 48.6718V31.8281C27 30.8128 27.4741 29.8391 28.318 29.1212C29.1619 28.4033 30.3065 28 31.5 28H44.1C45.2935 28 46.4381 28.4033 47.282 29.1212C48.1259 29.8391 48.6 30.8128 48.6 31.8281V39.0066C48.0116 38.8649 47.409 38.7701 46.8 38.7233V31.8281C46.8 31.2189 46.5155 30.6347 46.0092 30.204C45.5028 29.7732 44.8161 29.5312 44.1 29.5312H31.5C30.7839 29.5312 30.0972 29.7732 29.5908 30.204C29.0845 30.6347 28.8 31.2189 28.8 31.8281V48.6718C28.8 49.281 29.0845 49.8652 29.5908 50.2959C30.0972 50.7267 30.7839 50.9687 31.5 50.9687ZM30.6 33.3594C30.6 32.7502 30.8845 32.166 31.3908 31.7352C31.8972 31.3045 32.5839 31.0625 33.3 31.0625H42.3C43.0161 31.0625 43.7028 31.3045 44.2092 31.7352C44.7155 32.166 45 32.7502 45 33.3594V34.8906C45 35.4998 44.7155 36.084 44.2092 36.5147C43.7028 36.9455 43.0161 37.1875 42.3 37.1875H33.3C32.5839 37.1875 31.8972 36.9455 31.3908 36.5147C30.8845 36.084 30.6 35.4998 30.6 34.8906V33.3594ZM33.3 32.5937C33.0613 32.5937 32.8324 32.6744 32.6636 32.818C32.4948 32.9616 32.4 33.1563 32.4 33.3594V34.8906C32.4 35.0937 32.4948 35.2884 32.6636 35.432C32.8324 35.5756 33.0613 35.6562 33.3 35.6562H42.3C42.5387 35.6562 42.7676 35.5756 42.9364 35.432C43.1052 35.2884 43.2 35.0937 43.2 34.8906V33.3594C43.2 33.1563 43.1052 32.9616 42.9364 32.818C42.7676 32.6744 42.5387 32.5937 42.3 32.5937H33.3ZM51.3 44.0474C51.5387 44.0474 51.7676 43.9668 51.9364 43.8232C52.1052 43.6796 52.2 43.4849 52.2 43.2818V40.2193C52.2 40.0163 52.1052 39.8215 51.9364 39.6779C51.7676 39.5344 51.5387 39.4537 51.3 39.4537C51.0613 39.4537 50.8324 39.5344 50.6636 39.6779C50.4948 39.8215 50.4 40.0163 50.4 40.2193V41.38C48.8986 40.5266 47.1049 40.1245 45.3041 40.2375C43.5032 40.3505 41.7984 40.9722 40.4604 42.0038C39.1224 43.0354 38.228 44.4177 37.9193 45.9312C37.6105 47.4448 37.9051 49.0027 38.7563 50.3574C39.6075 51.7122 40.9664 52.7862 42.6172 53.4087C44.268 54.0313 46.1161 54.1668 47.8677 53.7936C49.6194 53.4204 51.1742 52.56 52.2853 51.3491C53.3963 50.1381 53.9999 48.6461 54 47.1099C54 46.9069 53.9052 46.7121 53.7364 46.5685C53.5676 46.425 53.3387 46.3443 53.1 46.3443C52.8613 46.3443 52.6324 46.425 52.4636 46.5685C52.2948 46.7121 52.2 46.9069 52.2 47.1099C52.1997 48.2938 51.7387 49.4442 50.8888 50.3817C50.039 51.3191 48.8482 51.9908 47.5023 52.2919C46.1565 52.593 44.7313 52.5065 43.4493 52.046C42.1673 51.5855 41.1006 50.7769 40.4157 49.7463C39.7309 48.7158 39.4664 47.5213 39.6636 46.3494C39.8607 45.1775 40.5085 44.0941 41.5057 43.2684C42.5029 42.4427 43.7934 41.921 45.1758 41.785C46.5582 41.6489 47.9547 41.906 49.1472 42.5162H47.7C47.4613 42.5162 47.2324 42.5969 47.0636 42.7404C46.8948 42.884 46.8 43.0788 46.8 43.2818C46.8 43.4849 46.8948 43.6796 47.0636 43.8232C47.2324 43.9668 47.4613 44.0474 47.7 44.0474H51.3Z" fill="#FFC244"/>
</svg>
