<svg width="81" height="81" viewBox="0 0 81 81" fill="none" xmlns="http://www.w3.org/2000/svg">
<circle cx="40.5" cy="40.5" r="39" fill="white" stroke="#FFC244" stroke-width="3"/>
<path d="M37.1621 29.2285C37.1805 28.8966 37.3261 28.5843 37.5689 28.3558C37.8118 28.1273 38.1335 28 38.4678 28H42.5322C42.8665 28 43.1882 28.1273 43.4311 28.3558C43.6739 28.5843 43.8195 28.8966 43.8379 29.2285L44.3466 38.3285C44.3564 38.505 44.3298 38.6816 44.2686 38.8475C44.2074 39.0135 44.1128 39.1652 43.9906 39.2936C43.8684 39.422 43.7212 39.5242 43.5579 39.5941C43.3946 39.664 43.2186 39.7 43.0408 39.7H37.9592C37.7814 39.7 37.6054 39.664 37.4421 39.5941C37.2788 39.5242 37.1316 39.422 37.0094 39.2936C36.8872 39.1652 36.7926 39.0135 36.7314 38.8475C36.6702 38.6816 36.6436 38.505 36.6534 38.3285L37.1621 29.2285ZM32 43.6C32 42.5657 32.4133 41.5737 33.149 40.8423C33.8848 40.1109 34.8826 39.7 35.9231 39.7H45.0769C46.1174 39.7 47.1152 40.1109 47.851 40.8423C48.5867 41.5737 49 42.5657 49 43.6V52.05C49 52.5672 48.7933 53.0632 48.4255 53.4289C48.0576 53.7946 47.5587 54 47.0385 54H33.9615C33.4413 54 32.9424 53.7946 32.5745 53.4289C32.2067 53.0632 32 52.5672 32 52.05V43.6Z" fill="white" stroke="#FFC244" stroke-width="3"/>
<path d="M40.5 48.8C41.5833 48.8 42.4615 47.927 42.4615 46.85C42.4615 45.7731 41.5833 44.9 40.5 44.9C39.4167 44.9 38.5385 45.7731 38.5385 46.85C38.5385 47.927 39.4167 48.8 40.5 48.8Z" fill="white"/>
</svg>
