<svg width="81" height="81" viewBox="0 0 81 81" fill="none" xmlns="http://www.w3.org/2000/svg">
<circle cx="40.5" cy="40.5" r="39" fill="white" stroke="#FFC244" stroke-width="3"/>
<path d="M49.8941 27.8823H44.4108C43.42 27.885 43.457 29.1682 44.4108 29.1606H49.8941V29.8166H44.4108C43.4255 29.809 43.4618 31.0915 44.4108 31.0949H49.8941V31.7653H44.4108C43.4255 31.7653 43.4618 33.047 44.4108 33.0436H49.8941V33.6824H44.4108C43.446 33.6886 43.4618 34.9717 44.4108 34.9758H49.8941V35.616H44.4108C43.446 35.6133 43.442 36.8944 44.4108 36.8944H49.8941V37.5332H44.4108C43.446 37.5359 43.442 38.8184 44.4108 38.8122H49.8941V39.4668H44.4108C43.446 39.4593 43.442 40.7403 44.4108 40.7451H49.8941V41.3826H44.4108C43.446 41.3819 43.4618 42.6657 44.4108 42.6616H49.8941V55.1084C49.8972 57.005 53.2128 56.9707 53.2222 55.1084V25.9809C53.2128 25.1145 52.3939 24.0192 51.0466 24.0158H44.4108C43.42 24.0165 43.457 25.2996 44.4108 25.2941L49.8941 25.3099V25.9473H44.4108C43.4215 25.9432 43.4586 27.2256 44.4108 27.2263H49.8941V27.8823ZM44.0337 49.9491C44.0305 47.7352 41.3895 45.354 38.234 46.8962V38.4284L36.1933 24.4627C36.1507 24.0932 35.7902 24.0062 35.548 24C35.2979 24.0062 34.797 24.0932 34.7426 24.4627L32.7121 38.4284V46.8962C29.5567 45.354 27.0008 47.7503 27 49.932C27.0008 51.8731 28.7205 53.4675 31.0476 53.4627C33.3921 53.4675 35.0786 51.6805 35.0786 49.932V41.1358H35.8675V49.932C35.8675 51.8896 37.6124 53.3386 39.5514 53.4304C39.5191 54.5038 39.9222 56.0351 40.6811 56.6424C41.5709 57.3552 42.6303 56.4436 42.1957 55.7013C41.776 55.0104 41.3642 54.6012 41.6987 53.0925C43.0965 52.5305 44.0305 51.3474 44.0337 49.9491ZM31.1375 51.6908C30.6056 51.6908 30.0955 51.5072 29.7193 51.1804C29.3432 50.8536 29.1319 50.4103 29.1319 49.9481C29.1319 49.4859 29.3432 49.0426 29.7193 48.7158C30.0955 48.389 30.6056 48.2054 31.1375 48.2054C32.2309 48.2109 33.1215 48.9902 33.1294 49.9491C33.1271 50.4086 32.917 50.8488 32.5443 51.1747C32.1716 51.5005 31.6663 51.686 31.1375 51.6908ZM37.8988 49.9491C37.9006 49.4893 38.1107 49.0485 38.4836 48.7222C38.8565 48.3959 39.3622 48.2102 39.8914 48.2054C40.4208 48.2095 40.9269 48.395 41.2999 48.7215C41.6728 49.048 41.8825 49.4891 41.8833 49.9491C41.8825 50.4089 41.6727 50.8499 41.2997 51.176C40.9267 51.5022 40.4206 51.6872 39.8914 51.6908C39.3624 51.6867 38.8565 51.5015 38.4835 51.1755C38.1105 50.8495 37.9004 50.4088 37.8988 49.9491Z" fill="#FFC244"/>
</svg>
