<svg width="81" height="81" viewBox="0 0 81 81" fill="none" xmlns="http://www.w3.org/2000/svg">
<circle cx="40.5" cy="40.5" r="39" fill="white" stroke="#FFC244" stroke-width="3"/>
<path d="M44.7137 41.3391L45.953 44.0041C45.953 44.0041 51.5242 45.1871 51.5242 48.0009C51.5242 50 49.0456 50 49.0456 50H42.4445L39.1945 48.1944" stroke="#FFC244" stroke-width="2.5" stroke-linecap="round" stroke-linejoin="round"/>
<path d="M37.2863 41.3391L36.0484 44.0041C36.0484 44.0041 30.4757 45.1871 30.4757 48.0009C30.4757 50 32.9544 50 32.9544 50H35.9444L39.1944 48.1944L43.1666 45.6667" stroke="#FFC244" stroke-width="2.5" stroke-linecap="round" stroke-linejoin="round"/>
<path d="M28 42.6709C28 42.6709 31.0954 42.005 32.953 41.3391C34.8091 32.0109 40.3789 32.6768 41 32.6768C41.6197 32.6768 47.1909 32.0109 49.047 41.3391C50.9046 42.0036 54 42.6709 54 42.6709M41 29.7778C41.7662 29.7778 42.501 29.4734 43.0428 28.9316C43.5845 28.3899 43.8889 27.6551 43.8889 26.8889C43.8889 26.1227 43.5845 25.3879 43.0428 24.8461C42.501 24.3044 41.7662 24 41 24C40.2338 24 39.499 24.3044 38.9572 24.8461C38.4155 25.3879 38.1111 26.1227 38.1111 26.8889C38.1111 27.6551 38.4155 28.3899 38.9572 28.9316C39.499 29.4734 40.2338 29.7778 41 29.7778Z" stroke="#FFC244" stroke-width="2.5" stroke-linecap="round" stroke-linejoin="round"/>
</svg>
