<svg width="20" height="20" viewBox="0 0 20 20" fill="none" xmlns="http://www.w3.org/2000/svg">
<path d="M10.6935 15.95H8.92131C8.61576 15.95 8.37131 15.7667 8.3102 15.4612L8.00464 14.3612L7.7602 14.2389L6.78242 14.7889C6.53798 14.9112 6.23242 14.9112 6.04909 14.6667L4.76576 13.3834C4.58242 13.2 4.52131 12.8945 4.64353 12.65L5.19353 11.6723L5.07131 11.4278L3.97131 11.1223C3.72687 11.0612 3.48242 10.8167 3.48242 10.5112V8.73894C3.48242 8.43338 3.66576 8.18894 3.97131 8.12783L5.07131 7.82227L5.19353 7.57783L4.64353 6.60005C4.52131 6.3556 4.52131 6.05005 4.76576 5.86672L6.04909 4.58338C6.23242 4.40005 6.53798 4.33894 6.78242 4.46116L7.7602 5.01116L8.00464 4.88894L8.3102 3.78894C8.37131 3.54449 8.61576 3.30005 8.92131 3.30005H10.6935C10.9991 3.30005 11.2435 3.48338 11.3046 3.78894L11.6102 4.88894L11.8546 5.01116L12.8324 4.46116C13.0769 4.33894 13.3824 4.33894 13.5658 4.58338L14.8491 5.86672C15.0324 6.05005 15.0935 6.3556 14.9713 6.60005L14.4213 7.57783L14.5435 7.82227L15.6435 8.12783C15.888 8.18894 16.1324 8.43338 16.1324 8.73894V10.5112C16.1324 10.8167 15.9491 11.0612 15.6435 11.1223L14.5435 11.4278L14.4213 11.6723L14.9713 12.65C15.0935 12.8945 15.0935 13.2 14.8491 13.3834L13.5658 14.6667C13.3824 14.85 13.0769 14.9112 12.8324 14.7889L11.8546 14.2389L11.6102 14.3612L11.3046 15.4612C11.1824 15.7667 10.938 15.95 10.6935 15.95ZM9.34909 14.7278H10.2046L10.5102 13.4445L10.8158 13.3223C11.0602 13.2612 11.2435 13.1389 11.488 13.0778L11.7935 12.8945L12.9546 13.5667L13.5658 12.9556L12.8935 11.7945L13.0769 11.4889C13.1991 11.3056 13.2602 11.0612 13.3213 10.8167L13.4435 10.5112L14.7269 10.2056V9.35005L13.4435 9.04449L13.3213 8.73894C13.2602 8.49449 13.138 8.31116 13.0769 8.06672L12.8935 7.76116L13.5658 6.60005L12.9546 5.98894L11.7935 6.66116L11.488 6.47783C11.3046 6.3556 11.0602 6.29449 10.8158 6.23338L10.5102 6.11116L10.2046 4.82783H9.34909L9.04353 6.11116L8.73798 6.23338C8.49353 6.29449 8.3102 6.41672 8.06576 6.47783L7.7602 6.66116L6.59909 5.98894L5.98798 6.60005L6.6602 7.76116L6.47687 8.06672C6.35464 8.25005 6.29353 8.49449 6.23242 8.73894L6.1102 9.04449L4.82687 9.35005V10.2056L6.1102 10.5112L6.23242 10.8167C6.29353 11.0612 6.41576 11.2445 6.47687 11.4889L6.6602 11.7945L5.98798 12.9556L6.59909 13.5667L7.7602 12.8945L8.06576 13.0778C8.24909 13.2 8.49353 13.2612 8.73798 13.3223L9.04353 13.4445L9.34909 14.7278Z" fill="url(#paint0_linear_2502_2382)"/>
<path d="M9.77817 12.4055C8.3115 12.4055 7.15039 11.2443 7.15039 9.77768C7.15039 8.31101 8.3115 7.1499 9.77817 7.1499C11.2448 7.1499 12.4059 8.31101 12.4059 9.77768C12.4059 11.2443 11.2448 12.4055 9.77817 12.4055ZM9.77817 8.37212C8.98372 8.37212 8.37261 8.98324 8.37261 9.77768C8.37261 10.5721 8.98372 11.1832 9.77817 11.1832C10.5726 11.1832 11.1837 10.5721 11.1837 9.77768C11.1837 8.98324 10.5726 8.37212 9.77817 8.37212Z" fill="url(#paint1_linear_2502_2382)"/>
<path d="M9.77778 0C9.41111 0 9.16667 0.244444 9.16667 0.611111C9.16667 0.977778 9.41111 1.22222 9.77778 1.22222C14.4833 1.22222 18.3333 5.07222 18.3333 9.77778C18.3333 14.4833 14.4833 18.3333 9.77778 18.3333C5.07222 18.3333 1.22222 14.4833 1.22222 9.77778C1.22222 8.06667 1.71111 6.41667 2.68889 5.01111V5.74444C2.68889 6.11111 2.93333 6.35556 3.3 6.35556C3.66667 6.35556 3.91111 6.11111 3.91111 5.74444V2.68889H0.855556C0.488889 2.68889 0.244445 2.93333 0.244445 3.3C0.244445 3.66667 0.488889 3.91111 0.855556 3.91111H1.95556C0.672222 5.56111 0 7.63889 0 9.77778C0 15.1556 4.4 19.5556 9.77778 19.5556C15.1556 19.5556 19.5556 15.1556 19.5556 9.77778C19.5556 4.4 15.1556 0 9.77778 0Z" fill="url(#paint2_linear_2502_2382)"/>
<defs>
<linearGradient id="paint0_linear_2502_2382" x1="9.80742" y1="3.30005" x2="9.80742" y2="15.95" gradientUnits="userSpaceOnUse">
<stop stop-color="#FF5C00"/>
<stop offset="1" stop-color="#FF006B"/>
</linearGradient>
<linearGradient id="paint1_linear_2502_2382" x1="9.77817" y1="7.1499" x2="9.77817" y2="12.4055" gradientUnits="userSpaceOnUse">
<stop stop-color="#FF5C00"/>
<stop offset="1" stop-color="#FF006B"/>
</linearGradient>
<linearGradient id="paint2_linear_2502_2382" x1="9.77778" y1="0" x2="9.77778" y2="19.5556" gradientUnits="userSpaceOnUse">
<stop stop-color="#FF5C00"/>
<stop offset="1" stop-color="#FF006B"/>
</linearGradient>
</defs>
</svg>
