<svg width="22" height="20" viewBox="0 0 22 20" fill="none" xmlns="http://www.w3.org/2000/svg">
<path fill-rule="evenodd" clip-rule="evenodd" d="M8.694 0H12.806C14.644 0 16.1 1.19209e-07 17.239 0.153C18.411 0.311 19.36 0.643 20.109 1.391C20.857 2.14 21.189 3.089 21.347 4.261C21.5 5.401 21.5 6.856 21.5 8.694V10.75C21.5 10.9489 21.421 11.1397 21.2803 11.2803C21.1397 11.421 20.9489 11.5 20.75 11.5C20.5511 11.5 20.3603 11.421 20.2197 11.2803C20.079 11.1397 20 10.9489 20 10.75V10.5H1.5V10.75C1.5 12.657 1.502 14.012 1.64 15.04C1.775 16.045 2.029 16.625 2.452 17.048C2.875 17.471 3.455 17.725 4.461 17.86C5.489 17.998 6.843 18 8.75 18H11.75C11.9489 18 12.1397 18.079 12.2803 18.2197C12.421 18.3603 12.5 18.5511 12.5 18.75C12.5 18.9489 12.421 19.1397 12.2803 19.2803C12.1397 19.421 11.9489 19.5 11.75 19.5H8.694C6.856 19.5 5.4 19.5 4.261 19.347C3.089 19.189 2.14 18.857 1.391 18.109C0.643 17.36 0.311 16.411 0.153 15.239C0 14.099 0 12.644 0 10.806V8.694C0 6.856 0 5.4 0.153 4.261C0.311 3.089 0.643 2.14 1.391 1.391C2.14 0.643 3.089 0.311 4.261 0.153C5.401 1.19209e-07 6.856 0 8.694 0ZM1.5 9H20V8.75C20 6.843 19.998 5.489 19.86 4.46C19.725 3.455 19.471 2.875 19.048 2.452C18.625 2.029 18.045 1.775 17.039 1.64C16.012 1.502 14.657 1.5 12.75 1.5H8.75C6.843 1.5 5.489 1.502 4.46 1.64C3.455 1.775 2.875 2.029 2.452 2.452C2.029 2.875 1.775 3.455 1.64 4.461C1.502 5.489 1.5 6.843 1.5 8.75V9ZM4.75 3.5C4.94891 3.5 5.13968 3.57902 5.28033 3.71967C5.42098 3.86032 5.5 4.05109 5.5 4.25V6.25C5.5 6.44891 5.42098 6.63968 5.28033 6.78033C5.13968 6.92098 4.94891 7 4.75 7C4.55109 7 4.36032 6.92098 4.21967 6.78033C4.07902 6.63968 4 6.44891 4 6.25V4.25C4 4.05109 4.07902 3.86032 4.21967 3.71967C4.36032 3.57902 4.55109 3.5 4.75 3.5ZM7.75 3.5C7.94891 3.5 8.13968 3.57902 8.28033 3.71967C8.42098 3.86032 8.5 4.05109 8.5 4.25V6.25C8.5 6.44891 8.42098 6.63968 8.28033 6.78033C8.13968 6.92098 7.94891 7 7.75 7C7.55109 7 7.36032 6.92098 7.21967 6.78033C7.07902 6.63968 7 6.44891 7 6.25V4.25C7 4.05109 7.07902 3.86032 7.21967 3.71967C7.36032 3.57902 7.55109 3.5 7.75 3.5ZM11.5 5.25C11.5 5.05109 11.579 4.86032 11.7197 4.71967C11.8603 4.57902 12.0511 4.5 12.25 4.5H16.75C16.9489 4.5 17.1397 4.57902 17.2803 4.71967C17.421 4.86032 17.5 5.05109 17.5 5.25C17.5 5.44891 17.421 5.63968 17.2803 5.78033C17.1397 5.92098 16.9489 6 16.75 6H12.25C12.0511 6 11.8603 5.92098 11.7197 5.78033C11.579 5.63968 11.5 5.44891 11.5 5.25ZM17.417 13.5C16.767 13.5 16.167 14.071 16.167 14.868C16.167 14.923 16.17 14.977 16.175 15.03C16.295 15.086 16.41 15.153 16.517 15.23C16.6718 15.3478 16.7747 15.5211 16.8042 15.7134C16.8336 15.9057 16.7871 16.1019 16.6746 16.2606C16.5621 16.4192 16.3924 16.528 16.2012 16.5639C16.01 16.5998 15.8124 16.5601 15.65 16.453C15.5331 16.3697 15.3935 16.3243 15.25 16.323C14.876 16.323 14.5 16.658 14.5 17.162C14.5 17.666 14.876 18 15.25 18H18.75C19.4 18 20 17.429 20 16.632C20 16.008 19.623 15.509 19.146 15.335C18.8876 15.24 18.6037 15.2411 18.346 15.338C18.1597 15.4078 17.9533 15.4006 17.7722 15.3182C17.5912 15.2358 17.4503 15.0848 17.3805 14.8985C17.3107 14.7122 17.3179 14.5058 17.4003 14.3247C17.4827 14.1437 17.6337 14.0028 17.82 13.933C17.949 13.885 18.081 13.846 18.218 13.819C18 13.6167 17.7144 13.503 17.417 13.5ZM20.071 14.116C19.759 12.92 18.714 12 17.417 12C15.858 12 14.667 13.325 14.667 14.868V14.902C13.685 15.172 13 16.109 13 17.162C13 18.412 13.967 19.5 15.25 19.5H18.75C20.309 19.5 21.5 18.175 21.5 16.632C21.5 15.563 20.936 14.61 20.071 14.116ZM4.75 12.5C4.94891 12.5 5.13968 12.579 5.28033 12.7197C5.42098 12.8603 5.5 13.0511 5.5 13.25V15.25C5.5 15.4489 5.42098 15.6397 5.28033 15.7803C5.13968 15.921 4.94891 16 4.75 16C4.55109 16 4.36032 15.921 4.21967 15.7803C4.07902 15.6397 4 15.4489 4 15.25V13.25C4 13.0511 4.07902 12.8603 4.21967 12.7197C4.36032 12.579 4.55109 12.5 4.75 12.5ZM7.75 12.5C7.94891 12.5 8.13968 12.579 8.28033 12.7197C8.42098 12.8603 8.5 13.0511 8.5 13.25V15.25C8.5 15.4489 8.42098 15.6397 8.28033 15.7803C8.13968 15.921 7.94891 16 7.75 16C7.55109 16 7.36032 15.921 7.21967 15.7803C7.07902 15.6397 7 15.4489 7 15.25V13.25C7 13.0511 7.07902 12.8603 7.21967 12.7197C7.36032 12.579 7.55109 12.5 7.75 12.5Z" fill="url(#paint0_linear_2502_2381)"/>
<defs>
<linearGradient id="paint0_linear_2502_2381" x1="10.75" y1="0" x2="10.75" y2="19.5" gradientUnits="userSpaceOnUse">
<stop stop-color="#FF5C00"/>
<stop offset="1" stop-color="#FF006B"/>
</linearGradient>
</defs>
</svg>
