<svg width="19" height="19" viewBox="0 0 19 19" fill="none" xmlns="http://www.w3.org/2000/svg">
<path d="M13.5714 11.9429L19 17.3714L17.3714 19L11.9429 13.5714V12.7137L11.6497 12.4097C10.3729 13.5105 8.74293 14.1155 7.05714 14.1143C5.18547 14.1143 3.39046 13.3708 2.06699 12.0473C0.743518 10.7238 0 8.92881 0 7.05714C0 5.18547 0.743518 3.39046 2.06699 2.06699C3.39046 0.743518 5.18547 0 7.05714 0C8.92881 0 10.7238 0.743518 12.0473 2.06699C13.3708 3.39046 14.1143 5.18547 14.1143 7.05714C14.1143 8.80514 13.4737 10.412 12.4097 11.6497L12.7137 11.9429H13.5714ZM7.05714 1.62857L6.46 1.66114C6.19943 2.22571 5.79771 3.18114 5.50457 4.34286H8.60972C8.31657 3.18114 7.91486 2.22571 7.65429 1.66114C7.45886 1.62857 7.26343 1.62857 7.05714 1.62857ZM11.7583 4.34286C11.1126 3.21328 10.0786 2.35672 8.84857 1.93257C9.10914 2.508 9.44572 3.344 9.69543 4.34286H11.7583ZM2.356 4.34286H4.41886C4.66857 3.344 5.00514 2.508 5.26571 1.93257C4.0357 2.35672 3.00167 3.21328 2.356 4.34286ZM1.62857 7.05714C1.62857 7.6 1.71543 8.17543 1.87829 8.68571H4.20171L4.07143 7.05714L4.20171 5.42857H1.87829C1.71543 5.93886 1.62857 6.51429 1.62857 7.05714ZM12.236 8.68571C12.3989 8.17543 12.4857 7.6 12.4857 7.05714C12.4857 6.51429 12.3989 5.93886 12.236 5.42857H9.91257C10.0855 6.5074 10.0855 7.60688 9.91257 8.68571H12.236ZM5.28743 5.42857L5.15714 7.05714L5.28743 8.68571H8.82686C8.99974 7.60688 8.99974 6.5074 8.82686 5.42857H5.28743ZM7.05714 12.4857C7.25257 12.4857 7.448 12.4857 7.63257 12.4531C7.904 11.8886 8.31657 10.9331 8.60972 9.77143H5.50457C5.79771 10.9331 6.21029 11.8886 6.48171 12.4531L7.05714 12.4857ZM11.7583 9.77143H9.69543C9.44572 10.7703 9.10914 11.6063 8.84857 12.1817C10.0786 11.7576 11.1126 10.901 11.7583 9.77143ZM2.356 9.77143C3.00167 10.901 4.0357 11.7576 5.26571 12.1817C5.00514 11.6063 4.66857 10.7703 4.41886 9.77143H2.356Z" fill="url(#paint0_linear_2502_2380)"/>
<defs>
<linearGradient id="paint0_linear_2502_2380" x1="9.5" y1="0" x2="9.5" y2="19" gradientUnits="userSpaceOnUse">
<stop stop-color="#FF5C00"/>
<stop offset="1" stop-color="#FF006B"/>
</linearGradient>
</defs>
</svg>
