<svg width="50" height="50" viewBox="0 0 67 47" fill="none" xmlns="http://www.w3.org/2000/svg">
<path d="M62.5213 0.56543H4.13004C1.89192 0.56543 0.0756836 2.38167 0.0756836 4.61978V42.346C0.0756836 44.5841 1.89192 46.4004 4.13004 46.4004H62.5213C64.7594 46.4004 66.5757 44.5841 66.5757 42.346V4.61978C66.5757 2.38167 64.7594 0.56543 62.5213 0.56543ZM2.22084 4.61978C2.22084 3.56866 3.07891 2.71059 4.13004 2.71059H62.5213C63.5725 2.71059 64.4305 3.56866 64.4305 4.61978V8.98161H2.22084V4.61978ZM64.4305 42.346C64.4305 43.3971 63.5725 44.2552 62.5213 44.2552H4.13004C3.07891 44.2552 2.22084 43.3971 2.22084 42.346V11.1268H64.4305V42.346Z" fill="url(#paint0_linear)"/>
<path d="M6.21746 4.86255C5.63827 4.86255 5.15918 5.34164 5.15918 5.92083C5.15918 6.50002 5.63827 6.97911 6.21746 6.97911C6.79665 6.97911 7.27574 6.50002 7.27574 5.92083C7.27574 5.33449 6.8038 4.86255 6.21746 4.86255Z" fill="url(#paint1_linear)"/>
<path d="M10.0231 6.97911C10.6076 6.97911 11.0814 6.5053 11.0814 5.92083C11.0814 5.33636 10.6076 4.86255 10.0231 4.86255C9.43865 4.86255 8.96484 5.33636 8.96484 5.92083C8.96484 6.5053 9.43865 6.97911 10.0231 6.97911Z" fill="url(#paint2_linear)"/>
<path d="M13.819 6.97911C14.4035 6.97911 14.8773 6.5053 14.8773 5.92083C14.8773 5.33636 14.4035 4.86255 13.819 4.86255C13.2345 4.86255 12.7607 5.33636 12.7607 5.92083C12.7607 6.5053 13.2345 6.97911 13.819 6.97911Z" fill="url(#paint3_linear)"/>
<path d="M9.65645 34.1366H22.4488C24.7298 34.1366 26.5818 32.2846 26.5818 30.0036V28.9453H31.9947V38.9561H40.0677V39.0705C40.0677 40.7365 41.4191 42.088 43.0852 42.088H58.1085C59.7746 42.088 61.126 40.7365 61.126 39.0705V36.6965C61.126 35.0304 59.7746 33.679 58.1085 33.679H43.0852C41.4191 33.679 40.0677 35.0304 40.0677 36.6965V36.8109H34.1399V28.9453H40.0677V29.0597C40.0677 30.7258 41.4191 32.0772 43.0852 32.0772H58.1085C59.7746 32.0772 61.126 30.7258 61.126 29.0597V26.6857C61.126 25.0197 59.7746 23.6682 58.1085 23.6682H43.0852C41.4191 23.6682 40.0677 25.0197 40.0677 26.6857V26.8002H34.1399V18.9346H40.0677V19.049C40.0677 20.715 41.4191 22.0665 43.0852 22.0665H58.1085C59.7746 22.0665 61.126 20.715 61.126 19.049V16.675C61.126 15.0089 59.7746 13.6575 58.1085 13.6575H43.0852C41.4191 13.6575 40.0677 15.0089 40.0677 16.675V16.7894H31.9947V26.8002H26.5818V25.7419C26.5818 23.4609 24.7298 21.6089 22.4488 21.6089H9.65645C7.37543 21.6089 5.52344 23.4609 5.52344 25.7419V30.0036C5.52344 32.2846 7.38258 34.1366 9.65645 34.1366ZM42.2128 36.7036C42.2128 36.2246 42.6061 35.8313 43.0852 35.8313H58.1085C58.5876 35.8313 58.9809 36.2246 58.9809 36.7036V39.0776C58.9809 39.5567 58.5876 39.95 58.1085 39.95H43.0852C42.6061 39.95 42.2128 39.5567 42.2128 39.0776V36.7036ZM42.2128 26.6929C42.2128 26.2138 42.6061 25.8205 43.0852 25.8205H58.1085C58.5876 25.8205 58.9809 26.2138 58.9809 26.6929V29.0669C58.9809 29.546 58.5876 29.9392 58.1085 29.9392H43.0852C42.6061 29.9392 42.2128 29.546 42.2128 29.0669V26.6929ZM42.2128 16.6821C42.2128 16.2031 42.6061 15.8098 43.0852 15.8098H58.1085C58.5876 15.8098 58.9809 16.2031 58.9809 16.6821V19.0561C58.9809 19.5352 58.5876 19.9285 58.1085 19.9285H43.0852C42.6061 19.9285 42.2128 19.5352 42.2128 19.0561V16.6821ZM7.6686 25.749C7.6686 24.655 8.56242 23.7612 9.65645 23.7612H22.4488C23.5428 23.7612 24.4366 24.655 24.4366 25.749V30.0107C24.4366 31.1048 23.5428 31.9986 22.4488 31.9986H9.65645C8.56242 31.9986 7.6686 31.1048 7.6686 30.0107V25.749Z" fill="url(#paint4_linear)"/>
<defs>
<linearGradient id="paint0_linear" x1="109.996" y1="-50.7262" x2="-40.01" y2="-33.3886" gradientUnits="userSpaceOnUse">
<stop offset="0.15625" stop-color="#7000FF"/>
<stop offset="0.651042" stop-color="#00B2FF"/>
<stop offset="1" stop-color="#00D0DD"/>
</linearGradient>
<linearGradient id="paint1_linear" x1="8.65773" y1="2.49401" x2="3.85007" y2="2.877" gradientUnits="userSpaceOnUse">
<stop offset="0.15625" stop-color="#7000FF"/>
<stop offset="0.651042" stop-color="#00B2FF"/>
<stop offset="1" stop-color="#00D0DD"/>
</linearGradient>
<linearGradient id="paint2_linear" x1="12.4634" y1="2.49401" x2="7.65573" y2="2.877" gradientUnits="userSpaceOnUse">
<stop offset="0.15625" stop-color="#7000FF"/>
<stop offset="0.651042" stop-color="#00B2FF"/>
<stop offset="1" stop-color="#00D0DD"/>
</linearGradient>
<linearGradient id="paint3_linear" x1="16.2593" y1="2.49401" x2="11.4516" y2="2.877" gradientUnits="userSpaceOnUse">
<stop offset="0.15625" stop-color="#7000FF"/>
<stop offset="0.651042" stop-color="#00B2FF"/>
<stop offset="1" stop-color="#00D0DD"/>
</linearGradient>
<linearGradient id="paint4_linear" x1="97.4312" y1="-18.1577" x2="-26.6568" y2="1.17506" gradientUnits="userSpaceOnUse">
<stop offset="0.15625" stop-color="#7000FF"/>
<stop offset="0.651042" stop-color="#00B2FF"/>
<stop offset="1" stop-color="#00D0DD"/>
</linearGradient>
</defs>
</svg>
