<svg width="50" height="50" viewBox="0 0 57 66" fill="none" xmlns="http://www.w3.org/2000/svg">
<path d="M28.5139 30.7318C33.4559 30.7318 37.4809 26.7069 37.4809 21.7649C37.4809 16.8229 33.4559 12.7979 28.5139 12.7979C23.5719 12.7979 19.5469 16.8229 19.5469 21.7649C19.5469 26.7069 23.5719 30.7318 28.5139 30.7318ZM28.5139 14.8909C32.3009 14.8909 35.3809 17.9709 35.3809 21.7578C35.3809 25.5448 32.3009 28.6249 28.5139 28.6249C24.7269 28.6249 21.6469 25.5448 21.6469 21.7578C21.6469 17.9709 24.7269 14.8909 28.5139 14.8909Z" fill="url(#paint0_linear)"/>
<path d="M49.8081 20.4419V16.6969H44.9431C44.6281 15.6749 44.2151 14.6809 43.7111 13.7289L47.1551 10.2849L39.9941 3.13095L36.5501 6.57495C35.5981 6.07095 34.6041 5.65795 33.5821 5.34295V0.470947H23.4531V5.33595C22.4311 5.65095 21.4371 6.06395 20.4851 6.56795L17.0411 3.12395L9.88009 10.2849L13.3241 13.7289C12.8201 14.6809 12.4071 15.6749 12.0921 16.6969H7.22709V20.4419H0.913086V58.1299H24.3211V63.4289H18.4831C17.9021 63.4289 17.4331 63.8979 17.4331 64.479C17.4331 65.0599 17.9021 65.5289 18.4831 65.5289H38.7201C39.3011 65.5289 39.7701 65.0599 39.7701 64.479C39.7701 63.8979 39.3011 63.4289 38.7201 63.4289H32.8821V58.1299H56.2901V20.4419H49.8081ZM9.32709 18.8039H13.7021L13.9051 18.0129C14.2551 16.6409 14.8081 15.3179 15.5361 14.0859L15.9491 13.3859L12.8481 10.2849L17.0341 6.09895L20.1351 9.19995L20.8351 8.78695C22.0671 8.05895 23.3901 7.50595 24.7621 7.15595L25.5531 6.95295V2.57095H31.4751V6.94595L32.2661 7.14895C33.6381 7.49895 34.9611 8.05195 36.1931 8.77995L36.8931 9.19295L39.9941 6.09195L44.1801 10.2779L41.0791 13.3789L41.4921 14.0789C42.2201 15.3109 42.7731 16.6339 43.1231 18.0059L43.3261 18.7969H47.7011V24.7189H43.3261L43.1231 25.5099C42.7731 26.8819 42.2201 28.2049 41.4921 29.4369L41.0791 30.1369L44.1801 33.2379L39.9941 37.4239L36.8931 34.3229L36.1931 34.7359C34.9611 35.4639 33.6381 36.0169 32.2661 36.3669L31.4751 36.5699V40.9449H25.5531V36.5699L24.7621 36.3669C23.3901 36.0169 22.0671 35.4639 20.8351 34.7359L20.1351 34.3229L17.0341 37.4239L12.8481 33.2379L15.9491 30.1369L15.5361 29.4369C14.8081 28.2049 14.2551 26.8819 13.9051 25.5099L13.7021 24.7189H9.32709V18.8039ZM30.7751 63.4289H26.4141V58.1299H30.7751V63.4289ZM54.1831 56.0299H3.00609V52.0049H54.1831V56.0299ZM3.00609 49.9049V22.5419H7.22009V26.8189H12.0851C12.4001 27.8409 12.8131 28.8349 13.3171 29.7869L9.87309 33.2309L17.0341 40.3849L20.4781 36.9409C21.4301 37.445 22.4241 37.8579 23.4461 38.1729V43.0379H33.5681V38.1729C34.5901 37.8579 35.5841 37.445 36.5361 36.9409L39.9801 40.3849L47.1411 33.2309L43.6971 29.7869C44.2011 28.8349 44.6141 27.8409 44.9291 26.8189H49.7941V22.5419H54.1761V49.8979H3.00609V49.9049Z" fill="url(#paint1_linear)"/>
<defs>
<linearGradient id="paint0_linear" x1="49.1907" y1="-7.27118" x2="8.4545" y2="-4.02603" gradientUnits="userSpaceOnUse">
<stop offset="0.15625" stop-color="#7000FF"/>
<stop offset="0.651042" stop-color="#00B2FF"/>
<stop offset="1" stop-color="#00D0DD"/>
</linearGradient>
<linearGradient id="paint1_linear" x1="92.448" y1="-72.3322" x2="-33.5571" y2="-63.788" gradientUnits="userSpaceOnUse">
<stop offset="0.15625" stop-color="#7000FF"/>
<stop offset="0.651042" stop-color="#00B2FF"/>
<stop offset="1" stop-color="#00D0DD"/>
</linearGradient>
</defs>
</svg>
