<svg width="50" height="50" viewBox="0 0 67 46" fill="none" xmlns="http://www.w3.org/2000/svg">
<path d="M62.0812 0.564941H4.9192C2.7282 0.564941 0.950195 2.34294 0.950195 4.53394V41.4659C0.950195 43.6569 2.7282 45.4349 4.9192 45.4349H62.0812C64.2722 45.4349 66.0502 43.6569 66.0502 41.4659V4.53394C66.0502 2.34294 64.2722 0.564941 62.0812 0.564941ZM3.0502 4.53394C3.0502 3.50494 3.8902 2.66494 4.9192 2.66494H62.0812C63.1102 2.66494 63.9502 3.50494 63.9502 4.53394V8.80394H3.0502V4.53394ZM63.9502 41.4659C63.9502 42.4949 63.1102 43.3349 62.0812 43.3349H4.9192C3.8902 43.3349 3.0502 42.4949 3.0502 41.4659V10.9039H63.9502V41.4659Z" fill="url(#paint0_linear)"/>
<path d="M6.96276 4.77197C6.39576 4.77197 5.92676 5.24097 5.92676 5.80797C5.92676 6.37497 6.39576 6.84397 6.96276 6.84397C7.52976 6.84397 7.99876 6.37497 7.99876 5.80797C7.99876 5.23397 7.53676 4.77197 6.96276 4.77197Z" fill="url(#paint1_linear)"/>
<path d="M10.6874 6.84397C11.2595 6.84397 11.7234 6.38014 11.7234 5.80797C11.7234 5.23581 11.2595 4.77197 10.6874 4.77197C10.1152 4.77197 9.65137 5.23581 9.65137 5.80797C9.65137 6.38014 10.1152 6.84397 10.6874 6.84397Z" fill="url(#paint2_linear)"/>
<path d="M14.4042 6.84397C14.9763 6.84397 15.4402 6.38014 15.4402 5.80797C15.4402 5.23581 14.9763 4.77197 14.4042 4.77197C13.832 4.77197 13.3682 5.23581 13.3682 5.80797C13.3682 6.38014 13.832 6.84397 14.4042 6.84397Z" fill="url(#paint3_linear)"/>
<path d="M33.2552 25.8208C33.1292 25.8208 33.0102 25.8488 32.8982 25.8908C32.8702 25.8978 32.8422 25.9118 32.8142 25.9258C32.7022 25.9748 32.5972 26.0378 32.5062 26.1288C32.4152 26.2198 32.3522 26.3248 32.3032 26.4368C32.2892 26.4648 32.2752 26.4928 32.2682 26.5208C32.2262 26.6328 32.1982 26.7518 32.1982 26.8708V26.8778C32.1982 26.9688 32.2122 27.0528 32.2332 27.1438L35.0612 37.6928C35.1872 38.1618 35.6142 38.4698 36.0762 38.4698C36.1672 38.4698 36.2582 38.4558 36.3492 38.4348C36.9092 38.2878 37.2382 37.7068 37.0912 37.1468L35.2782 30.3848L43.4962 38.6028C43.6992 38.8058 43.9722 38.9108 44.2382 38.9108C44.5042 38.9108 44.7772 38.8058 44.9802 38.6028C45.3932 38.1898 45.3932 37.5248 44.9802 37.1188L36.7622 28.9008L43.5242 30.7138C44.0842 30.8678 44.6582 30.5318 44.8122 29.9718C44.9592 29.4118 44.6302 28.8378 44.0702 28.6838L33.5212 25.8558C33.4372 25.8348 33.3462 25.8208 33.2552 25.8208Z" fill="url(#paint4_linear)"/>
<path d="M33.2482 21.0539C33.8292 21.0539 34.2982 20.5849 34.2982 20.0039V16.3779C34.2982 15.7969 33.8292 15.3279 33.2482 15.3279C32.6672 15.3279 32.1982 15.7969 32.1982 16.3779V20.0039C32.1982 20.5849 32.6672 21.0539 33.2482 21.0539Z" fill="url(#paint5_linear)"/>
<path d="M22.7551 27.9208H26.3811C26.9621 27.9208 27.4311 27.4518 27.4311 26.8708C27.4311 26.2898 26.9621 25.8208 26.3811 25.8208H22.7551C22.1741 25.8208 21.7051 26.2898 21.7051 26.8708C21.7051 27.4518 22.1811 27.9208 22.7551 27.9208Z" fill="url(#paint6_linear)"/>
<path d="M27.655 30.98L25.093 33.542C24.68 33.955 24.68 34.62 25.093 35.026C25.296 35.229 25.569 35.334 25.835 35.334C26.101 35.334 26.374 35.229 26.577 35.026L29.139 32.464C29.552 32.051 29.552 31.386 29.139 30.98C28.726 30.574 28.061 30.574 27.655 30.98Z" fill="url(#paint7_linear)"/>
<path d="M38.1064 23.07C38.3724 23.07 38.6454 22.965 38.8484 22.762L41.4104 20.2C41.8234 19.787 41.8234 19.122 41.4104 18.716C40.9974 18.303 40.3324 18.303 39.9264 18.716L37.3644 21.278C36.9514 21.691 36.9514 22.356 37.3644 22.762C37.5674 22.965 37.8334 23.07 38.1064 23.07Z" fill="url(#paint8_linear)"/>
<path d="M27.655 22.762C27.858 22.965 28.131 23.07 28.397 23.07C28.663 23.07 28.936 22.965 29.139 22.762C29.552 22.349 29.552 21.684 29.139 21.278L26.577 18.716C26.164 18.303 25.499 18.303 25.093 18.716C24.68 19.129 24.68 19.794 25.093 20.2L27.655 22.762Z" fill="url(#paint9_linear)"/>
<defs>
<linearGradient id="paint0_linear" x1="108.557" y1="-49.6468" x2="-38.2916" y2="-32.6743" gradientUnits="userSpaceOnUse">
<stop offset="0.15625" stop-color="#7000FF"/>
<stop offset="0.651042" stop-color="#00B2FF"/>
<stop offset="1" stop-color="#00D0DD"/>
</linearGradient>
<linearGradient id="paint1_linear" x1="9.35165" y1="2.4533" x2="4.6452" y2="2.82823" gradientUnits="userSpaceOnUse">
<stop offset="0.15625" stop-color="#7000FF"/>
<stop offset="0.651042" stop-color="#00B2FF"/>
<stop offset="1" stop-color="#00D0DD"/>
</linearGradient>
<linearGradient id="paint2_linear" x1="13.0763" y1="2.4533" x2="8.36981" y2="2.82823" gradientUnits="userSpaceOnUse">
<stop offset="0.15625" stop-color="#7000FF"/>
<stop offset="0.651042" stop-color="#00B2FF"/>
<stop offset="1" stop-color="#00D0DD"/>
</linearGradient>
<linearGradient id="paint3_linear" x1="16.7931" y1="2.4533" x2="12.0866" y2="2.82823" gradientUnits="userSpaceOnUse">
<stop offset="0.15625" stop-color="#7000FF"/>
<stop offset="0.651042" stop-color="#00B2FF"/>
<stop offset="1" stop-color="#00D0DD"/>
</linearGradient>
<linearGradient id="paint4_linear" x1="53.8381" y1="11.1724" x2="24.1009" y2="13.5417" gradientUnits="userSpaceOnUse">
<stop offset="0.15625" stop-color="#7000FF"/>
<stop offset="0.651042" stop-color="#00B2FF"/>
<stop offset="1" stop-color="#00D0DD"/>
</linearGradient>
<linearGradient id="paint5_linear" x1="35.6694" y1="8.9202" x2="30.8732" y2="9.06033" gradientUnits="userSpaceOnUse">
<stop offset="0.15625" stop-color="#7000FF"/>
<stop offset="0.651042" stop-color="#00B2FF"/>
<stop offset="1" stop-color="#00D0DD"/>
</linearGradient>
<linearGradient id="paint6_linear" x1="31.1698" y1="23.4708" x2="18.6707" y2="26.1858" gradientUnits="userSpaceOnUse">
<stop offset="0.15625" stop-color="#7000FF"/>
<stop offset="0.651042" stop-color="#00B2FF"/>
<stop offset="1" stop-color="#00D0DD"/>
</linearGradient>
<linearGradient id="paint7_linear" x1="32.495" y1="25.4624" x2="21.8977" y2="26.3079" gradientUnits="userSpaceOnUse">
<stop offset="0.15625" stop-color="#7000FF"/>
<stop offset="0.651042" stop-color="#00B2FF"/>
<stop offset="1" stop-color="#00D0DD"/>
</linearGradient>
<linearGradient id="paint8_linear" x1="44.7665" y1="13.1873" x2="34.1691" y2="14.0318" gradientUnits="userSpaceOnUse">
<stop offset="0.15625" stop-color="#7000FF"/>
<stop offset="0.651042" stop-color="#00B2FF"/>
<stop offset="1" stop-color="#00D0DD"/>
</linearGradient>
<linearGradient id="paint9_linear" x1="32.495" y1="13.1873" x2="21.8976" y2="14.0318" gradientUnits="userSpaceOnUse">
<stop offset="0.15625" stop-color="#7000FF"/>
<stop offset="0.651042" stop-color="#00B2FF"/>
<stop offset="1" stop-color="#00D0DD"/>
</linearGradient>
</defs>
</svg>
