<svg width="50" height="50" viewBox="0 0 44 63" fill="none" xmlns="http://www.w3.org/2000/svg">
<path d="M39.43 32.8975C38.758 32.8975 38.128 33.0653 37.582 33.3673C37.078 31.9577 35.685 30.9375 34.04 30.9375C33.97 30.9375 33.907 30.9442 33.844 30.9442V4.41704C33.844 2.17512 31.94 0.349365 29.602 0.349365H5.07403C2.73603 0.349365 0.832031 2.17512 0.832031 4.41704V51.9001C0.832031 54.142 2.73603 55.9677 5.07403 55.9677H16.232C18.766 60.0354 23.386 62.774 28.671 62.774C36.665 62.774 43.161 56.5383 43.161 48.8795V36.4818C43.168 34.5017 41.488 32.8975 39.43 32.8975ZM5.07403 53.954C3.89103 53.954 2.93203 53.0344 2.93203 51.9001V4.41704C2.93203 3.28265 3.89103 2.36306 5.07403 2.36306H29.602C30.785 2.36306 31.744 3.28265 31.744 4.41704V31.6959C31.604 31.7966 31.478 31.904 31.352 32.0248C30.673 31.3469 29.721 30.9307 28.664 30.9307C28.076 30.9307 27.523 31.0583 27.026 31.2932V18.3317C27.026 16.3583 25.346 14.7473 23.288 14.7473C21.23 14.7473 19.55 16.3583 19.55 18.3317V32.7632C19.053 32.5283 18.5 32.4007 17.912 32.4007H15.224C14.643 32.4007 14.174 32.8505 14.174 33.4076V48.8795C14.174 50.6717 14.545 52.3833 15.189 53.954H5.07403ZM41.068 48.8795C41.068 55.4307 35.51 60.7603 28.678 60.7603C21.846 60.7603 16.288 55.4307 16.288 48.8795V34.4212H17.926C18.829 34.4212 19.564 35.1259 19.564 35.9918V36.0657V44.6172C19.564 45.1743 20.033 45.624 20.614 45.624C21.195 45.624 21.664 45.1743 21.664 44.6172V36.0657V35.9918V18.3384C21.664 17.4725 22.399 16.7677 23.302 16.7677C24.205 16.7677 24.94 17.4725 24.94 18.3384V34.5151C24.94 34.6427 24.968 34.7702 25.017 34.8843V38.7573C25.017 39.3144 25.486 39.7642 26.067 39.7642C26.648 39.7642 27.117 39.3144 27.117 38.7573V34.5151C27.117 34.4144 27.096 34.3272 27.068 34.2332C27.208 33.5016 27.873 32.9444 28.678 32.9444C29.581 32.9444 30.316 33.6492 30.316 34.5151V38.7573C30.316 39.3144 30.785 39.7642 31.366 39.7642C31.947 39.7642 32.416 39.3144 32.416 38.7573V34.5151C32.416 33.6492 33.151 32.9444 34.054 32.9444C34.957 32.9444 35.692 33.6492 35.692 34.5151V38.5559C35.692 38.5828 35.699 38.6096 35.699 38.6365V38.764C35.699 39.3212 36.168 39.7709 36.749 39.7709C37.33 39.7709 37.799 39.3212 37.799 38.764V38.5962C37.799 38.5895 37.799 38.5828 37.799 38.5761V36.4885C37.799 35.6227 38.534 34.9179 39.437 34.9179C40.34 34.9179 41.075 35.6227 41.075 36.4885V48.8795H41.068Z" fill="url(#paint0_linear)"/>
<path d="M15.1887 7.16238H19.4867C20.0677 7.16238 20.5367 6.71265 20.5367 6.15553C20.5367 5.59841 20.0677 5.14868 19.4867 5.14868H15.1887C14.6077 5.14868 14.1387 5.59841 14.1387 6.15553C14.1387 6.71265 14.6077 7.16238 15.1887 7.16238Z" fill="url(#paint1_linear)"/>
<path d="M16.2248 26.9168V25.1582C16.2248 23.1177 14.4958 21.4597 12.3678 21.4597H10.5338C8.40576 21.4597 6.67676 23.1177 6.67676 25.1582V26.9168C6.67676 28.9574 8.40576 30.6153 10.5338 30.6153H12.3678C14.4958 30.622 16.2248 28.9574 16.2248 26.9168ZM14.1248 26.9168C14.1248 27.8499 13.3338 28.6016 12.3678 28.6016H10.5338C9.56076 28.6016 8.77676 27.8431 8.77676 26.9168V25.1582C8.77676 24.2252 9.56776 23.4734 10.5338 23.4734H12.3678C13.3408 23.4734 14.1248 24.2319 14.1248 25.1582V26.9168Z" fill="url(#paint2_linear)"/>
<path d="M18.4512 13.5659C18.4512 14.123 18.9202 14.5727 19.5012 14.5727C20.0822 14.5727 20.5512 14.123 20.5512 13.5659C20.5512 12.8007 21.1952 12.1831 21.9932 12.1831H24.4572C25.2552 12.1831 25.8992 12.8007 25.8992 13.5659C25.8992 14.123 26.3682 14.5727 26.9492 14.5727C27.5302 14.5727 27.9992 14.123 27.9992 13.5659C27.9992 11.6931 26.4102 10.1694 24.4572 10.1694H21.9932C20.0402 10.1694 18.4512 11.6931 18.4512 13.5659Z" fill="url(#paint3_linear)"/>
<path d="M10.5338 19.3319H12.3678C14.4958 19.3319 16.2248 17.6739 16.2248 15.6334V13.8748C16.2248 11.8342 14.4958 10.1763 12.3678 10.1763H10.5338C8.40576 10.1763 6.67676 11.8342 6.67676 13.8748V15.6334C6.67676 17.6739 8.40576 19.3319 10.5338 19.3319ZM8.77676 13.8748C8.77676 12.9417 9.56776 12.19 10.5338 12.19H12.3678C13.3408 12.19 14.1248 12.9485 14.1248 13.8748V15.6334C14.1248 16.5664 13.3338 17.3182 12.3678 17.3182H10.5338C9.56076 17.3182 8.77676 16.5597 8.77676 15.6334V13.8748Z" fill="url(#paint4_linear)"/>
<defs>
<linearGradient id="paint0_linear" x1="70.7994" y1="-69.5069" x2="-25.6776" y2="-64.2955" gradientUnits="userSpaceOnUse">
<stop offset="0.15625" stop-color="#7000FF"/>
<stop offset="0.651042" stop-color="#00B2FF"/>
<stop offset="1" stop-color="#00D0DD"/>
</linearGradient>
<linearGradient id="paint1_linear" x1="24.7142" y1="2.89526" x2="10.9697" y2="6.37407" gradientUnits="userSpaceOnUse">
<stop offset="0.15625" stop-color="#7000FF"/>
<stop offset="0.651042" stop-color="#00B2FF"/>
<stop offset="1" stop-color="#00D0DD"/>
</linearGradient>
<linearGradient id="paint2_linear" x1="22.459" y1="11.2141" x2="0.783185" y2="13.0149" gradientUnits="userSpaceOnUse">
<stop offset="0.15625" stop-color="#7000FF"/>
<stop offset="0.651042" stop-color="#00B2FF"/>
<stop offset="1" stop-color="#00D0DD"/>
</linearGradient>
<linearGradient id="paint3_linear" x1="34.2335" y1="5.24193" x2="13.0404" y2="8.90279" gradientUnits="userSpaceOnUse">
<stop offset="0.15625" stop-color="#7000FF"/>
<stop offset="0.651042" stop-color="#00B2FF"/>
<stop offset="1" stop-color="#00D0DD"/>
</linearGradient>
<linearGradient id="paint4_linear" x1="22.459" y1="-0.0693221" x2="0.783186" y2="1.73143" gradientUnits="userSpaceOnUse">
<stop offset="0.15625" stop-color="#7000FF"/>
<stop offset="0.651042" stop-color="#00B2FF"/>
<stop offset="1" stop-color="#00D0DD"/>
</linearGradient>
</defs>
</svg>
