<svg width="132" height="40" viewBox="0 0 132 40" fill="none" xmlns="http://www.w3.org/2000/svg">
<path d="M0 30.4315L7.76004 0.596704H17.4601L25.2202 30.4315H19.4845L17.8818 23.8679H7.3383L5.73568 30.4315H0ZM8.64568 18.6681H16.5744L12.9896 4.13426H12.2305L8.64568 18.6681Z" fill="url(#paint0_linear_2548_2885)"/>
<path d="M36.3552 30.7725C34.7315 30.7725 33.2976 30.389 32.0746 29.643C30.8515 28.8972 29.9026 27.853 29.2278 26.5104C28.553 25.1678 28.2156 23.6334 28.2156 21.9073V9.29144H33.5296V21.4811C33.5296 23.0794 33.9091 24.2728 34.6894 25.0613C35.4696 25.8498 36.5661 26.2546 38 26.2546C39.6238 26.2546 40.889 25.7006 41.7957 24.6138C42.7024 23.5269 43.1453 21.9926 43.1453 20.032V9.29144H48.4592V30.4315H43.2296V27.6612H42.4705C42.1331 28.3644 41.5005 29.0677 40.5726 29.7496C39.6448 30.4315 38.232 30.7725 36.3552 30.7725Z" fill="url(#paint1_linear_2548_2885)"/>
<path d="M62.8189 31.0282C61.153 31.0282 59.6137 30.602 58.1586 29.7709C56.7036 28.9398 55.5438 27.7038 54.6793 26.0842C53.8147 24.4646 53.3718 22.504 53.3718 20.2025V19.5205C53.3718 17.219 53.8147 15.2584 54.6793 13.6388C55.5438 12.0192 56.7036 10.7832 58.1375 9.95208C59.5714 9.12096 61.1319 8.69472 62.8189 8.69472C64.0841 8.69472 65.1385 8.84392 66.003 9.14224C66.8676 9.44064 67.5634 9.82416 68.0906 10.2717C68.6178 10.7192 69.0396 11.2094 69.3137 11.7208H70.0728V0.596704H75.3868V30.4315H70.1572V27.8742H69.3981C68.913 28.6628 68.175 29.3874 67.1839 30.0479C66.1928 30.6873 64.7378 31.0282 62.8189 31.0282ZM64.4215 26.3399C66.0452 26.3399 67.4158 25.8071 68.5124 24.7416C69.6089 23.6761 70.1572 22.1204 70.1572 20.0746V19.6484C70.1572 17.6026 69.6089 16.0469 68.5334 14.9814C67.458 13.9158 66.0874 13.383 64.4215 13.383C62.7978 13.383 61.4271 13.9158 60.3306 14.9814C59.2341 16.0469 58.6858 17.6026 58.6858 19.6484V20.0746C58.6858 22.1204 59.2341 23.6761 60.3306 24.7416C61.4271 25.8071 62.7978 26.3399 64.4215 26.3399Z" fill="url(#paint2_linear_2548_2885)"/>
<path d="M83.9048 6.81939C82.956 6.81939 82.1336 6.49974 81.48 5.88173C80.8264 5.26372 80.4888 4.43261 80.4888 3.4097C80.4888 2.38678 80.8264 1.55567 81.48 0.937664C82.1336 0.319659 82.956 0 83.9048 0C84.896 0 85.6976 0.319659 86.3512 0.937664C87.0048 1.55567 87.3216 2.38678 87.3216 3.4097C87.3216 4.43261 87.0048 5.26372 86.3512 5.88173C85.6976 6.49974 84.896 6.81939 83.9048 6.81939ZM81.248 30.4315V9.29144H86.5624V30.4315H81.248Z" fill="url(#paint3_linear_2548_2885)"/>
<path d="M100.438 30.4315C99.0672 30.4315 97.9496 30.0054 97.0848 29.1316C96.22 28.2578 95.7984 27.1071 95.7984 25.658V13.724H90.5688V9.29144H95.7984V2.72776H101.112V9.29144H106.848V13.724H101.112V24.7203C101.112 25.5727 101.513 25.999 102.293 25.999H106.342V30.4315H100.438Z" fill="url(#paint4_linear_2548_2885)"/>
<path d="M113.554 38.9558V34.2674H124.941C125.721 34.2674 126.122 33.8413 126.122 32.9888V27.6612H125.362C125.13 28.1513 124.794 28.6202 124.308 29.1103C123.823 29.6004 123.19 29.984 122.368 30.3037C121.546 30.6234 120.513 30.7725 119.247 30.7725C117.624 30.7725 116.19 30.389 114.966 29.643C113.744 28.8972 112.794 27.853 112.12 26.5104C111.446 25.1678 111.108 23.6334 111.108 21.9073V9.29144H116.422V21.4811C116.422 23.0794 116.802 24.2728 117.582 25.0613C118.362 25.8498 119.458 26.2546 120.892 26.2546C122.516 26.2546 123.781 25.7006 124.688 24.6138C125.594 23.5269 126.038 21.9926 126.038 20.032V9.29144H131.351V34.1822C131.351 35.6314 130.93 36.7821 130.086 37.6558C129.242 38.5296 128.125 38.9558 126.712 38.9558H113.554Z" fill="url(#paint5_linear_2548_2885)"/>
<path d="M12.6098 40C11.661 40 10.8386 39.6803 10.1849 39.0623C9.53112 38.4443 9.19376 37.6132 9.19376 36.5903C9.19376 35.5674 9.53112 34.7363 10.1849 34.1183C10.8386 33.5002 11.661 33.1806 12.6098 33.1806C13.601 33.1806 14.4022 33.5002 15.0559 34.1183C15.7097 34.7363 16.026 35.5674 16.026 36.5903C16.026 37.6132 15.7097 38.4443 15.0559 39.0623C14.4022 39.6803 13.5798 40 12.6098 40Z" fill="url(#paint6_linear_2548_2885)"/>
<defs>
<linearGradient id="paint0_linear_2548_2885" x1="131.351" y1="40" x2="0" y2="40" gradientUnits="userSpaceOnUse">
<stop stop-color="#FF5C00"/>
<stop offset="1" stop-color="#FF006B"/>
</linearGradient>
<linearGradient id="paint1_linear_2548_2885" x1="131.351" y1="40" x2="0" y2="40" gradientUnits="userSpaceOnUse">
<stop stop-color="#FF5C00"/>
<stop offset="1" stop-color="#FF006B"/>
</linearGradient>
<linearGradient id="paint2_linear_2548_2885" x1="131.351" y1="40" x2="0" y2="40" gradientUnits="userSpaceOnUse">
<stop stop-color="#FF5C00"/>
<stop offset="1" stop-color="#FF006B"/>
</linearGradient>
<linearGradient id="paint3_linear_2548_2885" x1="131.351" y1="40" x2="0" y2="40" gradientUnits="userSpaceOnUse">
<stop stop-color="#FF5C00"/>
<stop offset="1" stop-color="#FF006B"/>
</linearGradient>
<linearGradient id="paint4_linear_2548_2885" x1="131.351" y1="40" x2="0" y2="40" gradientUnits="userSpaceOnUse">
<stop stop-color="#FF5C00"/>
<stop offset="1" stop-color="#FF006B"/>
</linearGradient>
<linearGradient id="paint5_linear_2548_2885" x1="131.351" y1="40" x2="0" y2="40" gradientUnits="userSpaceOnUse">
<stop stop-color="#FF5C00"/>
<stop offset="1" stop-color="#FF006B"/>
</linearGradient>
<linearGradient id="paint6_linear_2548_2885" x1="131.351" y1="40" x2="0" y2="40" gradientUnits="userSpaceOnUse">
<stop stop-color="#FF5C00"/>
<stop offset="1" stop-color="#FF006B"/>
</linearGradient>
</defs>
</svg>
