<svg width="26" height="25" viewBox="0 0 26 25" fill="none" xmlns="http://www.w3.org/2000/svg">
<path d="M13 0.515625C6.31055 0.515625 0.890625 5.93555 0.890625 12.625C0.890625 19.3145 6.31055 24.7344 13 24.7344C19.6895 24.7344 25.1094 19.3145 25.1094 12.625C25.1094 5.93555 19.6895 0.515625 13 0.515625ZM13 22.3906C7.58008 22.3906 3.23438 18.0449 3.23438 12.625C3.23438 7.25391 7.58008 2.85938 13 2.85938C18.3711 2.85938 22.7656 7.25391 22.7656 12.625C22.7656 18.0449 18.3711 22.3906 13 22.3906ZM17.9316 9.59766C18.1758 9.40234 18.1758 9.01172 17.9316 8.76758L16.8574 7.69336C16.6133 7.44922 16.2227 7.44922 16.0273 7.69336L13 10.7207L9.92383 7.69336C9.72852 7.44922 9.33789 7.44922 9.09375 7.69336L8.01953 8.76758C7.77539 9.01172 7.77539 9.40234 8.01953 9.59766L11.0469 12.625L8.01953 15.7012C7.77539 15.8965 7.77539 16.2871 8.01953 16.5312L9.09375 17.6055C9.33789 17.8496 9.72852 17.8496 9.92383 17.6055L13 14.5781L16.0273 17.6055C16.2227 17.8496 16.6133 17.8496 16.8574 17.6055L17.9316 16.5312C18.1758 16.2871 18.1758 15.8965 17.9316 15.7012L14.9043 12.625L17.9316 9.59766Z" fill="url(#paint0_linear)"/>
<defs>
<linearGradient id="paint0_linear" x1="155" y1="43" x2="-129" y2="43" gradientUnits="userSpaceOnUse">
<stop stop-color="#FF5C00"/>
<stop offset="1" stop-color="#FF006B"/>
</linearGradient>
</defs>
</svg>
