<svg width="20" height="20" viewBox="0 0 20 20" fill="none" xmlns="http://www.w3.org/2000/svg">
<path d="M10 0C4.48 0 0 4.48 0 10C0 15.52 4.48 20 10 20C15.52 20 20 15.52 20 10C20 4.48 15.52 0 10 0ZM10 18C5.59 18 2 14.41 2 10C2 5.59 5.59 2 10 2C14.41 2 18 5.59 18 10C18 14.41 14.41 18 10 18ZM13.88 6.29L8 12.17L6.12 10.29C5.93302 10.103 5.67943 9.99798 5.415 9.99798C5.15057 9.99798 4.89698 10.103 4.71 10.29C4.52302 10.477 4.41798 10.7306 4.41798 10.995C4.41798 11.2594 4.52302 11.513 4.71 11.7L7.3 14.29C7.69 14.68 8.32 14.68 8.71 14.29L15.3 7.7C15.3927 7.60749 15.4663 7.4976 15.5164 7.37662C15.5666 7.25565 15.5924 7.12597 15.5924 6.995C15.5924 6.86403 15.5666 6.73435 15.5164 6.61338C15.4663 6.4924 15.3927 6.38251 15.3 6.29C14.91 5.9 14.27 5.9 13.88 6.29Z" fill="#02FF3A"/>
</svg>
