<svg width="20" height="21" viewBox="0 0 20 21" fill="none" xmlns="http://www.w3.org/2000/svg">
<path d="M10 0.8125C4.64844 0.8125 0.3125 5.1875 0.3125 10.5C0.3125 15.8516 4.64844 20.1875 10 20.1875C15.3125 20.1875 19.6875 15.8516 19.6875 10.5C19.6875 5.1875 15.3125 0.8125 10 0.8125ZM10 2.6875C14.2969 2.6875 17.8125 6.20312 17.8125 10.5C17.8125 14.8359 14.2969 18.3125 10 18.3125C5.66406 18.3125 2.1875 14.8359 2.1875 10.5C2.1875 6.20312 5.66406 2.6875 10 2.6875ZM15.4688 7.80469L14.5703 6.90625C14.4141 6.71094 14.1016 6.71094 13.9062 6.90625L8.39844 12.375L6.05469 10.0312C5.85938 9.83594 5.58594 9.83594 5.39062 10.0312L4.49219 10.8906C4.33594 11.0859 4.33594 11.3984 4.49219 11.5547L8.04688 15.1484C8.24219 15.3438 8.51562 15.3438 8.71094 15.1484L15.4688 8.46875C15.625 8.27344 15.625 7.96094 15.4688 7.80469Z" fill="#27BA1A"/>
</svg>
