<svg width="15" height="11" viewBox="0 0 15 11" fill="none" xmlns="http://www.w3.org/2000/svg">
<path d="M14.7254 0.274619C14.9012 0.450685 15 0.689351 15 0.938191C15 1.18703 14.9012 1.4257 14.7254 1.60176L5.64821 10.6789C5.47215 10.8548 5.23348 10.9536 4.98464 10.9536C4.7358 10.9536 4.49713 10.8548 4.32107 10.6789L0.251992 6.60986C0.086213 6.43174 -0.00406227 6.1963 0.000140422 5.95301C0.00434312 5.70972 0.102696 5.47753 0.274528 5.30525C0.446811 5.13342 0.678998 5.03506 0.922287 5.03086C1.16558 5.02666 1.40102 5.11693 1.57914 5.28271L4.98464 8.68822L13.3982 0.274619C13.5743 0.0987714 13.813 0 14.0618 0C14.3106 0 14.5493 0.0987714 14.7254 0.274619Z" fill="#FF006B"/>
</svg>
