<svg xmlns="http://www.w3.org/2000/svg" xmlns:xlink="http://www.w3.org/1999/xlink" viewBox="0 0 2187.86 1339.59"><defs><style>.cls-1{fill:none;}.cls-2{isolation:isolate;}.cls-186,.cls-3{opacity:0.3;}.cls-3{fill:url(#linear-gradient);}.cls-187,.cls-4{opacity:0.5;}.cls-4{fill:url(#linear-gradient-2);}.cls-5{fill:url(#linear-gradient-3);}.cls-183,.cls-187,.cls-6{fill:#fff;}.cls-7{fill:url(#linear-gradient-4);}.cls-8{fill:#f0f0f0;}.cls-9{fill:url(#linear-gradient-5);}.cls-10{fill:url(#linear-gradient-6);}.cls-11{fill:url(#linear-gradient-7);}.cls-12{fill:url(#linear-gradient-8);}.cls-13{mix-blend-mode:soft-light;}.cls-14{fill:url(#linear-gradient-9);}.cls-15{fill:url(#linear-gradient-10);}.cls-16{fill:url(#linear-gradient-11);}.cls-17{fill:url(#linear-gradient-12);}.cls-18{fill:url(#linear-gradient-13);}.cls-19{fill:url(#linear-gradient-14);}.cls-20{fill:url(#linear-gradient-15);}.cls-21{fill:url(#linear-gradient-16);}.cls-22{fill:url(#linear-gradient-17);}.cls-23{fill:url(#linear-gradient-18);}.cls-24{fill:url(#linear-gradient-19);}.cls-25{fill:url(#linear-gradient-20);}.cls-26{fill:url(#linear-gradient-21);}.cls-27{fill:url(#linear-gradient-22);}.cls-28{fill:url(#linear-gradient-23);}.cls-29{fill:url(#linear-gradient-24);}.cls-30{fill:url(#linear-gradient-25);}.cls-31{fill:url(#linear-gradient-26);}.cls-32{fill:url(#linear-gradient-27);}.cls-33{fill:url(#linear-gradient-28);}.cls-34{fill:url(#linear-gradient-29);}.cls-35{fill:url(#linear-gradient-30);}.cls-36{clip-path:url(#clip-path);}.cls-37{fill:url(#linear-gradient-31);}.cls-38{fill:url(#linear-gradient-32);}.cls-39{fill:url(#linear-gradient-33);}.cls-40{fill:url(#linear-gradient-34);}.cls-41{fill:url(#linear-gradient-35);}.cls-42{fill:url(#linear-gradient-36);}.cls-43{fill:url(#linear-gradient-37);}.cls-44{fill:url(#linear-gradient-38);}.cls-45{fill:url(#linear-gradient-39);}.cls-46{fill:url(#linear-gradient-40);}.cls-47{fill:url(#linear-gradient-41);}.cls-48{fill:url(#linear-gradient-42);}.cls-49{fill:url(#linear-gradient-43);}.cls-50{fill:url(#linear-gradient-44);}.cls-51{fill:url(#linear-gradient-45);}.cls-52{fill:url(#linear-gradient-46);}.cls-53{fill:url(#linear-gradient-47);}.cls-54{fill:url(#linear-gradient-48);}.cls-55{fill:url(#linear-gradient-49);}.cls-56{fill:url(#linear-gradient-50);}.cls-57{fill:url(#linear-gradient-51);}.cls-58{fill:url(#linear-gradient-52);}.cls-59{fill:url(#linear-gradient-53);}.cls-60{fill:url(#linear-gradient-54);}.cls-61{fill:url(#linear-gradient-55);}.cls-62{fill:url(#linear-gradient-56);}.cls-63{fill:url(#linear-gradient-57);}.cls-64{fill:url(#linear-gradient-58);}.cls-65{fill:url(#linear-gradient-59);}.cls-66{fill:url(#linear-gradient-60);}.cls-67{fill:url(#linear-gradient-61);}.cls-68{fill:url(#linear-gradient-62);}.cls-69{fill:url(#linear-gradient-63);}.cls-70{fill:url(#linear-gradient-64);}.cls-71{fill:url(#linear-gradient-65);}.cls-72{fill:url(#linear-gradient-66);}.cls-73{fill:url(#linear-gradient-67);}.cls-74{fill:url(#linear-gradient-68);}.cls-75{fill:url(#linear-gradient-69);}.cls-76{fill:url(#linear-gradient-70);}.cls-77{fill:url(#linear-gradient-71);}.cls-78{fill:url(#linear-gradient-72);}.cls-79{fill:url(#linear-gradient-73);}.cls-80{fill:url(#linear-gradient-74);}.cls-81{fill:url(#linear-gradient-75);}.cls-82{fill:url(#linear-gradient-76);}.cls-83{fill:url(#linear-gradient-77);}.cls-84{fill:url(#linear-gradient-78);}.cls-85{fill:url(#linear-gradient-79);}.cls-86{fill:url(#linear-gradient-80);}.cls-87{fill:url(#linear-gradient-81);}.cls-88{fill:url(#linear-gradient-82);}.cls-89{fill:url(#linear-gradient-83);}.cls-90{fill:url(#linear-gradient-84);}.cls-91{fill:url(#linear-gradient-85);}.cls-92{fill:url(#linear-gradient-86);}.cls-93{fill:url(#linear-gradient-87);}.cls-94{fill:url(#linear-gradient-88);}.cls-95{fill:url(#linear-gradient-89);}.cls-96{fill:url(#linear-gradient-90);}.cls-97{fill:url(#linear-gradient-91);}.cls-98{fill:url(#linear-gradient-92);}.cls-99{fill:url(#linear-gradient-93);}.cls-100{fill:url(#linear-gradient-94);}.cls-101{fill:url(#linear-gradient-95);}.cls-102{fill:url(#linear-gradient-96);}.cls-103{fill:url(#linear-gradient-97);}.cls-104{fill:url(#linear-gradient-98);}.cls-105{fill:url(#linear-gradient-99);}.cls-106{fill:url(#linear-gradient-100);}.cls-107{fill:url(#linear-gradient-101);}.cls-108{fill:url(#linear-gradient-102);}.cls-109{fill:url(#linear-gradient-103);}.cls-110{fill:url(#linear-gradient-104);}.cls-111{fill:url(#linear-gradient-105);}.cls-112{fill:url(#linear-gradient-106);}.cls-113{fill:url(#linear-gradient-107);}.cls-114{fill:url(#linear-gradient-108);}.cls-115{fill:url(#linear-gradient-109);}.cls-116{fill:url(#linear-gradient-110);}.cls-117{fill:url(#linear-gradient-111);}.cls-118{fill:url(#linear-gradient-112);}.cls-119{fill:url(#linear-gradient-113);}.cls-120{fill:url(#linear-gradient-114);}.cls-121{fill:url(#linear-gradient-115);}.cls-122{fill:url(#linear-gradient-116);}.cls-123{fill:url(#linear-gradient-117);}.cls-124{fill:url(#linear-gradient-118);}.cls-125{fill:url(#linear-gradient-119);}.cls-126{fill:url(#linear-gradient-120);}.cls-127{fill:url(#linear-gradient-121);}.cls-128{fill:url(#linear-gradient-122);}.cls-129{fill:url(#linear-gradient-123);}.cls-130{fill:url(#linear-gradient-124);}.cls-131{fill:url(#linear-gradient-125);}.cls-132{fill:url(#linear-gradient-126);}.cls-133{fill:url(#linear-gradient-127);}.cls-134{fill:url(#linear-gradient-128);}.cls-135{fill:url(#linear-gradient-129);}.cls-136{fill:url(#linear-gradient-130);}.cls-137{fill:url(#linear-gradient-131);}.cls-138{fill:url(#linear-gradient-132);}.cls-139{fill:url(#linear-gradient-133);}.cls-140{fill:url(#linear-gradient-134);}.cls-141{fill:url(#linear-gradient-135);}.cls-142{fill:url(#linear-gradient-136);}.cls-143{fill:url(#linear-gradient-137);}.cls-144{fill:url(#linear-gradient-138);}.cls-145{fill:url(#linear-gradient-139);}.cls-146{fill:url(#linear-gradient-140);}.cls-147{fill:url(#linear-gradient-141);}.cls-148{fill:url(#linear-gradient-142);}.cls-149{fill:url(#linear-gradient-143);}.cls-150{fill:url(#linear-gradient-144);}.cls-151{fill:url(#linear-gradient-145);}.cls-152{fill:url(#linear-gradient-146);}.cls-153{fill:url(#linear-gradient-147);}.cls-154{fill:url(#linear-gradient-148);}.cls-155{fill:url(#linear-gradient-149);}.cls-156{fill:url(#linear-gradient-150);}.cls-157{fill:url(#linear-gradient-151);}.cls-158{fill:url(#linear-gradient-152);}.cls-159{fill:url(#linear-gradient-153);}.cls-160{fill:url(#linear-gradient-154);}.cls-161{fill:url(#linear-gradient-155);}.cls-162{fill:url(#linear-gradient-156);}.cls-163{fill:url(#linear-gradient-157);}.cls-164{fill:url(#linear-gradient-158);}.cls-165{fill:url(#linear-gradient-159);}.cls-166{fill:url(#linear-gradient-160);}.cls-167{fill:url(#linear-gradient-161);}.cls-168{fill:url(#linear-gradient-162);}.cls-169{fill:url(#linear-gradient-163);}.cls-170{fill:url(#linear-gradient-164);}.cls-171{fill:url(#linear-gradient-165);}.cls-172{fill:url(#linear-gradient-166);}.cls-173{fill:url(#linear-gradient-167);}.cls-174{fill:url(#linear-gradient-168);}.cls-175{fill:url(#linear-gradient-169);}.cls-176{fill:url(#linear-gradient-170);}.cls-177{fill:url(#linear-gradient-171);}.cls-178{fill:url(#linear-gradient-172);}.cls-179{fill:url(#linear-gradient-173);}.cls-180{fill:url(#linear-gradient-174);}.cls-181{fill:url(#linear-gradient-175);}.cls-182{fill:url(#linear-gradient-176);}.cls-183{opacity:0.58;}.cls-184{fill:url(#linear-gradient-177);}.cls-185{fill:url(#linear-gradient-178);}.cls-188{fill:url(#linear-gradient-179);}.cls-189{fill:url(#linear-gradient-180);}.cls-190{fill:url(#linear-gradient-181);}.cls-191{fill:url(#linear-gradient-182);}.cls-192{fill:url(#linear-gradient-183);}.cls-193{fill:url(#linear-gradient-184);}.cls-194{fill:url(#linear-gradient-185);}.cls-195{fill:url(#linear-gradient-186);}.cls-196{fill:url(#linear-gradient-187);}.cls-197{fill:url(#linear-gradient-188);}.cls-198{fill:url(#linear-gradient-189);}.cls-199{fill:url(#linear-gradient-190);}.cls-200{fill:url(#linear-gradient-191);}.cls-201{fill:url(#linear-gradient-192);}.cls-202{fill:url(#linear-gradient-193);}.cls-203{fill:url(#linear-gradient-194);}.cls-204{fill:url(#linear-gradient-195);}.cls-205{fill:url(#linear-gradient-196);}.cls-206{fill:url(#linear-gradient-197);}</style><linearGradient id="linear-gradient" x1="-1701" y1="3257.57" x2="486.86" y2="3257.57" gradientTransform="translate(486.86 3939.59) rotate(180)" gradientUnits="userSpaceOnUse"><stop offset="0" stop-color="#b37cff"/><stop offset="1" stop-color="#f895e7"/></linearGradient><linearGradient id="linear-gradient-2" x1="344.09" y1="3297.7" x2="2446.69" y2="3297.7" gradientTransform="matrix(1, 0, 0, -1, -258.84, 3939.59)" xlink:href="#linear-gradient"/><linearGradient id="linear-gradient-3" x1="547.53" y1="1006.96" x2="470.37" y2="698.31" gradientTransform="matrix(1, 0, 0, 1, 0, 0)" xlink:href="#linear-gradient"/><linearGradient id="linear-gradient-4" x1="3068.64" y1="706.4" x2="2503.62" y2="1699.83" gradientTransform="matrix(-1, 0, 0, 1, 3275.69, 0)" gradientUnits="userSpaceOnUse"><stop offset="0" stop-color="#a737d5"/><stop offset="1" stop-color="#ef497a"/></linearGradient><linearGradient id="linear-gradient-5" x1="-4541.97" y1="1006.96" x2="-4619.13" y2="698.31" gradientTransform="matrix(-1, 0, 0, 1, -2889.91, 0)" xlink:href="#linear-gradient"/><linearGradient id="linear-gradient-6" x1="8158.14" y1="706.4" x2="7593.13" y2="1699.83" gradientTransform="translate(-6165.6)" xlink:href="#linear-gradient-4"/><linearGradient id="linear-gradient-7" x1="1071.03" y1="360.54" x2="1131" y2="1784.65" gradientUnits="userSpaceOnUse"><stop offset="0" stop-color="#fdf53f"/><stop offset="1" stop-color="#d93c65"/></linearGradient><linearGradient id="linear-gradient-8" x1="1070.52" y1="48.58" x2="1128.51" y2="1425.78" xlink:href="#linear-gradient-7"/><linearGradient id="linear-gradient-9" x1="1219.73" y1="700.03" x2="1717.78" y2="1202.86" gradientUnits="userSpaceOnUse"><stop offset="0" stop-color="#cb236d"/><stop offset="1" stop-color="#4c246d"/></linearGradient><linearGradient id="linear-gradient-10" x1="5359.03" y1="1238.07" x2="5422.34" y2="1238.07" gradientTransform="translate(-3933.96)" gradientUnits="userSpaceOnUse"><stop offset="0" stop-color="#f9b776"/><stop offset="1" stop-color="#f47960"/></linearGradient><linearGradient id="linear-gradient-11" x1="5285.53" y1="331.68" x2="5294.65" y2="411.48" gradientTransform="translate(-3933.96)" xlink:href="#linear-gradient-9"/><linearGradient id="linear-gradient-12" x1="5284.69" y1="1242.4" x2="5418.29" y2="1242.4" xlink:href="#linear-gradient-10"/><linearGradient id="linear-gradient-13" x1="693.28" y1="1158.99" x2="770.79" y2="1310.6" gradientTransform="translate(808.21)" gradientUnits="userSpaceOnUse"><stop offset="0" stop-color="#2b3582"/><stop offset="1" stop-color="#150e42"/></linearGradient><linearGradient id="linear-gradient-14" x1="5192.86" y1="342.28" x2="5201.98" y2="422.08" gradientTransform="translate(-3933.96)" xlink:href="#linear-gradient-9"/><linearGradient id="linear-gradient-15" x1="5433.04" y1="1048.78" x2="5504.03" y2="1203.28" gradientTransform="translate(-3933.96)" gradientUnits="userSpaceOnUse"><stop offset="0" stop-color="#52f0c0"/><stop offset="1" stop-color="#9f71fb"/></linearGradient><linearGradient id="linear-gradient-16" x1="5434.75" y1="1059.04" x2="5428.06" y2="1016.16" xlink:href="#linear-gradient-10"/><linearGradient id="linear-gradient-17" x1="5405.86" y1="978.23" x2="5464.89" y2="1018.32" xlink:href="#linear-gradient-10"/><linearGradient id="linear-gradient-18" x1="1226.72" y1="693.11" x2="1724.78" y2="1195.93" xlink:href="#linear-gradient-9"/><linearGradient id="linear-gradient-19" x1="5409.4" y1="973.02" x2="5468.43" y2="1013.11" xlink:href="#linear-gradient-10"/><linearGradient id="linear-gradient-20" x1="5473.11" y1="1133.28" x2="5598.61" y2="1133.28" xlink:href="#linear-gradient-10"/><linearGradient id="linear-gradient-21" x1="5449.25" y1="1315.15" x2="5468.49" y2="1194.09" gradientTransform="translate(-3933.96)" gradientUnits="userSpaceOnUse"><stop offset="0" stop-color="#53d8ff"/><stop offset="1" stop-color="#3840f7"/></linearGradient><linearGradient id="linear-gradient-22" x1="5456.96" y1="1316.38" x2="5476.21" y2="1195.32" xlink:href="#linear-gradient-21"/><linearGradient id="linear-gradient-23" x1="5442.09" y1="1314.01" x2="5461.34" y2="1192.96" xlink:href="#linear-gradient-21"/><linearGradient id="linear-gradient-24" x1="5392.56" y1="1482.61" x2="5313.56" y2="1504.26" gradientTransform="translate(-3917.79 -94.08) rotate(-2.83)" xlink:href="#linear-gradient-13"/><linearGradient id="linear-gradient-25" x1="5368.57" y1="1069.32" x2="5312.51" y2="1128.57" gradientTransform="translate(-3933.96)" xlink:href="#linear-gradient-13"/><linearGradient id="linear-gradient-26" x1="5178.1" y1="1154.76" x2="5595.98" y2="1154.76" gradientTransform="translate(-3933.96)" gradientUnits="userSpaceOnUse"><stop offset="0" stop-color="#9cfffb"/><stop offset="1" stop-color="#9bfffa"/></linearGradient><linearGradient id="linear-gradient-27" x1="5202.1" y1="1246.36" x2="5284.59" y2="1246.36" xlink:href="#linear-gradient-26"/><linearGradient id="linear-gradient-28" x1="5211.63" y1="1246.36" x2="5294.12" y2="1246.36" xlink:href="#linear-gradient-26"/><linearGradient id="linear-gradient-29" x1="5498.66" y1="1246.36" x2="5581.15" y2="1246.36" xlink:href="#linear-gradient-26"/><linearGradient id="linear-gradient-30" x1="5508.18" y1="1246.36" x2="5590.68" y2="1246.36" xlink:href="#linear-gradient-26"/><clipPath id="clip-path"><polygon class="cls-1" points="554.07 633.87 1094.66 960.19 1604.43 653.15 1604.43 177.8 596.51 177.8 554.07 633.87"/></clipPath><linearGradient id="linear-gradient-31" x1="1369.2" y1="580.85" x2="817.87" y2="1336.52" gradientTransform="matrix(1, 0, 0, 1, 0, 0)" xlink:href="#linear-gradient-21"/><linearGradient id="linear-gradient-32" x1="1139.47" y1="209.51" x2="1037.12" y2="1281.13" gradientTransform="matrix(1, 0, 0, 1, 0, 0)" xlink:href="#linear-gradient-21"/><linearGradient id="linear-gradient-33" x1="1919.44" y1="651.54" x2="1922.09" y2="651.54" gradientTransform="matrix(1, 0, 0, 1, 0, 0)" xlink:href="#linear-gradient-26"/><linearGradient id="linear-gradient-34" x1="1920.47" y1="672.24" x2="1922.82" y2="672.24" gradientTransform="matrix(1, 0, 0, 1, 0, 0)" xlink:href="#linear-gradient-26"/><linearGradient id="linear-gradient-35" x1="1919.21" y1="692.95" x2="1922.27" y2="692.95" gradientTransform="matrix(1, 0, 0, 1, 0, 0)" xlink:href="#linear-gradient-26"/><linearGradient id="linear-gradient-36" x1="1916.24" y1="713.51" x2="1920.03" y2="713.51" gradientTransform="matrix(1, 0, 0, 1, 0, 0)" xlink:href="#linear-gradient-26"/><linearGradient id="linear-gradient-37" x1="1911.63" y1="733.79" x2="1916.12" y2="733.79" gradientTransform="matrix(1, 0, 0, 1, 0, 0)" xlink:href="#linear-gradient-26"/><linearGradient id="linear-gradient-38" x1="1905.45" y1="753.67" x2="1910.61" y2="753.67" gradientTransform="matrix(1, 0, 0, 1, 0, 0)" xlink:href="#linear-gradient-26"/><linearGradient id="linear-gradient-39" x1="1897.77" y1="773.05" x2="1903.59" y2="773.05" gradientTransform="matrix(1, 0, 0, 1, 0, 0)" xlink:href="#linear-gradient-26"/><linearGradient id="linear-gradient-40" x1="1888.65" y1="791.82" x2="1895.12" y2="791.82" gradientTransform="matrix(1, 0, 0, 1, 0, 0)" xlink:href="#linear-gradient-26"/><linearGradient id="linear-gradient-41" x1="1878.18" y1="809.88" x2="1885.26" y2="809.88" gradientTransform="matrix(1, 0, 0, 1, 0, 0)" xlink:href="#linear-gradient-26"/><linearGradient id="linear-gradient-42" x1="1866.4" y1="827.14" x2="1874.08" y2="827.14" gradientTransform="matrix(1, 0, 0, 1, 0, 0)" xlink:href="#linear-gradient-26"/><linearGradient id="linear-gradient-43" x1="1853.37" y1="843.49" x2="1861.64" y2="843.49" gradientTransform="matrix(1, 0, 0, 1, 0, 0)" xlink:href="#linear-gradient-26"/><linearGradient id="linear-gradient-44" x1="1839.15" y1="858.84" x2="1847.99" y2="858.84" gradientTransform="matrix(1, 0, 0, 1, 0, 0)" xlink:href="#linear-gradient-26"/><linearGradient id="linear-gradient-45" x1="1823.8" y1="873.07" x2="1833.19" y2="873.07" gradientTransform="matrix(1, 0, 0, 1, 0, 0)" xlink:href="#linear-gradient-26"/><linearGradient id="linear-gradient-46" x1="1807.4" y1="886.07" x2="1817.31" y2="886.07" gradientTransform="matrix(1, 0, 0, 1, 0, 0)" xlink:href="#linear-gradient-26"/><linearGradient id="linear-gradient-47" x1="1790.04" y1="897.7" x2="1800.42" y2="897.7" gradientTransform="matrix(1, 0, 0, 1, 0, 0)" xlink:href="#linear-gradient-26"/><linearGradient id="linear-gradient-48" x1="1771.8" y1="907.87" x2="1782.55" y2="907.87" gradientTransform="matrix(1, 0, 0, 1, 0, 0)" xlink:href="#linear-gradient-26"/><linearGradient id="linear-gradient-49" x1="1752.77" y1="916.45" x2="1763.88" y2="916.45" gradientTransform="matrix(1, 0, 0, 1, 0, 0)" xlink:href="#linear-gradient-26"/><linearGradient id="linear-gradient-50" x1="1733.1" y1="923.41" x2="1744.5" y2="923.41" gradientTransform="matrix(1, 0, 0, 1, 0, 0)" xlink:href="#linear-gradient-26"/><linearGradient id="linear-gradient-51" x1="1712.97" y1="928.8" x2="1724.62" y2="928.8" gradientTransform="matrix(1, 0, 0, 1, 0, 0)" xlink:href="#linear-gradient-26"/><linearGradient id="linear-gradient-52" x1="1692.51" y1="932.66" x2="1704.36" y2="932.66" gradientTransform="matrix(1, 0, 0, 1, 0, 0)" xlink:href="#linear-gradient-26"/><linearGradient id="linear-gradient-53" x1="1671.84" y1="935.01" x2="1683.86" y2="935.01" gradientTransform="matrix(1, 0, 0, 1, 0, 0)" xlink:href="#linear-gradient-26"/><linearGradient id="linear-gradient-54" x1="1651.07" y1="935.93" x2="1663.22" y2="935.93" gradientTransform="matrix(1, 0, 0, 1, 0, 0)" xlink:href="#linear-gradient-26"/><linearGradient id="linear-gradient-55" x1="1630.29" y1="935.47" x2="1642.56" y2="935.47" gradientTransform="matrix(1, 0, 0, 1, 0, 0)" xlink:href="#linear-gradient-26"/><linearGradient id="linear-gradient-56" x1="1609.6" y1="933.73" x2="1621.95" y2="933.73" gradientTransform="matrix(1, 0, 0, 1, 0, 0)" xlink:href="#linear-gradient-26"/><linearGradient id="linear-gradient-57" x1="1589.05" y1="930.77" x2="1601.47" y2="930.77" gradientTransform="matrix(1, 0, 0, 1, 0, 0)" xlink:href="#linear-gradient-26"/><linearGradient id="linear-gradient-58" x1="1568.72" y1="926.66" x2="1581.18" y2="926.66" gradientTransform="matrix(1, 0, 0, 1, 0, 0)" xlink:href="#linear-gradient-26"/><linearGradient id="linear-gradient-59" x1="1548.62" y1="921.46" x2="1561.14" y2="921.46" gradientTransform="matrix(1, 0, 0, 1, 0, 0)" xlink:href="#linear-gradient-26"/><linearGradient id="linear-gradient-60" x1="1528.84" y1="915.24" x2="1541.37" y2="915.24" gradientTransform="matrix(1, 0, 0, 1, 0, 0)" xlink:href="#linear-gradient-26"/><linearGradient id="linear-gradient-61" x1="1509.39" y1="908.05" x2="1521.93" y2="908.05" gradientTransform="matrix(1, 0, 0, 1, 0, 0)" xlink:href="#linear-gradient-26"/><linearGradient id="linear-gradient-62" x1="1490.32" y1="899.93" x2="1502.86" y2="899.93" gradientTransform="matrix(1, 0, 0, 1, 0, 0)" xlink:href="#linear-gradient-26"/><linearGradient id="linear-gradient-63" x1="1471.65" y1="890.92" x2="1484.19" y2="890.92" gradientTransform="matrix(1, 0, 0, 1, 0, 0)" xlink:href="#linear-gradient-26"/><linearGradient id="linear-gradient-64" x1="1453.48" y1="881.06" x2="1465.93" y2="881.06" gradientTransform="matrix(1, 0, 0, 1, 0, 0)" xlink:href="#linear-gradient-26"/><linearGradient id="linear-gradient-65" x1="1435.71" y1="870.45" x2="1448.08" y2="870.45" gradientTransform="matrix(1, 0, 0, 1, 0, 0)" xlink:href="#linear-gradient-26"/><linearGradient id="linear-gradient-66" x1="1418.36" y1="859.18" x2="1430.65" y2="859.18" gradientTransform="matrix(1, 0, 0, 1, 0, 0)" xlink:href="#linear-gradient-26"/><linearGradient id="linear-gradient-67" x1="1401.41" y1="847.31" x2="1413.61" y2="847.31" gradientTransform="matrix(1, 0, 0, 1, 0, 0)" xlink:href="#linear-gradient-26"/><linearGradient id="linear-gradient-68" x1="1384.86" y1="834.89" x2="1396.98" y2="834.89" gradientTransform="matrix(1, 0, 0, 1, 0, 0)" xlink:href="#linear-gradient-26"/><linearGradient id="linear-gradient-69" x1="1368.67" y1="821.98" x2="1380.72" y2="821.98" gradientTransform="matrix(1, 0, 0, 1, 0, 0)" xlink:href="#linear-gradient-26"/><linearGradient id="linear-gradient-70" x1="1352.84" y1="808.64" x2="1364.82" y2="808.64" gradientTransform="matrix(1, 0, 0, 1, 0, 0)" xlink:href="#linear-gradient-26"/><linearGradient id="linear-gradient-71" x1="1337.32" y1="794.92" x2="1349.25" y2="794.92" gradientTransform="matrix(1, 0, 0, 1, 0, 0)" xlink:href="#linear-gradient-26"/><linearGradient id="linear-gradient-72" x1="1322.11" y1="780.88" x2="1333.99" y2="780.88" gradientTransform="matrix(1, 0, 0, 1, 0, 0)" xlink:href="#linear-gradient-26"/><linearGradient id="linear-gradient-73" x1="1307.16" y1="766.55" x2="1319" y2="766.55" gradientTransform="matrix(1, 0, 0, 1, 0, 0)" xlink:href="#linear-gradient-26"/><linearGradient id="linear-gradient-74" x1="1292.42" y1="751.97" x2="1304.24" y2="751.97" gradientTransform="matrix(1, 0, 0, 1, 0, 0)" xlink:href="#linear-gradient-26"/><linearGradient id="linear-gradient-75" x1="1277.88" y1="737.19" x2="1289.68" y2="737.19" gradientTransform="matrix(1, 0, 0, 1, 0, 0)" xlink:href="#linear-gradient-26"/><linearGradient id="linear-gradient-76" x1="1263.5" y1="722.25" x2="1275.29" y2="722.25" gradientTransform="matrix(1, 0, 0, 1, 0, 0)" xlink:href="#linear-gradient-26"/><linearGradient id="linear-gradient-77" x1="1249.24" y1="707.19" x2="1261.04" y2="707.19" gradientTransform="matrix(1, 0, 0, 1, 0, 0)" xlink:href="#linear-gradient-26"/><linearGradient id="linear-gradient-78" x1="1235.07" y1="692.04" x2="1246.89" y2="692.04" gradientTransform="matrix(1, 0, 0, 1, 0, 0)" xlink:href="#linear-gradient-26"/><linearGradient id="linear-gradient-79" x1="1220.94" y1="676.85" x2="1232.79" y2="676.85" gradientTransform="matrix(1, 0, 0, 1, 0, 0)" xlink:href="#linear-gradient-26"/><linearGradient id="linear-gradient-80" x1="1206.82" y1="661.65" x2="1218.71" y2="661.65" gradientTransform="matrix(1, 0, 0, 1, 0, 0)" xlink:href="#linear-gradient-26"/><linearGradient id="linear-gradient-81" x1="1192.66" y1="646.48" x2="1204.6" y2="646.48" gradientTransform="matrix(1, 0, 0, 1, 0, 0)" xlink:href="#linear-gradient-26"/><linearGradient id="linear-gradient-82" x1="1178.42" y1="631.38" x2="1190.43" y2="631.38" gradientTransform="matrix(1, 0, 0, 1, 0, 0)" xlink:href="#linear-gradient-26"/><linearGradient id="linear-gradient-83" x1="1164.06" y1="616.39" x2="1176.16" y2="616.39" gradientTransform="matrix(1, 0, 0, 1, 0, 0)" xlink:href="#linear-gradient-26"/><linearGradient id="linear-gradient-84" x1="1149.56" y1="601.54" x2="1161.74" y2="601.54" gradientTransform="matrix(1, 0, 0, 1, 0, 0)" xlink:href="#linear-gradient-26"/><linearGradient id="linear-gradient-85" x1="1134.86" y1="586.87" x2="1147.15" y2="586.87" gradientTransform="matrix(1, 0, 0, 1, 0, 0)" xlink:href="#linear-gradient-26"/><linearGradient id="linear-gradient-86" x1="1119.94" y1="572.42" x2="1132.34" y2="572.42" gradientTransform="matrix(1, 0, 0, 1, 0, 0)" xlink:href="#linear-gradient-26"/><linearGradient id="linear-gradient-87" x1="1104.79" y1="558.24" x2="1117.26" y2="558.24" gradientTransform="matrix(1, 0, 0, 1, 0, 0)" xlink:href="#linear-gradient-26"/><linearGradient id="linear-gradient-88" x1="1089.35" y1="544.37" x2="1101.88" y2="544.37" gradientTransform="matrix(1, 0, 0, 1, 0, 0)" xlink:href="#linear-gradient-26"/><linearGradient id="linear-gradient-89" x1="1073.59" y1="530.87" x2="1086.19" y2="530.87" gradientTransform="matrix(1, 0, 0, 1, 0, 0)" xlink:href="#linear-gradient-26"/><linearGradient id="linear-gradient-90" x1="1057.49" y1="517.78" x2="1070.17" y2="517.78" gradientTransform="matrix(1, 0, 0, 1, 0, 0)" xlink:href="#linear-gradient-26"/><linearGradient id="linear-gradient-91" x1="1041.02" y1="505.15" x2="1053.79" y2="505.15" gradientTransform="matrix(1, 0, 0, 1, 0, 0)" xlink:href="#linear-gradient-26"/><linearGradient id="linear-gradient-92" x1="1024.16" y1="493.04" x2="1037.01" y2="493.04" gradientTransform="matrix(1, 0, 0, 1, 0, 0)" xlink:href="#linear-gradient-26"/><linearGradient id="linear-gradient-93" x1="1006.89" y1="481.5" x2="1019.85" y2="481.5" gradientTransform="matrix(1, 0, 0, 1, 0, 0)" xlink:href="#linear-gradient-26"/><linearGradient id="linear-gradient-94" x1="989.21" y1="470.6" x2="1002.26" y2="470.6" gradientTransform="matrix(1, 0, 0, 1, 0, 0)" xlink:href="#linear-gradient-26"/><linearGradient id="linear-gradient-95" x1="971.15" y1="460.36" x2="984.28" y2="460.36" gradientTransform="matrix(1, 0, 0, 1, 0, 0)" xlink:href="#linear-gradient-26"/><linearGradient id="linear-gradient-96" x1="952.73" y1="450.78" x2="965.93" y2="450.78" gradientTransform="matrix(1, 0, 0, 1, 0, 0)" xlink:href="#linear-gradient-26"/><linearGradient id="linear-gradient-97" x1="933.98" y1="441.88" x2="947.25" y2="441.88" gradientTransform="matrix(1, 0, 0, 1, 0, 0)" xlink:href="#linear-gradient-26"/><linearGradient id="linear-gradient-98" x1="914.93" y1="433.65" x2="928.26" y2="433.65" gradientTransform="matrix(1, 0, 0, 1, 0, 0)" xlink:href="#linear-gradient-26"/><linearGradient id="linear-gradient-99" x1="895.59" y1="426.11" x2="908.98" y2="426.11" gradientTransform="matrix(1, 0, 0, 1, 0, 0)" xlink:href="#linear-gradient-26"/><linearGradient id="linear-gradient-100" x1="876.01" y1="419.26" x2="889.44" y2="419.26" gradientTransform="matrix(1, 0, 0, 1, 0, 0)" xlink:href="#linear-gradient-26"/><linearGradient id="linear-gradient-101" x1="856.19" y1="413.1" x2="869.66" y2="413.1" gradientTransform="matrix(1, 0, 0, 1, 0, 0)" xlink:href="#linear-gradient-26"/><linearGradient id="linear-gradient-102" x1="836.18" y1="407.65" x2="849.67" y2="407.65" gradientTransform="matrix(1, 0, 0, 1, 0, 0)" xlink:href="#linear-gradient-26"/><linearGradient id="linear-gradient-103" x1="815.98" y1="402.89" x2="829.49" y2="402.89" gradientTransform="matrix(1, 0, 0, 1, 0, 0)" xlink:href="#linear-gradient-26"/><linearGradient id="linear-gradient-104" x1="795.64" y1="398.85" x2="809.16" y2="398.85" gradientTransform="matrix(1, 0, 0, 1, 0, 0)" xlink:href="#linear-gradient-26"/><linearGradient id="linear-gradient-105" x1="775.17" y1="395.53" x2="788.7" y2="395.53" gradientTransform="matrix(1, 0, 0, 1, 0, 0)" xlink:href="#linear-gradient-26"/><linearGradient id="linear-gradient-106" x1="754.6" y1="392.93" x2="768.13" y2="392.93" gradientTransform="matrix(1, 0, 0, 1, 0, 0)" xlink:href="#linear-gradient-26"/><linearGradient id="linear-gradient-107" x1="733.96" y1="391.06" x2="747.47" y2="391.06" gradientTransform="matrix(1, 0, 0, 1, 0, 0)" xlink:href="#linear-gradient-26"/><linearGradient id="linear-gradient-108" x1="713.27" y1="389.93" x2="726.76" y2="389.93" gradientTransform="matrix(1, 0, 0, 1, 0, 0)" xlink:href="#linear-gradient-26"/><linearGradient id="linear-gradient-109" x1="692.56" y1="389.53" x2="706.03" y2="389.53" gradientTransform="matrix(1, 0, 0, 1, 0, 0)" xlink:href="#linear-gradient-26"/><linearGradient id="linear-gradient-110" x1="671.85" y1="389.87" x2="685.28" y2="389.87" gradientTransform="matrix(1, 0, 0, 1, 0, 0)" xlink:href="#linear-gradient-26"/><linearGradient id="linear-gradient-111" x1="651.18" y1="390.97" x2="664.57" y2="390.97" gradientTransform="matrix(1, 0, 0, 1, 0, 0)" xlink:href="#linear-gradient-26"/><linearGradient id="linear-gradient-112" x1="630.56" y1="392.83" x2="643.9" y2="392.83" gradientTransform="matrix(1, 0, 0, 1, 0, 0)" xlink:href="#linear-gradient-26"/><linearGradient id="linear-gradient-113" x1="610.03" y1="395.45" x2="623.31" y2="395.45" gradientTransform="matrix(1, 0, 0, 1, 0, 0)" xlink:href="#linear-gradient-26"/><linearGradient id="linear-gradient-114" x1="589.61" y1="398.86" x2="602.83" y2="398.86" gradientTransform="matrix(1, 0, 0, 1, 0, 0)" xlink:href="#linear-gradient-26"/><linearGradient id="linear-gradient-115" x1="569.37" y1="403.13" x2="582.5" y2="403.13" gradientTransform="matrix(1, 0, 0, 1, 0, 0)" xlink:href="#linear-gradient-26"/><linearGradient id="linear-gradient-116" x1="549.35" y1="408.32" x2="562.38" y2="408.32" gradientTransform="matrix(1, 0, 0, 1, 0, 0)" xlink:href="#linear-gradient-26"/><linearGradient id="linear-gradient-117" x1="529.65" y1="414.47" x2="542.52" y2="414.47" gradientTransform="matrix(1, 0, 0, 1, 0, 0)" xlink:href="#linear-gradient-26"/><linearGradient id="linear-gradient-118" x1="510.31" y1="421.65" x2="522.97" y2="421.65" gradientTransform="matrix(1, 0, 0, 1, 0, 0)" xlink:href="#linear-gradient-26"/><linearGradient id="linear-gradient-119" x1="491.43" y1="429.93" x2="503.85" y2="429.93" gradientTransform="matrix(1, 0, 0, 1, 0, 0)" xlink:href="#linear-gradient-26"/><linearGradient id="linear-gradient-120" x1="473.11" y1="439.36" x2="485.26" y2="439.36" gradientTransform="matrix(1, 0, 0, 1, 0, 0)" xlink:href="#linear-gradient-26"/><linearGradient id="linear-gradient-121" x1="455.49" y1="450.02" x2="467.33" y2="450.02" gradientTransform="matrix(1, 0, 0, 1, 0, 0)" xlink:href="#linear-gradient-26"/><linearGradient id="linear-gradient-122" x1="438.72" y1="461.95" x2="450.19" y2="461.95" gradientTransform="matrix(1, 0, 0, 1, 0, 0)" xlink:href="#linear-gradient-26"/><linearGradient id="linear-gradient-123" x1="422.98" y1="475.18" x2="434.03" y2="475.18" gradientTransform="matrix(1, 0, 0, 1, 0, 0)" xlink:href="#linear-gradient-26"/><linearGradient id="linear-gradient-124" x1="408.43" y1="489.7" x2="419.01" y2="489.7" gradientTransform="matrix(1, 0, 0, 1, 0, 0)" xlink:href="#linear-gradient-26"/><linearGradient id="linear-gradient-125" x1="395.27" y1="505.48" x2="405.32" y2="505.48" gradientTransform="matrix(1, 0, 0, 1, 0, 0)" xlink:href="#linear-gradient-26"/><linearGradient id="linear-gradient-126" x1="383.78" y1="522.52" x2="393.2" y2="522.52" gradientTransform="matrix(1, 0, 0, 1, 0, 0)" xlink:href="#linear-gradient-26"/><linearGradient id="linear-gradient-127" x1="374.04" y1="540.63" x2="382.84" y2="540.63" gradientTransform="matrix(1, 0, 0, 1, 0, 0)" xlink:href="#linear-gradient-26"/><linearGradient id="linear-gradient-128" x1="366.08" y1="559.63" x2="374.24" y2="559.63" gradientTransform="matrix(1, 0, 0, 1, 0, 0)" xlink:href="#linear-gradient-26"/><linearGradient id="linear-gradient-129" x1="359.92" y1="579.31" x2="367.44" y2="579.31" gradientTransform="matrix(1, 0, 0, 1, 0, 0)" xlink:href="#linear-gradient-26"/><linearGradient id="linear-gradient-130" x1="355.53" y1="599.49" x2="362.42" y2="599.49" gradientTransform="matrix(1, 0, 0, 1, 0, 0)" xlink:href="#linear-gradient-26"/><linearGradient id="linear-gradient-131" x1="352.9" y1="620.01" x2="359.17" y2="620.01" gradientTransform="matrix(1, 0, 0, 1, 0, 0)" xlink:href="#linear-gradient-26"/><linearGradient id="linear-gradient-132" x1="352.02" y1="640.7" x2="357.67" y2="640.7" gradientTransform="matrix(1, 0, 0, 1, 0, 0)" xlink:href="#linear-gradient-26"/><linearGradient id="linear-gradient-133" x1="352.43" y1="661.41" x2="358.32" y2="661.41" gradientTransform="matrix(1, 0, 0, 1, 0, 0)" xlink:href="#linear-gradient-26"/><linearGradient id="linear-gradient-134" x1="354.5" y1="682.01" x2="360.82" y2="682.01" gradientTransform="matrix(1, 0, 0, 1, 0, 0)" xlink:href="#linear-gradient-26"/><linearGradient id="linear-gradient-135" x1="358.3" y1="702.34" x2="365.06" y2="702.34" gradientTransform="matrix(1, 0, 0, 1, 0, 0)" xlink:href="#linear-gradient-26"/><linearGradient id="linear-gradient-136" x1="363.84" y1="722.25" x2="371.03" y2="722.25" gradientTransform="matrix(1, 0, 0, 1, 0, 0)" xlink:href="#linear-gradient-26"/><linearGradient id="linear-gradient-137" x1="371.12" y1="741.56" x2="378.75" y2="741.56" gradientTransform="matrix(1, 0, 0, 1, 0, 0)" xlink:href="#linear-gradient-26"/><linearGradient id="linear-gradient-138" x1="380.14" y1="760.11" x2="388.21" y2="760.11" gradientTransform="matrix(1, 0, 0, 1, 0, 0)" xlink:href="#linear-gradient-26"/><linearGradient id="linear-gradient-139" x1="390.91" y1="777.68" x2="399.35" y2="777.68" gradientTransform="matrix(1, 0, 0, 1, 0, 0)" xlink:href="#linear-gradient-26"/><linearGradient id="linear-gradient-140" x1="403.39" y1="794.09" x2="412.17" y2="794.09" gradientTransform="matrix(1, 0, 0, 1, 0, 0)" xlink:href="#linear-gradient-26"/><linearGradient id="linear-gradient-141" x1="417.5" y1="809.12" x2="426.58" y2="809.12" gradientTransform="matrix(1, 0, 0, 1, 0, 0)" xlink:href="#linear-gradient-26"/><linearGradient id="linear-gradient-142" x1="433.09" y1="822.64" x2="442.42" y2="822.64" gradientTransform="matrix(1, 0, 0, 1, 0, 0)" xlink:href="#linear-gradient-26"/><linearGradient id="linear-gradient-143" x1="449.96" y1="834.54" x2="459.47" y2="834.54" gradientTransform="matrix(1, 0, 0, 1, 0, 0)" xlink:href="#linear-gradient-26"/><linearGradient id="linear-gradient-144" x1="467.92" y1="844.79" x2="477.55" y2="844.79" gradientTransform="matrix(1, 0, 0, 1, 0, 0)" xlink:href="#linear-gradient-26"/><linearGradient id="linear-gradient-145" x1="486.76" y1="853.34" x2="496.45" y2="853.34" gradientTransform="matrix(1, 0, 0, 1, 0, 0)" xlink:href="#linear-gradient-26"/><linearGradient id="linear-gradient-146" x1="506.3" y1="860.2" x2="516.01" y2="860.2" gradientTransform="matrix(1, 0, 0, 1, 0, 0)" xlink:href="#linear-gradient-26"/><linearGradient id="linear-gradient-147" x1="526.39" y1="865.36" x2="536.07" y2="865.36" gradientTransform="matrix(1, 0, 0, 1, 0, 0)" xlink:href="#linear-gradient-26"/><linearGradient id="linear-gradient-148" x1="546.87" y1="868.81" x2="556.47" y2="868.81" gradientTransform="matrix(1, 0, 0, 1, 0, 0)" xlink:href="#linear-gradient-26"/><linearGradient id="linear-gradient-149" x1="567.58" y1="870.52" x2="577.06" y2="870.52" gradientTransform="matrix(1, 0, 0, 1, 0, 0)" xlink:href="#linear-gradient-26"/><linearGradient id="linear-gradient-150" x1="588.39" y1="870.53" x2="597.7" y2="870.53" gradientTransform="matrix(1, 0, 0, 1, 0, 0)" xlink:href="#linear-gradient-26"/><linearGradient id="linear-gradient-151" x1="609.14" y1="868.74" x2="618.25" y2="868.74" gradientTransform="matrix(1, 0, 0, 1, 0, 0)" xlink:href="#linear-gradient-26"/><linearGradient id="linear-gradient-152" x1="629.7" y1="865.17" x2="638.55" y2="865.17" gradientTransform="matrix(1, 0, 0, 1, 0, 0)" xlink:href="#linear-gradient-26"/><linearGradient id="linear-gradient-153" x1="649.87" y1="859.78" x2="658.39" y2="859.78" gradientTransform="matrix(1, 0, 0, 1, 0, 0)" xlink:href="#linear-gradient-26"/><linearGradient id="linear-gradient-154" x1="669.46" y1="852.55" x2="677.63" y2="852.55" gradientTransform="matrix(1, 0, 0, 1, 0, 0)" xlink:href="#linear-gradient-26"/><linearGradient id="linear-gradient-155" x1="688.32" y1="843.49" x2="696.05" y2="843.49" gradientTransform="matrix(1, 0, 0, 1, 0, 0)" xlink:href="#linear-gradient-26"/><linearGradient id="linear-gradient-156" x1="706.2" y1="832.99" x2="712.33" y2="832.99" gradientTransform="matrix(1, 0, 0, 1, 0, 0)" xlink:href="#linear-gradient-26"/><linearGradient id="linear-gradient-157" x1="1762.26" y1="679.22" x2="1895.98" y2="1238.65" gradientTransform="matrix(1, 0, 0, 1, 0, 0)" xlink:href="#linear-gradient-21"/><linearGradient id="linear-gradient-158" x1="1983.66" y1="1442.7" x2="1985.92" y2="1375.03" gradientTransform="translate(-43.11)" gradientUnits="userSpaceOnUse"><stop offset="0" stop-color="#7c27dd"/><stop offset="1" stop-color="#2b41d9"/></linearGradient><linearGradient id="linear-gradient-159" x1="2064.07" y1="1269.51" x2="1924.64" y2="1378.99" gradientTransform="translate(-43.11)" xlink:href="#linear-gradient-21"/><linearGradient id="linear-gradient-160" x1="1169.38" y1="1271.18" x2="1161.81" y2="1337.23" gradientTransform="matrix(-1, 0, 0, 1, 3107.24, 0)" xlink:href="#linear-gradient-10"/><linearGradient id="linear-gradient-161" x1="1297.87" y1="1302" x2="1163.03" y2="1407.87" gradientTransform="matrix(-1, 0, 0, 1, 3107.24, 0)" xlink:href="#linear-gradient-21"/><linearGradient id="linear-gradient-162" x1="1258.98" y1="1484.56" x2="1261.24" y2="1416.88" gradientTransform="matrix(-1, 0, 0, 1, 3107.24, 0)" xlink:href="#linear-gradient-158"/><linearGradient id="linear-gradient-163" x1="1249.1" y1="1279.63" x2="1242.02" y2="1341.42" gradientTransform="matrix(-1, 0, 0, 1, 3107.24, 0)" xlink:href="#linear-gradient-10"/><linearGradient id="linear-gradient-164" x1="3219.56" y1="1277.65" x2="3228.06" y2="1011.54" gradientTransform="matrix(-1, 0, 0, 1, 5121.41, 0)" gradientUnits="userSpaceOnUse"><stop offset="0" stop-color="#2c759e"/><stop offset="1" stop-color="#051042"/></linearGradient><linearGradient id="linear-gradient-165" x1="1851.61" y1="657.91" x2="1985.31" y2="1217.27" gradientTransform="matrix(1, 0, 0, 1, 0, 0)" xlink:href="#linear-gradient-21"/><linearGradient id="linear-gradient-166" x1="-637.06" y1="847.45" x2="-603.13" y2="847.45" gradientTransform="matrix(-1, 0, 0, 1, 1295.41, 0)" xlink:href="#linear-gradient-10"/><linearGradient id="linear-gradient-167" x1="1901.73" y1="645.93" x2="2035.43" y2="1205.29" gradientTransform="matrix(1, 0, 0, 1, 0, 0)" xlink:href="#linear-gradient-21"/><linearGradient id="linear-gradient-168" x1="-628.8" y1="1025.64" x2="-689.2" y2="1077.23" gradientTransform="matrix(-1, 0, 0, 1, 1295.41, 0)" xlink:href="#linear-gradient-10"/><linearGradient id="linear-gradient-169" x1="-7130.98" y1="110.19" x2="-7153.15" y2="133.63" gradientTransform="matrix(0.96, 0.29, -0.37, 1.22, 8670.1, 2761.03)" xlink:href="#linear-gradient-13"/><linearGradient id="linear-gradient-170" x1="1767.44" y1="840.55" x2="1769.93" y2="881.09" gradientTransform="matrix(1, 0, 0, 1, 0, 0)" xlink:href="#linear-gradient-10"/><linearGradient id="linear-gradient-171" x1="-4679.65" y1="-3417.4" x2="-4732.91" y2="-3346.95" gradientTransform="matrix(-0.99, -0.16, -0.16, 0.99, -3272.96, 3436.57)" xlink:href="#linear-gradient-10"/><linearGradient id="linear-gradient-172" x1="-4720.32" y1="-3400.49" x2="-4656.71" y2="-3400.49" gradientTransform="matrix(-0.99, -0.16, -0.16, 0.99, -3272.96, 3436.57)" xlink:href="#linear-gradient-13"/><linearGradient id="linear-gradient-173" x1="-4756.45" y1="-3362.43" x2="-4714.62" y2="-3405.34" gradientTransform="matrix(-0.99, -0.16, -0.16, 0.99, -3272.96, 3436.57)" xlink:href="#linear-gradient-10"/><linearGradient id="linear-gradient-174" x1="1452.71" y1="1114.92" x2="1412.32" y2="1313.4" gradientTransform="matrix(1, 0, 0, 1, 0, 0)" xlink:href="#linear-gradient-21"/><linearGradient id="linear-gradient-175" x1="-1356.23" y1="814.49" x2="-1438.36" y2="936.07" gradientTransform="matrix(-1, 0, 0, 1, -28.14, 0)" xlink:href="#linear-gradient-21"/><linearGradient id="linear-gradient-176" x1="1484.84" y1="799.68" x2="1488.8" y2="884.24" gradientTransform="matrix(1, 0, 0, 1, 0, 0)" xlink:href="#linear-gradient-21"/><linearGradient id="linear-gradient-177" x1="-5894.76" y1="1042.98" x2="-5602.94" y2="1042.98" gradientTransform="matrix(-1, -0.02, -0.02, 1, -5166.34, -96.44)" xlink:href="#linear-gradient-13"/><linearGradient id="linear-gradient-178" x1="-5673.52" y1="926.97" x2="-6274.56" y2="1695.85" gradientTransform="matrix(-1, -0.02, -0.02, 1, -5166.34, -96.44)" xlink:href="#linear-gradient-21"/><linearGradient id="linear-gradient-179" x1="556.12" y1="872.61" x2="560.76" y2="1191.81" gradientTransform="translate(911.33 -85.44) rotate(45)" xlink:href="#linear-gradient-21"/><linearGradient id="linear-gradient-180" x1="1549.01" y1="1277.05" x2="1363.14" y2="1479.22" gradientTransform="translate(-1198.53)" xlink:href="#linear-gradient-13"/><linearGradient id="linear-gradient-181" x1="1488.68" y1="1292.06" x2="1505.19" y2="1292.06" gradientTransform="translate(-1198.53)" xlink:href="#linear-gradient-10"/><linearGradient id="linear-gradient-182" x1="1458.77" y1="1277.38" x2="1495.25" y2="1065.45" gradientTransform="translate(-1198.53)" xlink:href="#linear-gradient-13"/><linearGradient id="linear-gradient-183" x1="1507.31" y1="1238.71" x2="1321.45" y2="1440.88" gradientTransform="translate(-1198.53)" xlink:href="#linear-gradient-13"/><linearGradient id="linear-gradient-184" x1="1429.18" y1="1291.22" x2="1443.43" y2="1291.22" gradientTransform="translate(-1198.53)" xlink:href="#linear-gradient-10"/><linearGradient id="linear-gradient-185" x1="1417.52" y1="1270.28" x2="1454" y2="1058.35" gradientTransform="translate(-1198.53)" xlink:href="#linear-gradient-13"/><linearGradient id="linear-gradient-186" x1="1391.78" y1="1015.41" x2="1651.55" y2="828.46" gradientTransform="translate(-1198.53)" xlink:href="#linear-gradient-7"/><linearGradient id="linear-gradient-187" x1="1556.62" y1="861.35" x2="1640.96" y2="861.35" gradientTransform="translate(-1198.53)" xlink:href="#linear-gradient-10"/><linearGradient id="linear-gradient-188" x1="7302.47" y1="847.21" x2="7359.06" y2="975.99" gradientTransform="matrix(-1, 0, 0, 1, 7726.11, 0)" xlink:href="#linear-gradient-10"/><linearGradient id="linear-gradient-189" x1="1640.55" y1="804.33" x2="1664.17" y2="768.02" gradientTransform="translate(-1198.53)" xlink:href="#linear-gradient-10"/><linearGradient id="linear-gradient-190" x1="1357.39" y1="967.63" x2="1617.17" y2="780.68" gradientTransform="translate(-1198.53)" xlink:href="#linear-gradient-7"/><linearGradient id="linear-gradient-191" x1="1454.01" y1="866.71" x2="1496.21" y2="866.71" gradientTransform="translate(-1198.53)" xlink:href="#linear-gradient-10"/><linearGradient id="linear-gradient-192" x1="-4777.59" y1="-978.81" x2="-4793.36" y2="-1030.82" gradientTransform="matrix(0.75, -0.67, 0.67, 0.75, 4523.59, -1611.34)" xlink:href="#linear-gradient-10"/><linearGradient id="linear-gradient-193" x1="-1931.4" y1="-4277.1" x2="-1801.73" y2="-4425.15" gradientTransform="matrix(0.75, -0.67, 0.67, 0.75, 4523.59, -1611.34)" xlink:href="#linear-gradient-13"/><linearGradient id="linear-gradient-194" x1="-4793.71" y1="-979.05" x2="-4807.9" y2="-1025.85" gradientTransform="matrix(0.75, -0.67, 0.67, 0.75, 4523.59, -1611.34)" xlink:href="#linear-gradient-10"/><linearGradient id="linear-gradient-195" x1="1459.17" y1="1040.5" x2="1372.29" y2="970.99" gradientTransform="translate(-1198.53)" xlink:href="#linear-gradient-10"/><linearGradient id="linear-gradient-196" x1="-8566.58" y1="579.36" x2="-8588.76" y2="602.8" gradientTransform="matrix(0.96, 0.29, -0.37, 1.22, 8670.1, 2761.03)" xlink:href="#linear-gradient-13"/><linearGradient id="linear-gradient-197" x1="230.17" y1="1009.53" x2="214.06" y2="1021.56" gradientTransform="matrix(1, 0, 0, 1, 0, 0)" xlink:href="#linear-gradient-10"/></defs><g class="cls-2"><g id="Illustration"><path class="cls-3" d="M24.43,629.16c25.38,44.91,65.72,82.68,96.79,124.67C211,875.18,117.59,1017.17,158.58,1148c35.71,114,184.24,144.52,292.81,149.15,183,7.79,365.69-3.89,542.07-53.5,122.4-34.44,245-79.51,374-82.24,131.89-2.79,255.94,50.15,383.35,75.19,139.91,27.5,307.24-2.36,341-158.59,20.89-96.79-35.36-185.92-40.62-281.22-7-126.15,118.79-195.39,135.07-313.33,10.26-74.36-28.08-140.8-78.1-194.6-52.77-56.76-123.75-106.92-205.17-111.58-85.12-4.87-161.08,39.82-240.62,61.15-223.55,60-350.44-140-556.17-167.89-92.77-12.58-206.8-6.61-291,36.58-78.33,40.16-116.34,129.38-204.21,155.57-93,27.73-178.09-27.69-266.46-45.39C253,199,166.45,231.48,109.21,302.8,53.71,372-6.35,463,.54,554.34,2.63,582.06,11.63,606.52,24.43,629.16Z"/><path class="cls-4" d="M2164.37,586.93c-24.39,46.7-63.15,86-93,129.64-86.31,126.17,3.49,273.81-35.9,409.83-34.32,118.51-177.06,150.28-281.4,155.09-175.82,8.11-351.44-4-520.95-55.63-117.63-35.8-235.41-82.68-359.39-85.52-126.74-2.9-246,52.16-368.41,78.2-134.45,28.59-295.26-2.46-327.67-164.91-20.09-100.64,34-193.33,39-292.41C223.36,630,102.5,558.05,86.86,435.41,77,358.09,113.84,289,161.91,233.06c50.72-59,118.92-111.18,197.18-116,81.79-5.06,154.79,41.41,231.24,63.59C805.17,243,927.11,35.05,1124.82,6,1214-7,1323.56-.83,1404.52,44.08c75.28,41.76,111.81,134.53,196.25,161.77,89.37,28.83,171.16-28.79,256.08-47.2,87.9-19.05,171,14.77,226.05,88.92,53.33,71.91,111,166.62,104.43,261.55C2185.32,538,2176.67,563.38,2164.37,586.93Z"/><path class="cls-5" d="M584.13,1269.75c-54.54,10.9-124.18-48.55-146.62-113.51-23.09-66.84,19.25-94.85,18.92-187.6-.37-105.37-55.18-121.25-91.44-263.28-8.18-32.05-55.51-217.48,3.16-252.24C422.39,421,574.76,513.21,601.47,631.26c19,84.18-39.83,119.52-17.34,217.56,19.72,86,71.57,87.27,91.44,170.26C699.75,1120.12,655.73,1255.43,584.13,1269.75Z"/><path class="cls-6" d="M580.17,1295.28c14.7-113.53-14-288.67-40.63-415.61C510.69,742.24,477.94,630.14,477.62,629l-4.54,1.33c.33,1.12,33,113.07,61.84,250.32,26.57,126.57,55.17,301.14,40.56,414Z"/><path class="cls-7" d="M521.32,1257.07c71.54-37.27,96-165.26,55.36-206.86-27.48-28.11-66.88,1.45-104.89-27.68-48.53-37.2-12.83-107.26-51-198.13-32.47-77.33-110.36-150.5-155.88-135.48-47.64,15.71-72.74,132.32-32.05,202.49,26.46,45.64,67,47.88,75.76,90.33,10.19,49.25-39.07,71.71-39.34,119.46C268.81,1187,426.68,1306.39,521.32,1257.07Z"/><path class="cls-6" d="M482.72,1289.85a2.91,2.91,0,0,0,2.62-4.18c-94.84-195.43-122.65-422.14-122.92-424.4a2.91,2.91,0,0,0-5.79.68c.27,2.28,28.2,230,123.46,426.26A2.93,2.93,0,0,0,482.72,1289.85Z"/><path class="cls-8" d="M288.14,920a1.4,1.4,0,0,0,1.1-2.25c-29.93-38.43-63.11-96.15-51.17-153,7.11-33.84,27.13-51.48,27.34-51.66a1.39,1.39,0,1,0-1.83-2.1c-.85.73-20.93,18.44-28.23,53.18-6.72,31.94-3.2,84.79,51.69,155.25A1.42,1.42,0,0,0,288.14,920Z"/><path class="cls-8" d="M527.77,1240a1.39,1.39,0,0,0,1.15-.61c46-67.14,61.69-119,46.63-154.19-13.4-31.27-47.22-37.09-47.56-37.15a1.39,1.39,0,0,0-.44,2.75c.32,0,32.68,5.66,45.45,35.53,14.64,34.24-1,85.21-46.38,151.49a1.41,1.41,0,0,0,.36,1.94A1.43,1.43,0,0,0,527.77,1240Z"/><path class="cls-9" d="M1615.46,1269.75c54.54,10.9,124.18-48.55,146.62-113.51,23.09-66.84-19.25-94.85-18.92-187.6.37-105.37,55.18-121.25,91.44-263.28,8.18-32.05,55.52-217.48-3.15-252.24-54.25-32.14-206.62,60.09-233.33,178.14-19,84.18,39.83,119.52,17.34,217.56-19.72,86-71.57,87.27-91.43,170.26C1499.84,1120.12,1543.86,1255.43,1615.46,1269.75Z"/><path class="cls-6" d="M1619.42,1295.28c-14.7-113.53,14-288.67,40.63-415.61C1688.9,742.24,1721.65,630.14,1722,629l4.54,1.33c-.32,1.12-33,113.07-61.84,250.32-26.57,126.57-55.17,301.14-40.55,414Z"/><path class="cls-10" d="M1678.27,1257.07c-71.54-37.27-96-165.26-55.36-206.86,27.48-28.11,66.88,1.45,104.89-27.68,48.54-37.2,12.83-107.26,51-198.13,32.47-77.33,110.36-150.5,155.88-135.48,47.64,15.71,72.74,132.32,32,202.49-26.46,45.64-67,47.88-75.75,90.33-10.2,49.25,39.06,71.71,39.33,119.46C1930.78,1187,1772.91,1306.39,1678.27,1257.07Z"/><path class="cls-6" d="M1716.87,1289.85a2.91,2.91,0,0,1-2.62-4.18c94.84-195.43,122.65-422.14,122.92-424.4a2.91,2.91,0,0,1,5.79.68c-.27,2.28-28.2,230-123.46,426.26A2.91,2.91,0,0,1,1716.87,1289.85Z"/><path class="cls-8" d="M1911.45,920a1.4,1.4,0,0,1-1.1-2.25c29.94-38.43,63.11-96.15,51.17-153-7.11-33.84-27.13-51.48-27.33-51.66A1.39,1.39,0,1,1,1936,711c.85.73,20.93,18.44,28.24,53.18,6.71,31.94,3.19,84.79-51.7,155.25A1.42,1.42,0,0,1,1911.45,920Z"/><path class="cls-8" d="M1671.82,1240a1.39,1.39,0,0,1-1.15-.61c-46-67.14-61.69-119-46.63-154.19,13.4-31.27,47.22-37.09,47.56-37.15a1.39,1.39,0,0,1,.44,2.75c-.32,0-32.68,5.66-45.45,35.53-14.64,34.24,1,85.21,46.38,151.49a1.41,1.41,0,0,1-.36,1.94A1.43,1.43,0,0,1,1671.82,1240Z"/><path class="cls-11" d="M505.19,604.33v598.34c0,44,38.68,79.73,86.38,79.73H1596.29c47.7,0,86.38-35.7,86.38-79.73V604.33Z"/><path class="cls-12" d="M1388.91,426.18,1133.53,271.66c-24.85-15-54.36-15-79.2,0L799,426.13,504,604.57l295,178,295,178,295-178.19,295-177.79Z"/><g class="cls-13"><path class="cls-6" d="M528.26,1256.54a2,2,0,0,1-1.37-.52,2.07,2.07,0,0,1-.17-2.92l367.9-413.93a2.07,2.07,0,1,1,3.09,2.75L529.8,1255.85A2,2,0,0,1,528.26,1256.54Z"/><path class="cls-6" d="M1659.6,1256.54a2.07,2.07,0,0,1-1.55-.69L1290.14,841.92a2.07,2.07,0,0,1,3.09-2.75l367.91,413.93a2.07,2.07,0,0,1-.17,2.92A2,2,0,0,1,1659.6,1256.54Z"/></g><path class="cls-14" d="M1482,973.68s-12.13-14.54,4.36-23.51,42.41.87,45.68,19.94,19.66,7.74,26.81,3.57,27.11-9.83,32.17,11.91c2,8.62-.53,19.62,3.21,27.64,5.14,11,21.9,8.18,31,12.4,11.89,5.49,18.1,16.1,11.91,28.48-9.53,19.06-28.29,31.18-18.17,47.76s-30.68,53.82-44.68,19.26-35.74-28.7-53.32-30.88-26.51-17.38-21.74-32.87-1.49-24.72-8-31.27S1462.67,991.26,1482,973.68Z"/><path class="cls-15" d="M1456.51,1159.08s-13.23,2.05-28.11,12a7.41,7.41,0,0,0-3.27,7.09c1.78,14.11,9.1,59.78,33.25,104.38a11.21,11.21,0,0,1,1.08,7.71l-4.2,19.52-7.78,7.3h20l13.34-36.11-5.71-1.81a10.81,10.81,0,0,1-7.54-10.11l-.67-38.73c.58-17.26-10.58-29.17-10.58-29.17l32-1.56Z"/><path class="cls-16" d="M1439.66,1320.59c-1.83,2.39,19.64,5.54,30.49.32,0,0,15-26.16,15-39.63,0,0-1.2-2.75-10-2.13,0,0-5,31-10.38,34.45s-14.91.35-14.91.35S1442.35,1317.07,1439.66,1320.59Z"/><path class="cls-17" d="M1484.33,1201.71c-.17-.3-34.46-4.13-34.46-4.13s1.12,10.43-2.39,24.78-53.85,76.54-53.85,76.54l5.28,16.73c-16.32,5.69-32.38,6.6-48.18,2.9l32.72-19.63s30.62-104.34,49.37-123l34.37-11.89Z"/><path class="cls-18" d="M1561.23,1141s19.76,29.39,21.38,42.79-5.41,18.85-26.14,19.75-76.07.89-76.07.89l-47.23-40.37s34.42-12.28,43.37-15.76S1561.23,1141,1561.23,1141Z"/><path class="cls-19" d="M1396.91,1310s5.69,5.5,1.85,11.63c0,0-45,8-57.25,4.36,0,0,2.54-5.8,16.3-12.39l-1,.78a1.64,1.64,0,0,0,1.08,2.95C1367,1316.81,1385.73,1315.15,1396.91,1310Z"/><path class="cls-20" d="M1507.8,1137.1s-23-21.9-34.33-36.41a30.8,30.8,0,0,1-5.21-27.71c5.17-17.42,14.36-35.46,15.2-38.27,1.28-4.31,27.08-4.13,27.08-4.13s50.76,33,70.7,88.76l-22.4,7s-13.25-22.24-26.35-36.37c0,0,22.67,29.93,23.46,42.19Z"/><path class="cls-21" d="M1480.34,1010.65c.26.9,7,23.22,7.52,23.68s14.77,1.23,21.47-3.35l-11.37-23.8Z"/><path class="cls-22" d="M1491.4,963.77s-12.16,5.13-20.42,22.7-2.1,25.67,5.66,26.79,19.34.94,31.61-10.41S1507.2,957.69,1491.4,963.77Z"/><path class="cls-23" d="M1500,993.48s9.17-25.7-13.61-26l-5.36,3.74s-8.36-14.25,5.36-21.05,34.19-.74,40,17.74,2.42,30.42-7.29,39.27-13.72-1.19-13.72-1.19,5.29-8.27,3.14-12.69-7.12.91-7.12.91Z"/><path class="cls-24" d="M1502.56,996.34s4.63-13.24,10.82-8-5,12.23-9.42,14.48Z"/><path class="cls-25" d="M1460.93,1138.73l16.91-16.29,23.38,9.88s23.28,3.6,36.6,0l13.32-3.61,30.1-9.37,4.73,13.36a8,8,0,0,1-2.94,9.24,52.67,52.67,0,0,1-7.6,4.74c-4,1.73-97.73-1.2-97.73-1.2Z"/><g class="cls-13"><path class="cls-6" d="M1583.73,995l-.8-.09c.69-6.39-.37-10.65-3.25-13-5.71-4.7-17.55-1-28,2.22-5.29,1.64-10.29,3.2-13.79,3.38a8,8,0,0,1-6.38-2.11c-2.84-2.84-2.64-7.42-2.63-7.62l.8,0s-.19,4.43,2.4,7a7.25,7.25,0,0,0,5.77,1.88c3.4-.18,8.35-1.72,13.59-3.35,10.65-3.3,22.71-7,28.75-2.07C1583.3,983.87,1584.45,988.36,1583.73,995Z"/></g><g class="cls-13"><path class="cls-6" d="M1608.61,1091.3c-1.88-7.73,3.2-14.27,9.08-21.84,4.24-5.45,9-11.62,11.61-19a10.91,10.91,0,0,0-.79-9.66c-5.48-8.93-23.66-11.54-23.84-11.56l.11-.8c.76.11,18.74,2.69,24.41,11.94a11.65,11.65,0,0,1,.87,10.34c-2.62,7.54-7.46,13.77-11.73,19.26-5.76,7.41-10.73,13.8-8.94,21.16Z"/></g><rect class="cls-26" x="1517.79" y="1223.28" width="8.9" height="96.29"/><path class="cls-27" d="M1561.23,1321.43h-78a5.8,5.8,0,0,1,5.79-5.8h66.4a5.8,5.8,0,0,1,5.79,5.8Z"/><rect class="cls-28" x="1474.75" y="1201.71" width="98.05" height="27.81" rx="9.58"/><path class="cls-29" d="M1524.9,1146.41h-.22l-98.06-.11a4.39,4.39,0,0,1,0-8.78l98.06.11a4.39,4.39,0,0,1,.21,8.77Z"/><path class="cls-30" d="M1338.47,1057.38h81.67a15.56,15.56,0,0,1,14.07,8.93l37.75,80H1370.48a9.47,9.47,0,0,1-8.8-6l-29.27-74.08A6.52,6.52,0,0,1,1338.47,1057.38Z"/><path class="cls-31" d="M1662,1150a3.6,3.6,0,0,0-.85-3.13,4.15,4.15,0,0,0-3.12-1.38H1248.8a4.73,4.73,0,0,0-3.92,2,4.15,4.15,0,0,0-.31,4.19l4.44,9a6.23,6.23,0,0,0,5.63,3.38h400.53a4.63,4.63,0,0,0,4.61-3.57Z"/><path class="cls-32" d="M1271.73,1339.59a3.38,3.38,0,0,1-1.41-.3,3.69,3.69,0,0,1-1.88-4.82l75.31-179.13a3.56,3.56,0,0,1,4.71-1.92,3.7,3.7,0,0,1,1.88,4.83L1275,1337.37A3.58,3.58,0,0,1,1271.73,1339.59Z"/><path class="cls-33" d="M1356.57,1339.59a3.59,3.59,0,0,1-3.3-2.22L1278,1158.25a3.71,3.71,0,0,1,1.88-4.83,3.57,3.57,0,0,1,4.72,1.92l75.31,179.13a3.7,3.7,0,0,1-1.88,4.82A3.39,3.39,0,0,1,1356.57,1339.59Z"/><path class="cls-34" d="M1568.29,1339.59a3.45,3.45,0,0,1-1.42-.3,3.7,3.7,0,0,1-1.88-4.82l75.31-179.13a3.57,3.57,0,0,1,4.72-1.92,3.71,3.71,0,0,1,1.88,4.83l-75.31,179.12A3.58,3.58,0,0,1,1568.29,1339.59Z"/><path class="cls-35" d="M1653.13,1339.59a3.58,3.58,0,0,1-3.3-2.22l-75.31-179.12a3.71,3.71,0,0,1,1.88-4.83,3.57,3.57,0,0,1,4.72,1.92l75.31,179.13a3.7,3.7,0,0,1-1.88,4.82A3.45,3.45,0,0,1,1653.13,1339.59Z"/><g class="cls-36"><path class="cls-6" d="M1460.2,314.8H636c-14.54,0-26.57,12.61-26.57,27.14V1010.8h969V434.9Z"/><path class="cls-37" d="M1578,434.9l-108.16.94a9.61,9.61,0,0,1-7.14-3.11c-2-2-2.24-4.78-2.24-7.64V315.62Z"/><path class="cls-38" d="M1307.7,669.09q0,37.71-12,69t-34.05,49.12q-22,17.81-51.08,17.81-19.38,0-34.31-9.3a53.38,53.38,0,0,1-21.48-24.49h-4.19q-28.29,33.78-72,33.79-46.37,0-73.08-27.9t-26.71-76.35q0-55.26,35.09-89.06t91.68-33.78a317.32,317.32,0,0,1,49.63,4.32q27.12,4.32,44.66,10.34l-6,128.09q0,36.4,19.9,36.4,16.77,0,26.72-24.49t9.95-64q0-42.16-17.54-74.52a119.11,119.11,0,0,0-49.38-49.37q-31.82-17-72.68-17-52.92,0-91.94,21.74t-59.85,62.73q-20.82,41-20.82,94.68,0,72.3,38.63,110.93t112,38.63q27.76,0,61-6.15a406,406,0,0,0,65.49-17.94v50.29q-56.06,23.84-124.42,23.83-99.52,0-155.19-52.38T880,708.38q0-64.71,28.42-117.48t80.93-82.77q52.53-30,120.88-30,57.63,0,102.94,23.58t69.94,67Q1307.7,612.24,1307.7,669.09Zm-268.22,32.74q0,55.26,45.06,55.26,23.57,0,35.88-16.63t14.93-54.09l3.4-57.88a143.4,143.4,0,0,0-30.12-2.88q-32.73,0-50.94,20.43T1039.48,701.83Z"/></g><path class="cls-6" d="M1706.09,434.31c-1.18-101.6,80.52-185.21,182.12-186.39A183.1,183.1,0,0,1,1992.83,279l10.49-10.62a5.39,5.39,0,0,1,9,2.36l18.33,66.6a5.39,5.39,0,0,1-6.56,6.64l-66.84-17.43a5.4,5.4,0,0,1-2.48-9l11.8-12a147.07,147.07,0,0,0-78-21.22c-81.46.94-147,67.94-146,149.36s68,146.79,149.44,145.85a148.18,148.18,0,0,0,146-146.49c0-2.81,2.22-6,5.32-6l25.75-.3c1.66,0,2.87,1.21,3.67,2l.21.21a7.07,7.07,0,0,1,1.59,4.53,184.49,184.49,0,0,1-182.13,182.89C1790.88,617.62,1707.26,535.91,1706.09,434.31Zm320.79-95.52a1.49,1.49,0,0,0-.05-.36l-18.33-66.6a1.4,1.4,0,0,0-2.34-.61l-12.82,13-1.38-.94a179.17,179.17,0,0,0-103.7-31.36c-99.4,1.15-179.33,83-178.18,182.36s83,179.33,182.35,178.18a180.49,180.49,0,0,0,178.19-178.93h0a3.25,3.25,0,0,0-.44-1.69l-.22-.23a6.74,6.74,0,0,0-.91-.82l-25.61.3c-.55,0-1.37,1.08-1.38,2.05a152.18,152.18,0,0,1-150,150.44c-83.66,1-152.51-66.23-153.48-149.8s66.31-152.42,150-153.39a151.07,151.07,0,0,1,82.25,23.13l2.11,1.33-15.31,15.53a1.42,1.42,0,0,0,.65,2.36l66.84,17.43a1.41,1.41,0,0,0,1.35-.37A1.44,1.44,0,0,0,2026.88,338.79Z"/><path class="cls-6" d="M1834.05,468.44H1781V457.27L1800,438q8.48-8.67,11.07-12a26.42,26.42,0,0,0,3.74-6.2,15.87,15.87,0,0,0,1.14-5.93q0-4.56-2.52-6.8a9.77,9.77,0,0,0-6.73-2.24,19.36,19.36,0,0,0-8.57,2,43.85,43.85,0,0,0-8.67,5.77l-8.73-10.34a57,57,0,0,1,9.3-6.76,34.37,34.37,0,0,1,8-3,41.29,41.29,0,0,1,9.77-1.07,29,29,0,0,1,12.57,2.6,20,20,0,0,1,8.47,7.27,19.33,19.33,0,0,1,3,10.7,26.22,26.22,0,0,1-1.84,9.85,37.93,37.93,0,0,1-5.72,9.43A139,139,0,0,1,1810.73,445l-9.77,9.2v.73h33.09Z"/><path class="cls-6" d="M1896.5,452.69h-9.14v15.75h-15.69V452.69h-32.42V441.52l33.3-49h14.81v47.75h9.14Zm-24.83-12.46V427.34c0-2.15.08-5.26.26-9.35s.31-6.46.41-7.12h-.41a58.82,58.82,0,0,1-4.63,8.31l-13.92,21.05Z"/><path class="cls-6" d="M1941.59,392.48l-28.31,76h-14.39l28.31-76Z"/><path class="cls-6" d="M1953.91,468.44l28.52-62.35H1945V392.58h54.5v10.08l-28.73,65.78Z"/><path class="cls-39" d="M1919.44,648.53l.51,6.17v0a1.07,1.07,0,1,0,2.13-.17h0l-.57-6.22a1,1,0,0,0-2.07.18Z"/><path class="cls-40" d="M1920.5,669.13l0,6.19v0a1.18,1.18,0,0,0,2.35,0h0l0-6.25a1.15,1.15,0,0,0-2.29,0Z"/><path class="cls-41" d="M1919.78,689.74l-.56,6.16v0a1.28,1.28,0,0,0,2.55.23h0l.5-6.23a1.25,1.25,0,0,0-2.49-.21Z"/><path class="cls-42" d="M1917.33,710.21l-1.06,6.1v0a1.39,1.39,0,0,0,2.74.47h0l1-6.17a1.35,1.35,0,0,0-2.67-.45Z"/><path class="cls-43" d="M1913.23,730.41l-1.54,6v0a1.49,1.49,0,1,0,2.89.74h0l1.49-6.07a1.46,1.46,0,0,0-2.83-.71Z"/><path class="cls-44" d="M1907.55,750.22l-2,5.84v0a1.6,1.6,0,1,0,3,1h0l2-5.94a1.57,1.57,0,0,0-3-1Z"/><path class="cls-45" d="M1900.36,769.53l-2.44,5.68,0,0a1.71,1.71,0,1,0,3.14,1.34h0l2.41-5.78a1.67,1.67,0,0,0-3.08-1.31Z"/><path class="cls-46" d="M1891.74,788.24l-2.86,5.48,0,0a1.82,1.82,0,0,0,3.22,1.68v0l2.83-5.58a1.78,1.78,0,0,0-3.17-1.63Z"/><path class="cls-47" d="M1881.74,806.24l-3.25,5.25,0,0a1.92,1.92,0,0,0,3.26,2v0l3.25-5.35a1.89,1.89,0,0,0-3.22-2Z"/><path class="cls-48" d="M1870.45,823.45l-3.64,5,0,0a2,2,0,0,0,3.27,2.39v0l3.64-5.1a2,2,0,0,0-3.24-2.33Z"/><path class="cls-49" d="M1857.9,839.75l-4,4.71,0,0a2.14,2.14,0,1,0,3.25,2.77v0l4-4.82a2.1,2.1,0,0,0-3.21-2.7Z"/><path class="cls-50" d="M1844.18,855.06l-4.35,4.39,0,0a2.24,2.24,0,0,0,3.18,3.15l0,0,4.37-4.5a2.21,2.21,0,0,0-3.16-3.09Z"/><path class="cls-51" d="M1829.32,869.28l-4.66,4-.05,0a2.35,2.35,0,1,0,3.07,3.55h0l4.7-4.15a2.31,2.31,0,0,0-3-3.49Z"/><path class="cls-52" d="M1813.41,882.27l-5,3.63,0,0a2.45,2.45,0,1,0,2.9,3.95h0l5-3.76a2.42,2.42,0,0,0-2.88-3.89Z"/><path class="cls-53" d="M1796.53,893.93l-5.24,3.23,0,0a2.53,2.53,0,1,0,2.65,4.31h0l5.32-3.33a2.51,2.51,0,0,0-2.64-4.26Z"/><path class="cls-54" d="M1778.76,904.18l-5.48,2.76-.06,0a2.59,2.59,0,0,0,2.34,4.63h0l5.58-2.86a2.57,2.57,0,0,0-2.33-4.59Z"/><path class="cls-55" d="M1760.21,912.85l-5.71,2.28-.07,0a2.65,2.65,0,0,0,2,4.92h0l5.82-2.37a2.63,2.63,0,0,0-2-4.88Z"/><path class="cls-56" d="M1741,919.91l-5.89,1.82-.06,0a2.71,2.71,0,1,0,1.6,5.17h0l6-1.89a2.69,2.69,0,0,0-1.6-5.14Z"/><path class="cls-57" d="M1721.2,925.42l-6,1.36h-.06a2.77,2.77,0,0,0,1.22,5.41h0l6.12-1.42a2.75,2.75,0,0,0-1.23-5.36Z"/><path class="cls-58" d="M1701.07,929.41l-6.09.9h-.06a2.83,2.83,0,0,0,.83,5.6h0L1702,935a2.81,2.81,0,0,0-.84-5.56Z"/><path class="cls-59" d="M1680.71,931.9l-6.14.47h-.06a2.89,2.89,0,0,0,.43,5.76h0l6.26-.51a2.87,2.87,0,0,0-.45-5.72Z"/><path class="cls-60" d="M1660.21,933l-6.16,0H1654a3,3,0,0,0,0,5.9h0l6.27-.09a2.93,2.93,0,0,0-.06-5.86Z"/><path class="cls-61" d="M1639.68,932.66l-6.15-.35h-.06a3,3,0,0,0-.34,6h0l6.27.32a3,3,0,0,0,.32-6Z"/><path class="cls-62" d="M1619.2,931.06l-6.12-.72H1613a3.07,3.07,0,0,0-.71,6.1h0l6.24.69a3.05,3.05,0,0,0,.7-6.06Z"/><path class="cls-63" d="M1598.85,928.24l-6.08-1.07h0a3.13,3.13,0,0,0-1.09,6.16h0l6.18,1.06a3.11,3.11,0,0,0,1.07-6.13Z"/><path class="cls-64" d="M1578.68,924.27l-6-1.4h0a3.18,3.18,0,1,0-1.45,6.2h0l6.1,1.39a3.17,3.17,0,0,0,1.43-6.18Z"/><path class="cls-65" d="M1558.76,919.22l-5.94-1.72h0a3.25,3.25,0,1,0-1.81,6.24h0l6,1.71a3.23,3.23,0,0,0,1.79-6.21Z"/><path class="cls-66" d="M1539.11,913.14l-5.84-2,0,0a3.31,3.31,0,1,0-2.16,6.25h0l5.94,2a3.29,3.29,0,0,0,2.13-6.22Z"/><path class="cls-67" d="M1519.79,906.09l-5.73-2.3h0a3.37,3.37,0,1,0-2.5,6.25h0l5.83,2.3a3.35,3.35,0,0,0,2.48-6.22Z"/><path class="cls-68" d="M1500.83,898.11l-5.61-2.56,0,0a3.43,3.43,0,1,0-2.85,6.23h0l5.71,2.57a3.41,3.41,0,0,0,2.82-6.2Z"/><path class="cls-69" d="M1482.27,889.25l-5.49-2.83,0,0a3.49,3.49,0,0,0-3.19,6.2h0l5.59,2.85a3.47,3.47,0,0,0,3.16-6.18Z"/><path class="cls-70" d="M1464.12,879.55l-5.35-3.06,0,0a3.51,3.51,0,1,0-3.48,6.1h0l5.44,3.09a3.51,3.51,0,0,0,3.47-6.1Z"/><path class="cls-71" d="M1446.39,869.1l-5.24-3.27,0,0a3.53,3.53,0,1,0-3.73,6h0l5.32,3.3a3.53,3.53,0,0,0,3.72-6Z"/><path class="cls-72" d="M1429.05,858l-5.12-3.46,0,0a3.55,3.55,0,0,0-4,5.89h0l5.19,3.49a3.54,3.54,0,0,0,4-5.88Z"/><path class="cls-73" d="M1412.11,846.24l-5-3.64,0,0a3.57,3.57,0,1,0-4.19,5.78h0L1408,852a3.57,3.57,0,0,0,4.18-5.78Z"/><path class="cls-74" d="M1395.56,834l-4.89-3.79,0,0a3.59,3.59,0,0,0-4.4,5.68h0l5,3.82a3.59,3.59,0,1,0,4.38-5.68Z"/><path class="cls-75" d="M1379.38,821.16l-4.78-3.93,0,0a3.61,3.61,0,0,0-4.58,5.59h0l4.84,4a3.6,3.6,0,0,0,4.56-5.58Z"/><path class="cls-76" d="M1363.55,807.92l-4.69-4h0a3.63,3.63,0,0,0-4.75,5.49h0l4.73,4.07a3.62,3.62,0,0,0,4.73-5.49Z"/><path class="cls-77" d="M1348,794.3l-4.6-4.16h0a3.65,3.65,0,1,0-4.89,5.41h0l4.64,4.18a3.65,3.65,0,0,0,4.88-5.42Z"/><path class="cls-78" d="M1332.82,780.33l-4.51-4.24v0a3.68,3.68,0,0,0-5,5.35h0l4.54,4.27a3.67,3.67,0,0,0,5-5.35Z"/><path class="cls-79" d="M1317.87,766.08l-4.43-4.33h0a3.69,3.69,0,1,0-5.15,5.28h0l4.48,4.35a3.68,3.68,0,1,0,5.13-5.28Z"/><path class="cls-80" d="M1303.15,751.56l-4.38-4.4h0a3.71,3.71,0,1,0-5.26,5.23h0l4.41,4.41a3.71,3.71,0,1,0,5.24-5.24Z"/><path class="cls-81" d="M1288.62,736.83l-4.33-4.46h0a3.73,3.73,0,1,0-5.35,5.2h0l4.35,4.47a3.73,3.73,0,0,0,5.34-5.2Z"/><path class="cls-82" d="M1274.26,721.93l-4.29-4.51a3.75,3.75,0,0,0-5.44,5.16h0l4.31,4.51a3.74,3.74,0,0,0,5.41-5.17Z"/><path class="cls-83" d="M1260,706.89l-4.26-4.54a3.77,3.77,0,1,0-5.5,5.15h0l4.27,4.54a3.76,3.76,0,0,0,5.48-5.16Z"/><path class="cls-84" d="M1245.87,691.75l-4.23-4.56a3.79,3.79,0,1,0-5.56,5.16h0l4.24,4.56a3.79,3.79,0,0,0,5.54-5.16Z"/><path class="cls-85" d="M1231.77,676.55l-4.22-4.57a3.81,3.81,0,0,0-5.6,5.17h0l4.24,4.56a3.8,3.8,0,1,0,5.57-5.17Z"/><path class="cls-86" d="M1217.68,661.33l-4.23-4.56a3.82,3.82,0,1,0-5.61,5.2h0l4.23,4.55a3.82,3.82,0,1,0,5.6-5.2Z"/><path class="cls-87" d="M1203.57,646.13l-4.25-4.54a3.85,3.85,0,0,0-5.63,5.25h0l4.25,4.53a3.85,3.85,0,0,0,5.62-5.25Z"/><path class="cls-88" d="M1189.38,631l-4.28-4.52a3.87,3.87,0,1,0-5.62,5.31h0l4.27,4.51a3.87,3.87,0,1,0,5.62-5.31Z"/><path class="cls-89" d="M1175.07,616l-4.31-4.5a3.89,3.89,0,0,0-5.61,5.39h0l4.31,4.46h0a3.88,3.88,0,0,0,5.59-5.38Z"/><path class="cls-90" d="M1160.62,601l-4.37-4.44a3.91,3.91,0,1,0-5.57,5.48h0l4.36,4.42h0a3.9,3.9,0,1,0,5.56-5.48Z"/><path class="cls-91" d="M1146,586.27l-4.43-4.38a3.92,3.92,0,1,0-5.52,5.58h0l4.42,4.35h0a3.92,3.92,0,1,0,5.51-5.58Z"/><path class="cls-92" d="M1131.12,571.73l-4.5-4.32a4,4,0,1,0-5.46,5.71h0l0,0,4.48,4.28h0a3.94,3.94,0,1,0,5.44-5.7Z"/><path class="cls-93" d="M1116,557.46l-4.61-4.23a3.93,3.93,0,1,0-5.32,5.79v0l4.57,4.2,0,0a3.94,3.94,0,0,0,5.33-5.8Z"/><path class="cls-94" d="M1100.55,543.49l-4.69-4.13a3.92,3.92,0,1,0-5.18,5.89h0l4.64,4.1,0,0a3.93,3.93,0,1,0,5.19-5.89Z"/><path class="cls-95" d="M1084.79,529.87l-4.79-4a3.9,3.9,0,1,0-5,6l0,0,4.74,4,0,0a3.91,3.91,0,0,0,5-6Z"/><path class="cls-96" d="M1068.7,516.66l-4.9-3.87a3.89,3.89,0,1,0-4.83,6.1h0l4.84,3.85,0,0a3.89,3.89,0,0,0,4.84-6.1Z"/><path class="cls-97" d="M1052.22,503.9l-5-3.73a3.88,3.88,0,0,0-4.63,6.22l0,0,5,3.69,0,0a3.88,3.88,0,0,0,4.64-6.22Z"/><path class="cls-98" d="M1035.35,491.65l-5.13-3.57a3.86,3.86,0,0,0-4.4,6.34l0,0,5.07,3.53,0,0a3.87,3.87,0,0,0,4.42-6.35Z"/><path class="cls-99" d="M1018.08,480l-5.27-3.39a3.85,3.85,0,0,0-4.16,6.47l0,0,5.19,3.35,0,0a3.84,3.84,0,1,0,4.17-6.46Z"/><path class="cls-100" d="M1000.38,468.9,995,465.71a3.83,3.83,0,1,0-3.9,6.59l0,0,5.31,3.15,0,0a3.83,3.83,0,1,0,3.92-6.59Z"/><path class="cls-101" d="M982.28,458.5l-5.5-3a3.81,3.81,0,0,0-3.64,6.7l0,0,5.42,2.95,0,0a3.82,3.82,0,0,0,3.66-6.7Z"/><path class="cls-102" d="M963.82,448.77l-5.6-2.79a3.8,3.8,0,0,0-3.38,6.81h0l5.52,2.76,0,0a3.81,3.81,0,0,0,3.4-6.81Z"/><path class="cls-103" d="M945,439.72l-5.7-2.58A3.78,3.78,0,1,0,936.2,444h0l5.63,2.56,0,0a3.79,3.79,0,0,0,3.13-6.9Z"/><path class="cls-104" d="M925.92,431.35,920.13,429a3.77,3.77,0,1,0-2.86,7h0l5.71,2.35,0,0a3.77,3.77,0,0,0,2.87-7Z"/><path class="cls-105" d="M906.52,423.67l-5.87-2.17a3.76,3.76,0,0,0-2.6,7.05h0l5.79,2.15h0a3.76,3.76,0,0,0,2.62-7.05Z"/><path class="cls-106" d="M886.86,416.69l-5.94-2a3.74,3.74,0,1,0-2.34,7.1h0l5.87,1.94h0a3.74,3.74,0,1,0,2.36-7.1Z"/><path class="cls-107" d="M867,410.4l-6-1.75a3.72,3.72,0,1,0-2.08,7.15h0l5.93,1.73h0A3.72,3.72,0,0,0,867,410.4Z"/><path class="cls-108" d="M846.86,404.82l-6.06-1.54a3.71,3.71,0,1,0-1.82,7.19h0l6,1.52h0a3.71,3.71,0,0,0,1.83-7.19Z"/><path class="cls-109" d="M826.58,399.94l-6.12-1.32a3.69,3.69,0,0,0-1.56,7.22h0l6,1.31h0a3.7,3.7,0,1,0,1.57-7.23Z"/><path class="cls-110" d="M806.13,395.78l-6.16-1.1a3.68,3.68,0,0,0-1.3,7.24h0l6.08,1.1h0a3.68,3.68,0,1,0,1.31-7.24Z"/><path class="cls-111" d="M785.55,392.35l-6.2-.89a3.66,3.66,0,0,0-1,7.25h0l6.11.89h0a3.67,3.67,0,0,0,1.06-7.26Z"/><path class="cls-112" d="M764.86,389.64l-6.22-.67a3.65,3.65,0,1,0-.78,7.25h0l6.15.67h0a3.65,3.65,0,0,0,.79-7.26Z"/><path class="cls-113" d="M744.1,387.66l-6.25-.45a3.63,3.63,0,0,0-.52,7.25h0l6.16.45h0a3.63,3.63,0,1,0,.53-7.25Z"/><path class="cls-114" d="M723.27,386.42l-6.25-.23a3.62,3.62,0,1,0-.26,7.23h0l6.18.24h0a3.62,3.62,0,1,0,.28-7.24Z"/><path class="cls-115" d="M702.42,385.92h-6.26a3.61,3.61,0,0,0,0,7.21h6.25a3.61,3.61,0,1,0,0-7.22Z"/><path class="cls-116" d="M681.56,386.18l-6.25.22a3.59,3.59,0,1,0,.26,7.17h0l6.18-.21h0a3.59,3.59,0,0,0-.25-7.18Z"/><path class="cls-117" d="M660.73,387.19l-6.24.45a3.57,3.57,0,0,0,.51,7.12h0l6.16-.44h0a3.57,3.57,0,1,0-.5-7.13Z"/><path class="cls-118" d="M640,389l-6.22.67a3.56,3.56,0,0,0,.77,7.08h0l6.14-.66h0A3.57,3.57,0,0,0,640,389Z"/><path class="cls-119" d="M619.24,391.49l-6.19.91a3.54,3.54,0,0,0,1,7h0l6.11-.89h0a3.55,3.55,0,1,0-1-7Z"/><path class="cls-120" d="M598.64,394.81,592.49,396a3.53,3.53,0,0,0,1.31,6.93h0l6.07-1.14H600a3.53,3.53,0,0,0-1.3-6.94Z"/><path class="cls-121" d="M578.18,399l-6.1,1.43a3.51,3.51,0,0,0,1.61,6.84h0l6-1.4h0a3.52,3.52,0,1,0-1.59-6.85Z"/><path class="cls-122" d="M557.92,404.1l-6,1.72a3.49,3.49,0,1,0,1.92,6.72h0l5.94-1.68.05,0a3.5,3.5,0,1,0-1.91-6.73Z"/><path class="cls-123" d="M537.93,410.18l-5.94,2a3.45,3.45,0,0,0,2.23,6.54h0l5.84-2,.06,0a3.47,3.47,0,1,0-2.22-6.57Z"/><path class="cls-124" d="M518.27,417.31l-5.82,2.35A3.41,3.41,0,0,0,515,426l0,0,5.72-2.28,0,0a3.42,3.42,0,1,0-2.53-6.36Z"/><path class="cls-125" d="M499,425.54l-5.67,2.69a3.36,3.36,0,0,0,2.88,6.08l0,0,5.57-2.61.06,0a3.38,3.38,0,0,0-2.87-6.12Z"/><path class="cls-126" d="M480.31,434.94l-5.5,3.05a3.32,3.32,0,0,0,3.23,5.8l0,0,5.39-3,0,0a3.33,3.33,0,1,0-3.21-5.84Z"/><path class="cls-127" d="M462.25,445.56,457,449a3.27,3.27,0,0,0,3.58,5.48l.05,0,5.16-3.34.06,0a3.29,3.29,0,0,0-3.56-5.53Z"/><path class="cls-128" d="M445,457.48l-5,3.83a3.22,3.22,0,1,0,3.92,5.12l0,0,4.89-3.72.06,0a3.24,3.24,0,1,0-3.92-5.16Z"/><path class="cls-129" d="M428.69,470.71,424,474.94a3.18,3.18,0,1,0,4.27,4.71l0,0,4.57-4.1.06-.06a3.19,3.19,0,1,0-4.27-4.75Z"/><path class="cls-130" d="M413.56,485.26l-4.29,4.62a3.13,3.13,0,0,0,4.59,4.27l.05-.06,4.19-4.47.06-.06a3.15,3.15,0,0,0-4.59-4.31Z"/><path class="cls-131" d="M399.75,501.1l-3.84,5a3.09,3.09,0,1,0,4.9,3.76l.05-.06,3.75-4.84.06-.08a3.1,3.1,0,0,0-4.91-3.8Z"/><path class="cls-132" d="M387.54,518.24l-3.31,5.36a3,3,0,1,0,5.18,3.2l0-.06,3.24-5.2.05-.07a3.06,3.06,0,1,0-5.19-3.24Z"/><path class="cls-133" d="M377.12,536.49l-2.78,5.66a3,3,0,0,0,5.39,2.64l0-.07,2.72-5.49,0-.08a3,3,0,1,0-5.39-2.67Z"/><path class="cls-134" d="M368.5,555.65l-2.22,5.89a3,3,0,1,0,5.52,2.09l0-.06,2.2-5.73,0-.08a3,3,0,1,0-5.54-2.12Z"/><path class="cls-135" d="M361.71,575.51,360,581.57a2.91,2.91,0,1,0,5.6,1.55v-.06l1.67-5.9,0-.07a2.92,2.92,0,1,0-5.62-1.59Z"/><path class="cls-136" d="M356.72,595.88l-1.14,6.19a2.86,2.86,0,1,0,5.62,1v-.06l1.15-6v-.07a2.87,2.87,0,1,0-5.64-1.07Z"/><path class="cls-137" d="M353.53,616.61l-.62,6.26a2.81,2.81,0,0,0,5.6.55v-.06l.63-6.12v-.07a2.82,2.82,0,1,0-5.62-.57Z"/><path class="cls-138" d="M352.1,637.52l-.08,6.29a2.77,2.77,0,1,0,5.54.07v0l.1-6.15v-.07a2.79,2.79,0,0,0-5.57-.1Z"/><path class="cls-139" d="M352.44,658.48l.44,6.27a2.72,2.72,0,1,0,5.43-.39v-.05l-.41-6.14v-.07a2.74,2.74,0,0,0-5.46.36Z"/><path class="cls-140" d="M354.53,679.33l1,6.21a2.68,2.68,0,0,0,5.29-.83v-.05l-.92-6.08v-.07a2.69,2.69,0,1,0-5.32.8Z"/><path class="cls-141" d="M358.37,699.92l1.5,6.11a2.63,2.63,0,0,0,5.11-1.25v-.06l-1.44-6v-.06a2.65,2.65,0,0,0-5.15,1.23Z"/><path class="cls-142" d="M364,720.12l2,6a2.59,2.59,0,0,0,4.9-1.66l0-.06-2-5.83,0-.07A2.6,2.6,0,0,0,364,720.1Z"/><path class="cls-143" d="M371.34,739.73l2.55,5.74a2.54,2.54,0,0,0,4.64-2.06l0,0L376,737.73l0-.06a2.55,2.55,0,0,0-4.68,2.05Z"/><path class="cls-144" d="M380.46,758.59l3.08,5.49a2.49,2.49,0,0,0,4.35-2.44l0-.06-3-5.37,0-.06a2.51,2.51,0,0,0-4.39,2.43Z"/><path class="cls-145" d="M391.35,776.51l3.61,5.15a2.41,2.41,0,0,0,4-2.75l-.05-.06-3.48-5.07,0-.06a2.44,2.44,0,0,0-4,2.77Z"/><path class="cls-146" d="M404,793.25l4.1,4.76a2.33,2.33,0,0,0,3.55-3l-.05-.05-4-4.69-.05,0a2.36,2.36,0,1,0-3.6,3Z"/><path class="cls-147" d="M418.21,808.62l4.58,4.33a2.25,2.25,0,0,0,3.1-3.27l-.05,0-4.44-4.27,0,0a2.28,2.28,0,1,0-3.15,3.29Z"/><path class="cls-148" d="M434,822.46l5,3.84a2.17,2.17,0,0,0,2.67-3.43l0,0L436.69,819l-.05,0a2.19,2.19,0,0,0-2.71,3.45Z"/><path class="cls-149" d="M451,834.67l5.32,3.33a2.09,2.09,0,0,0,2.23-3.53l-.05,0-5.2-3.31-.05,0a2.12,2.12,0,0,0-2.27,3.57Z"/><path class="cls-150" d="M469,845.19l5.61,2.82a2,2,0,0,0,1.82-3.57l0,0-5.48-2.82-.05,0a2,2,0,1,0-1.86,3.61Z"/><path class="cls-151" d="M488,854l5.82,2.31a1.92,1.92,0,0,0,1.44-3.57l-.05,0-5.71-2.32-.05,0A2,2,0,1,0,488,854Z"/><path class="cls-152" d="M507.63,861.1l6,1.79a1.84,1.84,0,0,0,1.07-3.53h-.05l-5.9-1.81-.05,0a1.87,1.87,0,1,0-1.09,3.57Z"/><path class="cls-153" d="M527.81,866.47l6.14,1.28a1.76,1.76,0,0,0,.73-3.45h0l-6-1.3h0a1.79,1.79,0,1,0-.76,3.49Z"/><path class="cls-154" d="M548.37,870.12l6.21.76a1.68,1.68,0,0,0,.42-3.34h0l-6.13-.79h0a1.7,1.7,0,1,0-.44,3.38Z"/><path class="cls-155" d="M569.14,872l6.26.23a1.6,1.6,0,1,0,.13-3.19h0l-6.17-.28h0a1.63,1.63,0,0,0-.15,3.25Z"/><path class="cls-156" d="M590,872.19l6.25-.29a1.52,1.52,0,0,0-.13-3h0l-6.17.25h0a1.54,1.54,0,0,0,.12,3.08Z"/><path class="cls-157" d="M610.8,870.58l6.21-.83a1.44,1.44,0,0,0-.37-2.85h0l-6.14.77h0a1.48,1.48,0,0,0-1.27,1.64,1.46,1.46,0,0,0,1.63,1.27Z"/><path class="cls-158" d="M631.39,867.18l6.1-1.38a1.36,1.36,0,0,0-.59-2.65h0l-6,1.31h0a1.38,1.38,0,1,0,.58,2.7Z"/><path class="cls-159" d="M651.57,862l5.94-1.92a1.28,1.28,0,0,0-.78-2.43h0l-5.89,1.85,0,0a1.3,1.3,0,1,0,.78,2.47Z"/><path class="cls-160" d="M671.17,854.89l5.74-2.48a1.2,1.2,0,0,0-.94-2.2l0,0-5.7,2.4,0,0a1.22,1.22,0,1,0,.95,2.24Z"/><path class="cls-161" d="M690,846l5.47-3a1.11,1.11,0,0,0,.44-1.51,1.13,1.13,0,0,0-1.51-.44l0,0-5.43,3h0a1.14,1.14,0,1,0,1.09,2Z"/><path class="cls-162" d="M707.86,835.24l4-2.78a1,1,0,1,0-1.17-1.71h0l-4,2.72h0a1.06,1.06,0,1,0,1.19,1.75Z"/><path class="cls-6" d="M414.88,490.86a6.36,6.36,0,0,1-6-4.24L400,461.55a129.35,129.35,0,0,1-34.81-14.1L341.36,459.3a6.36,6.36,0,0,1-7.29-1.16l-24.62-24.22a6.38,6.38,0,0,1-1.28-7.27l11.46-24A129.25,129.25,0,0,1,305,368l-25.22-8.46a6.36,6.36,0,0,1-4.33-6l-.28-34.55a6.36,6.36,0,0,1,4.23-6l25.08-8.88a129,129,0,0,1,14.1-34.81l-11.85-23.84a6.33,6.33,0,0,1,1.16-7.28l24.22-24.63a6.36,6.36,0,0,1,7.27-1.28l24,11.47a129.09,129.09,0,0,1,34.58-14.68l8.47-25.22a6.35,6.35,0,0,1,6-4.33l34.54-.28H447a6.37,6.37,0,0,1,6,4.24l8.87,25.07a129.54,129.54,0,0,1,34.82,14.1l23.83-11.85a6.39,6.39,0,0,1,7.29,1.15L552.4,236.2a6.34,6.34,0,0,1,1.28,7.27l-11.46,24a129.14,129.14,0,0,1,14.67,34.57l25.22,8.47a6.35,6.35,0,0,1,4.33,6l.29,34.54a6.37,6.37,0,0,1-4.24,6.05L557.42,366a129.24,129.24,0,0,1-14.11,34.82l11.86,23.83a6.36,6.36,0,0,1-1.16,7.29l-24.23,24.63a6.34,6.34,0,0,1-7.26,1.27l-24-11.46A129.06,129.06,0,0,1,463.91,461l-8.46,25.22a6.37,6.37,0,0,1-6,4.34l-34.55.28Zm-49.31-52.51,1.88,1.14a121.3,121.3,0,0,0,36.47,14.78l2.15.48L416,482.87l32.23-.27,9.49-28.27,2.14-.52a121.48,121.48,0,0,0,36.23-15.37l1.86-1.18,26.94,12.85,22.6-23-13.29-26.72,1.14-1.88a121.25,121.25,0,0,0,14.78-36.48l.48-2.14,28.12-10-.27-32.23-28.27-9.49-.52-2.14a121.53,121.53,0,0,0-15.37-36.22L533.13,268,546,241.08l-23-22.6-26.72,13.29-1.89-1.15a121.53,121.53,0,0,0-36.47-14.77l-2.15-.48-9.95-28.12-32.23.26-9.49,28.28-2.14.52a121.22,121.22,0,0,0-36.23,15.37l-1.86,1.17L337,220l-22.6,23,13.29,26.72-1.15,1.88a121,121,0,0,0-14.77,36.47l-.49,2.15-28.11,10,.26,32.22,28.28,9.49.52,2.14a120.75,120.75,0,0,0,15.37,36.23l1.17,1.86L315.87,429l23,22.6ZM401,212.43h0ZM430.44,423a87.35,87.35,0,0,1-.7-174.69,88.21,88.21,0,0,1,18.5,1.81,4,4,0,0,1-1.61,7.82,79.35,79.35,0,1,0,51.61,36.41,4,4,0,1,1,6.81-4.16A87.35,87.35,0,0,1,431.17,423Z"/><path class="cls-6" d="M430.87,369.74a34.67,34.67,0,0,1-8.7-68.22h0a34.67,34.67,0,1,1,8.7,68.22Zm-6.69-60.5a26.69,26.69,0,1,0,32.56,19.08,26.54,26.54,0,0,0-32.56-19.08Z"/><path class="cls-6" d="M280.17,620.58a4.14,4.14,0,0,1-3.33-1.68l-7.24-9.83a63,63,0,0,1-17.15-1.55l-8.9,8.39a4.12,4.12,0,0,1-4.75.65l-14.72-7.71a4.12,4.12,0,0,1-2.16-4.27l1.83-12.09a63.24,63.24,0,0,1-11-13.22l-12.22-.36a4.14,4.14,0,0,1-3.82-2.89l-4.95-15.86a4.13,4.13,0,0,1,1.49-4.56l9.83-7.25a63.88,63.88,0,0,1,1.55-17.15l-8.39-8.89a4.14,4.14,0,0,1-.65-4.75l7.71-14.72a4.14,4.14,0,0,1,4.28-2.17l12.08,1.83a63.55,63.55,0,0,1,13.22-11l.36-12.21a4.13,4.13,0,0,1,2.89-3.82l15.86-5a4.13,4.13,0,0,1,4.56,1.49l7.25,9.84a63.07,63.07,0,0,1,17.15,1.55L289.8,475a4.14,4.14,0,0,1,4.75-.66L309.27,482a4.15,4.15,0,0,1,2.17,4.29l-1.83,12.08a63.29,63.29,0,0,1,11,13.22l12.21.35a4.13,4.13,0,0,1,3.82,2.9l5,15.86a4.16,4.16,0,0,1-1.49,4.56l-9.84,7.24a63.15,63.15,0,0,1-1.55,17.16l8.39,8.89a4.14,4.14,0,0,1,.66,4.75L330.1,588a4.13,4.13,0,0,1-4.28,2.16l-12.09-1.83a63,63,0,0,1-13.22,11l-.35,12.22a4.14,4.14,0,0,1-2.89,3.82l-15.87,4.95A4,4,0,0,1,280.17,620.58Zm-.55-5.9h0Zm-7.15-11.8,8.41,11.41,13.33-4.17.42-14.17,1.42-.84a57.15,57.15,0,0,0,14.26-11.91l1.08-1.25,14,2.13,6.48-12.38-9.73-10.31.41-1.6a57.17,57.17,0,0,0,1.67-18.5l-.12-1.65,11.41-8.41-4.17-13.33-14.16-.42-.84-1.42a57.4,57.4,0,0,0-11.91-14.26l-1.25-1.08,2.12-14L293,480.22,282.63,490l-1.6-.41a57.14,57.14,0,0,0-18.5-1.67l-1.65.12-8.4-11.41-13.34,4.17-.41,14.16-1.42.84a57.4,57.4,0,0,0-14.26,11.91L222,508.91l-14-2.12-6.48,12.37,9.73,10.32-.42,1.6a57.42,57.42,0,0,0-1.67,18.5l.12,1.65-11.41,8.4L202,573l14.17.41.84,1.42a57,57,0,0,0,11.91,14.26l1.25,1.08-2.13,14,12.38,6.48,10.31-9.73,1.6.42A57.48,57.48,0,0,0,270.83,603Zm-30.89,8.37h0Zm-14.72-7.7ZM332.8,572.67Zm-1.83-56h0Zm-124.33-10h0Zm99.85-19.27h0Zm-67.31-7.9h0Zm-3-.08h0Zm17.55-3.16h0Zm12.83,112.67a43.09,43.09,0,0,1-3.89-86,3,3,0,1,1,.54,6,37.75,37.75,0,0,0-7.75,1.55,37.09,37.09,0,1,0,35.78,7.73,3,3,0,0,1,4-4.47,43.1,43.1,0,0,1-28.66,75.24Z"/><path class="cls-163" d="M1846.43,881.67s-23,21.82-30.62,60.61-25.66-54.84-25.66-54.84h-18.26s-6.88,96.47,44.65,104.14a27.67,27.67,0,0,0,25.83-10.22c9.41-12,24.09-33.21,27.63-53.48C1867,895.94,1846.43,881.67,1846.43,881.67Z"/><path class="cls-164" d="M1963.34,1328.37a3.68,3.68,0,0,0-.09-.87c-4.32-17.11-22-25.89-22-25.89l-8.49.67c-4.88,15.08-8,22.45-7.24,26.57,0,.11,0,.22.08.34A202.39,202.39,0,0,0,1963.34,1328.37Z"/><path class="cls-165" d="M1925.63,1329.19a3.71,3.71,0,0,0,2.7,2.72c10,2.09,25.8.41,32.44-.46a3.11,3.11,0,0,0,2.57-3.08A202.39,202.39,0,0,1,1925.63,1329.19Z"/><path class="cls-166" d="M1948.27,1288.4l-3.71,17.9a2.94,2.94,0,0,1-2.5,2.41,24.56,24.56,0,0,1-5.76-.1,3.68,3.68,0,0,1-2.92-4.32l2.59-15.89Z"/><path class="cls-167" d="M1853.5,1329c9.06-.26,13.75-1.32,16.18-2.32,0,.91,0,1.82,0,2.77a1.78,1.78,0,0,1-1.71,1.82l-49.78-.32a2.27,2.27,0,0,1-1.83-3.31C1822.86,1328.22,1839.48,1329.43,1853.5,1329Z"/><path class="cls-168" d="M1816.33,1327.68a3.24,3.24,0,0,1,.19-.37c4.4-6.15,15.6-18.38,37.73-23.68l10.61-.34s4.73,8.22,4.82,23.43c-2.43,1-7.12,2.06-16.18,2.32C1839.48,1329.43,1822.86,1328.22,1816.33,1327.68Z"/><path class="cls-169" d="M1866.83,1287.2c-.12.79-1.57,12.82-2.13,17.48a2.32,2.32,0,0,1-2,2.09,24.31,24.31,0,0,1-7.29-.11,3.14,3.14,0,0,1-2.38-3.15v-18.88Z"/><path class="cls-170" d="M1941.18,1053.42s17,151,7.55,245.36c0,0-11.33,0-17-1.88,0,0-17.65-147.64-23.36-189.88a1.42,1.42,0,0,0-2.8-.09c-7,35.54-34.72,174.92-38,188.08,0,0-9.44,3.77-17,0,0,0,15.1-202,26.43-237.81Z"/><path class="cls-171" d="M1975.15,877.89s-71.72-11.32-128.34,3.78l3.77,58.51s15.1,81.15,26.43,117c0,0,43.41,7.54,64.17-3.78,0,0,17-101.92,26.42-117C1967.6,936.4,1977,896.77,1975.15,877.89Z"/><path class="cls-172" d="M1924.82,816.29l7.65,58.35s-20,9.17-33.94-.4l3-34.1Z"/><path class="cls-173" d="M1975.15,877.89s111.36,120.8-19.82,167v-9.44s49.08-41.52,11.33-98.15C1966.66,937.34,1971.38,883.55,1975.15,877.89Z"/><path class="cls-174" d="M1954.39,1036.43s-17-11.32-24.53-7.55-7.55,9.44-7.55,9.44,3.77,7.55,9.43,5.66,18.88,1.89,24.54,0C1956.28,1044,1958.17,1036.43,1954.39,1036.43Z"/><path class="cls-175" d="M1770.77,826.43l24,8.07c2.9.87,4.9,3.81,5.13,7.53l-1.24,40c.39,6.25-4.78,11.77-9.65,10.3l-19.22-6.54c-1.86-.56-3.11-2.53-3.13-4.95L1766.2,831C1766.17,828.16,1768.55,825.76,1770.77,826.43Z"/><path class="cls-176" d="M1766.2,877.89s-7.5-24-3.69-28.07,11.41-15.21,11.92-6.09S1779.52,892.28,1766.2,877.89Z"/><path class="cls-177" d="M1880.91,806.41c-.11.69,8.41,46.32,8.41,46.32l26-5.42-1.65-44.45S1882.78,794.8,1880.91,806.41Z"/><path class="cls-178" d="M1905.86,810.1a3.78,3.78,0,0,1,1.81,2.82l2.66,23a3.63,3.63,0,0,1,0,1c-.32,1.91-1.82,7.91-8,6-5.25-1.58-10.09-3-13.66-2.32a3.81,3.81,0,0,0-3,4.47,142.69,142.69,0,0,0,5.33,20.29,3.78,3.78,0,0,0,4.58,2.34c5-1.39,14.76-4.41,22.19-8.65a3.81,3.81,0,0,0,1.92-3.41c-.15-6.19-.51-23.53.14-28.44.6-4.56,6.12-7.25,8.74-8.29a3.8,3.8,0,0,0,2.17-2.17c1.17-3,2.46-9.19-5.28-12.05a3.8,3.8,0,0,1-2.22-4.82c1.2-3.47,1.53-8.51-4.73-11.44s-11.23.08-14,2.85a4,4,0,0,1-4.69.7,2.51,2.51,0,0,0-2.5,0,3.7,3.7,0,0,1-5-1.62c-1.6-3.21-4.8-6.51-11.13-5.54-11.62,1.79-13.15,14.61-10.22,22.18s15.42,4.92,21.72,1.23C1897.22,805.58,1903.08,808.41,1905.86,810.1Z"/><path class="cls-179" d="M1919.43,835s-3.29-12.64,1.66-15.82,12.17-1.37,10.41,8.27C1929.32,839.45,1919.43,835,1919.43,835Z"/><path class="cls-6" d="M1868.69,799.41a.41.41,0,0,1-.36-.23c-4.22-9,5.62-16.25,5.72-16.32a.41.41,0,0,1,.57.09.39.39,0,0,1-.1.56c-.09.07-9.39,6.9-5.46,15.32a.4.4,0,0,1-.2.54A.33.33,0,0,1,1868.69,799.41Z"/><path class="cls-180" d="M1686,827.72v82.5c0,6.72-4.09,12.17-9.15,12.17H1376.32c-4.2,0-7.86,3.8-8.88,9.22l-5.4,28.72c-.71,3.81-4.69,4.13-5.74.46l-7-24.27c-1.35-4.72-4.75-7.84-8.55-7.84h-12.92c-5.05,0-9.15-5.45-9.15-12.17v-84.8c0-6.68,4-12.12,9.07-12.17l349-4C1681.86,815.49,1686,821,1686,827.72Z"/><ellipse class="cls-181" cx="1365.24" cy="869.49" rx="36.86" ry="37.83"/><path class="cls-6" d="M1378.6,854.16c0,6.79-5.51,14.13-12.31,14.13S1354,861,1354,854.16s5.51-11.62,12.31-11.62S1378.6,847.36,1378.6,854.16Z"/><path class="cls-6" d="M1351,894.45h30a7.26,7.26,0,0,0,6.92-5.05l1.62-5a7.27,7.27,0,0,0-4.39-9c-12.22-4.47-24.86-3.9-37.81.41a7.24,7.24,0,0,0-4.64,8.78l1.24,4.59A7.27,7.27,0,0,0,1351,894.45Z"/><path class="cls-6" d="M1657.3,879.36a7.31,7.31,0,0,1-7.46,7.15H1430.48a7.31,7.31,0,0,1-7.45-7.15h0a7.31,7.31,0,0,1,7.45-7.15h219.36a7.31,7.31,0,0,1,7.46,7.15Z"/><path class="cls-6" d="M1553.43,902.3a6.5,6.5,0,0,1-6.5,6.5h-115a6.5,6.5,0,0,1-6.5-6.5h0a6.5,6.5,0,0,1,6.5-6.5h115a6.5,6.5,0,0,1,6.5,6.5Z"/><path class="cls-6" d="M1657.43,902.3a6.5,6.5,0,0,1-6.5,6.5h-83a6.5,6.5,0,0,1-6.5-6.5h0a6.5,6.5,0,0,1,6.5-6.5h83a6.5,6.5,0,0,1,6.5,6.5Z"/><rect class="cls-182" x="1422.43" y="834.8" width="129" height="19" rx="9.13"/><path class="cls-183" d="M1037.86,175.79c-9.45-13.52-23.55-19.08-37.36-15-15.06,4.41-23.57,21.27-37.59,28-24.45,11.76-58.26-11.48-76.83,18.84-22.72,37.09-40.27,9.28-40.27,34.44s156.93,6.63,234.36,7.95c11.18.19,59.75-.76,38.85-28-6.5-8.45-15.76-9.87-24.4-11.84-11.26-2.58-38-4-46.18-14.26-4.39-5.52-6.08-13.46-10-19.37Z"/><path class="cls-183" d="M1321.38,123.37c-5.67-8.12-14.15-11.47-22.45-9-9,2.65-14.16,12.78-22.58,16.83-14.69,7.07-35-6.89-46.16,11.32-13.64,22.29-24.19,5.58-24.19,20.7s94.28,4,140.8,4.77c6.72.11,35.9-.46,23.34-16.8-3.9-5.08-9.47-5.93-14.66-7.11-6.76-1.55-22.85-2.4-27.74-8.57-2.64-3.32-3.66-8.08-6-11.63C1321.6,123.68,1321.49,123.52,1321.38,123.37Z"/><path class="cls-184" d="M703.94,872.21c-.07,72.53-.62,322.68-5,411.23-.46,9.39-7.06,16.78-15.09,16.91-39.72.64-185.29,1.27-250.13-3.36-13.51-1-24-14-23.91-29.84C410.19,1191,412,977,421.19,879.09c1.11-11.73,9.2-20.91,19.25-21.86,43.33-4.1,189.72-13.23,245.71-7.73C696.24,850.49,704,860.36,703.94,872.21Z"/><path class="cls-185" d="M685.74,894.06c.84,58.56,3.27,253.36-.46,325.28-.55,10.52-7.82,18.87-16.82,19.28-37,1.72-163.35,4.51-217.48-1.78-9.75-1.13-17.21-10.54-17.49-22-1.42-59.75-5.3-241.17-1.68-312.29.58-11.35,8.3-20.46,18-21.26,40.1-3.32,174.41-10.35,220.44-6.38C678.89,875.65,685.6,883.92,685.74,894.06Z"/><g class="cls-186"><path class="cls-6" d="M671.21,911.11c.75,51.85,2.9,224.35-.41,288.05-.48,9.31-6.92,16.7-14.89,17.07-32.8,1.52-144.65,4-192.59-1.57-8.63-1-15.24-9.34-15.48-19.49-1.27-52.91-4.7-213.57-1.49-276.55.51-10,7.35-18.11,15.93-18.82,35.52-2.94,154.45-9.16,195.22-5.65C665.15,894.8,671.08,902.13,671.21,911.11Z"/></g><path class="cls-187" d="M606.08,860.4h0a4,4,0,0,1-3.48,4.1c-9.38.36-35.82,1.4-47.64,1.94-2.33.11-4.11-2.38-3.6-5.05l.08-.45a3.84,3.84,0,0,1,3.26-3.3c8-.68,32.11-2.52,48-1.5C604.66,856.26,606.13,858.15,606.08,860.4Z"/><circle class="cls-188" cx="558.81" cy="1057.36" r="93.06" transform="translate(-583.99 704.83) rotate(-45)"/><path class="cls-6" d="M616.05,1081.68a16.6,16.6,0,0,0-9.85-10.91l-6.69-2.65a12.83,12.83,0,0,0-15,4.24l-6,8c-9.36.27-20.17-3.22-29.75-10.39-9-6.74-15.2-15.42-17.89-24a.29.29,0,0,1,.46-.31l5.37-7.18a14.68,14.68,0,0,0-.27-17.92L532,1015a16.77,16.77,0,0,0-26.56.4,21.45,21.45,0,0,0-3.53,7.21c-4.93,17.43,9.11,43.8,35,63.19s55.13,25.42,70.47,15.8a21.93,21.93,0,0,0,6-5.44A16.59,16.59,0,0,0,616.05,1081.68Z"/><path class="cls-6" d="M448.05,1284.11a28.62,28.62,0,0,1-28.62-28.41v-48.55a1,1,0,1,1,2,0v48.55A26.58,26.58,0,0,0,448,1282a1.05,1.05,0,0,1,1.05,1A1,1,0,0,1,448.05,1284.11Z"/><path class="cls-189" d="M291.73,1292.11s-1.93,10.89-2.87,21.68a7.42,7.42,0,0,0,7.11,8c14.36.6,45.09,1.76,56.12,1.27a2.41,2.41,0,0,0,2.12-3.31h0a5.39,5.39,0,0,0-2.77-2.92l-50.75-23.32Z"/><path class="cls-190" d="M290.15,1285.7l1.55,13s8.89,4.14,15-.52L303,1283.69Z"/><path class="cls-191" d="M291.31,1040.66c-.67,3.4-3.58,169.86,14.21,244.45a2.52,2.52,0,0,1-1.49,2.94,43.94,43.94,0,0,1-14.49,3,4.35,4.35,0,0,1-4.32-3.13c-5.09-17.31-29.46-104-32.64-186.85-3.55-92.56,0-3.16,0-3.16l2.08-57.21Z"/><path class="cls-192" d="M233.34,1297.79s-3.06,5.5-6,20.12a4.54,4.54,0,0,0,4,5.43c4.74.47,12,1.07,17.9,1a4.52,4.52,0,0,0,4.47-5c-.65-5.33-2.67-14.09-8.9-20.91Z"/><path class="cls-193" d="M230.65,1281l3.61,19.71s3.58,2.66,10.64.73l-1.72-21.21Z"/><path class="cls-194" d="M220.89,1045.77c-14.55,87.82,3.15,217.06,9.13,242.35a3.93,3.93,0,0,0,3.18,3,26.47,26.47,0,0,0,11.38-.46,3.6,3.6,0,0,0,2.6-3.33c.8-20.45-.64-146,12.92-195.61a11.28,11.28,0,0,1,4.35-6.22l26.32-18.71,2-30.24Z"/><path class="cls-195" d="M313.61,879.36c-43.61-.72-91.72,11.45-91.72,11.45-13,75.85-2.28,163.34-2.28,163.34,33.76,8.85,71.85-5.42,71.85-5.42,5.61-31.7,31.79-120.92,31.79-120.92,21.31-2.65,38.86-8.8,53.32-16.92-11-12.79-16.23-29-18.48-38.66C342.67,877,327.07,879.58,313.61,879.36Z"/><path class="cls-196" d="M442.43,815.12a8.35,8.35,0,0,0-9.71-2.72c-6.41,27.1-40.06,49.09-74.63,59.83,2.25,9.61,7.45,25.87,18.48,38.66C433.94,878.63,442.43,815.12,442.43,815.12Z"/><path class="cls-197" d="M441.39,816.44c.45,1.42-4.74,3.59-7.8-2.23-.11-2.8-1.8-14.76-.14-17,8.89-12.12,26.13-27.31,26.13-27.31a4.11,4.11,0,0,1,.51,5.7l-8.36,8.71c1.75,3.16,3.88,5.82,4.88,9.65a11.66,11.66,0,0,1-1.17,8.62c-1.46,2.64-3.47,6.08-5.36,8.77A11.57,11.57,0,0,1,441.39,816.44Z"/><path class="cls-198" d="M448.07,789.92l-7.61,6.46-2.4,6.43,6.8,7.53s2.28-12.76,4-15.52S449.66,790.72,448.07,789.92Z"/><path class="cls-199" d="M238.61,933l-16.72-42.23s-40.74,27.68-47.44,62.77a92.37,92.37,0,0,1,34.31,9.62C215,949.28,238.61,933,238.61,933Z"/><path class="cls-200" d="M269.44,844l-13.87,40.13a1.44,1.44,0,0,0,.65,1.74c3.79,2.09,17.41,8.14,33.84-2.27a6.83,6.83,0,0,0,3.13-4.87L297.68,844Z"/><path class="cls-201" d="M299.63,806.79s15.24,28.69,13.29,40.27-20.84,10.76-37.33,1.35l-11.52-31Z"/><path class="cls-202" d="M276.32,833.2a1.18,1.18,0,0,0,.51-1.73c-1.22-1.87-3.5-5.67-4.23-9,0,0-2.74-1.76,7-4.08s24.19-5.93,27.23-14.2c3-8.06-4.83-28.33-17.27-12.18a1.17,1.17,0,0,1-1.87,0c-2-2.65-7.4-8.16-14.84-4.82-7,3.13-7.76,8.23-7.66,10.8a1.18,1.18,0,0,1-1.39,1.21c-3.52-.67-12-1.25-15.92,7.42-3.25,7.14-1.14,11.18.79,13.16a1.18,1.18,0,0,1-.51,2c-2.31.71-5.3,2.67-5,8.09.41,7.5,8.79,6.84,11.18,6.5a1.16,1.16,0,0,1,1.05.37c2,2.26,11.26,11.88,21.24,13a1.19,1.19,0,0,0,1.25-1.58l-4.32-12.55a1.19,1.19,0,0,1,.65-1.47Z"/><path class="cls-203" d="M278.05,835s-10.84-7.44-11.64-1.18,9.77,9.08,15,6.75Z"/><path class="cls-204" d="M174.73,953.92s-27.84,63.41,40.22,72.69l9.28-7.73s-34-18.56-15.47-55.68C208.76,963.2,188.66,946.18,174.73,953.92Z"/><path class="cls-205" d="M223.61,987.3l24,8.07c2.9.88,4.9,3.81,5.14,7.53l-1.25,40c.39,6.25-4.77,11.77-9.65,10.3l-19.21-6.54c-1.87-.56-3.11-2.53-3.13-5L219,991.91C219,989,221.39,986.64,223.61,987.3Z"/><path class="cls-206" d="M217.41,1034.71c-.64-.72-5.12-8.91-4-19.88s-1-15.91,4.13-15.49,9.34,1.29,8.76,6.68S227.36,1045.71,217.41,1034.71Z"/></g></g></svg>