<svg width="395" height="250" viewBox="0 0 395 250" fill="none" xmlns="http://www.w3.org/2000/svg">
<g clip-path="url(#clip0_24_2)">
<path d="M330.732 19.5722H0.367859C0.834472 16.926 1.74574 14.4225 3.01936 12.1551C7.08724 4.90815 14.8442 0 23.732 0H307.368C316.25 0 324.013 4.90815 328.075 12.1551C329.349 14.4225 330.266 16.926 330.732 19.5722Z" fill="#F2F2F2"/>
<path d="M395 249.086C395 249.448 394.709 249.739 394.347 249.739H258.592C258.23 249.739 257.939 249.448 257.939 249.086C257.939 248.91 258.005 248.757 258.114 248.641H307.368C308.417 248.641 309.443 248.57 310.453 248.433H394.347C394.709 248.433 395 248.724 395 249.086Z" fill="#3F3D56"/>
<path d="M242.764 115.918H88.3317C86.8964 115.918 85.7289 114.44 85.7289 112.624C85.7289 110.808 86.8964 109.33 88.3317 109.33H242.764C244.2 109.33 245.367 110.808 245.367 112.624C245.367 114.44 244.2 115.918 242.764 115.918Z" fill="#E6E6E6"/>
<path d="M330.732 19.5722C330.266 16.926 329.349 14.4225 328.075 12.1551C324.013 4.90815 316.25 0 307.368 0H23.732C14.8442 0 7.08721 4.90815 3.01933 12.1551C1.74572 14.4225 0.834445 16.926 0.367831 19.5722C0.126285 20.9228 0 22.3118 0 23.7337V226.006C0 239.094 10.6445 249.739 23.732 249.739H307.368C310.08 249.739 312.693 249.278 315.125 248.433C324.414 245.215 331.1 236.376 331.1 226.006V23.7337C331.1 22.3173 330.974 20.9228 330.732 19.5722ZM330.002 226.006C330.002 237.458 321.493 246.928 310.453 248.433C309.443 248.57 308.417 248.641 307.368 248.641H57.4442C26.3231 248.641 1.09794 223.409 1.09794 192.285V23.7337C1.09794 22.3118 1.22969 20.9228 1.48222 19.5722C1.97631 16.904 2.937 14.406 4.28196 12.1551C8.22905 5.53404 15.4645 1.09802 23.732 1.09802H307.368C315.635 1.09802 322.871 5.53404 326.818 12.1551C328.163 14.406 329.124 16.904 329.618 19.5722C329.87 20.9228 330.002 22.3118 330.002 23.7337V226.006Z" fill="#A67FF7"/>
<path d="M316.166 118.63L314.308 111.818L322.668 108.722L323.596 114.914L316.166 118.63Z" fill="#FFB6B6"/>
<path opacity="0.1" d="M316.166 118.63L314.308 111.818L319.231 109.741L317.702 117.772L316.166 118.63Z" fill="black"/>
<path d="M291.695 177.01C290.098 176.06 290.014 173.256 291.507 170.747C292.16 169.648 293.007 168.789 293.888 168.249L294.764 166.816L305.855 146.933C305.855 146.933 310.709 128.181 312.686 125.914C314.662 123.647 317.52 124.181 317.52 124.181L320.054 126.432L311.008 152.992L299.844 168.715L298.348 170.903C298.293 171.934 297.942 173.089 297.289 174.187C295.796 176.697 293.291 177.961 291.695 177.01Z" fill="#FFB6B6"/>
<path d="M315.709 116.684C315.709 116.684 319.236 116.548 321.462 119.288C323.687 122.028 312.028 152.914 312.028 152.914L302.531 152.578L315.709 116.684Z" fill="#FFC244"/>
<path d="M316.63 112.902C321.418 112.902 325.299 109.02 325.299 104.232C325.299 99.4438 321.418 95.5623 316.63 95.5623C311.842 95.5623 307.961 99.4438 307.961 104.232C307.961 109.02 311.842 112.902 316.63 112.902Z" fill="#FFB6B6"/>
<path d="M296.351 230.098L290.468 244.651L287.063 241.245L285.824 234.742L290.778 228.55L296.351 230.098Z" fill="#FFB6B6"/>
<path d="M351.461 224.834L357.344 231.646L354.557 237.219L348.365 236.29L345.269 227.621L351.461 224.834Z" fill="#FFB6B6"/>
<path d="M312.296 143.555L311.522 156.095L330.718 152.69L329.479 144.949L312.296 143.555Z" fill="#FFB6B6"/>
<path d="M311.367 156.25L330.718 149.903C330.718 149.903 337.839 164.146 330.098 173.125C322.358 182.105 296.66 233.194 296.66 233.194L288.92 229.478L300.066 196.967L312.45 166.933L311.367 156.25Z" fill="#A67FF7"/>
<path d="M330.098 167.862L337.529 200.373L353.009 225.453L344.96 230.098L323.287 200.373L316.166 177.46L330.098 167.862Z" fill="#A67FF7"/>
<path d="M283.038 233.504H277.676C277.676 233.504 271.419 231.027 269.952 233.504C268.486 235.981 276.495 243.006 276.495 243.006C276.495 243.006 287.682 249.295 289.23 248.985C290.778 248.676 291.397 244.96 291.397 244.96L293.255 240.625L290.468 241.554C290.468 241.554 286.753 239.387 287.682 235.671L283.038 233.504Z" fill="#6139A1"/>
<path d="M356.106 232.575V229.479L359.705 232.575C359.705 232.575 365.703 234.742 361.059 239.387C356.415 244.031 350.533 248.985 350.533 248.985C350.533 248.985 341.244 251.462 340.625 248.676C340.006 245.889 340.625 244.761 340.625 244.761L344.031 243.102L347.127 235.052L352.081 235.671L356.106 232.575Z" fill="#6139A1"/>
<path d="M319.262 105.935L316.475 105.625L311.367 100.516C311.367 100.516 306.723 102.993 306.723 101.136C306.723 92.4659 311.986 92.7756 316.321 92.1563C320.655 91.537 320.191 91.3822 321.584 93.7045C322.221 94.7665 324.525 95.4074 324.525 95.4074C324.525 95.4074 328.86 89.5244 331.027 96.646C333.194 103.768 330.408 125.751 332.575 127.609C334.742 129.467 323.676 131.322 324.875 124.047C326.073 116.772 328.241 105.625 327.002 103.148C325.764 100.671 325.454 101.29 325.454 101.29C326.989 100.664 327.992 111.702 322.205 112.243L322.048 106.864C322.048 106.864 321.12 104.077 319.262 105.935Z" fill="black"/>
<path d="M315.392 116.617L324.68 112.902L337.065 150.058L311.584 149.129L309.289 138.04C309.289 138.04 307.049 132.268 308.907 128.862C310.765 125.456 315.392 116.617 315.392 116.617Z" fill="#FFC244"/>
<path d="M339.561 178.858C337.71 179.017 336.007 176.788 335.757 173.879C335.648 172.605 335.835 171.413 336.236 170.461L336.113 168.786L333.533 146.165C333.533 146.165 328.731 127.662 329.015 124.668C329.299 121.673 329.747 120.878 329.747 120.878L333.119 121.23L341.252 148.084L341.347 167.367L341.407 170.017C341.964 170.886 342.351 172.03 342.461 173.303C342.711 176.212 341.413 178.699 339.561 178.858Z" fill="#FFB6B6"/>
<path d="M323.906 115.843C323.906 115.843 326.693 113.676 330.098 114.605C333.504 115.534 342.035 147.426 342.035 147.426L334.123 152.69L323.906 115.843Z" fill="#FFC244"/>
<path d="M162.608 169.447H125.467C123.2 169.447 121.356 167.602 121.356 165.335V161.62C121.356 159.354 123.2 157.51 125.467 157.51H162.608C164.874 157.51 166.719 159.354 166.719 161.62V165.335C166.719 167.602 164.874 169.447 162.608 169.447Z" fill="#FFC244"/>
<path d="M305.34 48.0445H268.199C265.932 48.0445 264.088 46.2002 264.088 43.9334V40.2185C264.088 37.9516 265.932 36.1078 268.199 36.1078H305.34C307.606 36.1078 309.451 37.9516 309.451 40.2185V43.9334C309.451 46.2002 307.606 48.0445 305.34 48.0445Z" fill="#FFC244"/>
<path d="M217.707 169.721H180.566C178.148 169.721 176.18 167.753 176.18 165.335V161.62C176.18 159.202 178.148 157.235 180.566 157.235H217.707C220.125 157.235 222.092 159.202 222.092 161.62V165.335C222.092 167.753 220.125 169.721 217.707 169.721ZM180.566 158.333C178.753 158.333 177.278 159.808 177.278 161.62V165.335C177.278 167.148 178.753 168.623 180.566 168.623H217.707C219.519 168.623 220.994 167.148 220.994 165.335V161.62C220.994 159.808 219.519 158.333 217.707 158.333H180.566Z" fill="#FFC244"/>
<path d="M263.265 98.8987H67.8315C66.0152 98.8987 64.5377 97.4211 64.5377 95.6047C64.5377 93.7882 66.0152 92.3106 67.8315 92.3106H263.265C265.081 92.3106 266.558 93.7882 266.558 95.6047C266.558 97.4211 265.081 98.8987 263.265 98.8987Z" fill="#E6E6E6"/>
<path d="M55.3855 45.3702H30.6819C28.8656 45.3702 27.3881 43.8926 27.3881 42.0762C27.3881 40.2597 28.8656 38.7821 30.6819 38.7821H55.3855C57.2018 38.7821 58.6793 40.2597 58.6793 42.0762C58.6793 43.8926 57.2018 45.3702 55.3855 45.3702Z" fill="#E6E6E6"/>
<path d="M203.058 45.3702H178.355C176.538 45.3702 175.061 43.8926 175.061 42.0762C175.061 40.2597 176.538 38.7821 178.355 38.7821H203.058C204.875 38.7821 206.352 40.2597 206.352 42.0762C206.352 43.8926 204.875 45.3702 203.058 45.3702Z" fill="#E6E6E6"/>
<path d="M249.721 45.3702H225.017C223.201 45.3702 221.723 43.8926 221.723 42.0762C221.723 40.2597 223.201 38.7821 225.017 38.7821H249.721C251.537 38.7821 253.015 40.2597 253.015 42.0762C253.015 43.8926 251.537 45.3702 249.721 45.3702Z" fill="#E6E6E6"/>
<path d="M219.896 132.937H111.2C109.384 132.937 107.906 131.46 107.906 129.643C107.906 127.827 109.384 126.349 111.2 126.349H219.896C221.712 126.349 223.19 127.827 223.19 129.643C223.19 131.46 221.712 132.937 219.896 132.937Z" fill="#E6E6E6"/>
<path d="M224.632 204.998H106.464C105.365 204.998 104.472 204.105 104.472 203.006C104.472 201.908 105.365 201.015 106.464 201.015H224.632C225.731 201.015 226.624 201.908 226.624 203.006C226.624 204.105 225.731 204.998 224.632 204.998Z" fill="#E6E6E6"/>
<path d="M225.732 11.7465H107.563C106.465 11.7465 105.572 10.8531 105.572 9.75476C105.572 8.65644 106.465 7.763 107.563 7.763H225.732C226.831 7.763 227.724 8.65644 227.724 9.75476C227.724 10.8531 226.831 11.7465 225.732 11.7465Z" fill="white"/>
</g>
<defs>
<clipPath id="clip0_24_2">
<rect width="395" height="250" fill="white"/>
</clipPath>
</defs>
</svg>
