<svg width="16" height="12" viewBox="0 0 16 12" fill="none" xmlns="http://www.w3.org/2000/svg">
<path d="M14.5 12H1.5C0.67 12 0 11.33 0 10.5V1.5C0 0.67 0.67 0 1.5 0H14.5C15.33 0 16 0.67 16 1.5V10.5C16 11.33 15.33 12 14.5 12ZM1.5 1C1.22 1 1 1.22 1 1.5V10.5C1 10.78 1.22 11 1.5 11H14.5C14.78 11 15 10.78 15 10.5V1.5C15 1.22 14.78 1 14.5 1H1.5Z" fill="black"/>
<path d="M8.00005 7.96C7.30005 7.96 6.66005 7.68 6.18005 7.17L0.930045 1.59C0.740045 1.39 0.750045 1.07 0.950045 0.879997C1.15005 0.689997 1.47005 0.699997 1.66005 0.899997L6.91005 6.48C7.48005 7.09 8.52005 7.09 9.09005 6.48L14.34 0.909997C14.53 0.709997 14.85 0.699997 15.05 0.889997C15.25 1.08 15.26 1.4 15.07 1.6L9.82005 7.18C9.34005 7.69 8.70005 7.97 8.00005 7.97V7.96Z" fill="black"/>
</svg>
