<svg width="48" height="48" viewBox="0 0 48 48" fill="none" xmlns="http://www.w3.org/2000/svg">
<path d="M14.25 19.5567H24V7.09375H15.858L14.25 19.5567Z" stroke="white" stroke-linecap="round" stroke-linejoin="round"/>
<path d="M15.858 7.09375H9.142C8.69517 7.09387 8.26125 7.24362 7.90945 7.51912C7.55765 7.79461 7.30824 8.17998 7.201 8.61375L4.5 19.5567M4.5 19.5567H14.25M4.5 19.5567C4.5 20.8497 5.01361 22.0897 5.92785 23.0039C6.84209 23.9181 8.08207 24.4317 9.375 24.4317C10.6679 24.4317 11.9079 23.9181 12.8221 23.0039C13.7364 22.0897 14.25 20.8497 14.25 19.5567M14.25 19.5567C14.25 20.8497 14.7636 22.0897 15.6779 23.0039C16.5921 23.9181 17.8321 24.4317 19.125 24.4317C20.4179 24.4317 21.6579 23.9181 22.5721 23.0039C23.4864 22.0897 24 20.8497 24 19.5567M24 19.5567H33.75M24 19.5567V7.09375H32.142M24 19.5567C24 20.8497 24.5136 22.0897 25.4279 23.0039C26.3421 23.9181 27.5821 24.4317 28.875 24.4317C30.1679 24.4317 31.4079 23.9181 32.3221 23.0039C33.2364 22.0897 33.75 20.8497 33.75 19.5567M33.75 19.5567L32.142 7.09375M33.75 19.5567H43.5M33.75 19.5567C33.75 20.8497 34.2636 22.0897 35.1779 23.0039C36.0921 23.9181 37.3321 24.4317 38.625 24.4317C39.9179 24.4317 41.1579 23.9181 42.0721 23.0039C42.9864 22.0897 43.5 20.8497 43.5 19.5567M32.142 7.09375H38.858C39.3048 7.09387 39.7388 7.24362 40.0906 7.51912C40.4424 7.79461 40.6918 8.17998 40.799 8.61375L43.5 19.5567" stroke="white" stroke-linecap="round" stroke-linejoin="round"/>
<path d="M7.3252 23.9766V38.9066C7.3252 39.437 7.53591 39.9457 7.91098 40.3208C8.28605 40.6958 8.79476 40.9066 9.3252 40.9066H38.6752C39.2056 40.9066 39.7143 40.6958 40.0894 40.3208C40.4645 39.9457 40.6752 39.437 40.6752 38.9066V23.9766" stroke="white" stroke-linecap="round" stroke-linejoin="round"/>
<path d="M33.5003 33.5692H37.4563C37.4689 34.0913 37.3786 34.6108 37.1904 35.098C37.0022 35.5853 36.72 36.0306 36.3597 36.4088C35.9994 36.7869 35.5681 37.0903 35.0905 37.3018C34.613 37.5133 34.0984 37.6286 33.5763 37.6412L33.4993 37.6421C32.4189 37.6421 31.3828 37.213 30.6189 36.449C29.855 35.6851 29.4258 34.649 29.4258 33.5687C29.4258 32.4883 29.855 31.4522 30.6189 30.6883C31.3828 29.9243 32.4189 29.4952 33.4993 29.4952C34.2081 29.4922 34.9051 29.6771 35.5193 30.0312" stroke="white" stroke-linecap="round" stroke-linejoin="round"/>
</svg>
