<svg width="48" height="48" viewBox="0 0 48 48" fill="none" xmlns="http://www.w3.org/2000/svg">
<path d="M24.0002 42.5V18.57C24.0002 17.9034 24.1317 17.2433 24.3871 16.6275C24.6425 16.0117 25.0168 15.4524 25.4887 14.9814C25.9605 14.5105 26.5206 14.1373 27.1369 13.8831C27.7532 13.6289 28.4136 13.4987 29.0802 13.5C31.5702 13.5 33.1302 14.24 34.2002 15.62M19.7002 23.29H29.8502" stroke="white" stroke-linecap="round" stroke-linejoin="round"/>
<path d="M7.48047 5.5C6.95004 5.5 6.44133 5.71071 6.06626 6.08579C5.69118 6.46086 5.48047 6.96957 5.48047 7.5V40.5C5.48047 41.0304 5.69118 41.5391 6.06626 41.9142C6.44133 42.2893 6.95004 42.5 7.48047 42.5H40.5205C41.0509 42.5 41.5596 42.2893 41.9347 41.9142C42.3098 41.5391 42.5205 41.0304 42.5205 40.5V7.5C42.5205 6.96957 42.3098 6.46086 41.9347 6.08579C41.5596 5.71071 41.0509 5.5 40.5205 5.5H7.48047Z" stroke="white" stroke-linecap="round" stroke-linejoin="round"/>
</svg>
