<svg width="39" height="39" viewBox="0 0 39 39" fill="none" xmlns="http://www.w3.org/2000/svg">
<path d="M15.3888 1C11.2888 1 10.0988 1.16 8.38882 1.84C6.61802 2.54819 5.04526 3.67505 3.80524 5.12406C2.56523 6.57307 1.6949 8.30104 1.26882 10.16C1.08882 10.89 1.05882 12.05 1.01882 18.74C0.958816 27.12 1.01882 28.36 1.54882 30.02C1.9077 31.2574 2.50564 32.4125 3.30882 33.42C4.98254 35.6702 7.42326 37.2285 10.1688 37.8C11.3888 38.02 26.4588 38.08 28.0088 37.87C30.5986 37.5465 32.9918 36.3215 34.7688 34.41C36.1747 32.9869 37.1787 31.2169 37.6788 29.28C37.9188 28.41 37.9388 27.98 37.9888 22.87C38.0677 20.8297 38.0343 18.7866 37.8888 16.75C37.8317 16.4415 37.7139 16.1474 37.5422 15.8847C37.3706 15.6221 37.1485 15.3961 36.8888 15.22C36.2116 15.0755 35.5213 15.0018 34.8288 15C33.1688 14.92 32.9788 14.89 32.4588 14.59C31.6288 14.1 31.3988 13.59 31.3988 12.15C31.3614 10.728 31.0405 9.32768 30.4549 8.03124C29.8694 6.7348 29.031 5.56827 27.9888 4.6C26.4956 3.04385 24.6301 1.89428 22.5688 1.26C22.0888 1.11 20.9988 1.06 17.3488 1.02H15.3488L15.3888 1ZM16.1388 10.82C19.7688 10.82 19.8888 10.82 20.4188 11.1C20.7645 11.2494 21.0546 11.5034 21.2484 11.8263C21.4421 12.1492 21.5297 12.5247 21.4988 12.9C21.5092 13.2608 21.4217 13.6178 21.2457 13.9329C21.0696 14.248 20.8115 14.5097 20.4988 14.69C20.1288 14.92 19.8988 14.94 16.3488 14.96C14.948 14.9981 13.5462 14.9647 12.1488 14.86C11.8284 14.7424 11.5413 14.5489 11.3122 14.296C11.083 14.0431 10.9186 13.7384 10.8331 13.4081C10.7475 13.0777 10.7434 12.7315 10.821 12.3991C10.8987 12.0668 11.0557 11.7583 11.2788 11.5C11.9288 10.85 12.1088 10.83 16.1388 10.83V10.82ZM19.4988 24.11C26.8988 24.11 26.8588 24.11 27.5688 24.75C27.8065 24.9666 27.9884 25.2374 28.0991 25.5393C28.2098 25.8412 28.2461 26.1654 28.2049 26.4843C28.1637 26.8033 28.0462 27.1076 27.8623 27.3714C27.6785 27.6353 27.4337 27.8509 27.1488 28L25.9188 28.2L19.4988 28.28C13.8788 28.34 12.2788 28.28 11.9888 28.11C11.6736 27.9546 11.3985 27.7284 11.1852 27.4491C10.9718 27.1698 10.8259 26.845 10.7588 26.5C10.7295 26.1615 10.7742 25.8206 10.8899 25.5012C11.0056 25.1817 11.1895 24.8912 11.4288 24.65C12.0188 24.12 12.2688 24.1 19.4288 24.1L19.4988 24.11Z" stroke="white" stroke-linecap="round" stroke-linejoin="round"/>
</svg>
