<svg width="13" height="12" viewBox="0 0 13 12" fill="none" xmlns="http://www.w3.org/2000/svg">
<path d="M11.7812 6.125H9.75V4.5C9.75 3.61133 10.4609 2.875 11.375 2.875H11.5781C11.9082 2.875 12.1875 2.62109 12.1875 2.26562V1.04688C12.1875 0.716797 11.9082 0.4375 11.5781 0.4375H11.375C9.11523 0.4375 7.3125 2.26562 7.3125 4.5V10.5938C7.3125 11.2793 7.8457 11.8125 8.53125 11.8125H11.7812C12.4414 11.8125 13 11.2793 13 10.5938V7.34375C13 6.68359 12.4414 6.125 11.7812 6.125ZM4.46875 6.125H2.4375V4.5C2.4375 3.61133 3.14844 2.875 4.0625 2.875H4.26562C4.5957 2.875 4.875 2.62109 4.875 2.26562V1.04688C4.875 0.716797 4.5957 0.4375 4.26562 0.4375H4.0625C1.80273 0.4375 0 2.26562 0 4.5V10.5938C0 11.2793 0.533203 11.8125 1.21875 11.8125H4.46875C5.12891 11.8125 5.6875 11.2793 5.6875 10.5938V7.34375C5.6875 6.68359 5.12891 6.125 4.46875 6.125Z" fill="#FF007A" fill-opacity="0.2"/>
</svg>
