<svg width="176" height="60" viewBox="0 0 176 60" fill="none" xmlns="http://www.w3.org/2000/svg">
<g clip-path="url(#clip0_2319_2376)">
<path d="M29.9941 60C46.5661 60 60 46.5661 60 29.9941C60 13.4221 46.5661 0 29.9941 0C13.4221 0 0 13.4339 0 29.9941C0 46.5544 13.4339 60 29.9941 60ZM23.3066 34.3075C23.4476 31.8394 26.1038 31.9804 26.6092 30.0411C27.1146 28.1019 25.6337 27.855 26.2331 25.8335C26.8325 23.8119 27.9491 23.8825 27.7258 21.9314C27.5024 19.9804 24.2821 19.6866 25.0108 16.0666C25.7395 12.4466 29.8296 13.3046 31.6278 11.3536C33.4261 9.40255 32.4623 8.59158 33.8844 6.71107C35.3066 4.83056 37.9275 3.03232 42.8874 5.13614C45.2615 6.14691 48.5759 8.60333 51.1381 11.5064C53.9119 14.6562 55.7218 18.335 56.4505 20.6268C57.1792 22.9187 53.2302 22.0842 50.6445 25.1166C48.0588 28.1489 49.1048 36.7052 43.7454 43.3457C38.3859 49.9863 26.9853 52.76 26.1508 51.4789C25.3164 50.1978 34.3311 47.5064 37.1048 45.1792C39.8786 42.8521 39.7258 39.3379 38.8208 37.6102C37.9158 35.8825 36.2821 34.0842 33.7316 33.332C31.1812 32.5798 30.8051 33.2615 31.2282 33.6729C31.6513 34.0842 33.7316 34.3898 33.2615 35.7179C32.7914 37.046 30.5818 37.1518 28.5602 37.2341C26.5387 37.3164 23.1655 36.7875 23.3066 34.3075ZM5.08913 40.0078C3.52595 39.7023 1.49265 33.1792 2.02155 27.6317C2.55044 22.0842 4.57199 17.7356 6.22919 15.1851C7.88639 12.6347 12.5406 9.0382 13.8688 10.3898C15.1969 11.7414 11.4476 13.3516 12.6934 16.5367C13.9393 19.7218 16.713 18.335 17.0069 22.4603C17.3007 26.5857 20.1567 25.9158 20.9089 28.2429C21.6611 30.57 19.6043 31.2282 19.5455 33.4025C19.4868 35.5769 21.4378 35.6592 22.7072 36.6347C23.9765 37.6102 19.2047 37.8335 18.0294 37.763C16.8541 37.6925 14.8913 37.6807 13.951 36.3526C13.0108 35.0245 15.7728 34.6836 15.8903 34.2018C16.0078 33.7199 14.6092 33.3438 12.2116 34.8952C9.81391 36.4466 8.46229 40.6895 5.08913 40.0078V40.0078Z" fill="#FFC244"/>
<path d="M83.083 40.7717C82.3418 40.3564 81.5111 40.1265 80.6618 40.1018V39.8903C81.4217 39.757 82.1436 39.4603 82.7774 39.0205C83.3726 38.6146 83.8572 38.0667 84.1876 37.4265C84.518 36.7863 84.6837 36.0738 84.6697 35.3535C84.6697 34.3075 84.3994 33.3907 83.847 32.6268C83.2946 31.8628 82.4836 31.2399 81.4023 30.8168C80.321 30.3937 78.9929 30.1821 77.4297 30.1821H68.4268V50.9147H78.1937C79.6981 50.9147 80.9909 50.6562 82.0722 50.1625C83.0901 49.7095 83.9641 48.9859 84.5992 48.0705C85.1929 47.1721 85.5002 46.1148 85.4806 45.0382C85.5023 44.1464 85.283 43.2653 84.846 42.4877C84.4193 41.7708 83.8112 41.1789 83.083 40.7717V40.7717ZM74.0683 34.5896H76.4424C77.0674 34.563 77.6834 34.7449 78.1937 35.1067C78.652 35.4476 78.8871 35.9294 78.8871 36.5759C78.9011 36.9609 78.7893 37.34 78.5688 37.6559C78.3483 37.9718 78.031 38.2074 77.6648 38.3271C77.2545 38.4931 76.8144 38.5731 76.3719 38.5621H74.0683V34.5896ZM78.8283 45.8961C78.3582 46.237 77.6413 46.425 76.701 46.425H74.0683V42.0411H76.7715C77.2771 42.0322 77.7798 42.12 78.2524 42.2997C78.6317 42.466 78.9573 42.7346 79.1927 43.0754C79.4291 43.442 79.5442 43.8738 79.5218 44.3095C79.5218 45.0146 79.2985 45.5435 78.8283 45.8961V45.8961Z" fill="#FFC244"/>
<path d="M103.428 40.9716C104.086 39.9608 104.415 38.7149 104.415 37.2223C104.415 35.7296 104.098 34.4838 103.463 33.4378C102.825 32.3855 101.888 31.5468 100.771 31.0284C99.6079 30.4525 98.2681 30.1821 96.7284 30.1821H87.7725V50.9147H93.414V44.0744H95.3533L98.9968 50.9147H105.108L100.889 43.1811C101.929 42.7016 102.809 41.935 103.428 40.9716V40.9716ZM98.174 38.6562C97.9048 39.0279 97.5271 39.3071 97.0927 39.4554C96.5402 39.6213 95.9653 39.7006 95.3885 39.6905H93.414V34.6718H95.3885C95.968 34.6619 96.5448 34.7534 97.0927 34.9422C97.5319 35.0999 97.9102 35.3918 98.174 35.7766C98.4326 36.141 98.5384 36.6229 98.5384 37.2223C98.5384 37.8217 98.4326 38.2801 98.174 38.6562Z" fill="#FFC244"/>
<path d="M121.421 31.1106C119.894 30.2996 118.201 29.9 116.321 29.9C114.44 29.9 112.724 30.2996 111.196 31.1106C109.666 31.933 108.409 33.1826 107.576 34.7071C106.683 36.282 106.236 38.2448 106.236 40.5484C106.236 42.852 106.683 44.7796 107.576 46.3662C108.412 47.8914 109.668 49.144 111.196 49.9745C112.777 50.7986 114.538 51.2185 116.321 51.1968C118.201 51.1968 119.894 50.7972 121.421 49.9745C122.957 49.1555 124.219 47.9054 125.053 46.378C125.958 44.7913 126.393 42.8638 126.393 40.5484C126.393 38.233 125.958 36.282 125.053 34.7071C124.219 33.1797 122.957 31.9295 121.421 31.1106V31.1106ZM120.129 43.6865C119.8 44.5445 119.318 45.1909 118.671 45.6375C118.025 46.0842 117.249 46.2957 116.321 46.2957C115.392 46.2957 114.605 46.0842 113.97 45.6375C113.335 45.1909 112.842 44.5445 112.513 43.6865C112.183 42.8285 112.031 41.7942 112.031 40.5484C112.031 39.3026 112.183 38.2565 112.513 37.3986C112.787 36.6075 113.302 35.9218 113.984 35.4364C114.667 34.9511 115.483 34.6903 116.321 34.6903C117.158 34.6903 117.975 34.9511 118.657 35.4364C119.339 35.9218 119.854 36.6075 120.129 37.3986C120.458 38.2565 120.611 39.3026 120.611 40.5484C120.611 41.7942 120.458 42.8403 120.129 43.6865V43.6865Z" fill="#FFC244"/>
<path d="M140.979 41.9118H140.744L135.925 30.1821H128.92V50.9147H134.42V38.856H134.585L139.204 50.762H142.518L147.137 38.9265H147.302V50.9147H152.814V30.1821H145.797L140.979 41.9118Z" fill="#FFC244"/>
<path d="M174.182 34.7071C173.348 33.1797 172.086 31.9295 170.55 31.1106C169.022 30.2996 167.33 29.9 165.449 29.9C163.569 29.9 161.853 30.2996 160.325 31.1106C158.795 31.933 157.537 33.1826 156.705 34.7071C155.812 36.282 155.365 38.2448 155.365 40.5484C155.365 42.852 155.812 44.7796 156.705 46.3662C157.544 47.889 158.8 49.1408 160.325 49.9745C161.906 50.7986 163.667 51.2185 165.449 51.1968C167.33 51.1968 169.022 50.7972 170.55 49.9745C172.086 49.1555 173.348 47.9054 174.182 46.378C175.087 44.7913 175.545 42.8638 175.545 40.5484C175.545 38.233 175.087 36.282 174.182 34.7071ZM169.257 43.6865C168.928 44.5445 168.447 45.1909 167.8 45.6375C167.154 46.0842 166.39 46.2957 165.449 46.2957C164.509 46.2957 163.733 46.0842 163.099 45.6375C162.423 45.1557 161.917 44.4729 161.653 43.6865C161.324 42.8403 161.16 41.7942 161.16 40.5484C161.16 39.3026 161.324 38.2565 161.653 37.3986C161.917 36.6153 162.424 35.9363 163.099 35.4593C163.795 34.9995 164.616 34.7656 165.449 34.7893C166.39 34.7893 167.177 35.0127 167.8 35.4593C168.475 35.9391 168.984 36.6167 169.257 37.3986C169.587 38.2565 169.739 39.3026 169.739 40.5484C169.739 41.7942 169.587 42.8403 169.257 43.6865V43.6865Z" fill="#FFC244"/>
<path d="M80.8969 22.8012C81.4022 22.0842 81.6726 21.2027 81.6726 20.1567C81.6794 19.5918 81.5838 19.0303 81.3905 18.4995C81.1932 17.9825 80.8934 17.5107 80.509 17.1126C80.0611 16.6756 79.545 16.3144 78.9811 16.0431C78.2607 15.7109 77.5031 15.4663 76.7245 15.3144L75.4316 15.0323C75.1042 14.9711 74.782 14.8847 74.4679 14.7738C74.2296 14.6977 74.0038 14.5868 73.798 14.4447C73.6371 14.3411 73.504 14.1999 73.4101 14.0333C73.3271 13.8519 73.2942 13.6515 73.3149 13.4531C73.3356 13.2547 73.409 13.0654 73.5276 12.905C73.6808 12.7022 73.895 12.5539 74.1388 12.4819C74.4878 12.3682 74.8531 12.3126 75.2201 12.3173C75.9135 12.3173 76.4307 12.4584 76.7715 12.7522C76.9465 12.9035 77.0888 13.0889 77.1899 13.297C77.2909 13.5052 77.3485 13.7317 77.3592 13.9628H81.461C81.4876 13.0012 81.2222 12.0541 80.6997 11.2463C80.1773 10.4385 79.4224 9.80798 78.5345 9.43781C77.5942 9.01469 76.5012 8.80313 75.2201 8.80313C74.0803 8.77975 72.948 8.99181 71.8939 9.42605C70.9964 9.80481 70.2142 10.4128 69.6256 11.189C69.0849 11.9632 68.805 12.8895 68.8264 13.8335C68.8146 15.0676 69.226 16.0431 70.0252 16.76C70.8244 17.477 71.9409 17.9824 73.3396 18.2762L74.9145 18.617C75.394 18.7098 75.8627 18.8515 76.3131 19.0402C76.5932 19.1428 76.8463 19.3075 77.0536 19.522C77.2061 19.6982 77.2896 19.9237 77.2886 20.1567C77.2853 20.4088 77.1985 20.6526 77.0418 20.8501C76.8548 21.0637 76.616 21.2255 76.3484 21.3203C75.9725 21.4398 75.5791 21.4954 75.1848 21.4848C74.7017 21.4993 74.221 21.4111 73.7744 21.2263C73.4075 21.0722 73.0931 20.815 72.8694 20.4858C72.6382 20.1195 72.5122 19.6966 72.5051 19.2635H68.4268C68.4268 20.5916 68.7206 21.6729 69.2847 22.5309C69.8659 23.3823 70.6947 24.0347 71.6589 24.3996C72.6814 24.811 73.8802 25.0108 75.2436 25.0108C76.607 25.0108 77.747 24.8227 78.699 24.4584C79.651 24.094 80.3797 23.5299 80.8969 22.8012Z" fill="#FFC244"/>
<path d="M91.6748 24.8228V12.482H96.4348V9.01477H82.6836V12.482H87.4554V24.8228H91.6748Z" fill="#FFC244"/>
<path d="M97.8096 9.01477V19.146C97.8096 20.3448 98.1034 21.3909 98.6675 22.2724C99.249 23.1642 100.078 23.8668 101.053 24.2939C102.188 24.765 103.404 25.0074 104.632 25.0074C105.861 25.0074 107.077 24.765 108.211 24.2939C109.184 23.8634 110.013 23.1615 110.597 22.2724C111.173 21.3909 111.455 20.3448 111.455 19.146V9.01477H107.165V18.7817C107.175 19.2345 107.061 19.6815 106.836 20.0745C106.634 20.454 106.328 20.7679 105.954 20.9795C105.549 21.1878 105.1 21.2964 104.644 21.2964C104.188 21.2964 103.739 21.1878 103.334 20.9795C102.955 20.7659 102.642 20.453 102.429 20.0745C102.207 19.6805 102.097 19.2335 102.111 18.7817V9.01477H97.8096Z" fill="url(#paint0_radial_2319_2376)"/>
<path d="M124.031 9.95503C122.844 9.33211 121.434 9.01477 119.812 9.01477H113.794V24.8228H119.87C121.481 24.8228 122.879 24.5055 124.043 23.8825C125.213 23.2748 126.168 22.3232 126.781 21.1558C127.428 19.9805 127.757 18.5701 127.757 16.9247C127.757 15.2792 127.428 13.8571 126.781 12.6818C126.157 11.5189 125.199 10.5693 124.031 9.95503V9.95503ZM122.997 19.4869C122.749 20.0662 122.297 20.5346 121.727 20.8032C121.096 21.0712 120.415 21.2034 119.729 21.1911H118.084V12.6583H119.6C120.312 12.6417 121.019 12.7696 121.68 13.0344C122.262 13.2945 122.724 13.7647 122.973 14.3507C123.279 14.9619 123.432 15.8081 123.432 16.9247C123.432 18.0412 123.279 18.8757 122.997 19.4869Z" fill="#FFC244"/>
<path d="M133.986 9.01477H129.696V24.8263H133.986V9.01477Z" fill="#FFC244"/>
<path d="M147.514 9.73159C146.305 9.11737 144.968 8.79724 143.612 8.79724C142.256 8.79724 140.919 9.11737 139.71 9.73159C138.551 10.3622 137.594 11.3074 136.948 12.4583C136.278 13.6807 135.938 15.1616 135.938 16.9245C135.938 18.6875 136.278 20.1449 136.948 21.3555C137.589 22.5159 138.547 23.4698 139.71 24.1057C140.916 24.739 142.262 25.0583 143.624 25.0342C144.978 25.0584 146.317 24.739 147.514 24.1057C148.679 23.482 149.638 22.5351 150.276 21.379C150.958 20.1684 151.311 18.6875 151.311 16.9245C151.311 15.1616 150.958 13.6807 150.276 12.4583C149.638 11.3022 148.679 10.3553 147.514 9.73159V9.73159ZM146.515 19.3222C146.304 19.9197 145.912 20.4369 145.394 20.8026C144.876 21.1684 144.258 21.3648 143.624 21.3648C142.99 21.3648 142.372 21.1684 141.854 20.8026C141.336 20.4369 140.945 19.9197 140.733 19.3222C140.216 17.7616 140.216 16.0757 140.733 14.5151C140.945 13.9177 141.336 13.4005 141.854 13.0347C142.372 12.6689 142.99 12.4725 143.624 12.4725C144.258 12.4725 144.876 12.6689 145.394 13.0347C145.912 13.4005 146.304 13.9177 146.515 14.5151C147.033 16.0757 147.033 17.7616 146.515 19.3222V19.3222Z" fill="url(#paint1_radial_2319_2376)"/>
</g>
<defs>
<radialGradient id="paint0_radial_2319_2376" cx="0" cy="0" r="1" gradientUnits="userSpaceOnUse" gradientTransform="translate(98.3784 -13.4855) scale(135.597 135.598)">
<stop offset="0.47" stop-color="#FFC244"/>
<stop offset="1" stop-color="#1B1464"/>
</radialGradient>
<radialGradient id="paint1_radial_2319_2376" cx="0" cy="0" r="1" gradientUnits="userSpaceOnUse" gradientTransform="translate(98.379 -13.4856) scale(135.598 135.598)">
<stop offset="0.47" stop-color="#FFC244"/>
<stop offset="1" stop-color="#1B1464"/>
</radialGradient>
<clipPath id="clip0_2319_2376">
<rect width="175.546" height="60" fill="white"/>
</clipPath>
</defs>
</svg>
