<svg width="158" height="158" viewBox="0 0 158 158" fill="none" xmlns="http://www.w3.org/2000/svg">
<circle cx="79" cy="79" r="77.3263" stroke="#184293" stroke-width="3.34746"/>
<path d="M45.8157 94.4543L54.5897 68.5246H49.7908L41.1476 94.4543H45.8157Z" fill="#184293"/>
<path d="M76.0986 97.7188C76.126 97.6094 76.1465 97.4385 76.1533 97.2812H73.5898C73.583 97.3291 73.583 97.3633 73.5693 97.4385C73.3574 98.5596 72.8721 99.0723 72.0176 99.0723C71.2656 99.0723 70.7598 98.5186 70.7598 97.7051C70.7598 97.5137 70.7939 97.2334 70.8418 96.9668L71.2109 94.8613C71.416 93.6992 71.9971 93.0566 72.8379 93.0566C73.542 93.0566 74.0273 93.5693 74.0273 94.3145C74.0273 94.54 74.0205 94.6768 74.0068 94.8271H76.5566C76.584 94.5605 76.5977 94.417 76.5977 94.3008C76.5977 92.3184 75.0869 90.9375 72.9062 90.9375C70.541 90.9375 69.0508 92.2158 68.6338 94.5879L68.2646 96.7002C68.2031 97.0283 68.1758 97.3291 68.1758 97.6777C68.1758 99.7559 69.7275 101.198 71.9629 101.198C74.2051 101.198 75.6748 99.9609 76.0986 97.7188ZM84.0105 101L84.366 98.9834H82.2879L83.3133 93.1523H85.3914L85.7469 91.1357H79.0887L78.7332 93.1523H80.8113L79.7859 98.9834H77.7078L77.3523 101H84.0105ZM88.9898 101L89.5982 97.5479H90.5074L91.5602 101H94.2125L92.9752 97.2607C94.1783 96.8506 94.9029 96.0166 95.1217 94.7656C95.1627 94.5264 95.1832 94.3008 95.1832 94.082C95.1832 92.291 93.6793 91.1357 91.7311 91.1357H88.2174L86.4811 101H88.9898ZM90.398 93.0293H91.3277C92.0934 93.0293 92.5855 93.5215 92.5855 94.2188C92.5855 94.3008 92.5787 94.4238 92.5582 94.5059C92.36 95.3057 91.8336 95.7773 90.8492 95.7773H89.9127L90.398 93.0293ZM104.162 97.7188C104.189 97.6094 104.209 97.4385 104.216 97.2812H101.653C101.646 97.3291 101.646 97.3633 101.632 97.4385C101.42 98.5596 100.935 99.0723 100.08 99.0723C99.3285 99.0723 98.8227 98.5186 98.8227 97.7051C98.8227 97.5137 98.8568 97.2334 98.9047 96.9668L99.2738 94.8613C99.4789 93.6992 100.06 93.0566 100.901 93.0566C101.605 93.0566 102.09 93.5693 102.09 94.3145C102.09 94.54 102.083 94.6768 102.07 94.8271H104.62C104.647 94.5605 104.661 94.417 104.661 94.3008C104.661 92.3184 103.15 90.9375 100.969 90.9375C98.6039 90.9375 97.1137 92.2158 96.6967 94.5879L96.3275 96.7002C96.266 97.0283 96.2387 97.3291 96.2387 97.6777C96.2387 99.7559 97.7904 101.198 100.026 101.198C102.268 101.198 103.738 99.9609 104.162 97.7188ZM112.716 98.9287H108.662L110.036 91.1357H107.569L105.832 101H112.354L112.716 98.9287ZM121.838 98.9834H117.825L118.181 96.9668H121.94L122.269 95.1211H118.509L118.851 93.1523H122.863L123.219 91.1357H116.697L114.961 101H121.482L121.838 98.9834ZM67.9297 111.979C67.9229 112.061 67.916 112.17 67.916 112.259C67.916 113.968 69.5977 115.198 71.9355 115.198C74.335 115.198 75.8594 113.886 75.8594 111.814C75.8594 110.611 75.0391 109.723 73.4805 109.244L72.4961 108.943C71.7441 108.711 71.3818 108.362 71.3818 107.877C71.3818 107.255 71.8877 106.865 72.6875 106.865C73.4189 106.865 73.9932 107.357 73.9932 107.979C73.9932 108.089 73.9932 108.103 73.9863 108.137H76.3447C76.3584 108.068 76.3584 108.027 76.3584 107.877C76.3516 106.141 74.8203 104.938 72.6191 104.938C70.3701 104.938 68.8252 106.271 68.8252 108.212C68.8252 109.47 69.6113 110.393 71.0742 110.844L72.0996 111.158C72.9473 111.418 73.3232 111.76 73.3232 112.266C73.3232 112.847 72.7422 113.264 71.9219 113.264C70.9375 113.264 70.2812 112.799 70.2812 112.095C70.2812 111.999 70.2812 111.999 70.2881 111.979H67.9297ZM84.6531 112.929H80.5994L81.9734 105.136H79.5057L77.7693 115H84.2908L84.6531 112.929ZM91.7311 115H94.3629L93.3102 105.136H90.234L85.7086 115H88.2994L89.1539 112.833H91.649L91.7311 115ZM91.3209 107.357H91.4508L91.5875 111.028H89.8717L91.3209 107.357ZM95.9926 111.979C95.9857 112.061 95.9789 112.17 95.9789 112.259C95.9789 113.968 97.6605 115.198 99.9984 115.198C102.398 115.198 103.922 113.886 103.922 111.814C103.922 110.611 103.102 109.723 101.543 109.244L100.559 108.943C99.807 108.711 99.4447 108.362 99.4447 107.877C99.4447 107.255 99.9506 106.865 100.75 106.865C101.482 106.865 102.056 107.357 102.056 107.979C102.056 108.089 102.056 108.103 102.049 108.137H104.408C104.421 108.068 104.421 108.027 104.421 107.877C104.414 106.141 102.883 104.938 100.682 104.938C98.433 104.938 96.8881 106.271 96.8881 108.212C96.8881 109.47 97.6742 110.393 99.1371 110.844L100.163 111.158C101.01 111.418 101.386 111.76 101.386 112.266C101.386 112.847 100.805 113.264 99.9848 113.264C99.0004 113.264 98.3441 112.799 98.3441 112.095C98.3441 111.999 98.3441 111.999 98.351 111.979H95.9926ZM112.449 115L114.186 105.136H111.738L111.062 109.005H108.546L109.223 105.136H106.776L105.039 115H107.487L108.191 111.021H110.706L110.002 115H112.449Z" fill="#184293"/>
</svg>
