<svg width="176" height="60" viewBox="0 0 176 60" fill="none" xmlns="http://www.w3.org/2000/svg">
<g clip-path="url(#clip0_2397_2364)">
<path d="M29.9941 60C46.5661 60 60 46.5661 60 29.9941C60 13.4221 46.5661 0 29.9941 0C13.4221 0 0 13.4339 0 29.9941C0 46.5544 13.4339 60 29.9941 60ZM23.3066 34.3075C23.4476 31.8394 26.1038 31.9804 26.6092 30.0411C27.1146 28.1019 25.6337 27.855 26.2331 25.8335C26.8325 23.8119 27.9491 23.8825 27.7258 21.9314C27.5024 19.9804 24.2821 19.6866 25.0108 16.0666C25.7395 12.4466 29.8296 13.3046 31.6278 11.3536C33.4261 9.40255 32.4623 8.59158 33.8844 6.71107C35.3066 4.83056 37.9275 3.03232 42.8874 5.13614C45.2615 6.14691 48.5759 8.60333 51.1381 11.5064C53.9119 14.6562 55.7218 18.335 56.4505 20.6268C57.1792 22.9187 53.2302 22.0842 50.6445 25.1166C48.0588 28.1489 49.1048 36.7052 43.7453 43.3457C38.3859 49.9863 26.9853 52.76 26.1508 51.4789C25.3164 50.1978 34.331 47.5064 37.1048 45.1792C39.8786 42.8521 39.7258 39.3379 38.8208 37.6102C37.9158 35.8825 36.2821 34.0842 33.7316 33.332C31.1812 32.5798 30.8051 33.2615 31.2282 33.6729C31.6513 34.0842 33.7316 34.3898 33.2615 35.7179C32.7914 37.046 30.5818 37.1518 28.5602 37.2341C26.5387 37.3164 23.1655 36.7875 23.3066 34.3075ZM5.08913 40.0078C3.52596 39.7023 1.49265 33.1792 2.02155 27.6317C2.55044 22.0842 4.57199 17.7356 6.22919 15.1851C7.88639 12.6347 12.5406 9.0382 13.8688 10.3898C15.1969 11.7414 11.4476 13.3516 12.6934 16.5367C13.9393 19.7218 16.713 18.335 17.0069 22.4603C17.3007 26.5857 20.1567 25.9158 20.9089 28.2429C21.6611 30.57 19.6043 31.2282 19.5455 33.4025C19.4868 35.5769 21.4378 35.6592 22.7071 36.6347C23.9765 37.6102 19.2047 37.8335 18.0294 37.763C16.8541 37.6925 14.8913 37.6807 13.951 36.3526C13.0108 35.0245 15.7728 34.6836 15.8903 34.2018C16.0078 33.7199 14.6092 33.3438 12.2116 34.8952C9.81391 36.4466 8.46229 40.6895 5.08913 40.0078Z" fill="white"/>
<path d="M83.083 40.7713C82.3418 40.3559 81.5111 40.126 80.6618 40.1013V39.8898C81.4217 39.7566 82.1436 39.4598 82.7774 39.02C83.3726 38.6141 83.8572 38.0662 84.1876 37.426C84.518 36.7858 84.6837 36.0733 84.6697 35.353C84.6697 34.307 84.3994 33.3903 83.847 32.6263C83.2946 31.8623 82.4836 31.2394 81.4023 30.8163C80.321 30.3932 78.9929 30.1816 77.4297 30.1816H68.4268V50.9143H78.1937C79.6981 50.9143 80.9909 50.6557 82.0722 50.1621C83.0901 49.709 83.9641 48.9854 84.5992 48.07C85.1929 47.1716 85.5002 46.1143 85.4806 45.0377C85.5023 44.1459 85.283 43.2648 84.846 42.4872C84.4193 41.7703 83.8112 41.1784 83.083 40.7713V40.7713ZM74.0683 34.5891H76.4424C77.0674 34.5625 77.6834 34.7445 78.1937 35.1062C78.652 35.4471 78.8871 35.9289 78.8871 36.5754C78.9011 36.9604 78.7893 37.3395 78.5688 37.6554C78.3483 37.9713 78.031 38.2069 77.6648 38.3266C77.2545 38.4927 76.8144 38.5727 76.3719 38.5617H74.0683V34.5891ZM78.8283 45.8956C78.3582 46.2365 77.6413 46.4245 76.701 46.4245H74.0683V42.0406H76.7715C77.2771 42.0318 77.7798 42.1195 78.2524 42.2992C78.6317 42.4655 78.9573 42.7341 79.1927 43.0749C79.4291 43.4416 79.5442 43.8733 79.5218 44.309C79.5218 45.0142 79.2985 45.5431 78.8283 45.8956V45.8956Z" fill="white"/>
<path d="M103.428 40.9711C104.086 39.9603 104.415 38.7145 104.415 37.2218C104.415 35.7291 104.098 34.4833 103.463 33.4373C102.825 32.385 101.888 31.5463 100.771 31.0279C99.6079 30.452 98.2681 30.1816 96.7284 30.1816H87.7725V50.9143H93.414V44.0739H95.3533L98.9968 50.9143H105.108L100.889 43.1807C101.929 42.7011 102.809 41.9345 103.428 40.9711V40.9711ZM98.174 38.6557C97.9048 39.0274 97.5271 39.3066 97.0927 39.4549C96.5402 39.6208 95.9653 39.7001 95.3885 39.69H93.414V34.6714H95.3885C95.968 34.6614 96.5448 34.7529 97.0927 34.9417C97.5319 35.0994 97.9102 35.3913 98.174 35.7762C98.4326 36.1405 98.5384 36.6224 98.5384 37.2218C98.5384 37.8212 98.4326 38.2796 98.174 38.6557Z" fill="white"/>
<path d="M121.421 31.111C119.894 30.3 118.201 29.9004 116.321 29.9004C114.44 29.9004 112.724 30.3 111.196 31.111C109.666 31.9334 108.409 33.1829 107.576 34.7074C106.683 36.2824 106.236 38.2452 106.236 40.5488C106.236 42.8524 106.683 44.7799 107.576 46.3666C108.412 47.8918 109.668 49.1444 111.196 49.9748C112.777 50.799 114.538 51.2189 116.321 51.1972C118.201 51.1972 119.894 50.7976 121.421 49.9748C122.957 49.1559 124.219 47.9057 125.053 46.3784C125.958 44.7917 126.393 42.8642 126.393 40.5488C126.393 38.2334 125.958 36.2824 125.053 34.7074C124.219 33.18 122.957 31.9299 121.421 31.111V31.111ZM120.129 43.6869C119.8 44.5449 119.318 45.1913 118.671 45.6379C118.025 46.0845 117.249 46.2961 116.321 46.2961C115.392 46.2961 114.605 46.0845 113.97 45.6379C113.335 45.1913 112.842 44.5449 112.513 43.6869C112.183 42.8289 112.031 41.7946 112.031 40.5488C112.031 39.3029 112.183 38.2569 112.513 37.3989C112.787 36.6079 113.302 35.9221 113.984 35.4368C114.667 34.9515 115.483 34.6907 116.321 34.6907C117.158 34.6907 117.975 34.9515 118.657 35.4368C119.339 35.9221 119.854 36.6079 120.129 37.3989C120.458 38.2569 120.611 39.3029 120.611 40.5488C120.611 41.7946 120.458 42.8406 120.129 43.6869V43.6869Z" fill="white"/>
<path d="M140.979 41.9113H140.744L135.925 30.1816H128.92V50.9143H134.42V38.8555H134.585L139.204 50.7615H142.518L147.137 38.926H147.302V50.9143H152.814V30.1816H145.797L140.979 41.9113Z" fill="white"/>
<path d="M174.182 34.7074C173.348 33.18 172.086 31.9299 170.55 31.111C169.022 30.3 167.33 29.9004 165.449 29.9004C163.569 29.9004 161.853 30.3 160.325 31.111C158.795 31.9334 157.537 33.1829 156.705 34.7074C155.812 36.2824 155.365 38.2452 155.365 40.5488C155.365 42.8524 155.812 44.7799 156.705 46.3666C157.544 47.8894 158.8 49.1412 160.325 49.9748C161.906 50.799 163.667 51.2189 165.449 51.1972C167.33 51.1972 169.022 50.7976 170.55 49.9748C172.086 49.1559 173.348 47.9057 174.182 46.3784C175.087 44.7917 175.545 42.8642 175.545 40.5488C175.545 38.2334 175.087 36.2824 174.182 34.7074ZM169.257 43.6869C168.928 44.5449 168.447 45.1913 167.8 45.6379C167.154 46.0845 166.39 46.2961 165.449 46.2961C164.509 46.2961 163.733 46.0845 163.099 45.6379C162.423 45.1561 161.917 44.4733 161.653 43.6869C161.324 42.8406 161.16 41.7946 161.16 40.5488C161.16 39.3029 161.324 38.2569 161.653 37.3989C161.917 36.6157 162.424 35.9366 163.099 35.4596C163.795 34.9999 164.616 34.7659 165.449 34.7897C166.39 34.7897 167.177 35.013 167.8 35.4596C168.475 35.9394 168.984 36.6171 169.257 37.3989C169.587 38.2569 169.739 39.3029 169.739 40.5488C169.739 41.7946 169.587 42.8406 169.257 43.6869V43.6869Z" fill="white"/>
<path d="M80.8969 22.8015C81.4022 22.0846 81.6726 21.2031 81.6726 20.1571C81.6794 19.5922 81.5838 19.0307 81.3905 18.4999C81.1932 17.9829 80.8934 17.5111 80.509 17.113C80.0611 16.676 79.545 16.3148 78.9811 16.0435C78.2607 15.7113 77.5031 15.4667 76.7245 15.3148L75.4316 15.0327C75.1042 14.9715 74.782 14.8851 74.4679 14.7741C74.2296 14.698 74.0038 14.5871 73.798 14.445C73.6371 14.3415 73.504 14.2003 73.4101 14.0337C73.3271 13.8522 73.2942 13.6519 73.3149 13.4535C73.3356 13.255 73.409 13.0658 73.5276 12.9054C73.6808 12.7025 73.895 12.5542 74.1388 12.4822C74.4878 12.3685 74.8531 12.3129 75.2201 12.3177C75.9135 12.3177 76.4307 12.4587 76.7715 12.7526C76.9465 12.9039 77.0888 13.0893 77.1899 13.2974C77.2909 13.5055 77.3485 13.732 77.3592 13.9631H81.461C81.4876 13.0015 81.2222 12.0544 80.6997 11.2466C80.1773 10.4389 79.4224 9.80835 78.5345 9.43817C77.5942 9.01506 76.5012 8.8035 75.2201 8.8035C74.0803 8.78012 72.948 8.99218 71.8939 9.42642C70.9964 9.80518 70.2142 10.4131 69.6256 11.1894C69.0849 11.9636 68.805 12.8898 68.8264 13.8339C68.8146 15.0679 69.226 16.0435 70.0252 16.7604C70.8244 17.4774 71.9409 17.9827 73.3396 18.2766L74.9145 18.6174C75.394 18.7101 75.8627 18.8519 76.3131 19.0405C76.5932 19.1432 76.8463 19.3079 77.0536 19.5224C77.2061 19.6986 77.2896 19.9241 77.2886 20.1571C77.2853 20.4092 77.1985 20.653 77.0418 20.8505C76.8548 21.064 76.616 21.2259 76.3484 21.3206C75.9725 21.4402 75.5791 21.4958 75.1848 21.4852C74.7017 21.4996 74.221 21.4115 73.7744 21.2266C73.4075 21.0726 73.0931 20.8153 72.8694 20.4862C72.6382 20.1198 72.5122 19.697 72.5051 19.2638H68.4268C68.4268 20.5919 68.7206 21.6732 69.2847 22.5312C69.8659 23.3827 70.6947 24.0351 71.6589 24.4C72.6814 24.8113 73.8802 25.0111 75.2436 25.0111C76.607 25.0111 77.747 24.8231 78.699 24.4587C79.651 24.0944 80.3797 23.5302 80.8969 22.8015Z" fill="white"/>
<path d="M91.6748 24.8227V12.4818H96.4348V9.01465H82.6836V12.4818H87.4554V24.8227H91.6748Z" fill="white"/>
<path d="M97.8096 9.01465V19.1459C97.8096 20.3447 98.1034 21.3908 98.6675 22.2722C99.249 23.1641 100.078 23.8667 101.053 24.2938C102.188 24.7648 103.404 25.0073 104.632 25.0073C105.861 25.0073 107.077 24.7648 108.211 24.2938C109.184 23.8632 110.013 23.1614 110.597 22.2722C111.173 21.3908 111.455 20.3447 111.455 19.1459V9.01465H107.165V18.7815C107.175 19.2344 107.061 19.6814 106.836 20.0744C106.634 20.4538 106.328 20.7678 105.954 20.9794C105.549 21.1877 105.1 21.2963 104.644 21.2963C104.188 21.2963 103.739 21.1877 103.334 20.9794C102.955 20.7658 102.642 20.4529 102.429 20.0744C102.207 19.6804 102.097 19.2334 102.111 18.7815V9.01465H97.8096Z" fill="white"/>
<path d="M124.031 9.9549C122.844 9.33198 121.434 9.01465 119.812 9.01465H113.794V24.8227H119.87C121.481 24.8227 122.879 24.5053 124.043 23.8824C125.213 23.2746 126.168 22.323 126.781 21.1557C127.428 19.9804 127.757 18.57 127.757 16.9245C127.757 15.2791 127.428 13.857 126.781 12.6816C126.157 11.5188 125.199 10.5692 124.031 9.9549V9.9549ZM122.997 19.4867C122.749 20.0661 122.297 20.5345 121.727 20.8031C121.096 21.0711 120.415 21.2033 119.729 21.1909H118.084V12.6581H119.6C120.312 12.6416 121.019 12.7695 121.68 13.0342C122.262 13.2944 122.724 13.7645 122.973 14.3506C123.279 14.9618 123.432 15.808 123.432 16.9245C123.432 18.0411 123.279 18.8756 122.997 19.4867Z" fill="white"/>
<path d="M133.986 9.01465H129.696V24.8262H133.986V9.01465Z" fill="white"/>
<path d="M147.514 9.73123C146.305 9.11701 144.968 8.79687 143.612 8.79688C142.256 8.79688 140.919 9.11701 139.71 9.73123C138.551 10.3619 137.594 11.307 136.948 12.458C136.278 13.6803 135.938 15.1612 135.938 16.9242C135.938 18.6872 136.278 20.1445 136.948 21.3551C137.589 22.5155 138.547 23.4694 139.71 24.1054C140.916 24.7386 142.262 25.058 143.624 25.0339C144.978 25.0581 146.317 24.7386 147.514 24.1054C148.679 23.4816 149.638 22.5347 150.276 21.3786C150.958 20.1681 151.311 18.6872 151.311 16.9242C151.311 15.1612 150.958 13.6803 150.276 12.458C149.638 11.3019 148.679 10.355 147.514 9.73123V9.73123ZM146.515 19.3218C146.304 19.9193 145.912 20.4365 145.394 20.8023C144.876 21.1681 144.258 21.3645 143.624 21.3645C142.99 21.3645 142.372 21.1681 141.854 20.8023C141.336 20.4365 140.945 19.9193 140.733 19.3218C140.216 17.7612 140.216 16.0754 140.733 14.5148C140.945 13.9173 141.336 13.4001 141.854 13.0343C142.372 12.6685 142.99 12.4721 143.624 12.4721C144.258 12.4721 144.876 12.6685 145.394 13.0343C145.912 13.4001 146.304 13.9173 146.515 14.5148C147.033 16.0754 147.033 17.7612 146.515 19.3218V19.3218Z" fill="white"/>
</g>
<defs>
<clipPath id="clip0_2397_2364">
<rect width="175.546" height="60" fill="white"/>
</clipPath>
</defs>
</svg>
