<svg xmlns="http://www.w3.org/2000/svg" xmlns:xlink="http://www.w3.org/1999/xlink" viewBox="0 0 2168.36 1373.06"><defs><style>.cls-1{isolation:isolate;}.cls-10,.cls-13,.cls-14,.cls-15,.cls-2,.cls-3,.cls-4{opacity:0.15;}.cls-10,.cls-13,.cls-14,.cls-15,.cls-2,.cls-28,.cls-3,.cls-31,.cls-33,.cls-4,.cls-6,.cls-61,.cls-7,.cls-73,.cls-79,.cls-9{mix-blend-mode:multiply;}.cls-2{fill:url(#linear-gradient);}.cls-3{fill:url(#linear-gradient-2);}.cls-4{fill:url(#linear-gradient-3);}.cls-5{opacity:0.29;fill:url(#linear-gradient-4);}.cls-6,.cls-7,.cls-9{opacity:0.59;}.cls-6{fill:url(#linear-gradient-5);}.cls-7{fill:url(#linear-gradient-6);}.cls-11,.cls-12,.cls-8{opacity:0.5;}.cls-8{fill:url(#linear-gradient-7);}.cls-9{fill:url(#linear-gradient-8);}.cls-10{fill:url(#linear-gradient-9);}.cls-11{fill:url(#linear-gradient-10);}.cls-12{fill:url(#linear-gradient-11);}.cls-13{fill:url(#linear-gradient-12);}.cls-14{fill:url(#linear-gradient-13);}.cls-15{fill:url(#linear-gradient-14);}.cls-16{fill:#ebeff2;}.cls-17{fill:#d8dee8;}.cls-18{fill:url(#linear-gradient-15);}.cls-19,.cls-21,.cls-22,.cls-62{fill:#fff;}.cls-19,.cls-20{opacity:0.61;}.cls-22{opacity:0.45;}.cls-23{fill:url(#linear-gradient-16);}.cls-24{fill:url(#linear-gradient-17);}.cls-25{fill:url(#linear-gradient-18);}.cls-26{fill:url(#linear-gradient-19);}.cls-27{fill:url(#linear-gradient-20);}.cls-113,.cls-28,.cls-31,.cls-40,.cls-61,.cls-73,.cls-79{opacity:0.3;}.cls-29{fill:url(#linear-gradient-21);}.cls-30{fill:url(#linear-gradient-22);}.cls-31{fill:url(#linear-gradient-23);}.cls-32{fill:url(#linear-gradient-24);}.cls-33{fill:url(#linear-gradient-25);}.cls-34{fill:url(#linear-gradient-26);}.cls-35{fill:url(#linear-gradient-27);}.cls-36{fill:url(#linear-gradient-28);}.cls-37{fill:url(#linear-gradient-29);}.cls-38{fill:url(#linear-gradient-30);}.cls-39{fill:url(#linear-gradient-31);}.cls-40{mix-blend-mode:color-burn;}.cls-41{fill:url(#linear-gradient-32);}.cls-42{fill:url(#linear-gradient-33);}.cls-43{fill:url(#linear-gradient-34);}.cls-44{fill:url(#linear-gradient-35);}.cls-45{fill:url(#linear-gradient-36);}.cls-46{fill:url(#linear-gradient-37);}.cls-47{fill:url(#linear-gradient-38);}.cls-48{fill:url(#linear-gradient-39);}.cls-49{fill:url(#linear-gradient-40);}.cls-50{fill:url(#linear-gradient-41);}.cls-51{fill:url(#linear-gradient-42);}.cls-52{fill:url(#linear-gradient-43);}.cls-53{fill:url(#linear-gradient-44);}.cls-54{fill:url(#linear-gradient-45);}.cls-55{fill:url(#linear-gradient-46);}.cls-56{fill:url(#linear-gradient-47);}.cls-57{fill:url(#linear-gradient-48);}.cls-58{fill:#26264f;}.cls-59{fill:url(#linear-gradient-49);}.cls-60{fill:url(#linear-gradient-50);}.cls-61{fill:url(#linear-gradient-51);}.cls-62{opacity:0.49;}.cls-63{fill:url(#linear-gradient-52);}.cls-64{fill:url(#linear-gradient-53);}.cls-65{fill:url(#linear-gradient-54);}.cls-66{fill:url(#linear-gradient-55);}.cls-67{fill:url(#linear-gradient-56);}.cls-68{fill:url(#linear-gradient-57);}.cls-69{fill:url(#linear-gradient-58);}.cls-70{fill:url(#linear-gradient-59);}.cls-71{fill:url(#linear-gradient-60);}.cls-72{fill:url(#linear-gradient-61);}.cls-73{fill:url(#linear-gradient-62);}.cls-74{fill:url(#linear-gradient-63);}.cls-75{fill:url(#linear-gradient-64);}.cls-76{fill:url(#linear-gradient-65);}.cls-77{fill:url(#linear-gradient-66);}.cls-78{fill:url(#linear-gradient-67);}.cls-79{fill:url(#linear-gradient-68);}.cls-80{fill:url(#linear-gradient-69);}.cls-81{fill:url(#linear-gradient-70);}.cls-82{fill:url(#linear-gradient-71);}.cls-83{fill:url(#linear-gradient-72);}.cls-84{fill:url(#linear-gradient-73);}.cls-85{fill:url(#linear-gradient-74);}.cls-86{fill:url(#linear-gradient-75);}.cls-87{fill:url(#linear-gradient-76);}.cls-88{fill:url(#linear-gradient-77);}.cls-89{fill:url(#linear-gradient-78);}.cls-90{fill:url(#linear-gradient-79);}.cls-91{fill:url(#linear-gradient-80);}.cls-92{fill:url(#linear-gradient-81);}.cls-93{fill:url(#linear-gradient-82);}.cls-94{fill:url(#linear-gradient-83);}.cls-95{fill:url(#linear-gradient-84);}.cls-96{fill:#9b305e;}.cls-97{fill:url(#linear-gradient-85);}.cls-98{fill:url(#linear-gradient-86);}.cls-99{fill:url(#linear-gradient-87);}.cls-100{fill:url(#linear-gradient-88);}.cls-101{fill:url(#linear-gradient-89);}.cls-102{fill:url(#linear-gradient-90);}.cls-103{fill:url(#linear-gradient-91);}.cls-104{fill:url(#linear-gradient-92);}.cls-105{fill:url(#linear-gradient-93);}.cls-106{fill:url(#linear-gradient-94);}.cls-107{fill:url(#linear-gradient-95);}.cls-108{fill:url(#linear-gradient-96);}.cls-109{fill:url(#linear-gradient-97);}.cls-110{fill:url(#linear-gradient-98);}.cls-111{fill:url(#linear-gradient-99);}.cls-112{opacity:0.81;}.cls-113{mix-blend-mode:soft-light;}.cls-114{fill:url(#linear-gradient-100);}</style><linearGradient id="linear-gradient" x1="1426.75" y1="-836.03" x2="-1270.72" y2="4316.82" gradientUnits="userSpaceOnUse"><stop offset="0" stop-color="#aa80f9"/><stop offset="1" stop-color="#6165d7"/></linearGradient><linearGradient id="linear-gradient-2" x1="404.3" y1="-13.4" x2="-220.74" y2="1180.59" xlink:href="#linear-gradient"/><linearGradient id="linear-gradient-3" x1="1988.01" y1="-753.15" x2="-961.81" y2="4881.77" xlink:href="#linear-gradient"/><linearGradient id="linear-gradient-4" x1="821.54" y1="-464.66" x2="-1343.72" y2="3671.55" gradientUnits="userSpaceOnUse"><stop offset="0" stop-color="#ff9085"/><stop offset="1" stop-color="#fb6fbb"/></linearGradient><linearGradient id="linear-gradient-5" x1="343.9" y1="302.79" x2="-418.02" y2="1758.25" xlink:href="#linear-gradient"/><linearGradient id="linear-gradient-6" x1="495.04" y1="263.84" x2="-361.02" y2="1899.12" xlink:href="#linear-gradient"/><linearGradient id="linear-gradient-7" x1="1157.71" y1="-271.34" x2="-1019.57" y2="3887.81" xlink:href="#linear-gradient-4"/><linearGradient id="linear-gradient-8" x1="1884.61" y1="-664.92" x2="-1575.95" y2="5945.64" xlink:href="#linear-gradient"/><linearGradient id="linear-gradient-9" x1="2169.09" y1="-545.71" x2="-589.08" y2="4723.1" xlink:href="#linear-gradient"/><linearGradient id="linear-gradient-10" x1="2167.19" y1="-724.35" x2="-39.77" y2="3491.5" xlink:href="#linear-gradient-4"/><linearGradient id="linear-gradient-11" x1="1958.38" y1="544.9" x2="1475.51" y2="1467.31" xlink:href="#linear-gradient-4"/><linearGradient id="linear-gradient-12" x1="731.16" y1="94.29" x2="-1157.47" y2="3702.07" xlink:href="#linear-gradient"/><linearGradient id="linear-gradient-13" x1="1343.75" y1="-851.36" x2="-933.25" y2="3498.28" xlink:href="#linear-gradient"/><linearGradient id="linear-gradient-14" x1="2150.32" y1="146.82" x2="1467.55" y2="1451.09" xlink:href="#linear-gradient"/><linearGradient id="linear-gradient-15" x1="1259.72" y1="219.55" x2="385.22" y2="1271.53" gradientUnits="userSpaceOnUse"><stop offset="0" stop-color="#444b8c"/><stop offset="1" stop-color="#26264f"/></linearGradient><linearGradient id="linear-gradient-16" x1="-3091.7" y1="-690.05" x2="-2921.83" y2="-690.05" gradientTransform="matrix(-0.85, -0.53, -0.53, 0.85, -1124.75, -352.1)" xlink:href="#linear-gradient-15"/><linearGradient id="linear-gradient-17" x1="-2755.84" y1="-690.05" x2="-2585.98" y2="-690.05" gradientTransform="matrix(-0.85, -0.53, -0.53, 0.85, -1124.75, -352.1)" xlink:href="#linear-gradient-15"/><linearGradient id="linear-gradient-18" x1="-3091.7" y1="-702" x2="-2921.83" y2="-702" gradientTransform="matrix(-0.85, -0.53, -0.53, 0.85, -1124.75, -352.1)" xlink:href="#linear-gradient"/><linearGradient id="linear-gradient-19" x1="1459.29" y1="508.87" x2="1757.07" y2="356.94" xlink:href="#linear-gradient"/><linearGradient id="linear-gradient-20" x1="-2937.91" y1="-814.4" x2="-2574.95" y2="-1196.4" gradientTransform="matrix(-0.85, -0.53, -0.53, 0.85, -1124.75, -352.1)" gradientUnits="userSpaceOnUse"><stop offset="0" stop-color="#ffc444"/><stop offset="1" stop-color="#f36f56"/></linearGradient><linearGradient id="linear-gradient-21" x1="-2967.35" y1="-842.37" x2="-2604.39" y2="-1224.38" xlink:href="#linear-gradient-20"/><linearGradient id="linear-gradient-22" x1="-2988.64" y1="-1167.21" x2="-2689.03" y2="-1167.21" gradientTransform="matrix(-0.85, -0.53, -0.53, 0.85, -1124.75, -352.1)" xlink:href="#linear-gradient"/><linearGradient id="linear-gradient-23" x1="-2947.9" y1="-1111.78" x2="-2811.91" y2="-1254.9" gradientTransform="matrix(-0.85, -0.53, -0.53, 0.85, -1124.75, -352.1)" xlink:href="#linear-gradient"/><linearGradient id="linear-gradient-24" x1="-2959.62" y1="-963.89" x2="-2718.05" y2="-963.89" gradientTransform="matrix(0, -1, -1, 0, 828.4, -2498.85)" gradientUnits="userSpaceOnUse"><stop offset="0" stop-color="#ebeff2"/><stop offset="1" stop-color="#fff"/></linearGradient><linearGradient id="linear-gradient-25" x1="-2959.62" y1="-959.94" x2="-2718.05" y2="-959.94" gradientTransform="matrix(-0.85, -0.53, -0.53, 0.85, -1124.75, -352.1)" xlink:href="#linear-gradient-24"/><linearGradient id="linear-gradient-26" x1="-2801.29" y1="-1041.1" x2="-2860.67" y2="-918.99" gradientTransform="matrix(0, -1, -1, 0, 828.37, -2498.84)" xlink:href="#linear-gradient-24"/><linearGradient id="linear-gradient-27" x1="-2944.05" y1="-810.35" x2="-2764.18" y2="-1072.83" gradientTransform="matrix(0, -1, -1, 0, 828.38, -2498.84)" xlink:href="#linear-gradient-15"/><linearGradient id="linear-gradient-28" x1="-2845.36" y1="-582" x2="-2837.89" y2="-679.46" gradientTransform="matrix(0, -1, -1, 0, 964.68, -2251.67)" xlink:href="#linear-gradient-20"/><linearGradient id="linear-gradient-29" x1="-2921.63" y1="-651.42" x2="-2756.05" y2="-651.42" gradientTransform="matrix(-0.85, -0.53, -0.53, 0.85, -1124.75, -352.1)" xlink:href="#linear-gradient"/><linearGradient id="linear-gradient-30" x1="-2827.83" y1="-654.76" x2="-2868.53" y2="-532.27" gradientTransform="matrix(0, -1, -1, 0, 988.71, -2208.98)" xlink:href="#linear-gradient"/><linearGradient id="linear-gradient-31" x1="-2830.47" y1="-646.83" x2="-2861.4" y2="-553.74" gradientTransform="matrix(0, -1, -1, 0, 988.71, -2208.98)" xlink:href="#linear-gradient-15"/><linearGradient id="linear-gradient-32" x1="-2955.23" y1="-818.02" x2="-2775.37" y2="-1080.49" gradientTransform="matrix(-0.85, -0.53, -0.53, 0.85, -1124.75, -352.1)" xlink:href="#linear-gradient-15"/><linearGradient id="linear-gradient-33" x1="584.74" y1="1411.04" x2="1419.08" y2="532.92" gradientTransform="translate(-25.24 -64.92) rotate(-2.84)" xlink:href="#linear-gradient-20"/><linearGradient id="linear-gradient-34" x1="1488.54" y1="748.14" x2="1279.3" y2="1073.86" gradientTransform="translate(-25.24 -64.92) rotate(-2.84)" xlink:href="#linear-gradient-20"/><linearGradient id="linear-gradient-35" x1="1637.44" y1="839.96" x2="1428.2" y2="1165.69" gradientTransform="translate(-25.24 -64.92) rotate(-2.84)" xlink:href="#linear-gradient-20"/><linearGradient id="linear-gradient-36" x1="1235.23" y1="1256.52" x2="1237.13" y2="1290.32" gradientUnits="userSpaceOnUse"><stop offset="0" stop-color="#26264f"/><stop offset="1" stop-color="#444b8c"/></linearGradient><linearGradient id="linear-gradient-37" x1="1233.11" y1="1280.46" x2="1227.03" y2="1231.1" gradientTransform="matrix(1, 0, 0, 1, 0, 0)" xlink:href="#linear-gradient-20"/><linearGradient id="linear-gradient-38" x1="1218.09" y1="1178.34" x2="1284.56" y2="1178.34" xlink:href="#linear-gradient-15"/><linearGradient id="linear-gradient-39" x1="1218.09" y1="1178.34" x2="1284.56" y2="1178.34" xlink:href="#linear-gradient-15"/><linearGradient id="linear-gradient-40" x1="1300.07" y1="1252.66" x2="1301.97" y2="1286.46" xlink:href="#linear-gradient-36"/><linearGradient id="linear-gradient-41" x1="1295.48" y1="1272.78" x2="1289.4" y2="1223.42" gradientTransform="matrix(1, 0, 0, 1, 0, 0)" xlink:href="#linear-gradient-20"/><linearGradient id="linear-gradient-42" x1="1257.9" y1="1177" x2="1305.13" y2="1177" xlink:href="#linear-gradient-15"/><linearGradient id="linear-gradient-43" x1="1180.58" y1="1030.11" x2="1270.12" y2="1030.11" gradientUnits="userSpaceOnUse"><stop offset="0" stop-color="#e38ddd"/><stop offset="1" stop-color="#9571f6"/></linearGradient><linearGradient id="linear-gradient-44" x1="1359.37" y1="931.62" x2="1337.67" y2="970.13" gradientTransform="translate(714.97 -591.82) rotate(32.73)" xlink:href="#linear-gradient-24"/><linearGradient id="linear-gradient-45" x1="1309.51" y1="939.36" x2="1372.14" y2="939.36" gradientTransform="matrix(1, 0, 0, 1, 0, 0)" xlink:href="#linear-gradient-24"/><linearGradient id="linear-gradient-46" x1="1308.77" y1="963.44" x2="1313.24" y2="963.44" gradientTransform="matrix(1, 0, 0, 1, 0, 0)" xlink:href="#linear-gradient-24"/><linearGradient id="linear-gradient-47" x1="1344.37" y1="944.08" x2="1356.18" y2="944.08" gradientTransform="matrix(1, 0, 0, 1, 0, 0)" xlink:href="#linear-gradient-20"/><linearGradient id="linear-gradient-48" x1="-4169.16" y1="857.76" x2="-4121.53" y2="917.68" gradientTransform="matrix(-1, 0.02, 0.02, 1, -2875.36, 201.71)" xlink:href="#linear-gradient-20"/><linearGradient id="linear-gradient-49" x1="-4166.59" y1="857.11" x2="-4125.37" y2="908.96" gradientTransform="matrix(-1, 0.02, 0.02, 1, -2875.36, 201.71)" xlink:href="#linear-gradient-20"/><linearGradient id="linear-gradient-50" x1="1372.43" y1="950.36" x2="1269.91" y2="1068.84" xlink:href="#linear-gradient-43"/><linearGradient id="linear-gradient-51" x1="1385.89" y1="962.01" x2="1283.36" y2="1080.48" xlink:href="#linear-gradient"/><linearGradient id="linear-gradient-52" x1="1031.46" y1="342.16" x2="936.25" y2="638.36" xlink:href="#linear-gradient-15"/><linearGradient id="linear-gradient-53" x1="1057.48" y1="351.21" x2="962.8" y2="645.77" xlink:href="#linear-gradient-15"/><linearGradient id="linear-gradient-54" x1="1099.33" y1="365.32" x2="1005.02" y2="658.72" xlink:href="#linear-gradient-15"/><linearGradient id="linear-gradient-55" x1="1126.15" y1="374.48" x2="1032.34" y2="666.35" xlink:href="#linear-gradient-15"/><linearGradient id="linear-gradient-56" x1="1168.39" y1="388.71" x2="1074.92" y2="679.52" xlink:href="#linear-gradient-15"/><linearGradient id="linear-gradient-57" x1="-3097.91" y1="899.12" x2="-3094.15" y2="921.04" gradientTransform="matrix(-1, 0, 0, 1, -2070.36, 0)" xlink:href="#linear-gradient-20"/><linearGradient id="linear-gradient-58" x1="1823.14" y1="-121.98" x2="1826.9" y2="-100.06" gradientTransform="translate(-757.82 288.93) rotate(22.97)" xlink:href="#linear-gradient-20"/><linearGradient id="linear-gradient-59" x1="1539.5" y1="261.24" x2="1569.03" y2="433.42" gradientTransform="translate(-450.03 242.4) rotate(16.01)" xlink:href="#linear-gradient-4"/><linearGradient id="linear-gradient-60" x1="294.58" y1="1209.14" x2="294.58" y2="1128.19" gradientTransform="translate(721.42 34.25) rotate(2.02)" xlink:href="#linear-gradient-20"/><linearGradient id="linear-gradient-61" x1="287.02" y1="1053.61" x2="280.44" y2="1201.85" gradientTransform="translate(721.42 34.25) rotate(2.02)" gradientUnits="userSpaceOnUse"><stop offset="0" stop-color="#311944"/><stop offset="1" stop-color="#893976"/></linearGradient><linearGradient id="linear-gradient-62" x1="287.02" y1="1053.61" x2="280.44" y2="1201.85" xlink:href="#linear-gradient-61"/><linearGradient id="linear-gradient-63" x1="301.27" y1="1209.56" x2="287.73" y2="1164.9" gradientTransform="translate(721.42 34.25) rotate(2.02)" xlink:href="#linear-gradient-4"/><linearGradient id="linear-gradient-64" x1="1873.34" y1="-1361.74" x2="1873.34" y2="-1433.49" gradientTransform="matrix(0.65, 0.76, -0.76, 0.65, -1289.91, 650.87)" xlink:href="#linear-gradient-20"/><linearGradient id="linear-gradient-65" x1="1878.33" y1="-1359.02" x2="1864.79" y2="-1403.68" gradientTransform="matrix(0.65, 0.76, -0.76, 0.65, -1289.91, 650.87)" xlink:href="#linear-gradient-4"/><linearGradient id="linear-gradient-66" x1="-2986.42" y1="1126.72" x2="-3124.6" y2="1120.44" gradientTransform="matrix(-1, 0, 0, 1, -2070.36, 0)" xlink:href="#linear-gradient-61"/><linearGradient id="linear-gradient-67" x1="-3041.32" y1="909.54" x2="-3006.96" y2="1109.9" gradientTransform="matrix(-1, 0, 0, 1, -2070.36, 0)" xlink:href="#linear-gradient-4"/><linearGradient id="linear-gradient-68" x1="-213.88" y1="893.04" x2="-146.98" y2="1030.62" gradientTransform="matrix(-0.98, -0.21, -0.21, 0.98, 1002.14, 70.59)" xlink:href="#linear-gradient-4"/><linearGradient id="linear-gradient-69" x1="303.08" y1="910.89" x2="287.63" y2="935.89" gradientTransform="translate(721.42 34.25) rotate(2.02)" xlink:href="#linear-gradient-20"/><linearGradient id="linear-gradient-70" x1="-3099.13" y1="932.98" x2="-3069.6" y2="1105.16" gradientTransform="matrix(-1, 0, 0, 1, -2070.36, 0)" xlink:href="#linear-gradient-4"/><linearGradient id="linear-gradient-71" x1="217.27" y1="1015.58" x2="279.73" y2="882.11" gradientTransform="translate(721.42 34.25) rotate(2.02)" xlink:href="#linear-gradient-15"/><linearGradient id="linear-gradient-72" x1="1513.56" y1="790.77" x2="1527.66" y2="823.23" gradientTransform="translate(341.25)" xlink:href="#linear-gradient-20"/><linearGradient id="linear-gradient-73" x1="1549.62" y1="814.09" x2="1606.83" y2="945.76" gradientTransform="translate(341.25)" xlink:href="#linear-gradient-43"/><linearGradient id="linear-gradient-74" x1="4244.5" y1="947.86" x2="4263.5" y2="871.86" gradientTransform="translate(-2267.83)" xlink:href="#linear-gradient-43"/><linearGradient id="linear-gradient-75" x1="4005.71" y1="1686.6" x2="4014.73" y2="1694.61" gradientTransform="translate(-2207.77 14.65) rotate(-8.05)" xlink:href="#linear-gradient-15"/><linearGradient id="linear-gradient-76" x1="3089.13" y1="1694.61" x2="3089.13" y2="1678.91" gradientTransform="translate(-1291.57 -114.87) rotate(-8.05)" xlink:href="#linear-gradient-20"/><linearGradient id="linear-gradient-77" x1="4006.62" y1="1685.58" x2="4015.63" y2="1693.6" gradientTransform="translate(-2207.77 14.65) rotate(-8.05)" xlink:href="#linear-gradient-15"/><linearGradient id="linear-gradient-78" x1="4198.85" y1="1128.9" x2="4207.86" y2="1136.92" gradientTransform="translate(-2267.83)" xlink:href="#linear-gradient-15"/><linearGradient id="linear-gradient-79" x1="3282.22" y1="1136.93" x2="3282.22" y2="1121.23" gradientTransform="translate(-1342.52)" xlink:href="#linear-gradient-20"/><linearGradient id="linear-gradient-80" x1="-4502.56" y1="1144.13" x2="-4561.34" y2="906.83" gradientTransform="matrix(-1, 0, 0, 1, -2563.6, 0)" xlink:href="#linear-gradient-15"/><linearGradient id="linear-gradient-81" x1="1566.09" y1="800.33" x2="1629.1" y2="945.37" gradientTransform="translate(341.25)" xlink:href="#linear-gradient-43"/><linearGradient id="linear-gradient-82" x1="4199.75" y1="1127.88" x2="4208.77" y2="1135.9" gradientTransform="translate(-2267.83)" xlink:href="#linear-gradient-15"/><linearGradient id="linear-gradient-83" x1="4937.43" y1="206.73" x2="4984.11" y2="265.47" gradientTransform="translate(-2769.35 -634.88) rotate(14.93)" xlink:href="#linear-gradient-20"/><linearGradient id="linear-gradient-84" x1="4940.58" y1="203.76" x2="4989.39" y2="265.17" gradientTransform="translate(-2769.35 -634.88) rotate(14.93)" xlink:href="#linear-gradient-20"/><linearGradient id="linear-gradient-85" x1="606.17" y1="568.57" x2="622.67" y2="568.57" gradientUnits="userSpaceOnUse"><stop offset="0" stop-color="#ab316d"/><stop offset="1" stop-color="#792d3d"/></linearGradient><linearGradient id="linear-gradient-86" x1="638.5" y1="562.29" x2="514.95" y2="421.18" xlink:href="#linear-gradient-4"/><linearGradient id="linear-gradient-87" x1="634.61" y1="565.7" x2="511.06" y2="424.58" xlink:href="#linear-gradient-4"/><linearGradient id="linear-gradient-88" x1="543.55" y1="646.65" x2="560.2" y2="646.65" xlink:href="#linear-gradient-85"/><linearGradient id="linear-gradient-89" x1="538.99" y1="613.37" x2="556.97" y2="649.83" gradientUnits="userSpaceOnUse"><stop offset="0" stop-color="#f36f56"/><stop offset="1" stop-color="#ffc444"/></linearGradient><linearGradient id="linear-gradient-90" x1="594.08" y1="601.19" x2="470.52" y2="460.08" xlink:href="#linear-gradient-4"/><linearGradient id="linear-gradient-91" x1="600.3" y1="366.31" x2="638.44" y2="471.3" xlink:href="#linear-gradient-89"/><linearGradient id="linear-gradient-92" x1="396.09" y1="430.66" x2="386.98" y2="371.58" xlink:href="#linear-gradient-89"/><linearGradient id="linear-gradient-93" x1="635.51" y1="342.78" x2="558.54" y2="427.85" xlink:href="#linear-gradient-43"/><linearGradient id="linear-gradient-94" x1="522.44" y1="322.38" x2="435.34" y2="522.91" xlink:href="#linear-gradient-43"/><linearGradient id="linear-gradient-95" x1="491.57" y1="343.74" x2="497.99" y2="405.52" xlink:href="#linear-gradient-89"/><linearGradient id="linear-gradient-96" x1="-3469.49" y1="-187.71" x2="-3471.68" y2="-213.96" gradientTransform="matrix(-0.98, -0.21, -0.21, 0.98, -2949.96, -145.64)" xlink:href="#linear-gradient-4"/><linearGradient id="linear-gradient-97" x1="3552.35" y1="515.06" x2="3572.97" y2="536.81" gradientTransform="matrix(1, 0, 0, 1, -3074.23, -161.71)" xlink:href="#linear-gradient-89"/><linearGradient id="linear-gradient-98" x1="510.08" y1="317.02" x2="422.98" y2="517.54" xlink:href="#linear-gradient-43"/><linearGradient id="linear-gradient-99" x1="-278.82" y1="1587.36" x2="-58.41" y2="1774.46" gradientTransform="translate(-351.8 -1192.66) rotate(-27.22)" xlink:href="#linear-gradient-4"/><linearGradient id="linear-gradient-100" x1="349.17" y1="328.16" x2="389.91" y2="328.16" xlink:href="#linear-gradient-15"/></defs><g class="cls-1"><g id="Illustration"><path class="cls-2" d="M1292.39,308.73l-861-15c-33-.58-59.95-24.31-59.95-53s26.91-51.25,59.95-50.4l861,22.22c28.44.73,51.39,22.76,51.39,49.2S1320.83,309.23,1292.39,308.73Z"/><path class="cls-3" d="M288.23,291.23l-31.4-.55c-12.49-.21-22.64-9.05-22.64-19.74V204.59c0-10.69,10.15-19.09,22.64-18.76l31.4.81c12.41.32,22.45,9.19,22.45,19.81v65.94C310.68,283,300.64,291.45,288.23,291.23Z"/><path class="cls-4" d="M1880,469.07,855.43,465.33c-11.33,0-20.53-8.32-20.53-18.5V417.88c0-10.17,9.2-18.34,20.53-18.23L1880,409a17.13,17.13,0,0,1,17.1,16.94v26.38A16.87,16.87,0,0,1,1880,469.07Z"/><path class="cls-5" d="M668.46,464.65,67.74,462.46C30.42,462.32,0,436.68,0,405.19S30.42,348.54,67.74,349l600.72,7.56c33.69.42,60.86,24.84,60.86,54.53S702.15,464.77,668.46,464.65Z"/><path class="cls-6" d="M183.34,679.38c-28.25.38-51.25-18.8-51.25-42.85V584.27c0-24,23-43.6,51.25-43.67s50.85,19.21,50.85,43.06V635.5C234.19,659.35,211.47,679,183.34,679.38Z"/><path class="cls-7" d="M342.22,677.23,287,678c-12.43.17-22.54-8.33-22.54-19V559.7c0-10.66,10.11-19.33,22.54-19.36l55.19-.14c12.3,0,22.25,8.51,22.25,19.09v98.49C364.47,668.35,354.52,677.06,342.22,677.23Z"/><path class="cls-8" d="M984.12,668.53l-567.89,7.69c-12.18.17-22.07-8.25-22.07-18.8V559.17c0-10.55,9.89-19.13,22.07-19.16l567.89-1.43c11.06,0,20,8.08,20,18.11V650.1C1004.14,660.13,995.18,668.38,984.12,668.53Z"/><path class="cls-9" d="M1764.1,735.63l-1215.54,25c-11.92.24-21.6-8-21.6-18.46s9.68-19.07,21.6-19.28L1764.1,701.65a16.85,16.85,0,0,1,17.46,16.66C1781.56,727.68,1773.75,735.43,1764.1,735.63Z"/><path class="cls-10" d="M2014.49,610.69l-846.54,8c-30.36.28-55.09-22.21-55.09-50.25s24.73-50.79,55.09-50.82l846.54-.64a46.71,46.71,0,0,1,46.92,46.6A47.3,47.3,0,0,1,2014.49,610.69Z"/><path class="cls-11" d="M2017.72,235.38,1393.5,219.52c-37.72-1-68.48-30.56-68.48-66.11s30.76-63.23,68.48-61.85l624.22,22.89c33.48,1.23,60.47,29.14,60.47,62.35A58.43,58.43,0,0,1,2017.72,235.38Z"/><path class="cls-12" d="M1870.13,779l-27.08.76a11.39,11.39,0,0,1-11.91-11.32V711.83A12,12,0,0,1,1843.05,700l27.08-.47a11.43,11.43,0,0,1,11.78,11.37v56.25A12.08,12.08,0,0,1,1870.13,779Z"/><path class="cls-13" d="M546.63,911.67l-422.16,13.9c-42,1.39-76.31-26.37-76.31-62s34.28-65.3,76.31-66.26l422.16-9.63c39-.89,70.46,26,70.46,60S585.65,910.38,546.63,911.67Z"/><path class="cls-14" d="M1220,130,514,106.82c-33.89-1.11-61.49-26-61.49-55.66S480.13-1.34,514,.06l706,29.3C1250,30.6,1274.12,54,1274.12,81.67S1250,131,1220,130Z"/><path class="cls-15" d="M2068,422.63a61,61,0,0,1-61.44,60.89c-34.24-.08-62.15-27.79-62.15-61.88a61,61,0,0,1,62.15-60.89C2040.58,361.22,2068,388.92,2068,422.63Z"/><path class="cls-16" d="M1168.73,908.41C771.1,894.28,248.19,948.77,239,1054.25c-5.75,66.07,188.15,174.39,367.63,170.14,122.44-2.9,243.29-58.3,255.22-33.42,9.44,19.68-62,63-51.65,85.07,15.3,32.54,175.82-50.93,270.41,21.27,30.57,23.34,21.13,37.66,45.57,57.73,98.52,80.89,270.75-136.41,559.05-142.8,128.72-2.86,217.32,37.73,374.72-13.17,56-18.12,106.75-34.52,108.36-59.75C2173.52,1057.94,1665.07,926,1168.73,908.41Z"/><path class="cls-17" d="M494.23,966.14c-62.29,13.23-129.52,28.24-128.62,42.53,1.44,23.05,179.34,33.17,313.95,31.4,199.56-2.64,215.47-30.26,427.39-41.53,222.16-11.8,381.27,9.17,387.89-24.3,1.83-9.3-8.55-20.4-28.36-33.42C1285.41,821.8,847,891.21,494.23,966.14Z"/><path class="cls-17" d="M946.93,1229.45c-22.94,7.33-50.36,21.7-48.61,28.36.51,1.93,4.33,6.51,113.43-4,49.1-4.75,73.66-7.19,73.93-10.13C1086.53,1234.38,1015.08,1207.69,946.93,1229.45Z"/><path class="cls-17" d="M1252.58,1254.77c-29.45-.51-75.33,2.32-76,10.13s43.18,19.77,84.06,22.28c43.56,2.67,92-5,92.16-13.17C1353.07,1265.26,1298.36,1255.56,1252.58,1254.77Z"/><path class="cls-17" d="M1967.8,1114c-56-.9-129.47,6.35-129.64,16.2-.16,9.36,65.8,21.92,129.64,17.22,40.91-3,87.54-13.59,87.09-21.27C2054.4,1117.74,1997.37,1114.47,1967.8,1114Z"/><path class="cls-18" d="M1441.64,284.26,445.58,244.88c-11.71-.47-21.23,7.55-21.23,17.91V989.91c0,10.36,9.52,18.3,21.23,17.74l996.06-48a17.54,17.54,0,0,0,16.56-17.33V301.44A17.34,17.34,0,0,0,1441.64,284.26Z"/><path class="cls-19" d="M446.78,988.11V264.4l2.63.1,991.83,36.7V942.68l-2.42.11Zm5.07-718.45V982.81l984.32-45V306.08Z"/><g class="cls-20"><path class="cls-21" d="M522.7,896.26a20.7,20.7,0,0,1-14.34-5.56,16.66,16.66,0,0,1-4.86-16.65C526.81,784.31,586,746.77,619.14,732.38l2,4.65c-32.33,14-90,50.64-112.75,138.29A11.73,11.73,0,0,0,511.85,887a16.37,16.37,0,0,0,16.27,3.32L611.54,864c12.54-4,22.86-12.48,28.32-23.35l15.43-30.72,4.53,2.27-15.43,30.72c-6.08,12.09-17.49,21.53-31.32,25.91l-83.43,26.39A22.88,22.88,0,0,1,522.7,896.26Z"/><path class="cls-21" d="M965.37,880.57a19.12,19.12,0,0,1-4.91-.63l-76.7-20A46,46,0,0,1,854,836.5l-15.61-30.93,4.52-2.28,15.61,30.93A41,41,0,0,0,885,855.06l76.7,20a14.69,14.69,0,0,0,14-3.76,12.15,12.15,0,0,0,3.52-11.75c-20.42-81.82-73.39-114.62-103.15-126.89L878,728a171.75,171.75,0,0,1,57.61,39.2C958.67,791,975,821.69,984.14,858.3a17.32,17.32,0,0,1-4.88,16.58A19.8,19.8,0,0,1,965.37,880.57Z"/><path class="cls-21" d="M682.29,865.59a13.07,13.07,0,0,1-11-5.6,11.38,11.38,0,0,1-1-11.16l14.54-33.09,4.64,2L675,850.87a6.4,6.4,0,0,0,.53,6.28,8,8,0,0,0,7.1,3.37l134.65-4.38a8.42,8.42,0,0,0,6.94-3.85,6.51,6.51,0,0,0,.52-6.17l-14.53-31.69,4.61-2.11L829.33,844a11.52,11.52,0,0,1-.84,11,13.5,13.5,0,0,1-11.07,6.23l-134.65,4.37Z"/><path class="cls-21" d="M744.82,825.09q-42.6,0-86.68-13.48a15.08,15.08,0,0,1-9.08-7.35c-14.55-27.66-86.36-171.68-71.55-291.15C590.26,410.2,687.69,348.43,729,326.65c6.53-3.44,11.74-5.93,15-7.41,3.07-1.42,4.71-2.16,5.7-2.49a1.61,1.61,0,0,1,.5-.14,1.82,1.82,0,0,1,1.57.26l0,0c1.8.65,5.36,2.48,13.33,7,18,10.16,53.07,32.08,85.08,64.64,39,39.68,61.49,82.59,66.84,127.53,13.64,114.76-53.62,256.17-67.24,283.35a15.48,15.48,0,0,1-8.32,7.46A264.73,264.73,0,0,1,744.82,825.09Zm5.61-503.19c-12.86,5.51-152.64,68.71-167.9,191.83-14.62,118,56.59,260.75,71,288.17a10,10,0,0,0,6.08,4.86c62.34,19.11,122.88,17.56,179.94-4.62a10.46,10.46,0,0,0,5.62-5c13.51-27,80.21-167.16,66.74-280.48C897.74,397.4,763.06,328.05,750.54,321.91l0,0Z"/><path class="cls-21" d="M749.1,689.49c-32.31,0-63.35-12.4-85.36-34.15-20-19.78-31-45.57-31-72.62s11-52.83,31-72.58c22.34-22.05,54-34.43,86.85-34,30.75.4,59.58,11.7,81.19,31.81s33.53,46.75,33.53,74.94-11.91,54.8-33.53,74.9-50.45,31.35-81.19,31.71Zm-.17-208.32c-30.93,0-60.61,11.82-81.64,32.58-19,18.78-29.51,43.28-29.51,69s10.48,50.2,29.52,69c21.06,20.82,50.81,32.69,81.8,32.7h1.43c60.5-.71,109.72-46.26,109.72-101.55S811,482,750.52,481.18Z"/><path class="cls-21" d="M749.65,668.5c-26,0-50.93-10-68.59-27.5-16-15.88-24.85-36.57-24.85-58.26s8.82-42.38,24.85-58.24c17.88-17.69,43.26-27.66,69.52-27.4,24.72.27,47.92,9.3,65.32,25.45s27,37.6,27,60.31-9.6,44.12-27,60.27-40.6,25.13-65.32,25.36Zm-.14-166.34c-24.6,0-48.2,9.42-64.89,25.94-15.06,14.9-23.35,34.3-23.35,54.64s8.29,39.74,23.35,54.66c16.92,16.77,40.93,26.25,65.91,26,48.16-.45,87.35-36.59,87.35-80.57s-39.19-80.18-87.35-80.69Z"/><rect class="cls-21" x="745.97" y="294.2" width="5.06" height="263.03" transform="translate(308.33 1165.81) rotate(-88.89)"/></g><rect class="cls-19" x="448.93" y="907.42" width="990.15" height="5.06" transform="translate(-34.98 37.74) rotate(-2.25)"/><rect class="cls-19" x="1047.56" y="905.79" width="5.06" height="53.26"/><rect class="cls-19" x="1049.37" y="921.63" width="389.51" height="5.06" transform="translate(-38.22 53.8) rotate(-2.44)"/><rect class="cls-19" x="1116" y="903.1" width="5.06" height="26.4"/><rect class="cls-19" x="1214.45" y="899.24" width="5.06" height="26.08"/><rect class="cls-19" x="950.09" y="125.2" width="2.03" height="400.6" transform="translate(595.22 1265.66) rotate(-88.16)"/><rect class="cls-19" x="984.07" y="875.97" width="167.78" height="2.02" transform="translate(-30.55 38.58) rotate(-2.04)"/><rect class="cls-19" x="879.93" y="726.65" width="271.89" height="2.03" transform="translate(-12.32 17.51) rotate(-0.98)"/><rect class="cls-19" x="1014.86" y="295" width="2.03" height="271.9" transform="translate(565.3 1438.27) rotate(-88.89)"/><rect class="cls-19" x="1138.14" y="332.06" width="2.03" height="541.88"/><polygon class="cls-19" points="863.18 686.76 862.88 686.47 689.05 520.91 690.45 519.45 863.98 684.72 1050.62 682.53 1050.64 684.56 863.18 686.76"/><polygon class="cls-22" points="1396.45 353.05 1201.95 347.13 1201.95 334.07 1396.45 340.31 1396.45 353.05"/><polygon class="cls-22" points="1396.45 373.63 1201.95 368.24 1201.95 355.17 1396.45 360.89 1396.45 373.63"/><polygon class="cls-22" points="1396.45 394.22 1201.95 389.34 1201.95 376.27 1396.45 381.48 1396.45 394.22"/><polygon class="cls-22" points="1396.45 511.85 1201.95 509.93 1201.95 496.86 1396.45 499.11 1396.45 511.85"/><polygon class="cls-22" points="1396.45 532.44 1201.95 531.03 1201.95 517.97 1396.45 519.7 1396.45 532.44"/><polygon class="cls-22" points="1396.45 553.02 1201.95 552.13 1201.95 539.07 1396.45 540.28 1396.45 553.02"/><polygon class="cls-22" points="1396.45 430.49 1291.28 428.34 1291.28 415.43 1396.45 417.75 1396.45 430.49"/><polygon class="cls-22" points="1396.45 451.08 1291.28 449.21 1291.28 436.29 1396.45 438.33 1396.45 451.08"/><polygon class="cls-22" points="1396.45 471.66 1291.28 470.07 1291.28 457.16 1396.45 458.92 1396.45 471.66"/><path class="cls-19" d="M1200.94,872.74V585.29l196.52.05V865.73Zm2-285.43V870.64l192.46-6.86V587.37Z"/><rect class="cls-19" x="1201.95" y="628" width="194.49" height="2.03" transform="translate(-3.34 6.94) rotate(-0.31)"/><rect class="cls-19" x="1201.95" y="649.83" width="194.5" height="2.03" transform="translate(-5.04 10.15) rotate(-0.45)"/><rect class="cls-19" x="1201.95" y="671.67" width="194.5" height="2.03" transform="translate(-7.2 14.09) rotate(-0.62)"/><rect class="cls-19" x="1201.95" y="693.51" width="194.51" height="2.03" transform="translate(-9.41 17.89) rotate(-0.79)"/><rect class="cls-19" x="1201.94" y="715.34" width="194.52" height="2.03" transform="translate(-11.36 21) rotate(-0.92)"/><rect class="cls-19" x="1201.93" y="757.03" width="194.54" height="2.03" transform="matrix(1, -0.02, 0.02, 1, -16.01, 28.13)"/><rect class="cls-19" x="1201.93" y="778.87" width="194.55" height="2.03" transform="translate(-18.64 31.92) rotate(-1.4)"/><rect class="cls-19" x="1201.92" y="800.71" width="194.56" height="2.03" transform="translate(-21.41 35.78) rotate(-1.56)"/><rect class="cls-19" x="1201.91" y="822.54" width="194.58" height="2.03" transform="translate(-23.97 39.09) rotate(-1.71)"/><rect class="cls-19" x="1201.9" y="844.38" width="194.6" height="2.02" transform="translate(-26.95 42.93) rotate(-1.87)"/><rect class="cls-19" x="1262.76" y="586.32" width="2.03" height="283.67"/><polygon class="cls-22" points="1123.3 599.98 1112.69 599.99 1112.69 572.05 1123.3 572.07 1123.3 599.98"/><polygon class="cls-22" points="1123.3 819.19 1112.69 819.49 1112.69 791.55 1123.3 791.28 1123.3 819.19"/><polygon class="cls-22" points="1037.66 670.36 964.52 671.1 964.52 653.51 1037.66 652.92 1037.66 670.36"/><path class="cls-21" d="M580.88,1047.71a4.56,4.56,0,0,1-4.45-3.6L444,431.35a4.55,4.55,0,1,1,8.9-1.93l132.49,612.77a4.55,4.55,0,0,1-3.49,5.41A4.65,4.65,0,0,1,580.88,1047.71Z"/><path class="cls-21" d="M753.05,1038.63a4.57,4.57,0,0,1-4.45-3.59L620.09,441.09a4.56,4.56,0,1,1,8.91-1.93l128.51,593.95a4.54,4.54,0,0,1-4.46,5.52Z"/><path class="cls-21" d="M632.22,484.7H632l-174.78-8a4.55,4.55,0,1,1,.41-9.1l174.78,8a4.56,4.56,0,0,1-.2,9.11Z"/><path class="cls-21" d="M651.51,573.86h-.14L477.19,568.7a4.56,4.56,0,0,1,.27-9.11l174.18,5.16a4.56,4.56,0,0,1-.13,9.11Z"/><path class="cls-21" d="M670.8,663h-.06l-173.59-2.35a4.56,4.56,0,0,1,.06-9.11h.06l173.59,2.35a4.56,4.56,0,0,1-.06,9.11Z"/><path class="cls-21" d="M517.1,752.69a4.56,4.56,0,1,1,0-9.11l173-.46h0a4.56,4.56,0,1,1,0,9.11l-173,.46Z"/><path class="cls-21" d="M537,844.71a4.56,4.56,0,0,1-.08-9.12l172.41-3.26h.08a4.56,4.56,0,0,1,.09,9.11l-172.41,3.27Z"/><path class="cls-21" d="M556.89,936.74a4.56,4.56,0,0,1-.16-9.11l171.82-6.08a4.56,4.56,0,0,1,.32,9.11l-171.82,6.08Z"/><path class="cls-23" d="M1787.28,549.26s83.9,75.69,35.11,217.55a18.07,18.07,0,0,1-30.84,5.78l-57.71-67.77a50.66,50.66,0,0,1-11.66-39.29l9.38-72.67Z"/><path class="cls-24" d="M1606,435.51s-104.66-42.59-211.14,63.08a18.07,18.07,0,0,0,8.21,30.28l86.13,22.45a50.6,50.6,0,0,0,40.45-6.6l61.34-40.06Z"/><path class="cls-25" d="M1793.63,539.13s83.9,75.7,35.11,217.55a18.07,18.07,0,0,1-30.84,5.79l-57.71-67.78a50.62,50.62,0,0,1-11.66-39.28l9.38-72.67Z"/><path class="cls-26" d="M1612.3,425.38s-104.66-42.58-211.14,63.08a18.07,18.07,0,0,0,8.21,30.28l86.13,22.46a50.64,50.64,0,0,0,40.45-6.6l61.34-40.07Z"/><path class="cls-27" d="M1667,205.56c93.13-117.33,270.89-98.24,271-98,.23,0,94.78,151.76,29.68,286.67-59,122.36-209.21,223.07-238.14,241.67-3.12,2-8.21,4.83-10.51,1.93-44.71-56.37-99.92-89-163.36-102.41-3.51-.74-3.07-6.48-2.64-10C1557.16,491.66,1582.41,312.18,1667,205.56Z"/><g class="cls-28"><path class="cls-29" d="M1752.15,358.12C1804.32,293,1862,311,1913,253.57c18.62-21,37.91-53.72,44.87-107.43,23.67,53.71,54.85,154.89,9.89,248.05-59,122.36-209.21,223.07-238.14,241.67-3.12,2-8.21,4.83-10.51,1.93-22.59-28.47-47.86-50.89-75.51-67.84a191.54,191.54,0,0,0,45-47.18C1729.53,461.14,1704.62,417.51,1752.15,358.12Z"/></g><path class="cls-30" d="M1878.51,202.43c-43.88-27.53-96.76-51-142.22-55.2,80-44.86,173.17-41.87,196.33-40.2a10.34,10.34,0,0,1,8.22,5.16c11.58,20.13,54.81,102.67,49.26,194.25C1970.13,271.36,1922.39,230,1878.51,202.43Z"/><path class="cls-31" d="M1957.83,146.14l.33.76.56,1.29.57,1.31.54,1.26c.2.46.4.94.59,1.41s.35.81.52,1.22.42,1,.63,1.5l.48,1.19.66,1.61.46,1.14.69,1.71c.14.37.29.74.44,1.11.23.59.46,1.19.7,1.79l.42,1.1.72,1.87.4,1.06c.25.65.49,1.31.74,2,.12.34.25.68.38,1l.75,2,.36,1c.26.71.51,1.42.76,2.13l.35,1c.25.73.51,1.47.76,2.21l.33,1q.39,1.13.78,2.28c.1.31.2.62.31.94.26.78.52,1.56.77,2.35l.3.92.78,2.42c.09.3.19.6.28.89l.78,2.51c.08.29.17.57.26.86.26.86.52,1.71.77,2.58.09.28.17.56.25.84.26.88.52,1.76.77,2.65.08.27.16.54.23.81.26.9.52,1.81.77,2.73l.21.77c.26.93.51,1.86.76,2.8.07.25.14.51.2.76l.75,2.86c.06.25.12.49.19.74l.72,2.92.18.72c.24,1,.48,2,.71,3,.06.23.11.46.16.69.24,1,.47,2,.7,3l.15.66c.23,1,.45,2.08.67,3.12,0,.21.09.43.14.64.22,1.06.44,2.12.65,3.18l.12.6c.22,1.08.43,2.17.63,3.26,0,.19.07.38.11.57.21,1.1.41,2.21.61,3.32l.09.53c.2,1.13.39,2.26.58,3.39,0,.17.05.34.08.51.19,1.15.37,2.3.55,3.45,0,.15,0,.31.07.46.18,1.17.35,2.35.52,3.53,0,.14,0,.28,0,.42.17,1.19.33,2.39.49,3.6,0,.12,0,.25,0,.37.16,1.22.31,2.45.45,3.68l0,.31c.15,1.25.28,2.51.41,3.76l0,.25c.12,1.28.25,2.57.36,3.86,0,.06,0,.12,0,.18.11,1.31.22,2.63.32,4v.09a280.81,280.81,0,0,1,.33,37.87C1977.33,284,1953.22,259,1926,236.71,1940,216,1952.5,187.23,1957.83,146.14Z"/><ellipse class="cls-32" cx="1792.24" cy="339.94" rx="108.78" ry="120.78" transform="translate(551.87 1677.54) rotate(-57.9)"/><path class="cls-33" d="M1752.15,358.12c42.57-53.18,88.79-51,132.06-79.54,28.92,37.19,34.61,86.88,10.35,125.55-31.92,50.89-103.61,63.41-160.12,28a133.69,133.69,0,0,1-13.12-9.37C1726,402.26,1733.52,381.4,1752.15,358.12Z"/><ellipse class="cls-34" cx="1792.24" cy="339.94" rx="99.71" ry="110.71" transform="translate(551.86 1677.53) rotate(-57.9)"/><ellipse class="cls-35" cx="1792.24" cy="339.94" rx="86.85" ry="96.44" transform="matrix(0.53, -0.85, 0.85, 0.53, 551.86, 1677.54)"/><ellipse class="cls-36" cx="1636.97" cy="586.72" rx="29.68" ry="100.45" transform="translate(270.06 1661.64) rotate(-57.9)"/><path class="cls-37" d="M1626.77,563.17l36.52,22.91a56.34,56.34,0,0,1,25.54,57.53L1685,665a11.28,11.28,0,0,1-17.11,7.6l-121.12-76a11.29,11.29,0,0,1-.61-18.72l17.65-12.74A56.36,56.36,0,0,1,1626.77,563.17Z"/><ellipse class="cls-38" cx="1610.39" cy="629.79" rx="28.01" ry="82.9" transform="translate(221.12 1659.31) rotate(-57.9)"/><ellipse class="cls-39" cx="1610.39" cy="629.79" rx="21.29" ry="63.01" transform="translate(221.12 1659.31) rotate(-57.9)"/><g class="cls-40"><path class="cls-41" d="M1752.15,358.12c36.21-45.23,75-50.39,112.48-68.5,24,29.83,29,70.24,9.31,101.57-25.49,40.64-82.73,50.63-127.85,22.33a107,107,0,0,1-17.87-14A150.21,150.21,0,0,1,1752.15,358.12Z"/></g><path class="cls-42" d="M519.58,975.4c53.77,2.3,64.47,40.22,103.77,46.81,118.93,20,203-296.72,334.19-296.2,110.44.44,127.91,219.41,258.8,228.82,115.48,8.31,245.23-152.63,343.31-274.29,32.41-40.2,38.07-52.54,39.5-51.65,7.8,4.81-135.07,386.19-320.8,395.45C1147,1030.88,1098.66,848.6,971.68,861.4,843.19,874.36,839,1078,668.24,1128.86c-123.36,36.72-273.43-24.26-278.28-72.79C386.47,1021,456.64,972.71,519.58,975.4Z"/><path class="cls-43" d="M1577.36,619.09c7.51,9.58-43,64.24-89.93,102.73a509.29,509.29,0,0,1-61.58,43c-52,31.06-82.75,51.69-98.42,40.52-10.25-7.3-11.8-26.26-7.37-39.59,9-27.14,39.64-21,64.33-52.87,20-25.77,9.43-42,28.52-56.49,18.26-13.87,34.56-4,72-7.89C1542.9,642.54,1571.71,611.87,1577.36,619.09Z"/><path class="cls-44" d="M1618.82,639.57c-35.67,38.3-48.47,72.36-53.52,96.61-6,28.79-.71,42.16-13.92,67.65-13,25.12-28.79,32.65-32.77,57.78-.89,5.61-4.77,30.18,7.37,39.59,20.55,15.94,83-14.72,113.51-62.87,6-9.46,29.19-46.08,17.58-80.78-5.67-17-15.19-20.09-25.67-38.69C1620.5,699.53,1614.48,674,1618.82,639.57Z"/><path class="cls-45" d="M1227.06,1263.24s-2.12,4.87-2,5.7v0a3,3,0,0,0,3,2.84c4.51-.26,13.14-.9,17.63-2.3,6.27-1.94-15.24-7-15.24-7Z"/><path class="cls-46" d="M1227.2,1256l.35,8.25s1.25,2,4.33-.54l1.66-8.77Z"/><path class="cls-47" d="M1242.84,1102.6a28.93,28.93,0,0,0-9.21,8.17c-9.56,13.08-3.69,27.28-4.18,49.81-.66,31.25-12.63,35.28-11.25,64.9a112.74,112.74,0,0,0,6.41,32.36l11.59-1.54a255.24,255.24,0,0,1,21.13-81.3c15.27-33.89,32.56-51.3,25.66-64.44C1277.29,1099.7,1256.71,1094.94,1242.84,1102.6Z"/><path class="cls-48" d="M1283,1110.56c-5.7-10.86-26.28-15.62-40.15-8-.51.29-1,.59-1.46.89,10.08,17.13,10.26,28.88,8,36.83-2.31,8.14-7.13,12.18-8.26,23.92-1.26,13.08,4,15.29,2,25.92-2.53,13.37-11.49,13.1-13.95,26.2-2.34,12.45,4.68,18.45.28,26.49a16.93,16.93,0,0,1-7.41,6.79c.85,3.12,1.75,5.87,2.57,8.2l11.59-1.54a255.24,255.24,0,0,1,21.13-81.3C1272.6,1141.11,1289.89,1123.7,1283,1110.56Z"/><path class="cls-49" d="M1292.3,1266.47s-2.13,4.86-2,5.69v0a3,3,0,0,0,3,2.83c4.51-.25,13.14-.9,17.63-2.29,6.27-2-15.24-7-15.24-7Z"/><path class="cls-50" d="M1290.58,1259.3l2.1,8.43s1.25,2,4.33-.54l-.08-9Z"/><path class="cls-51" d="M1261.35,1107.5c-9.29,9.58,2.45,43.43,8.48,60.84a63.21,63.21,0,0,1,3,11.65c1.26,8.17.52,14.12.21,18.72a134.22,134.22,0,0,0,2,28.57,93.28,93.28,0,0,0,13.65,34.54l10.54-1.83c.13-15.23.53-40,2-70.73,2.39-50.22,6.64-96,1.43-97.07-1.72-.33-2.13,4.64-7.41,9.19C1283.14,1111.81,1268.44,1100.19,1261.35,1107.5Z"/><path class="cls-52" d="M1270.12,988.45c-11.95.71-51.87,4.36-75.23,30.74-5.52,6.24-19.07,21.56-12.6,35,6.24,12.94,29.46,20.73,57,16.41l5.56-7c-15.21-1.55-25.74-8.68-26.4-16.12-.58-6.5,6.51-11.73,10.07-14.36,12.13-8.94,27.42-8.76,32.66-8.5Q1265.63,1006.51,1270.12,988.45Z"/><ellipse class="cls-53" cx="1365.13" cy="921.4" rx="10.03" ry="14.32" transform="translate(-281.44 884.44) rotate(-32.73)"/><path class="cls-54" d="M1309.51,962.34l46.43-47.58a2.71,2.71,0,0,1,2.32-.79c3.71.53,13.47,3.1,13.88,15.34a2.74,2.74,0,0,1-1.38,2.48l-58.36,33Z"/><path class="cls-55" d="M1312.65,962.38c.84,1.3.78,2.82-.13,3.41s-2.33,0-3.16-1.29-.78-2.83.13-3.42S1311.82,961.08,1312.65,962.38Z"/><path class="cls-56" d="M1352.67,953l-8.3-6.26s4.13-1.22,2.66-7.34,2.54-4.94,2.67,0a27.71,27.71,0,0,0,1.42,8.33l5.06,3.65Z"/><path class="cls-57" d="M1304.74,976.75a10.74,10.74,0,0,0,.69-7.75c-.88-3.32-1.19-3.83-1.83-4.52l-.9-.91-.11-.07a12.37,12.37,0,0,0-3.41-1c-1.57,0-4.64,5.67-6.26,14.39l-.42.95c-.26.59-.44,1-.45,1.06a17.75,17.75,0,0,1-3.75,4.79c-4.16,3.54-13.75,5.65-13.67,7.21s8.48,2.44,16.8,2.26c5.88-.12,15.87-.93,16-3s-9.84-3-8.66-10C1298.94,979.39,1303.39,979.16,1304.74,976.75Z"/><path class="cls-58" d="M1306.39,961.88c-.65,2.66-2.6,5.21-3.35,5.51a4.6,4.6,0,0,0-1.22.83,1.61,1.61,0,0,0-.23.27c-1,1.54,1.21,4.17.51,4.8-.51.45-2.15-.72-2.48-.3s1,1.68.62,2.16-1.11-.23-1.85.24c-.36.23-.34.5-.87,1.36a8.48,8.48,0,0,1-1,1.28c-1.3,1.35-4,1.29-4.4.54-.1-.21.06-.33.06-1a5.21,5.21,0,0,0-.23-1.29c-.33-1-1.47-2-2.56-3.25a8.78,8.78,0,0,1-2.39-4.56c0-.19,0-.34,0-.45a10.2,10.2,0,0,1,1.85-6.57c2.2-2.62,5.2-.4,8.65-2.69,4-2.64,3.22-7.74,5.06-7.84C1304.57,950.86,1307.6,957,1306.39,961.88Z"/><path class="cls-59" d="M1301.29,972.43c-.44-1.06-1.79-.49-2.08.67a2.19,2.19,0,0,0,1.7,2.68C1302.06,975.81,1301.88,973.85,1301.29,972.43Z"/><path class="cls-60" d="M1256,991.76c5.16-3.74,13.35-4.45,29.76-5.6a266.63,266.63,0,0,1,30.62-.1c14.89.65,20.37,1.81,29.81-.56,6.67-1.67,14.29-3.59,16.52-9.31,2.44-6.29-2.28-15.5-11.87-22.64l5.79-4.7c3.52.77,14.74,3.71,22.62,14.18,6.85,9.09,10.26,22.35,5.86,33.66-4,10.14-12.77,15.15-26.06,22.68-14.89,8.44-18.06,5.88-24.3,12.26-4.73,4.83-7.08,14.95-11.58,35-2.54,11.29-4.31,20.77-8.51,35.25-4,13.83-5.46,15.68-7,17.1-7.44,6.8-15.4,1.79-37.41,4.94-14,2-13.93,4.49-26.39,5.31-11.5.77-23.6,1.57-30.75-6.45-6.06-6.79-5.11-16.47-4.94-17.85,1.24-10.35,8.79-14.86,16.14-24.11,6.6-8.31,9.62-18.07,15.66-37.59C1250.35,1009.75,1245.56,999.36,1256,991.76Z"/><path class="cls-61" d="M1386.55,979.76a36.92,36.92,0,0,1-6.35,13.13c-10.23,13.34-28.7,17.3-38.35,19.37-17.51,3.76-28.15.82-31.52,7.22-3.16,6,5.12,10.83,4.18,21.64-1.13,13-13.8,13.45-21.64,30-8.06,17-1,29.82-9.12,34.55-5.49,3.2-9.36-2.29-21.64-3.42-22.36-2-33.8,14-44.43,8.36-2.68-1.42-5.84-4.5-7.72-12a20.93,20.93,0,0,0-1.77,6.3c-.17,1.38-1.12,11.06,4.94,17.85,7.15,8,19.25,7.22,30.75,6.45,12.46-.82,12.35-3.3,26.39-5.31,22-3.15,30,1.86,37.41-4.94,1.55-1.42,3-3.27,7-17.1,4.2-14.48,6-24,8.51-35.25,4.5-20,6.85-30.15,11.58-35,6.24-6.38,9.41-3.82,24.3-12.26,13.29-7.53,22.11-12.54,26.06-22.68A31.44,31.44,0,0,0,1386.55,979.76Z"/><path class="cls-62" d="M1195.57,565.54H774a2.6,2.6,0,0,1-1.68-4.58l49-41.54V335.32a13.33,13.33,0,0,1,13.94-13.13l360.33,8.23a13.37,13.37,0,0,1,13,13.26v208.9A13,13,0,0,1,1195.57,565.54Z"/><polygon class="cls-17" points="938.14 365.98 855.76 364.42 855.76 354.74 938.14 356.37 938.14 365.98"/><polygon class="cls-17" points="938.14 385.21 855.76 383.8 855.76 374.11 938.14 375.59 938.14 385.21"/><polygon class="cls-17" points="938.14 415.48 855.76 414.31 855.76 404.62 938.14 405.87 938.14 415.48"/><polygon class="cls-17" points="938.14 434.71 855.76 433.68 855.76 424 938.14 425.1 938.14 434.71"/><polygon class="cls-17" points="1176.34 515.64 855.76 514.09 855.76 504.4 1176.34 506.24 1176.34 515.64"/><polygon class="cls-17" points="1176.34 534.43 855.76 533.46 855.76 523.77 1176.34 525.03 1176.34 534.43"/><polygon class="cls-17" points="938.14 464.98 855.76 464.2 855.76 454.51 938.14 455.37 938.14 464.98"/><polygon class="cls-17" points="938.14 484.21 855.76 483.57 855.76 473.88 938.14 474.6 938.14 484.21"/><polygon class="cls-17" points="1176.34 487.02 968.89 485.44 968.89 356.98 970.93 357.02 970.93 483.46 1176.34 485.07 1176.34 487.02"/><polygon class="cls-17" points="997.8 449.84 996.35 448.43 1039.15 406.26 1080.82 421.14 1121.56 387.17 1162.23 408.39 1161.35 410.12 1121.84 389.52 1081.24 423.38 1039.69 408.55 997.8 449.84"/><path class="cls-63" d="M1004.06,449.22a6.83,6.83,0,0,1-7,6.77,7,7,0,0,1-7-6.93,6.82,6.82,0,0,1,7-6.77A7,7,0,0,1,1004.06,449.22Z"/><path class="cls-64" d="M1046.35,407.51a6.76,6.76,0,0,1-6.93,6.72,7,7,0,0,1-6.94-6.93,6.76,6.76,0,0,1,6.94-6.72A7,7,0,0,1,1046.35,407.51Z"/><path class="cls-65" d="M1087.91,422.35a6.73,6.73,0,0,1-6.88,6.7,7,7,0,0,1-6.88-6.89,6.73,6.73,0,0,1,6.88-6.7A7,7,0,0,1,1087.91,422.35Z"/><path class="cls-66" d="M1128.52,388.46a6.65,6.65,0,0,1-6.82,6.65,6.93,6.93,0,0,1-6.83-6.88,6.66,6.66,0,0,1,6.83-6.65A6.93,6.93,0,0,1,1128.52,388.46Z"/><path class="cls-67" d="M1168.56,409.36a6.64,6.64,0,0,1-6.77,6.64,6.88,6.88,0,0,1-6.78-6.84,6.64,6.64,0,0,1,6.78-6.64A6.87,6.87,0,0,1,1168.56,409.36Z"/><path class="cls-68" d="M1034.16,907.83a12.42,12.42,0,0,1-3.88-5.11c-1-2.63-.3-3.8-1.58-5.44a6.52,6.52,0,0,0-7.24-2,3,3,0,0,0-1.44,1.14c-1,1.71,1.24,4.68,3,6.26,1.35,1.19,1.91,1.1,3.35,2.12a13.85,13.85,0,0,1,4.58,5.81Z"/><path class="cls-69" d="M958.86,893.45a12.45,12.45,0,0,0,5.56-3.19c2-2,1.76-3.38,3.58-4.39a6.5,6.5,0,0,1,7.43,1,2.84,2.84,0,0,1,.88,1.6c.27,2-3,3.83-5.24,4.58-1.71.57-2.19.27-3.91.65a13.78,13.78,0,0,0-6.48,3.56Z"/><path class="cls-70" d="M966.05,895.89c1,4.76-4.14,9-7.86,13.16-7.45,8.34-15.24,23.23-12.38,36,1.56,7,6.58,14.53,13.65,18.1,7.62,3.85,12.18.35,20.11,4.92.58.34,10.6,6.28,10.89,14.3.36,9.89-14.18,20.41-26.63,21.21-22.76,1.48-50.19-28.8-48.92-58.84,1.4-32.71,36.54-58.67,46.65-54.26A8.31,8.31,0,0,1,966.05,895.89Z"/><polygon class="cls-71" points="976.19 1234.55 977 1242.83 973.14 1242.13 970.55 1234.35 976.19 1234.55"/><path class="cls-72" d="M952.67,1081.44a208.83,208.83,0,0,0,4.41,37.59c2.34,11.06,3.7,13,4.43,20.61,1.59,16.64-3.77,19-4.76,37.83a114.68,114.68,0,0,0,6.61,43.57,118.07,118.07,0,0,0,5.38,13c1.9,1.66,4.81,1,7.88.4,1.13-18.84,2.54-36.57,3.67-55.4q5.48-42.51,10.94-85Z"/><path class="cls-73" d="M976.62,1234.48c1.13-18.84,2.54-36.57,3.67-55.4q5.48-42.51,10.94-85l-38.56-12.63c0,1,.08,1.92.11,2.87,18,15.67,21.57,28.07,21.39,36.54-.21,10.26-5.82,15.35-4.73,30.23.79,10.64,4,12.51,4,22.12,0,12.36-5.3,19.31-7.89,26.46-2.5,6.9-3.39,16.68,1.44,30.59.63,1.44,1.23,2.72,1.77,3.83C970.64,1235.74,973.55,1235.1,976.62,1234.48Z"/><path class="cls-74" d="M974.74,1245.66c-1.83-2.26-3.51-2.1-3.81-3.63a3.13,3.13,0,0,1,1.65-3.2c1.57-.76,3.44.51,3.86.8,2.86,1.94,2,4.87,4.71,6.21a7.39,7.39,0,0,1,2.31,1.44c.38.38,1.33,1.3,1.09,1.92s-2,.66-3.64.6c-2-.07-2.95-.11-3.88-.72C975.74,1248.24,976.15,1247.41,974.74,1245.66Z"/><polygon class="cls-75" points="978.62 1174.77 971.4 1177.6 969.3 1174.29 974.94 1170.5 978.62 1174.77"/><path class="cls-76" d="M967.6,1179.35c.42-2.88-.84-4,.09-5.26a3.11,3.11,0,0,1,3.46-1c1.63.64,2,2.87,2,3.38.51,3.42-2.22,4.78-1.37,7.67a7.13,7.13,0,0,1,.51,2.68c0,.53-.05,1.86-.67,2.1s-1.83-1-2.9-2.27c-1.28-1.49-1.93-2.24-2.11-3.34C966.38,1181.83,967.27,1181.57,967.6,1179.35Z"/><path class="cls-77" d="M1009.84,1068.36c13.45,27.42,18,50.28,19.74,65.2,1.11,9.6,1,15.54-1.76,21.5-9.9,21.35-44.45,22.76-49.7,22.91q-2.58-5.31-5.18-10.61a53.14,53.14,0,0,1,18.22-20c7.31-4.59,10.16-3.61,12-6.7,7.31-12.38-32.18-39.2-26.28-57C978.91,1077.38,986.77,1071.12,1009.84,1068.36Z"/><path class="cls-78" d="M980.71,969.82c14.53,2.49,25.59,5.09,30.53,12.7,5.21,8-3.08,14.09-5.34,31.72-3.45,27,12.07,37.08,7.61,64.26a68.91,68.91,0,0,1-3,11.76A27.71,27.71,0,0,1,999,1104.52a71.67,71.67,0,0,1-14.54,7c-14.73,5.15-22,2.16-41.81,3.29-32.42,1.85-37.28,11.25-51.92,5.47-14.81-5.84-25.52-21.63-22.38-28.38,1.88-4,7.81-1.52,16.32-6.48,11-6.39,9.12-15.12,18-22.6,12.78-10.75,25.07.1,36-9.25s12.37-32.45,7.67-46.15c-3.07-8.94-3.12-18.66-5.4-27.84a5.86,5.86,0,0,1,.14-3.36c1.81-5.27,11.46-6.29,18.75-7A83.27,83.27,0,0,1,980.71,969.82Z"/><path class="cls-79" d="M892.43,1110.07c4.49-3,2.06-11.47,8.7-16,6.17-4.17,11,1.29,20.08-1.5,11.66-3.57,11-14.8,22.23-18.39,8-2.57,10.46,2.56,22,2.78s26.75-4.56,36.36-16.82a41.38,41.38,0,0,0,7.6-15.92c3.09,10,6.45,19.66,4.06,34.25a68.92,68.92,0,0,1-4.23,14.91,20.64,20.64,0,0,1-7.33,9.16,72.58,72.58,0,0,1-17.49,9c-14.73,5.15-22,2.16-41.81,3.29-32.42,1.85-37.28,11.25-51.92,5.47a42,42,0,0,1-20.8-18.43C882.74,1111.2,889.17,1112.25,892.43,1110.07Z"/><path class="cls-80" d="M989.1,944.67s4,7.52,4.26,12.79-5.7,4.89-5.7,4.89l.22,3.33a7.21,7.21,0,0,0,4.71,6.28l2.35.87s-15.33,3.28-23.7-2.63l2.41-.24a7.2,7.2,0,0,0,6.47-6.44l.15-1.43S977.61,945.66,989.1,944.67Z"/><path class="cls-81" d="M1026.85,909.33c-2.28,4.3,1.5,9.79,3.92,14.81,4.86,10.08,8.25,26.54,2,38-3.43,6.27-10.33,12.15-18.12,13.63-8.38,1.6-11.8-3-20.68-.82-.65.17-11.93,3.11-14.42,10.74-3.07,9.41,8,23.53,19.75,27.74,21.48,7.69,56.19-13.84,63.25-43.07,7.68-31.82-18.94-66.47-29.87-65A8.3,8.3,0,0,0,1026.85,909.33Z"/><path class="cls-82" d="M986.71,952.15c-.8-.07-1.45-1.07-2-.77s-.51,1.77,0,2.8a3.66,3.66,0,0,0,1.43,1.54,9.76,9.76,0,0,0-1.71,3.89c-.72,3.81,1.3,6.87,2.15,8.67,3.79,8.08-2.11,20.86-8.6,27.31-5.26,5.25-7.72,3.14-10.87,7.42-6.12,8.34,2.33,17.51-.84,28.73-4.81,17.06-31.76,22.14-32.87,22.34l-1.2.2c-12.09,1.92-30.41,4.83-43.31-5.09-9.66-7.43-14.08-20.35-13.35-31.73a36.77,36.77,0,0,1,10.36-23.63c1.47-1.47,10.17-10.16,21.93-10.27,6.23-.06,7.48,2.14,12.24.78,6.53-1.86,10.54-7.79,13-11.46,4.59-6.77,2.73-8.21,6-11.54,6.47-6.52,14-1.4,21-7.15s2.7-13.36,9.26-18.27c6.78-5.06,19.74-3.3,22.5,2.73C994.2,943.83,989.13,952.35,986.71,952.15Z"/><path class="cls-83" d="M1866.06,813.35s-2.77-14.42-5.53-18.72-7.91-7-7.91-7-1.07,1.76,2.35,5.48.56,4.09,0,5.28.65,5.5,3.11,7,3.37,9.9,3.37,9.9Z"/><path class="cls-84" d="M1858.08,811.51,1867,810a140.23,140.23,0,0,0,31.52,39.68c10,8.67,16.46,14.27,27.08,17.08,15.68,4.15,29.22-.72,31,3.69.87,2.15-2.12,4.48-6.9,10.2-13.91,16.65-12.6,25.6-20.25,28.07-6.32,2-12.68-2.35-23.47-10.05-9.81-7-22.12-15.78-32.52-32.52A103.76,103.76,0,0,1,1858.08,811.51Z"/><path class="cls-85" d="M1988.78,872.2c1.44.55,23.43,9.29,28,32.25.37,1.85,3.9,21.57-9.47,35.5-15,15.62-43.87,15.23-55.33,2.18a23.43,23.43,0,0,1-4.88-9.26l3-8c3.69-4.45,8.7-5.51,11.38-6.17,6.61-1.63,11.6,1.32,15.38-1.87,2.09-1.76,2.51-4.3,2.88-6.56,1.27-7.72-3.09-12.47-3.41-17.23-.23-3.56-1.48-11.35,3.16-16.44C1982.4,873.36,1986.48,872.49,1988.78,872.2Z"/><path class="cls-86" d="M1997.35,1128c.25-1.41,4.82-2.69,7.08-.8,1.12.94,1.89,2.85,1.24,3.71-.23.31.73.86-.19.87C2002.4,1131.81,1997.09,1129.4,1997.35,1128Z"/><path class="cls-87" d="M2002.13,1128.51l4.69-.67c-2.17-2.61-1.77-10.95-1.77-10.95l-5,1.11s.57,2.29,1.54,5.67A21.9,21.9,0,0,1,2002.13,1128.51Z"/><path class="cls-88" d="M2001.71,1127.93s5.65-1.3,6.27-.18,1.08,4.12-2.5,4S2001.4,1128.88,2001.71,1127.93Z"/><path class="cls-89" d="M1933,1133.29c.45-1.36,5.15-2,7.12.2,1,1.09,1.48,3.08.71,3.84-.27.28.61,1-.31.84C1937.43,1137.78,1932.51,1134.65,1933,1133.29Z"/><path class="cls-90" d="M1937.62,1134.47h4.74c-1.79-2.9-.22-11.09-.22-11.09l-5.1.4s.24,2.35.73,5.82A21.87,21.87,0,0,1,1937.62,1134.47Z"/><path class="cls-91" d="M1925.34,955.24a219.13,219.13,0,0,0-7.35,33.64c-5.76,41.87,6.48,43.21,4.19,89.61-.73,14.81,12.84,49,14,49.72a14.09,14.09,0,0,0,1.88.08,18.85,18.85,0,0,0,4.77-.8c2.15-.37,9.9-21.35,8.1-33.82-1.27-8.83-.9-18.3-.16-37.25.12-3.07,8-59.74,8-59.74,2.39,21,5.14,38.8,7.52,52.61,7.66,44.4,32.54,71.27,33.84,71.7a5.27,5.27,0,0,0,4.5-.31,3.11,3.11,0,0,0,1.14-1.28c.67-.53-.2-44.32-7.79-77.29-11-47.84-6.22-59-9.71-80.41C1985.25,943.21,1925.34,955.24,1925.34,955.24Z"/><path class="cls-92" d="M1969.84,868.47c-7.31-.21-24.13-2.8-33.39,5.54-.16.14,1.74,1.15.8,2.25a60.35,60.35,0,0,0-6.53,9.38,62.58,62.58,0,0,0-5.5,13.6,116.5,116.5,0,0,0-4.34,23.71c-1.69,22.27,0,32.54,1.51,39.52,6.61,3.4,23.66,9.48,44,6.46a68.68,68.68,0,0,0,21.92-7.22c-5.27-16-1.13-24.49.82-32.36,2.78-11.22,2.82-10.37,5.11-19.29,3.78-14.7,4.4-29.73,1.8-32.81C1989,869,1976.39,868.66,1969.84,868.47Z"/><path class="cls-93" d="M1937.29,1133.84s5.78-.5,6.22.7.5,4.23-3,3.63S1936.84,1134.74,1937.29,1133.84Z"/><path class="cls-94" d="M1954.47,854.76c-1.2-4.28.9-8.25,1.37-9.11,1.94-3.58,2.44-4.07,3.36-4.69l1.29-.79.15-.06a15.12,15.12,0,0,1,4.21-.26c1.82.39,3.76,7.82,3.21,18.31.08.4.15.8.22,1.21.29,1.66.51,3.28.69,4.87a4.07,4.07,0,0,0,2.61,3.35c9.68,3.66,9.66.74,10.66,3.88.55,1.71-10.44,4.48-15.85,3.86-12.17.09-22.07-1.21-21-3.13.47-.85,9.9-3.31,12.55-5.75,2.43-2.24,2.23-4.55,2.43-6.2C1959.63,859.87,1955.36,857.92,1954.47,854.76Z"/><path class="cls-58" d="M1956.71,837.19c0,3.25,1.54,6.72,2.33,7.28a5.4,5.4,0,0,1,1.17,1.29,1.68,1.68,0,0,1,.19.38c.71,2.05-2.55,4.46-1.92,5.38.46.66,2.67-.23,2.93.35s-1.59,1.66-1.31,2.3,1.35.05,2.06.8c.36.37.25.66.63,1.8a10.82,10.82,0,0,0,.74,1.75c1.13,1.91,4.31,2.6,4.92,1.84.17-.21,0-.39.2-1.11a5.61,5.61,0,0,1,.62-1.42c.66-1.1,2.25-1.88,3.85-3,3-2.14,3.78-4,4-4.58.09-.22.14-.38.18-.5a12.08,12.08,0,0,0-.3-8.08c-1.81-3.63-5.88-1.91-9.21-5.5-3.84-4.15-1.55-9.81-3.64-10.44C1961.87,825,1956.69,831.18,1956.71,837.19Z"/><path class="cls-95" d="M1959.65,850.75c.8-1.09,2.2-.06,2.21,1.35s-1.37,2.89-2.7,2.61S1958.58,852.23,1959.65,850.75Z"/><path class="cls-96" d="M1985.94,951.69a.3.3,0,0,1-.29-.26c-.87-7.88.75-13.58,2.19-18.61.35-1.23.68-2.39,1-3.54,1.58-6.38,2.27-8.84,3-11.45.48-1.69,1-3.44,1.73-6.36a.29.29,0,1,1,.56.14c-.76,2.93-1.25,4.68-1.73,6.38-.73,2.6-1.42,5.06-3,11.43-.29,1.16-.62,2.33-1,3.56-1.42,5-3,10.62-2.17,18.39a.29.29,0,0,1-.26.32Z"/><path class="cls-58" d="M1960.3,848.38l-1.85,2.41s-2,2.94-3.16,1.33c-1-1.32-1.19-1.29-1.25-1.23l0,0s.14-.66.28-1.23a10.84,10.84,0,0,0-1.58,3.4c-.4,1.49-.83,3.1,0,4.64a4.63,4.63,0,0,0,2.71,2.12,12.05,12.05,0,0,0,3.58-.35s-3.16-2.29-3.21-2.83c-.13-1.48,1.92-2.28,3.45-5.32A12.81,12.81,0,0,0,1960.3,848.38Z"/><path class="cls-97" d="M609.68,561s-5.06,3-3,5.06,13.17,10.13,15.2,10.13,0-8.1-2-9.11S611.71,560,609.68,561Z"/><path class="cls-98" d="M565.12,460.77c7,1.44,31.71,7.48,47.6,30.38,3.82,5.51,12.06,17.74,12.15,35.45.11,19.55-9.77,33.18-13.16,37.47l-4.05,1c-5.26-4.21-7.24-8.31-8.11-11.14-2.43-8,1.83-12.92,1-24.3-.21-2.89-.6-8.4-3-13.17-6.75-13.18-24-10.73-51.65-25.32-10-5.27-17.45-9.33-17.22-14.18C529.07,468.41,553.17,463,565.12,460.77Z"/><g class="cls-28"><path class="cls-99" d="M608.16,540.27c2.69-15.78,10.44-25.77,5.07-33.42-4.37-6.23-11.94-3.11-23.3-11.14-8.11-5.74-10-11.39-14.17-16.21-5.34-6.13-15.3-11.93-35.51-12.12-6.46,2.56-11.41,5.76-11.59,9.59-.23,4.85,7.25,8.91,17.22,14.18,27.6,14.59,44.9,12.14,51.65,25.32,2.44,4.77,2.83,10.28,3,13.17.81,11.38-3.45,16.34-1,24.3.87,2.83,2.85,6.93,8.11,11.14l.91-.23A68.94,68.94,0,0,1,608.16,540.27Z"/></g><path class="cls-100" d="M547.9,636c-.61-.87-5.61,1.86-4,5.06,1.34,2.73,4,7.09,8.11,14.18,1,1.85,4.81,3,6.3,2.9a2,2,0,0,0,1.48-3.27c-1.47-1.78-5.21-6.49-5.76-9.76C553,639,550.94,632.94,547.9,636Z"/><path class="cls-101" d="M542.84,629.9,547.9,640a2.82,2.82,0,0,0,4.06,0l-1-11.14Z"/><path class="cls-102" d="M558,467.86c-3.49,26.76-6.11,56.25-7.09,88.11-.85,27.86-.35,53.94,1,78h-7.09a50.3,50.3,0,0,1-17.22-18.23c-1.46-2.69-5.57-10.91-6.08-29.37-.42-15.48,2.21-19.6,3-32.41,1.63-25.07-6.89-33.09-8.1-71.9-.36-11.46.19-16.86,4-20.26C530.75,452.81,554.71,466,558,467.86Z"/><path class="cls-103" d="M619.81,436.46s1-1,5.06-3,7.09,0,8.11,5.07,1,11.14-1,9.11-6.07-9.11-9.11-7.09S619.81,436.46,619.81,436.46Z"/><path class="cls-104" d="M394,364.55a32.53,32.53,0,0,1-2-6.07c-1-4.05-3-6.08-6.08-7.09s-6.07,1-9.11-1c-1.89-1.26-1,6.07,4.05,8.1s9.11,9.11,9.11,9.11Z"/><path class="cls-105" d="M523.6,378.73c1.71-.82,7-.32,18.23,4,21.48,8.37,27.91,22.49,45.57,35.45a102.23,102.23,0,0,0,34.44,16.21l3,9.11c-15.69,5.41-27.49,4.73-35.44,3-23.89-5.07-34-23.59-57.73-22.28-4.65.25-7.87,1.16-11.14-1C510.22,416.4,510.91,384.84,523.6,378.73Z"/><path class="cls-106" d="M579.3,461.78c-.42-4.93-11.58-4.32-18.23-14.18-4.85-7.19-2.61-13-4.05-24.3-1.4-10.94-4.46-24.7-15.19-35.45a34.65,34.65,0,0,0-6.08-5.07c-14.1-9-29.91-1.65-53.68,2-14.95,2.31-36.15,5.56-56.71-2-14.21-5.24-24.13-14.28-30.38-21.26l-9.12,4.05c5.06,19.92,14,30.48,21.27,36.46,22.64,18.57,46.29,6.68,66.84,28.35a63,63,0,0,1,15.19,29.37c.74,4.06,2,11.14,0,19.25-5.24,21-27.34,27.29-25.32,34.43,1.64,5.77,18.18,9,33.43,5.06,22.47-5.82,22.18-22.1,50.63-38.48C564.89,470.23,579.79,467.51,579.3,461.78Z"/><path class="cls-107" d="M490.18,374.68s3,4.05-1,6.08a88.57,88.57,0,0,1-11.47,4.16l32.74,3.94,3-9.11s-11.14,1-12.15,0l-5.07-5.07Z"/><path class="cls-108" d="M495.88,367.53c2.68-3,3.4-2.78,4.32-4.49,2.1-3.89,1-9.85-1.16-10.5-1.37-.42-2.06,1.7-5.9,4.28-4.7,3.15-6.74,2-9.81,5-.72.71-4,3.87-3.34,7,.79,4.05,7.54,6.46,11.16,4.47C492.87,372.43,492.58,371.21,495.88,367.53Z"/><path class="cls-109" d="M490.27,375.28a8.8,8.8,0,0,0,8.61,1c4.24-1.86,1.34-11.81-2.17-12.87a5.78,5.78,0,0,0-4.48,1c-.8.57-1,1.05-2.29,2s-1.66.82-1.94,1.31-.35,1.8,1.53,4.33a2.53,2.53,0,0,0-2.82.09,1.61,1.61,0,0,0-.37.77C486.13,374.25,487.66,375.3,490.27,375.28Z"/><g class="cls-28"><path class="cls-110" d="M524.1,474.44c-1.11-6.92-15.47-5.56-19.24-15.19-4-10.14,9.4-18.16,8.1-31.4-1.59-16.2-23.78-26.23-26.33-27.34-26.63-11.65-43.53,6.36-71.9-2a62.58,62.58,0,0,1-19.12-9.54A55.16,55.16,0,0,0,407.13,402c22.64,18.57,46.29,6.68,66.84,28.35a63,63,0,0,1,15.19,29.37c.74,4.06,2,11.14,0,19.25-5.24,21-27.34,27.29-25.32,34.43,1.4,4.94,13.69,8,26.76,6.34a37.8,37.8,0,0,1,4.13-14.95C504,487.33,525.48,483,524.1,474.44Z"/></g><path class="cls-111" d="M370,338c-91.13-18.86-89.65,142.36-177.86,129.19-3.8-.56-8.26-3.66-9.7-6.44q-18.24-35.49-36.5-71c-1.44-2.8.94-3.75,5-2.63,94.89,26.16,99.35-123.49,195.7-94.48,2.9.87,6,3,6.76,4.54l20.16,39.2C374.4,338,372.74,338.56,370,338Z"/><g class="cls-112"><path class="cls-21" d="M212.67,436a19.51,19.51,0,0,0,11.44-2.76c3.95-2.53,5-5.8,3.78-8.24s-3.57-2.29-9.06-1.15c-7.68,1.6-14.47-.71-17.42-6.45-3.54-6.88.47-13.37,9.69-18.79a41.67,41.67,0,0,1,10.35-4.71c.57,2.74,1.15,5.48,1.72,8.22a27.92,27.92,0,0,0-8.6,3.66c-3.78,2.31-4.87,4.89-3.82,6.93,1.25,2.43,4.17,2.52,10,1.11,7.76-2.1,12.15-1.58,14.86,3.69,3.08,6,1.94,16.23-8.31,23.2a21.21,21.21,0,0,1-12.78,3.46C213.88,441.46,213.28,438.74,212.67,436Z"/><path class="cls-21" d="M237,387.4c-2.77,3.08-5.62,6-8.57,8.77l-3.57-6.95c8.39-7.53,16-16.65,23.36-26.14l3.3,6.41c-2.55,3.37-5.12,6.71-7.74,9.94l14.47,28.14c-2.1,3-4.23,5.86-6.42,8.65Z"/><path class="cls-21" d="M267.59,378.64l2.51,11.25c-2,3.11-4.06,6.22-6.11,9.29q-4.65-22.8-9-45c2.68-3.51,5.36-7,8.08-10.49,8.19,7,16.29,13.78,24.33,20.48-2.11,2.89-4.19,5.86-6.24,8.87L275,367.78C272.52,371.36,270.05,375,267.59,378.64Zm3.79-15.06-5.14-4.53c-1.46-1.27-3.17-3-4.56-4.41a.76.76,0,0,1-.08.11c.59,2.46,1.46,5.46,2,7.94q1,4.56,2,9.15Q268.47,367.69,271.38,363.58Z"/><path class="cls-21" d="M275.48,329.55a61.8,61.8,0,0,1,8.23-9.31c4.29-4,7.79-5.68,10.8-5.66a6.54,6.54,0,0,1,5.87,3.95c1.85,3.59.35,8-1.7,11.07l.06.13c2.46-.92,4.61.11,6.7,2.13,2.57,2.47,5.4,5.44,6.54,6.09a83.78,83.78,0,0,0-6.77,5.68c-.89-.38-2.78-2.1-5.46-4.87s-4.38-2.76-7-.17c-.64.66-1.27,1.33-1.9,2q3,5.85,6,11.68c-2,2.34-4,4.77-6,7.28Zm12.9,6.2c.83-.87,1.66-1.72,2.5-2.56,3.19-3.15,4.34-6.41,3-8.95s-3.92-2.49-6.93.25a24,24,0,0,0-2.82,3.06Z"/><path class="cls-21" d="M310.53,309.72a65.92,65.92,0,0,0-8.72,4.5l-2.73-5.31a61.26,61.26,0,0,1,26.68-8.56l2.52,4.9a58.73,58.73,0,0,0-9.95,1.78q5.52,10.75,11.06,21.5a58.47,58.47,0,0,0-7.54,3.21Z"/></g><g class="cls-113"><path class="cls-21" d="M308.61,320.56c-23.88,11.13-24.63,49-44.07,63.45-12.62,8.84-17.36-1.66-36-.67-11.78.23-24.24,3.14-38,4.24-11.36,3.44-24.31,3.79-39.6-.43-4.1-1.13-6.48-.17-5,2.63q18.26,35.48,36.5,71c1.44,2.78,5.9,5.88,9.7,6.44,86.83,13,86.75-143,173.64-129.95C337.65,316.78,319.8,315.42,308.61,320.56Z"/></g><path class="cls-114" d="M388.4,365.57a1.53,1.53,0,0,1-1.35-.81L349.34,293a1.52,1.52,0,0,1,2.69-1.42l37.71,71.78a1.52,1.52,0,0,1-.64,2.05A1.49,1.49,0,0,1,388.4,365.57Z"/></g></g></svg>