<svg width="462" height="420" viewBox="0 0 462 420" fill="none" xmlns="http://www.w3.org/2000/svg">
<path d="M231 420L30.9481 105L431.052 105L231 420Z" fill="#242424" fill-opacity="0.9"/>
<path d="M230 108L329.593 260.25H130.407L230 108Z" fill="white" fill-opacity="0.9"/>
<path d="M244.528 206.904C245.488 206.904 246.181 206.755 246.608 206.456C246.907 206.221 247.216 205.688 247.536 204.856L254.576 185.24H255.408L262.576 205.208C262.725 205.784 262.96 206.179 263.28 206.392C263.749 206.733 264.507 206.904 265.552 206.904V207.96H257.648V206.904C259.248 206.904 260.144 206.744 260.336 206.424C260.571 206.232 260.624 205.965 260.496 205.624L254.544 189.048L248.848 205.144C248.613 205.72 248.613 206.125 248.848 206.36C249.083 206.723 249.957 206.904 251.472 206.904V207.96H244.528V206.904ZM222.015 185.624H229.983V186.712C229.023 186.712 228.33 186.776 227.903 186.904C227.455 187.032 227.178 187.224 227.071 187.48C227.05 187.501 227.039 187.565 227.039 187.672C227.039 187.779 227.061 187.885 227.103 187.992C227.146 188.12 227.189 188.248 227.231 188.376C227.317 188.547 227.402 188.717 227.487 188.888C227.551 189.08 227.626 189.272 227.711 189.464C227.946 190.168 228.191 190.861 228.447 191.544C228.703 192.227 228.949 192.909 229.183 193.592H237.951C238.207 192.824 238.474 192.056 238.751 191.288C239.007 190.52 239.263 189.741 239.519 188.952C239.626 188.739 239.701 188.536 239.743 188.344C239.765 188.173 239.775 188.013 239.775 187.864C239.775 187.608 239.722 187.427 239.615 187.32C239.423 186.915 238.549 186.712 236.991 186.712V185.624H243.871V186.712C243.317 186.712 242.869 186.787 242.527 186.936C242.165 187.064 241.834 187.309 241.535 187.672C241.386 187.864 241.247 188.109 241.119 188.408C240.991 188.707 240.853 189.037 240.703 189.4C240.575 189.763 240.351 190.413 240.031 191.352C239.69 192.291 239.306 193.379 238.879 194.616C238.453 195.853 237.994 197.155 237.503 198.52C237.013 199.885 236.554 201.187 236.127 202.424C235.701 203.661 235.327 204.749 235.007 205.688C234.666 206.627 234.431 207.277 234.303 207.64C234.026 207.789 233.749 207.928 233.471 208.056C233.194 208.205 232.917 208.355 232.639 208.504C231.359 205.176 230.101 201.88 228.863 198.616C227.626 195.373 226.367 192.088 225.087 188.76C224.81 188.035 224.479 187.512 224.095 187.192C223.647 186.872 222.954 186.712 222.015 186.712V185.624ZM229.599 194.872C230.282 196.685 230.975 198.499 231.679 200.312C232.362 202.125 233.045 203.939 233.727 205.752C234.367 203.939 235.007 202.125 235.647 200.312C236.266 198.499 236.895 196.685 237.535 194.872H229.599ZM199.444 206.936C199.999 206.936 200.458 206.904 200.82 206.84C201.162 206.776 201.428 206.68 201.62 206.552C201.812 206.445 201.94 206.317 202.004 206.168C202.068 206.019 202.1 205.848 202.1 205.656C202.122 205.635 202.132 205.517 202.132 205.304V185.528H203.028C205.396 188.749 207.732 191.939 210.036 195.096C212.34 198.253 214.655 201.443 216.98 204.664V188.568C216.98 187.843 216.81 187.341 216.468 187.064C216.106 186.787 215.402 186.648 214.356 186.648V185.624H220.916V186.648C219.935 186.648 219.231 186.797 218.804 187.096C218.442 187.416 218.26 187.907 218.26 188.568V205.24C218.26 205.773 218.452 206.168 218.836 206.424C219.199 206.701 219.892 206.84 220.916 206.84V207.928H216.852C214.591 204.899 212.351 201.901 210.132 198.936C207.892 195.992 205.642 193.005 203.38 189.976V205.24C203.38 205.88 203.572 206.317 203.956 206.552C204.383 206.808 205.055 206.936 205.972 206.936V207.928H199.444V206.936Z" fill="#242424"/>
<path d="M266.888 221.592H274.28V222.648C273.363 222.648 272.701 222.787 272.296 223.064C271.912 223.341 271.72 223.811 271.72 224.472V232.888H283.112V224.472C283.112 223.768 282.963 223.299 282.664 223.064C282.259 222.787 281.533 222.648 280.488 222.648V221.592H287.848V222.648C286.717 222.648 285.96 222.808 285.576 223.128C285.299 223.405 285.16 223.853 285.16 224.472V241.208C285.16 241.827 285.309 242.253 285.608 242.488C286.013 242.787 286.739 242.936 287.784 242.936V243.96H280.584V242.936C281.608 242.936 282.291 242.787 282.632 242.488C282.952 242.232 283.112 241.805 283.112 241.208V234.072H271.72V241.208C271.72 241.805 271.912 242.232 272.296 242.488C272.701 242.787 273.373 242.936 274.312 242.936V243.96H267.048V242.936C268.072 242.936 268.787 242.787 269.192 242.488C269.491 242.253 269.64 241.827 269.64 241.208V224.472C269.64 223.768 269.491 223.299 269.192 223.064C268.787 222.787 268.019 222.648 266.888 222.648V221.592ZM245.456 232.76C245.456 229.219 246.427 226.381 248.368 224.248C250.203 222.136 252.464 221.08 255.152 221.08C257.84 221.08 260.091 222.136 261.904 224.248C263.845 226.381 264.816 229.219 264.816 232.76C264.816 236.301 263.845 239.139 261.904 241.272C260.091 243.384 257.84 244.44 255.152 244.44C252.464 244.44 250.203 243.384 248.368 241.272C246.427 239.139 245.456 236.301 245.456 232.76ZM247.696 232.76C247.696 234.232 247.877 235.587 248.24 236.824C248.603 238.061 249.157 239.192 249.904 240.216C251.355 242.179 253.104 243.16 255.152 243.16C257.157 243.16 258.896 242.168 260.368 240.184C261.861 238.179 262.608 235.704 262.608 232.76C262.608 229.859 261.861 227.395 260.368 225.368C258.875 223.363 257.136 222.36 255.152 222.36C253.104 222.36 251.365 223.363 249.936 225.368C248.443 227.309 247.696 229.773 247.696 232.76ZM222.713 230.712C223.865 230.712 224.623 230.563 224.985 230.264C225.284 230.008 225.433 229.507 225.433 228.76V221.656H226.873L227.353 223C228.804 221.741 230.745 221.112 233.177 221.112C236.121 221.112 238.479 222.157 240.249 224.248C242.02 226.381 242.905 229.197 242.905 232.696C242.905 236.088 241.967 238.883 240.089 241.08C238.191 243.299 235.855 244.408 233.081 244.408C232.569 244.408 232.079 244.376 231.609 244.312C231.119 244.248 230.639 244.163 230.169 244.056C229.935 243.971 229.721 243.896 229.529 243.832C229.316 243.768 229.103 243.693 228.889 243.608C228.527 243.715 228.164 243.821 227.801 243.928C227.439 244.056 227.076 244.184 226.713 244.312L224.505 238.552C224.633 238.467 224.772 238.392 224.921 238.328C225.049 238.285 225.177 238.232 225.305 238.168C225.711 238.851 226.137 239.469 226.585 240.024C227.033 240.579 227.535 241.08 228.089 241.528C229.455 242.637 231.055 243.192 232.889 243.192C233.977 243.192 234.969 242.904 235.865 242.328C236.761 241.773 237.572 241.069 238.297 240.216C239.897 238.253 240.697 235.832 240.697 232.952C240.697 229.837 239.961 227.309 238.489 225.368C237.807 224.515 237.007 223.8 236.089 223.224C235.172 222.669 234.191 222.392 233.145 222.392C232.399 222.392 231.705 222.477 231.065 222.648C230.425 222.819 229.828 223.064 229.273 223.384C228.868 223.661 228.537 223.939 228.281 224.216C228.004 224.493 227.801 224.803 227.673 225.144C227.545 225.528 227.481 225.912 227.481 226.296V228.728C227.481 229.475 227.652 229.987 227.993 230.264C228.42 230.563 229.263 230.712 230.521 230.712V231.832H222.713V230.712ZM202.547 242.904C203.23 242.904 203.816 242.733 204.307 242.392C204.627 242.157 205.011 241.656 205.459 240.888L210.963 230.936V224.312C210.963 223.693 210.803 223.277 210.483 223.064C210.014 222.787 209.139 222.648 207.859 222.648V221.624H216.179V222.648C215.518 222.648 214.974 222.691 214.547 222.776C214.099 222.84 213.758 222.925 213.523 223.032C213.182 223.245 213.011 223.683 213.011 224.344V230.616L218.963 241.56C219.219 242.051 219.539 242.392 219.923 242.584C220.286 242.797 220.84 242.904 221.587 242.904V243.928H214.259V242.904C214.771 242.904 215.251 242.893 215.699 242.872C216.126 242.872 216.424 242.797 216.595 242.648C216.744 242.541 216.819 242.413 216.819 242.264C216.798 242.115 216.744 241.955 216.659 241.784L211.635 232.408L206.675 241.368C206.568 241.56 206.504 241.752 206.483 241.944C206.462 242.136 206.536 242.317 206.707 242.488C206.984 242.765 207.795 242.904 209.139 242.904V243.928H202.547V242.904ZM193.193 221.624H200.745V222.648C199.7 222.648 198.975 222.787 198.569 223.064C198.207 223.32 198.025 223.747 198.025 224.344V241.016C198.025 241.699 198.207 242.189 198.569 242.488C198.996 242.787 199.721 242.936 200.745 242.936V243.928H193.193V242.936C193.577 242.936 193.919 242.904 194.217 242.84C194.495 242.797 194.74 242.744 194.953 242.68C195.359 242.531 195.625 242.317 195.753 242.04C195.881 241.784 195.945 241.443 195.945 241.016V224.344C195.945 223.704 195.785 223.277 195.465 223.064C195.039 222.787 194.281 222.648 193.193 222.648V221.624ZM174.5 227.352C174.5 225.389 175.162 223.864 176.484 222.776C177.743 221.645 179.45 221.08 181.604 221.08C182.33 221.08 183.119 221.165 183.972 221.336C184.826 221.507 185.626 221.752 186.372 222.072C186.735 221.965 187.098 221.848 187.46 221.72C187.802 221.592 188.122 221.443 188.42 221.272C188.804 222.296 189.199 223.299 189.604 224.28C189.988 225.261 190.372 226.264 190.757 227.288C190.607 227.373 190.468 227.448 190.34 227.512C190.212 227.597 190.074 227.672 189.924 227.736C188.879 226.051 187.866 224.845 186.884 224.12C186.564 223.864 186.191 223.629 185.764 223.416C185.316 223.203 184.858 223.021 184.388 222.872C183.919 222.701 183.45 222.573 182.98 222.488C182.511 222.403 182.084 222.36 181.7 222.36C180.89 222.36 180.164 222.467 179.524 222.68C178.884 222.893 178.351 223.192 177.924 223.576C177.028 224.408 176.58 225.507 176.58 226.872C176.58 227.384 176.698 227.885 176.932 228.376C177.167 228.888 177.476 229.304 177.86 229.624C178.714 230.307 180.388 231.075 182.884 231.928C184.868 232.632 186.436 233.453 187.589 234.392C189.124 235.565 189.892 236.995 189.892 238.68C189.892 240.408 189.274 241.795 188.036 242.84C186.842 243.885 185.284 244.408 183.365 244.408C182.447 244.408 181.551 244.28 180.676 244.024C180.442 243.939 180.218 243.853 180.004 243.768C179.77 243.683 179.556 243.597 179.364 243.512L177.444 244.152C177.06 243.171 176.676 242.2 176.292 241.24C175.908 240.28 175.524 239.309 175.14 238.328C175.375 238.221 175.61 238.104 175.844 237.976C176.74 239.512 177.764 240.728 178.916 241.624C180.303 242.648 181.796 243.16 183.396 243.16C183.951 243.16 184.463 243.075 184.932 242.904C185.402 242.755 185.828 242.552 186.212 242.296C186.746 241.933 187.162 241.475 187.46 240.92C187.759 240.365 187.908 239.715 187.908 238.968C187.908 237.752 187.279 236.739 186.02 235.928C185.38 235.544 184.762 235.213 184.164 234.936C183.567 234.68 182.799 234.403 181.86 234.104C180.559 233.677 179.46 233.24 178.564 232.792C177.668 232.344 176.954 231.907 176.42 231.48C175.14 230.456 174.5 229.08 174.5 227.352Z" fill="#242424"/>
</svg>
