<svg xmlns="http://www.w3.org/2000/svg" xmlns:xlink="http://www.w3.org/1999/xlink" viewBox="0 0 2881.34 2881.48"><defs><style>.cls-1{fill:none;}.cls-2{isolation:isolate;}.cls-3{fill:#f4f7fa;}.cls-4{fill:url(#linear-gradient);}.cls-5{clip-path:url(#clip-path);}.cls-6{fill:#fcfdfe;}.cls-7{clip-path:url(#clip-path-2);}.cls-8{fill:url(#linear-gradient-2);}.cls-9{fill:url(#linear-gradient-3);}.cls-10{fill:url(#linear-gradient-4);}.cls-11{fill:url(#linear-gradient-5);}.cls-12{fill:#fff;}.cls-13,.cls-14,.cls-60,.cls-66{opacity:0.3;}.cls-13,.cls-14,.cls-17,.cls-60,.cls-66{mix-blend-mode:multiply;}.cls-14{fill:url(#linear-gradient-6);}.cls-15{clip-path:url(#clip-path-3);}.cls-16{fill:url(#linear-gradient-7);}.cls-17{opacity:0.4;fill:url(#linear-gradient-8);}.cls-18{fill:url(#linear-gradient-9);}.cls-19{fill:url(#linear-gradient-10);}.cls-20{fill:url(#linear-gradient-11);}.cls-21{fill:#fcb048;}.cls-22{fill:url(#linear-gradient-12);}.cls-23{fill:url(#linear-gradient-13);}.cls-24{fill:url(#linear-gradient-14);}.cls-25{fill:url(#linear-gradient-15);}.cls-26{fill:url(#linear-gradient-16);}.cls-27{fill:url(#linear-gradient-17);}.cls-28{fill:url(#linear-gradient-18);}.cls-29{fill:url(#linear-gradient-19);}.cls-30{fill:url(#linear-gradient-20);}.cls-31{fill:url(#linear-gradient-21);}.cls-32{fill:url(#linear-gradient-22);}.cls-33{fill:url(#linear-gradient-23);}.cls-34{fill:url(#linear-gradient-24);}.cls-35{fill:url(#linear-gradient-25);}.cls-36{fill:url(#linear-gradient-26);}.cls-37{fill:url(#linear-gradient-27);}.cls-38{fill:url(#linear-gradient-28);}.cls-39{fill:url(#linear-gradient-29);}.cls-40{fill:url(#linear-gradient-30);}.cls-41{fill:url(#linear-gradient-31);}.cls-42{fill:url(#linear-gradient-32);}.cls-43{fill:url(#linear-gradient-33);}.cls-44{fill:url(#linear-gradient-34);}.cls-45{fill:url(#linear-gradient-35);}.cls-46{fill:url(#linear-gradient-36);}.cls-47{fill:url(#linear-gradient-37);}.cls-48{fill:url(#linear-gradient-38);}.cls-49{fill:url(#linear-gradient-39);}.cls-50{fill:url(#linear-gradient-40);}.cls-51{fill:url(#linear-gradient-41);}.cls-52{fill:url(#linear-gradient-42);}.cls-53{fill:url(#linear-gradient-43);}.cls-54{fill:url(#linear-gradient-44);}.cls-55{fill:url(#linear-gradient-45);}.cls-56{fill:url(#linear-gradient-46);}.cls-57{fill:url(#linear-gradient-47);}.cls-58{fill:url(#linear-gradient-48);}.cls-59{fill:url(#linear-gradient-49);}.cls-60{fill:url(#linear-gradient-50);}.cls-61{fill:url(#linear-gradient-51);}.cls-62{fill:url(#linear-gradient-52);}.cls-63{fill:url(#linear-gradient-53);}.cls-64{fill:url(#linear-gradient-54);}.cls-65{fill:url(#linear-gradient-55);}.cls-66{fill:url(#linear-gradient-56);}.cls-67{fill:url(#linear-gradient-57);}.cls-68{fill:url(#linear-gradient-58);}.cls-69{fill:url(#linear-gradient-59);}</style><linearGradient id="linear-gradient" x1="-4393.76" y1="-3504.14" x2="-3921.55" y2="-485.37" gradientTransform="matrix(-0.66, -0.75, -0.75, 0.66, -2535.68, 510.97)" gradientUnits="userSpaceOnUse"><stop offset="0" stop-color="#e38ddd"/><stop offset="1" stop-color="#9571f6"/></linearGradient><clipPath id="clip-path" transform="translate(-34.3 -24.9)"><path class="cls-1" d="M1654.75,2130.27c12.54,118.14,20.43,238.87,32.42,357.91,65,19.33,141.88,40.49,173.68-37.7,44.22-108.71,249.61-110.8,342.72-93.47,115.25,21.45,368.66,44.67,350.32-126.73-15.27-142.68-81.25-224.54,86-277.33s251.24-156,211.09-311.37c-42.26-163.53,145.21-333.38,22.23-458.11-214.28-217.33-492.36,173.38-525.7,412.43s-151.39,160.87-312.73,175.2c-220.25,19.56-84.46,247.78-180,323.77C1779.79,2154.44,1735.56,2131.32,1654.75,2130.27Z"/></clipPath><clipPath id="clip-path-2" transform="translate(-34.3 -24.9)"><path class="cls-1" d="M2272.33,2348.63q-130.39-19.18-260.46-44.34c-1.41,1.27-29.9-187.69,59.85-286.78,177.49-192,57.94-364.27,23.84-466.37-54.58-144-26.61-318.94,132-286.16,154.47,28.22,177.9-289.8,151.24-534.8-22.75-119.24,89.76-263.93,202-297,114.62-36.63,229,38.35,264.05,276,53.07,275.21-147.77,441.17-222.14,579.14-73.18,135.45,97.05,245-40,365.05-115.24,106.64-260.5,183.29-207.36,317.24C2430,2103.08,2416.89,2211.36,2272.33,2348.63Z"/></clipPath><linearGradient id="linear-gradient-2" x1="-367.41" y1="-1817.72" x2="-991.59" y2="-43.73" gradientTransform="matrix(-0.87, -0.5, -0.5, 0.87, 1357.92, 1865.71)" gradientUnits="userSpaceOnUse"><stop offset="0" stop-color="#ff9085"/><stop offset="1" stop-color="#fb6fbb"/></linearGradient><linearGradient id="linear-gradient-3" x1="766.28" y1="3026.9" x2="2450.3" y2="-192.36" gradientUnits="userSpaceOnUse"><stop offset="0" stop-color="#444b8c"/><stop offset="1" stop-color="#26264f"/></linearGradient><linearGradient id="linear-gradient-4" x1="-264.73" y1="5131.99" x2="1419.3" y2="1912.72" gradientUnits="userSpaceOnUse"><stop offset="0" stop-color="#aa80f9"/><stop offset="1" stop-color="#6165d7"/></linearGradient><linearGradient id="linear-gradient-5" x1="2214.65" y1="869.6" x2="-716.52" y2="4112.13" xlink:href="#linear-gradient-4"/><linearGradient id="linear-gradient-6" x1="506.22" y1="1552.05" x2="2277.57" y2="1552.05" xlink:href="#linear-gradient-4"/><clipPath id="clip-path-3" transform="translate(-34.3 -24.9)"><path class="cls-1" d="M1472.35,0C420.65,0,301.64,898.38,301.64,898.38H0V980l593,815.49L1317.5,848.84H1032.12L1436,375.46s464.11,82.93,624.3,136.73c207,76.31,369.81,249.51,369.81,249.51S2268.4,0,1472.35,0Z"/></clipPath><linearGradient id="linear-gradient-7" x1="709.51" y1="1644.91" x2="1846.77" y2="86.3" gradientUnits="userSpaceOnUse"><stop offset="0" stop-color="#fcb148"/><stop offset="0.05" stop-color="#fdba46"/><stop offset="0.14" stop-color="#ffc244"/><stop offset="0.32" stop-color="#ffc444"/><stop offset="0.48" stop-color="#fdb946"/><stop offset="0.78" stop-color="#f99c4d"/><stop offset="0.87" stop-color="#f8924f"/><stop offset="1" stop-color="#f8924f"/></linearGradient><linearGradient id="linear-gradient-8" x1="1633.73" y1="895.54" x2="2054.14" y2="319.37" xlink:href="#linear-gradient-7"/><linearGradient id="linear-gradient-9" x1="145.16" y1="2786.61" x2="1090.54" y2="2786.61" xlink:href="#linear-gradient-7"/><linearGradient id="linear-gradient-10" x1="622.2" y1="2680.11" x2="672.04" y2="3097.34" gradientUnits="userSpaceOnUse"><stop offset="0" stop-color="#ffdb44"/><stop offset="1" stop-color="#feef06"/></linearGradient><linearGradient id="linear-gradient-11" x1="620.03" y1="2661.51" x2="635.34" y2="2789.64" xlink:href="#linear-gradient-10"/><linearGradient id="linear-gradient-12" x1="280.34" y1="498.23" x2="295.6" y2="625.91" gradientTransform="translate(914.76 3274.44) rotate(180)" gradientUnits="userSpaceOnUse"><stop offset="0" stop-color="#f36f56"/><stop offset="0.31" stop-color="#f99c4c"/><stop offset="0.55" stop-color="#fdb946"/><stop offset="0.68" stop-color="#ffc444"/><stop offset="0.8" stop-color="#ffc244"/><stop offset="0.87" stop-color="#feba46"/><stop offset="0.92" stop-color="#fcad49"/><stop offset="0.96" stop-color="#f99a4d"/><stop offset="1" stop-color="#f68252"/><stop offset="1" stop-color="#f57e53"/></linearGradient><linearGradient id="linear-gradient-13" x1="30.94" y1="2690.88" x2="976.32" y2="2690.88" xlink:href="#linear-gradient-7"/><linearGradient id="linear-gradient-14" x1="507.97" y1="2584.39" x2="557.81" y2="3001.62" xlink:href="#linear-gradient-10"/><linearGradient id="linear-gradient-15" x1="505.81" y1="2565.78" x2="521.11" y2="2693.92" xlink:href="#linear-gradient-10"/><linearGradient id="linear-gradient-16" x1="394.57" y1="593.96" x2="409.82" y2="721.64" xlink:href="#linear-gradient-12"/><linearGradient id="linear-gradient-17" x1="129.5" y1="2595.43" x2="1074.88" y2="2595.43" xlink:href="#linear-gradient-7"/><linearGradient id="linear-gradient-18" x1="606.53" y1="2488.94" x2="656.37" y2="2906.17" xlink:href="#linear-gradient-10"/><linearGradient id="linear-gradient-19" x1="604.37" y1="2470.33" x2="619.67" y2="2598.47" xlink:href="#linear-gradient-10"/><linearGradient id="linear-gradient-20" x1="296.01" y1="689.4" x2="311.26" y2="817.09" xlink:href="#linear-gradient-12"/><linearGradient id="linear-gradient-21" x1="189.3" y1="2499.71" x2="1134.69" y2="2499.71" xlink:href="#linear-gradient-7"/><linearGradient id="linear-gradient-22" x1="632.04" y1="2368.32" x2="681.88" y2="2785.55" xlink:href="#linear-gradient-10"/><linearGradient id="linear-gradient-23" x1="664.17" y1="2374.61" x2="679.48" y2="2502.75" xlink:href="#linear-gradient-10"/><linearGradient id="linear-gradient-24" x1="236.2" y1="785.13" x2="251.45" y2="912.81" xlink:href="#linear-gradient-12"/><linearGradient id="linear-gradient-25" x1="145.16" y1="2396.43" x2="1090.54" y2="2396.43" xlink:href="#linear-gradient-7"/><linearGradient id="linear-gradient-26" x1="622.2" y1="2289.94" x2="672.04" y2="2707.17" xlink:href="#linear-gradient-10"/><linearGradient id="linear-gradient-27" x1="620.03" y1="2271.33" x2="635.34" y2="2399.47" xlink:href="#linear-gradient-10"/><linearGradient id="linear-gradient-28" x1="280.34" y1="888.41" x2="295.6" y2="1016.09" xlink:href="#linear-gradient-12"/><linearGradient id="linear-gradient-29" x1="30.94" y1="2300.7" x2="976.32" y2="2300.7" xlink:href="#linear-gradient-7"/><linearGradient id="linear-gradient-30" x1="473.67" y1="2169.31" x2="523.51" y2="2586.54" xlink:href="#linear-gradient-10"/><linearGradient id="linear-gradient-31" x1="505.81" y1="2175.6" x2="521.11" y2="2303.74" xlink:href="#linear-gradient-10"/><linearGradient id="linear-gradient-32" x1="394.57" y1="984.13" x2="409.82" y2="1111.82" xlink:href="#linear-gradient-12"/><linearGradient id="linear-gradient-33" x1="129.5" y1="2205.26" x2="1074.88" y2="2205.26" xlink:href="#linear-gradient-7"/><linearGradient id="linear-gradient-34" x1="572.23" y1="2073.87" x2="622.07" y2="2491.1" xlink:href="#linear-gradient-10"/><linearGradient id="linear-gradient-35" x1="604.37" y1="2080.16" x2="619.67" y2="2208.3" xlink:href="#linear-gradient-10"/><linearGradient id="linear-gradient-36" x1="296.01" y1="1079.58" x2="311.26" y2="1207.26" xlink:href="#linear-gradient-12"/><linearGradient id="linear-gradient-37" x1="78.23" y1="2109.53" x2="1023.62" y2="2109.53" xlink:href="#linear-gradient-7"/><linearGradient id="linear-gradient-38" x1="520.97" y1="1978.14" x2="570.81" y2="2395.37" xlink:href="#linear-gradient-10"/><linearGradient id="linear-gradient-39" x1="553.1" y1="1984.43" x2="568.41" y2="2112.57" xlink:href="#linear-gradient-10"/><linearGradient id="linear-gradient-40" x1="347.27" y1="1175.31" x2="362.52" y2="1302.99" xlink:href="#linear-gradient-12"/><linearGradient id="linear-gradient-41" x1="1365.78" y1="1855.58" x2="2311.16" y2="1855.58" gradientTransform="matrix(0.58, 0.81, -0.81, 0.58, 1708.07, -102.31)" xlink:href="#linear-gradient-7"/><linearGradient id="linear-gradient-42" x1="1842.81" y1="1749.1" x2="1892.65" y2="2166.28" gradientTransform="matrix(0.58, 0.81, -0.81, 0.58, 1708.07, -102.31)" xlink:href="#linear-gradient-10"/><linearGradient id="linear-gradient-43" x1="1840.65" y1="1730.5" x2="1855.95" y2="1858.62" gradientTransform="matrix(0.58, 0.81, -0.81, 0.58, 1708.07, -102.31)" xlink:href="#linear-gradient-10"/><linearGradient id="linear-gradient-44" x1="-939.7" y1="1428.81" x2="-924.45" y2="1556.47" gradientTransform="matrix(-0.58, -0.81, 0.81, -0.58, -429.38, 2541.19)" xlink:href="#linear-gradient-12"/><linearGradient id="linear-gradient-45" x1="-3980.74" y1="1455.3" x2="-3965.18" y2="1545.99" gradientTransform="translate(6229.09)" gradientUnits="userSpaceOnUse"><stop offset="0" stop-color="#ffc444"/><stop offset="1" stop-color="#f36f56"/></linearGradient><linearGradient id="linear-gradient-46" x1="4090.73" y1="-202.99" x2="4106.28" y2="-112.29" gradientTransform="matrix(-0.92, 0.39, 0.39, 0.92, 6338.88, 0)" xlink:href="#linear-gradient-45"/><linearGradient id="linear-gradient-47" x1="3900.96" y1="451.53" x2="4023.14" y2="1163.94" gradientTransform="matrix(-0.96, 0.28, 0.28, 0.96, 6162.48, 23.91)" xlink:href="#linear-gradient-2"/><linearGradient id="linear-gradient-48" x1="2852.64" y1="2818.15" x2="2852.64" y2="2483.19" gradientTransform="matrix(-1, 0.04, 0.04, 1, 5190.38, -22.14)" xlink:href="#linear-gradient-45"/><linearGradient id="linear-gradient-49" x1="2821.37" y1="2174.6" x2="2794.11" y2="2787.99" gradientTransform="matrix(-1, 0.04, 0.04, 1, 5224.68, 2.76)" gradientUnits="userSpaceOnUse"><stop offset="0" stop-color="#311944"/><stop offset="1" stop-color="#893976"/></linearGradient><linearGradient id="linear-gradient-50" x1="2821.37" y1="2174.6" x2="2794.11" y2="2787.99" xlink:href="#linear-gradient-49"/><linearGradient id="linear-gradient-51" x1="2880.33" y1="2819.88" x2="2824.29" y2="2635.1" gradientTransform="matrix(-1, 0.04, 0.04, 1, 5224.68, 2.76)" xlink:href="#linear-gradient-2"/><linearGradient id="linear-gradient-52" x1="4290.26" y1="-1337.4" x2="4290.26" y2="-1634.27" gradientTransform="matrix(-0.65, 0.76, 0.76, 0.65, 6288.42, 224.91)" xlink:href="#linear-gradient-45"/><linearGradient id="linear-gradient-53" x1="4310.9" y1="-1326.18" x2="4254.86" y2="-1510.96" gradientTransform="matrix(-0.65, 0.76, 0.76, 0.65, 6322.72, 249.81)" xlink:href="#linear-gradient-2"/><linearGradient id="linear-gradient-54" x1="-3519.43" y1="2396.98" x2="-4091.16" y2="2370.99" gradientTransform="translate(6229.09)" xlink:href="#linear-gradient-49"/><linearGradient id="linear-gradient-55" x1="-3746.6" y1="1498.4" x2="-3604.42" y2="2327.4" gradientTransform="translate(6229.09)" xlink:href="#linear-gradient-2"/><linearGradient id="linear-gradient-56" x1="-1051.96" y1="1358.08" x2="-775.13" y2="1927.32" gradientTransform="translate(3004.07 278.13) rotate(-12.03)" xlink:href="#linear-gradient-2"/><linearGradient id="linear-gradient-57" x1="2887.81" y1="1584.1" x2="2823.88" y2="1687.52" gradientTransform="matrix(-1, 0.04, 0.04, 1, 5224.68, 2.76)" xlink:href="#linear-gradient-45"/><linearGradient id="linear-gradient-58" x1="-3985.75" y1="1595.4" x2="-3863.57" y2="2307.79" gradientTransform="translate(6229.09)" xlink:href="#linear-gradient-2"/><linearGradient id="linear-gradient-59" x1="2532.74" y1="2017.27" x2="2791.2" y2="1465" gradientTransform="matrix(-1, 0.04, 0.04, 1, 5224.68, 2.76)" xlink:href="#linear-gradient-3"/></defs><g class="cls-2"><g id="Illustration"><path class="cls-3" d="M2556,548.52C2207.77,71.88,1611.57,42.1,1574.7,40.39c-470.21-21.81-805.87,218-926.9,307.24C559.94,412.43,438,504,324.17,664.84c-51.94,73.42-232.71,345.78-235.59,712.27-4.48,569.73,424.34,940.51,502.2,1005.12,421.12,349.44,1157.66,523.44,1710.12,124.83C2949.74,2038.92,2943.15,1078.44,2556,548.52Z" transform="translate(-34.3 -24.9)"/><path class="cls-4" d="M1824,2471c-16.31-5.71-46.76-32.52-51.82-42.78-33.65-68.28-105-192-83.72-269.66,3.63-13.25,66.25-13,77.26-23.58,40-9.55,54.42-10.39,88-38.13,99-81.91-40.26-304.43,180.94-325.55,162-15.47,279.3,64,312.81-175.36s311.44-629.71,525.76-412.5c123,124.65-64.52,294.59-22.23,458.11C2891.11,1797,2807,1900.14,2639.82,1953s-101.12,134.55-86,277.35c18.23,171.54-234.7,147.79-350.54,126.87C2110.05,2340.33,1861.16,2360.36,1824,2471Z" transform="translate(-34.3 -24.9)"/><g class="cls-5"><path class="cls-6" d="M1731,2300.58l-.86-3.43c276-69.05,523.3-220.76,715.32-438.74C2628.11,1651,2758.29,1388,2821.88,1097.8l3.46.76c-63.72,290.77-194.18,554.33-377.28,762.18C2255.57,2079.27,2007.6,2231.36,1731,2300.58Z" transform="translate(-34.3 -24.9)"/><path class="cls-6" d="M2569.66,2300.68c-134-77.65-374.5-129.83-536.11-116.3l-.3-3.53c162.27-13.59,403.69,38.81,538.18,116.77Z" transform="translate(-34.3 -24.9)"/><path class="cls-6" d="M1838.43,2272.38l-1.78-3.06c72.93-42.34,121.65-119.92,144.81-230.58,17-81.14,20.09-177.84,9.22-287.43l3.53-.35c10.89,110,7.77,207-9.28,288.5C1961.55,2151.15,1912.26,2229.51,1838.43,2272.38Z" transform="translate(-34.3 -24.9)"/><path class="cls-6" d="M2472.92,1830.22l-1.93-3c133.31-86.84,300.56-82.26,417.4-63.13l-.57,3.5C2771.61,1748.58,2605.29,1744,2472.92,1830.22Z" transform="translate(-34.3 -24.9)"/><path class="cls-6" d="M2674.19,1526.66l-3.4-1c21.31-73.94,41.41-229.05-63.43-437l3.16-1.59c35.42,70.25,60.48,144.56,72.46,214.92C2696.77,1383,2693.81,1458.58,2674.19,1526.66Z" transform="translate(-34.3 -24.9)"/></g><g class="cls-7"><path class="cls-8" d="M2272.33,2348.63q-130.39-19.18-260.46-44.34c-1.41,1.27-29.9-187.69,59.85-286.78,177.49-192,57.94-364.27,23.84-466.37-54-143.85-25.61-299.63,120.8-301.93,162.39-5.74,191.84-274.52,162.4-519-22.75-119.24,89.76-263.93,202-297,114.62-36.63,229,38.35,264.05,276,53.07,275.21-147.77,441.17-222.14,579.14-73.18,135.45,97.05,245-40,365.05-115.24,106.64-260.5,183.29-207.36,317.24C2430,2103.08,2416.89,2211.36,2272.33,2348.63Z" transform="translate(-34.3 -24.9)"/><path class="cls-6" d="M2156.08,2359.85l-3.54-.06c0-1.68,83.06-399.24,226.3-786.1,19.78-62.65,41.27-125.84,62.06-187,55.65-163.61,113.19-332.8,140.52-501.25,30.55-188.3,19.66-357.88-33.28-518.46l3.36-1.11c53.12,161.13,64.05,331.27,33.41,520.13-27.37,168.75-85,338.08-140.66,501.83-20.78,61.09-42.27,124.26-62.07,186.95C2237.83,1964.72,2156.29,2357.53,2156.08,2359.85Z" transform="translate(-34.3 -24.9)"/><path class="cls-6" d="M2544.84,1070.55l-2.64-2.37C2639.11,960.51,2756,807.5,2818.85,725.29c50.58-66.19,50.84-66.08,52.94-65.77l-.27,1.75.72,1.58c-2.56,1.76-23.75,29.49-50.57,64.59C2758.82,809.69,2641.83,962.77,2544.84,1070.55Z" transform="translate(-34.3 -24.9)"/><path class="cls-6" d="M2574.12,922.86c-20-123.4-70.86-204.57-110-250.94-43.18-51.2-83-73.53-87-74a1.41,1.41,0,0,0,.84-.25l-2-2.94c.89-.6,1.93-.45,4.28.57,10.74,4.67,50.84,29.75,92.9,82,53,65.85,89.09,150.56,104.43,245Z" transform="translate(-34.3 -24.9)"/><path class="cls-6" d="M2297.12,1826.78l-3.51-.42c13.67-114.81-13.09-238.31-79.52-367.07-34.65-67.15-78.84-132.93-131.34-195.52-3.8-4.54-5.14-6.15-5.57-6.88l3.07-1.78c.3.53,2.47,3.11,5.21,6.38,52.67,62.79,97,128.8,131.77,196.18C2284,1587.06,2310.88,1711.25,2297.12,1826.78Z" transform="translate(-34.3 -24.9)"/><path class="cls-6" d="M2336.29,1705.9l-3-1.86c104.24-168.42,324-180.07,325.86-179.52l1.32,1.65-1.21,1.74-.56-1.65-.15,1.73h0C2655.05,1528,2438.86,1540.19,2336.29,1705.9Zm321.84-181.34.56,1.67Z" transform="translate(-34.3 -24.9)"/><path class="cls-6" d="M2170.59,2295l-3.54-.13c1.84-50-16-135.2-111.59-257.26-5.19-6.62-5.19-6.62-5.05-7.61l3.51.5-1.75-.25,1.62-.67c.27.51,2.21,3,4.45,5.85C2154.46,2158.33,2172.45,2244.42,2170.59,2295Z" transform="translate(-34.3 -24.9)"/><path class="cls-6" d="M2192.67,2200.84l-3.4-1c11-38,54.39-112.53,221-184.27,2.3-1,3.78-1.62,4.31-1.89l1.62,3.14c-.56.29-2.11,1-4.53,2C2246.39,2090,2203.51,2163.42,2192.67,2200.84Z" transform="translate(-34.3 -24.9)"/></g><path class="cls-9" d="M2669,1512c0,584.66-473.78,1080.27-1078.24,1107.9C963,2648.59,436,2165.09,436,1538.94S963,416.56,1590.79,430.11C2195.25,443.15,2669,927.33,2669,1512Z" transform="translate(-34.3 -24.9)"/><path class="cls-10" d="M2739.22,1512c0,584.66-473.78,1080.27-1078.24,1107.9-627.78,28.7-1154.76-454.8-1154.76-1080.95S1033.2,416.56,1661,430.11C2265.44,443.15,2739.22,927.33,2739.22,1512Z" transform="translate(-34.3 -24.9)"/><path class="cls-11" d="M2672.5,1512.79c0,550.89-446.91,1017-1015.95,1041.87-589.67,25.77-1083.61-429-1083.61-1016.53S1066.88,483.91,1656.55,495.45C2225.59,506.59,2672.5,961.91,2672.5,1512.79Z" transform="translate(-34.3 -24.9)"/><path class="cls-12" d="M1427.17,1565.59q68.64-89.1,68.65-266.52,0-169.69-69.81-261.12t-200.17-91.41q-266.13,0-266.13,352.53,0,172.8,69.42,264.2t196.71,91.41Q1358.5,1654.68,1427.17,1565.59ZM1227.38,1495q-38.58,0-55.92-48.21t-17.36-146.18q0-98,17.36-145.41t55.92-47.44q74.05,0,74,192.85Q1301.43,1495,1227.38,1495Z" transform="translate(-34.3 -24.9)"/><path class="cls-12" d="M2215.92,1488.45Q2146.09,1397,2015.74,1397q-266.13,0-266.13,352.52,0,172,69.43,263.43t196.7,91.41q132.67,0,201.34-89.09t68.65-265.75Q2285.73,1579.87,2215.92,1488.45Zm-198.63,457q-38.6,0-55.93-48.21T1944,1751.1q0-97.95,17.36-145.4t55.93-47.44q74,0,74.05,192.84Q2091.34,1945.5,2017.29,1945.49Z" transform="translate(-34.3 -24.9)"/><path class="cls-12" d="M2006,974.49a24.89,24.89,0,0,0-21.15-12.42H1870.5a49.7,49.7,0,0,0-43.2,25.78L1236,2053.91a25,25,0,0,0,.32,24.61,24.77,24.77,0,0,0,21.14,12.34h129a24.69,24.69,0,0,0,21.45-12.81l598.38-1079A25,25,0,0,0,2006,974.49Z" transform="translate(-34.3 -24.9)"/><g class="cls-13"><path class="cls-14" d="M1174.43,1055C1137.31,934,1139,750.19,1320,478.68c-467,134.53-813.82,558-813.82,1064.58,0,626.15,527,1109.65,1154.76,1081,231.48-10.58,443.41-89.6,616.59-215-5.37-167-41.7-349.77-143.86-518.38C1852.79,1427.28,1290.91,1434.58,1174.43,1055Z" transform="translate(-34.3 -24.9)"/></g><g class="cls-15"><path class="cls-16" d="M2407.85,920.31v3.42c-31.38-40.8-87.6-97.49-121.26-130.31-.63-1.45-1.68-2.9-2.31-4.35a758.2,758.2,0,0,0-77.2-135.69c-32.86-46.48-74.62-92.23-123.3-134.36-5.83-5.46-12.56-10.28-18.8-15.45-3.18-2.52-6.39-5.12-9.62-7.64l-4.72-3.84c-1.66-1.28-3.37-2.43-5-3.67q-10-7.23-20.08-14.6l-5-3.67-5.29-3.41c-3.49-2.31-7-4.61-10.49-6.87-13.8-9.52-28.69-17.76-43.21-26.47-7.39-4.22-15.15-8.11-22.68-12.12-3.72-2-7.53-4-11.34-6s-7.85-3.71-11.7-5.54a758,758,0,0,0-199.7-63.47l-26.18-4.1c-8.74-1.15-17.62-1.88-26.31-2.86l-13.18-1.41-13.23-.68-13.22-.77c-4.39-.21-8.74-.64-13.18-.55-8.78-.05-17.57-.13-26.4-.17-2.15,0-4.48-.13-6.5,0L1572,336l-11.75.6-11.65.56c-1,0-1.75,0-3.1.12l-12,.86-16,1.07-12,.85-2,.13-.72,0s-4.17,0,2.83.13L1479.81,344c-4.26.64-8.56,1-12.82,1.92l-12.69,2.43-12.68,2.39-6.32,1.2c-2.11.38-4.17,1-6.23,1.45-8.3,2-16.59,4-24.84,6-4.17.86-8.2,2.22-12.24,3.38l-12.1,3.62-12.1,3.46L1356,374c-7.88,2.82-15.77,5.29-23.44,8.28s-15.28,6.15-22.86,9.26c-60.29,25.53-114.49,58.52-160.61,96.21l-8.7,6.91-8.25,7.39c-5.46,4.86-11.11,9.51-16.31,14.51-.23.17-.41.42-.63.59-10.13,10-20.4,19.38-29.5,29.71-2.42,2.52-4.79,5.08-7.12,7.64l-3.59,3.76-3.32,4c-4.44,5.21-8.83,10.46-13.22,15.62-1.08,1.28-2.24,2.52-3.32,3.84l-3,4c-2.06,2.69-4.08,5.38-6.1,8-3.94,5.37-8.25,10.32-11.79,15.87-29.94,42.68-52.76,85.37-68.27,126.08A554.09,554.09,0,0,0,935.67,848.1c-.59,4.22-1.17,8.36-1.75,12.46s-1.35,8-1.53,12q-1,11.91-2,22.71c-.45,7.34-.45,14.38-.77,21-.13,3.33-.36,6.57-.4,9.69.13,3.2.22,6.31.27,9.3.09,6,.18,11.7.27,17a19.77,19.77,0,0,0,.31,3.29c.14,1,.27,2,.41,2.9.17,1.88.44,1.62.62,3.33.14,1.45.32,2.13.45,2.13h295.09l-179.3,189.29L630.49,1587.25,34.3,963.89H347.77c.45,0,.94-5.12,1.43-9.13,1.22-8.67,2.52-17.12,3.95-27.4.81-5.13,1.52-9.91,2.38-15.41.44-2.69.85-5.25,1.3-8.07s.8-5.76,1.38-8.19c2.2-10.33,4.49-21.22,6.91-32.83,1.3-5.76,2.55-11.65,3.9-17.71s3.14-12.2,4.84-18.52c3.41-12.59,6.72-25.82,10.85-39.44q6.59-20.3,13.67-42.17c2.29-7.34,5.29-14.55,8.07-22s5.73-14.9,8.69-22.58a1059.78,1059.78,0,0,1,102-193.65c44.25-66.62,100.59-133,167.47-194.54,8.12-7.89,17.08-15.11,25.73-22.66,4.4-3.72,8.74-7.47,13.14-11.23l6.68-5.63,6.81-5.38c9.19-7.13,18.47-14.34,27.7-21.55l7-5.38,7.26-5.12c4.89-3.46,9.73-6.88,14.61-10.29,19.14-14,39.72-26.55,60.16-39.52,10.31-6.32,21-12.21,31.6-18.31,5.24-3,10.58-6,15.91-9l16.41-8.45A1095.47,1095.47,0,0,1,1201.26,49c12.51-2.35,25.1-4.74,37.65-7.08s25.33-3.76,38-5.59l19-2.57L1315,31.94l19.09-1.75c6.37-.55,12.69-1.24,19.1-1.45,12.73-.55,25.51-2,38.28-2.56,3.14-.13,6.37-1.28,9.55-1.28h9.59l19,1,19.06.6c6.36,0,12.73.81,19,1.11l37.88,2.18c8.6.13,3,.21,5.15.25l1,.13,2,.22,4,.51,8,.94,15.86,1.87,8,.94,4,.47,4.88.64,20.09,2.82,20.08,2.9,10,1.5c3.27.51,6.19,1.19,9.32,1.79,12.24,2.47,24.48,5,36.72,7.43,6.09,1.15,12.1,2.81,18.11,4.31l18.06,4.56,17.93,4.57L1726.4,71c11.74,3.62,23.53,7,35,11,11.52,4.1,23,8.2,34.38,12.3,90.69,34.31,173.44,80.11,244.58,133.42,4.48,3.29,8.92,6.62,13.35,9.9s8.61,6.87,12.87,10.37c8.52,6.92,17.08,13.58,25.28,20.66C2108.09,283.08,2124.23,297,2139,312c3.76,3.67,7.44,7.38,11.2,11l5.52,5.46,5.29,5.68q10.56,11.39,20.84,22.62l5.16,5.63,4.93,5.81c3.18,3.88,6.45,7.72,9.64,11.56,6.36,7.73,13,15.07,18.78,23.05a934.7,934.7,0,0,1,82.79,125.87c11.12,20.27,21,40.46,29.77,60.39a859.27,859.27,0,0,1,55.31,170.39c1.21,6.49,2.51,12.84,3.72,19.12s2.56,12.33,3.32,18.44c1.7,12.16,3.41,23.81,5,35,1.35,11.27,2.07,22.11,3.05,32.39.41,5.13.94,10.12,1.26,15.07s1.25,9.65,1.48,14.34C2406.28,903.16,2407.85,912.08,2407.85,920.31Z" transform="translate(-34.3 -24.9)"/><path class="cls-17" d="M2407.85,920.31v3.42c-31.38-40.8-87.6-97.49-121.26-130.31-.63-1.45-1.68-2.9-2.31-4.35a758.2,758.2,0,0,0-77.2-135.69c-32.86-46.48-74.62-92.23-123.3-134.36-5.83-5.46-12.56-10.28-18.8-15.45-3.18-2.52-6.39-5.12-9.62-7.64l-4.72-3.84c-1.66-1.28-3.37-2.43-5-3.67q-10-7.23-20.08-14.6l-5-3.67-5.29-3.41c-3.49-2.31-7-4.61-10.49-6.87-13.8-9.52-28.69-17.76-43.21-26.47-7.39-4.22-15.15-8.11-22.68-12.12-3.72-2-7.53-4-11.34-6s-7.85-3.71-11.7-5.54a758,758,0,0,0-199.7-63.47l-26.18-4.1c-8.74-1.15-17.62-1.88-26.31-2.86l-13.18-1.41-13.23-.68-13.22-.77c-4.39-.21-8.74-.64-13.18-.55-8.78-.05-17.57-.13-26.4-.17-2.15,0-4.48-.13-6.5,0L1572,336l-11.75.6-11.65.56c-1,0-1.75,0-3.1.12l-12,.86-16,1.07-12,.85-2,.13-.72,0s-4.17,0,2.83.13L1479.81,344c-4.26.64-8.56,1-12.82,1.92l-12.69,2.43-12.68,2.39-6.32,1.2c-2.11.38-4.17,1-6.23,1.45-8.3,2-16.59,4-24.84,6-4.17.86-8.2,2.22-12.24,3.38l-12.1,3.62-12.1,3.46L1356,374c-7.88,2.82-15.77,5.29-23.44,8.28s-15.28,6.15-22.86,9.26c-60.29,25.53-114.49,58.52-160.61,96.21l-8.7,6.91-8.25,7.39c-5.46,4.86-11.11,9.51-16.31,14.51-.23.17-.41.42-.63.59,132.46-156.17,347-257.62,589.19-257.62,248.12,0,467.27,106.49,598.79,269.15,11.12,20.27,21,40.46,29.77,60.39a859.27,859.27,0,0,1,55.31,170.39c1.21,6.49,2.51,12.84,3.72,19.12s2.56,12.33,3.32,18.44c1.7,12.16,3.41,23.81,5,35,1.35,11.27,2.07,22.11,3.05,32.39.41,5.13.94,10.12,1.26,15.07s1.25,9.65,1.48,14.34C2406.28,903.16,2407.85,912.08,2407.85,920.31Z" transform="translate(-34.3 -24.9)"/></g><path class="cls-18" d="M215.41,2714.38v91.13c0,29.45,184,53.33,410.88,53.33s410.88-23.88,410.88-53.33v-91.13Z" transform="translate(-34.3 -24.9)"/><path class="cls-19" d="M1037.17,2714.38c0,29.45-184,53.32-410.88,53.32s-410.88-23.87-410.88-53.32,184-53.32,410.88-53.32S1037.17,2684.93,1037.17,2714.38Z" transform="translate(-34.3 -24.9)"/><path class="cls-20" d="M626.29,2771.38c-201,0-411.12-19.2-411.12-56.22,0-2,.73-5.61,2.76-5.61s1.16,2.8,1.16,4.83c0,23.48,167.23,49.64,407.2,49.64s407.2-26.16,407.2-49.64c0-2,.35-3.94,2.38-3.94s1.54,2.71,1.54,4.75C1037.41,2752.21,827.26,2771.38,626.29,2771.38Z" transform="translate(-34.3 -24.9)"/><path class="cls-21" d="M587.46,2717.35c4-2.79,8.32-5.54,12.92-8.26a81.14,81.14,0,0,1,17.65-7.36,168.59,168.59,0,0,1,27.08-5.35,341.83,341.83,0,0,1,40.57-2.19q23.82-.12,44.72,1.51a303.9,303.9,0,0,1,36.78,4.87q15.83,3.24,25.82,8t11.8,10.94l46.26.46a46,46,0,0,1,8.87.83c2.59.52,3.84,1.19,3.84,2l0,3.81-59.48-.58q-3.12,7-15.94,12.81t-32.62,10.06l-21.66-3a25.32,25.32,0,0,1-4.78-1.14c-1.25-.45-1.86-1-1.86-1.49,0-.73,1.67-1.56,5-2.5s7.13-2.11,11.34-3.49a115.88,115.88,0,0,0,12.41-4.91c4-1.89,6.74-4.14,8.14-6.77L624,2724.21a131.86,131.86,0,0,1-12.4,8,81,81,0,0,1-18.21,7.08,191.19,191.19,0,0,1-28.25,5.1,397.06,397.06,0,0,1-42.59,2.08c-12.87.07-25.39-.42-37.67-1.46a257.38,257.38,0,0,1-32.68-4.66q-14.28-3.1-23.45-7.67c-6.08-3-9.5-6.56-10.21-10.52l-38.08-.39a49.57,49.57,0,0,1-9-.79c-2.63-.51-4-1.18-4-2l0-3.81,52.07.5c2.31-4,7-7.51,14.24-10.49a162.72,162.72,0,0,1,26.43-8l17.44,2.39c5.29.75,7.92,1.62,7.93,2.62,0,.54-1.07,1.21-3.26,2s-4.81,1.75-7.82,2.86a72.57,72.57,0,0,0-8.67,3.92,18.28,18.28,0,0,0-6.35,5.08ZM459,2722.54c1,2.5,3.38,4.65,6.91,6.46a55.54,55.54,0,0,0,13.24,4.47A133.85,133.85,0,0,0,497,2736q9.94.82,20.79.77a214.53,214.53,0,0,0,22.07-1.09,128.2,128.2,0,0,0,16.51-2.8,77.28,77.28,0,0,0,12.42-4.09,69.48,69.48,0,0,0,9.48-5.07Zm305.61-3.4c-1-2.54-3.59-4.75-7.56-6.66a68.13,68.13,0,0,0-15.22-4.8,167.65,167.65,0,0,0-21.57-2.9q-12.27-.95-27.12-.87a207.6,207.6,0,0,0-22.71,1.17,117.4,117.4,0,0,0-16.51,3,59.75,59.75,0,0,0-11.86,4.39,85.15,85.15,0,0,0-9.1,5.35Z" transform="translate(-34.3 -24.9)"/><path class="cls-22" d="M626.35,2666.83c-183.21,0-374,16.12-404.48,47.33a35.66,35.66,0,0,1,3.34,3.51c25.72-21.67,183.23-43.48,401.14-43.48,223.5,0,383.53,22.95,402.92,45.15a37.45,37.45,0,0,1,3.07-3.48C1007.14,2683.55,812.8,2666.83,626.35,2666.83Z" transform="translate(-34.3 -24.9)"/><path class="cls-23" d="M101.19,2618.65v91.14c0,29.45,184,53.32,410.88,53.32S923,2739.24,923,2709.79v-91.14Z" transform="translate(-34.3 -24.9)"/><path class="cls-24" d="M923,2618.65c0,29.45-184,53.32-410.88,53.32s-410.88-23.87-410.88-53.32,184-53.32,410.88-53.32S923,2589.2,923,2618.65Z" transform="translate(-34.3 -24.9)"/><path class="cls-25" d="M512.07,2675.65c-201,0-411.12-19.19-411.12-56.22,0-2,.72-5.61,2.76-5.61s1.16,2.8,1.16,4.83c0,23.48,167.23,49.64,407.2,49.64s407.2-26.16,407.2-49.64c0-2,.34-3.94,2.38-3.94s1.54,2.72,1.54,4.75C923.19,2656.48,713,2675.65,512.07,2675.65Z" transform="translate(-34.3 -24.9)"/><path class="cls-21" d="M473.24,2621.63c4-2.8,8.32-5.55,12.91-8.26A81.07,81.07,0,0,1,503.8,2606a168.62,168.62,0,0,1,27.09-5.36,344,344,0,0,1,40.57-2.19q23.82-.12,44.72,1.51a305.91,305.91,0,0,1,36.78,4.87q15.82,3.24,25.81,8t11.81,10.94l46.26.47a45.26,45.26,0,0,1,8.87.82c2.58.53,3.83,1.19,3.84,2l0,3.81-59.48-.57q-3.12,7-16,12.8t-32.61,10.06l-21.66-3a25.39,25.39,0,0,1-4.78-1.13c-1.25-.46-1.86-.95-1.86-1.49,0-.74,1.67-1.57,5-2.51s7.14-2.1,11.35-3.49a113.82,113.82,0,0,0,12.41-4.91c4-1.88,6.74-4.14,8.14-6.76l-140.38-1.39a133.9,133.9,0,0,1-12.4,8,80.58,80.58,0,0,1-18.21,7.07,191.43,191.43,0,0,1-28.25,5.1,399.35,399.35,0,0,1-42.59,2.09c-12.87.06-25.4-.43-37.67-1.46a257.38,257.38,0,0,1-32.68-4.66q-14.28-3.11-23.45-7.68c-6.08-3-9.5-6.55-10.21-10.51l-38.09-.39a50.4,50.4,0,0,1-9-.8c-2.63-.5-4-1.18-4-2l0-3.81,52.07.49c2.31-4,7-7.51,14.24-10.49a162.72,162.72,0,0,1,26.43-8l17.44,2.4c5.29.74,7.92,1.61,7.93,2.61,0,.54-1.07,1.21-3.26,2s-4.81,1.76-7.82,2.87a70.42,70.42,0,0,0-8.68,3.91,18.33,18.33,0,0,0-6.34,5.08Zm-128.48,5.19c1.05,2.49,3.38,4.64,6.92,6.45a55.1,55.1,0,0,0,13.24,4.47,135.26,135.26,0,0,0,17.82,2.57q10,.81,20.79.77a216.82,216.82,0,0,0,22.07-1.1,126.48,126.48,0,0,0,16.52-2.79,76.78,76.78,0,0,0,12.41-4.1A69.62,69.62,0,0,0,464,2628Zm305.62-3.41c-1-2.53-3.6-4.75-7.56-6.66a68.65,68.65,0,0,0-15.22-4.8,167.79,167.79,0,0,0-21.57-2.89q-12.27-1-27.12-.88a207.68,207.68,0,0,0-22.72,1.18,116.5,116.5,0,0,0-16.51,3,59.9,59.9,0,0,0-11.85,4.38,82.6,82.6,0,0,0-9.1,5.36Z" transform="translate(-34.3 -24.9)"/><path class="cls-26" d="M512.12,2571.1c-183.2,0-374,16.12-404.47,47.33a39.5,39.5,0,0,1,3.34,3.51c25.71-21.66,183.23-43.48,401.13-43.48,223.5,0,383.54,22.95,402.93,45.15a38.78,38.78,0,0,1,3.07-3.48C892.92,2587.82,698.58,2571.1,512.12,2571.1Z" transform="translate(-34.3 -24.9)"/><path class="cls-27" d="M199.75,2523.21v91.13c0,29.45,184,53.32,410.88,53.32s410.88-23.87,410.88-53.32v-91.13Z" transform="translate(-34.3 -24.9)"/><path class="cls-28" d="M1021.51,2523.21c0,29.45-184,53.32-410.88,53.32s-410.88-23.87-410.88-53.32,184-53.32,410.88-53.32S1021.51,2493.76,1021.51,2523.21Z" transform="translate(-34.3 -24.9)"/><path class="cls-29" d="M610.62,2580.2c-201,0-411.11-19.19-411.11-56.21,0-2,.72-5.61,2.76-5.61s1.15,2.79,1.15,4.83c0,23.48,167.24,49.64,407.2,49.64s407.2-26.16,407.2-49.64c0-2,.35-3.94,2.38-3.94s1.55,2.71,1.55,4.75C1021.75,2561,811.59,2580.2,610.62,2580.2Z" transform="translate(-34.3 -24.9)"/><path class="cls-21" d="M571.8,2526.18c4-2.79,8.32-5.54,12.91-8.26a81.07,81.07,0,0,1,17.65-7.36,169.73,169.73,0,0,1,27.09-5.36A344,344,0,0,1,670,2503q23.82-.11,44.72,1.52a303.71,303.71,0,0,1,36.77,4.87q15.84,3.24,25.82,8t11.8,10.93l46.27.47a46.12,46.12,0,0,1,8.87.82c2.58.53,3.83,1.2,3.84,2l0,3.81-59.48-.57q-3.14,7-15.95,12.8t-32.61,10.07l-21.66-3a24.64,24.64,0,0,1-4.78-1.13c-1.25-.45-1.86-1-1.86-1.49,0-.73,1.67-1.57,5-2.5s7.13-2.11,11.34-3.5a115.15,115.15,0,0,0,12.42-4.9c4-1.89,6.73-4.14,8.14-6.77L608.33,2533a133.9,133.9,0,0,1-12.4,8,80.58,80.58,0,0,1-18.21,7.07,190,190,0,0,1-28.25,5.11,399.76,399.76,0,0,1-42.6,2.08c-12.86.06-25.39-.42-37.66-1.46a257.38,257.38,0,0,1-32.68-4.66q-14.29-3.1-23.45-7.68T402.87,2531l-38.09-.39a49.57,49.57,0,0,1-9-.79c-2.62-.51-4-1.18-4-2V2524l52.07.5c2.3-4,7-7.52,14.24-10.49a162.88,162.88,0,0,1,26.42-7.95l17.44,2.39c5.3.75,7.93,1.62,7.94,2.62,0,.54-1.07,1.2-3.27,2s-4.81,1.76-7.81,2.87a71.94,71.94,0,0,0-8.68,3.91,18.56,18.56,0,0,0-6.34,5.08Zm-128.48,5.19c1.05,2.5,3.38,4.65,6.92,6.46a55.61,55.61,0,0,0,13.23,4.47,135.76,135.76,0,0,0,17.83,2.56q9.94.82,20.79.77a217.25,217.25,0,0,0,22.07-1.09,128.37,128.37,0,0,0,16.52-2.8,76.13,76.13,0,0,0,12.41-4.1,68.53,68.53,0,0,0,9.49-5.07ZM748.94,2528c-1.05-2.53-3.6-4.75-7.57-6.65a67.86,67.86,0,0,0-15.21-4.8,167.58,167.58,0,0,0-21.58-2.9q-12.27-.95-27.11-.88a210.07,210.07,0,0,0-22.72,1.18,117.94,117.94,0,0,0-16.51,3,59.9,59.9,0,0,0-11.85,4.38,84.2,84.2,0,0,0-9.1,5.36Z" transform="translate(-34.3 -24.9)"/><path class="cls-30" d="M610.68,2475.66c-183.2,0-374,16.12-404.47,47.33a36.77,36.77,0,0,1,3.33,3.51c25.72-21.67,183.23-43.49,401.14-43.49,223.5,0,383.54,23,402.93,45.16a36.2,36.2,0,0,1,3.07-3.48C991.48,2492.37,797.14,2475.66,610.68,2475.66Z" transform="translate(-34.3 -24.9)"/><path class="cls-31" d="M259.55,2427.48v91.14c0,29.45,184,53.32,410.88,53.32s410.88-23.87,410.88-53.32v-91.14Z" transform="translate(-34.3 -24.9)"/><ellipse class="cls-32" cx="636.13" cy="2402.58" rx="410.88" ry="53.32"/><path class="cls-33" d="M670.43,2484.48c-201,0-411.12-19.2-411.12-56.22,0-2,.73-5.61,2.76-5.61s1.16,2.8,1.16,4.83c0,23.48,167.23,49.64,407.2,49.64s407.2-26.16,407.2-49.64c0-2,.35-3.94,2.38-3.94s1.55,2.72,1.55,4.75C1081.56,2465.31,871.4,2484.48,670.43,2484.48Z" transform="translate(-34.3 -24.9)"/><path class="cls-21" d="M631.61,2430.45c4-2.79,8.32-5.54,12.91-8.26a82.07,82.07,0,0,1,17.65-7.36,168.73,168.73,0,0,1,27.09-5.35,343.85,343.85,0,0,1,40.57-2.19q23.82-.12,44.72,1.51a303.71,303.71,0,0,1,36.77,4.87q15.84,3.24,25.82,8t11.8,10.94l46.27.47a45.42,45.42,0,0,1,8.87.82c2.58.52,3.83,1.19,3.83,2l0,3.81-59.47-.57q-3.13,7-16,12.8T799.9,2462l-21.66-3a26.33,26.33,0,0,1-4.79-1.13c-1.25-.46-1.85-.95-1.85-1.49,0-.74,1.67-1.57,5-2.51s7.13-2.11,11.34-3.49a116,116,0,0,0,12.42-4.91c4-1.89,6.73-4.14,8.14-6.76l-140.39-1.4a130.37,130.37,0,0,1-12.39,8,81.12,81.12,0,0,1-18.22,7.08,191.27,191.27,0,0,1-28.24,5.1,397.26,397.26,0,0,1-42.6,2.08c-12.87.07-25.39-.42-37.66-1.45a259.37,259.37,0,0,1-32.69-4.66q-14.28-3.12-23.45-7.68t-10.2-10.52l-38.09-.39a49.57,49.57,0,0,1-9-.79c-2.63-.51-4-1.18-4-2l0-3.81,52.08.5c2.3-4,7-7.51,14.23-10.49a163.33,163.33,0,0,1,26.43-7.95l17.44,2.4c5.3.74,7.93,1.61,7.93,2.61,0,.54-1.07,1.21-3.26,2s-4.81,1.76-7.82,2.86a72.57,72.57,0,0,0-8.67,3.92,18.33,18.33,0,0,0-6.34,5.08Zm-128.48,5.19c1.05,2.5,3.38,4.65,6.92,6.46a55,55,0,0,0,13.23,4.47,135.42,135.42,0,0,0,17.83,2.57q9.95.81,20.79.76a214.38,214.38,0,0,0,22.07-1.09,128,128,0,0,0,16.51-2.79,77.91,77.91,0,0,0,12.42-4.1,70.22,70.22,0,0,0,9.49-5.07Zm305.62-3.4c-1-2.53-3.6-4.75-7.57-6.66a68,68,0,0,0-15.21-4.8,169.36,169.36,0,0,0-21.58-2.9q-12.27-.95-27.11-.87a205.07,205.07,0,0,0-22.72,1.18,116.34,116.34,0,0,0-16.51,3,60.62,60.62,0,0,0-11.86,4.39,82.44,82.44,0,0,0-9.09,5.36Z" transform="translate(-34.3 -24.9)"/><path class="cls-34" d="M670.49,2379.93c-183.21,0-374,16.12-404.47,47.33a38,38,0,0,1,3.33,3.51c25.72-21.67,183.23-43.48,401.14-43.48,223.5,0,383.54,22.95,402.92,45.15a37.56,37.56,0,0,1,3.08-3.48C1051.28,2396.65,857,2379.93,670.49,2379.93Z" transform="translate(-34.3 -24.9)"/><path class="cls-35" d="M215.41,2324.2v91.14c0,29.45,184,53.32,410.88,53.32s410.88-23.87,410.88-53.32V2324.2Z" transform="translate(-34.3 -24.9)"/><path class="cls-36" d="M1037.17,2324.2c0,29.45-184,53.32-410.88,53.32s-410.88-23.87-410.88-53.32,184-53.32,410.88-53.32S1037.17,2294.75,1037.17,2324.2Z" transform="translate(-34.3 -24.9)"/><path class="cls-37" d="M626.29,2381.2c-201,0-411.12-19.19-411.12-56.22,0-2,.73-5.61,2.76-5.61s1.16,2.8,1.16,4.83c0,23.48,167.23,49.64,407.2,49.64s407.2-26.16,407.2-49.64c0-2,.35-3.93,2.38-3.93s1.54,2.71,1.54,4.74C1037.41,2362,827.26,2381.2,626.29,2381.2Z" transform="translate(-34.3 -24.9)"/><path class="cls-21" d="M587.46,2327.17c4-2.79,8.32-5.54,12.92-8.25a80.65,80.65,0,0,1,17.65-7.36,168.48,168.48,0,0,1,27.08-5.36,344,344,0,0,1,40.57-2.19q23.82-.12,44.72,1.51a305.91,305.91,0,0,1,36.78,4.87q15.83,3.24,25.82,8t11.8,10.94l46.26.47a45.26,45.26,0,0,1,8.87.82c2.59.53,3.84,1.19,3.84,2l0,3.81-59.48-.57q-3.12,7-15.94,12.8t-32.62,10.06l-21.66-3a25.39,25.39,0,0,1-4.78-1.13c-1.25-.46-1.86-1-1.86-1.49,0-.73,1.67-1.57,5-2.51s7.13-2.1,11.34-3.49a113.82,113.82,0,0,0,12.41-4.91c4-1.88,6.74-4.14,8.14-6.76L624,2334a133.9,133.9,0,0,1-12.4,8,80.58,80.58,0,0,1-18.21,7.07,191.19,191.19,0,0,1-28.25,5.1,399.35,399.35,0,0,1-42.59,2.09c-12.87.06-25.39-.43-37.67-1.46a257.38,257.38,0,0,1-32.68-4.66q-14.28-3.1-23.45-7.68c-6.08-3.05-9.5-6.55-10.21-10.51l-38.08-.39a50.43,50.43,0,0,1-9-.8c-2.63-.5-4-1.18-4-2l0-3.81,52.07.49c2.31-4,7-7.51,14.24-10.49A162.72,162.72,0,0,1,460.2,2307l17.44,2.4c5.29.74,7.92,1.61,7.93,2.61,0,.54-1.07,1.21-3.26,2s-4.81,1.76-7.82,2.87a71,71,0,0,0-8.67,3.91,18.28,18.28,0,0,0-6.35,5.08ZM459,2332.37c1,2.49,3.38,4.64,6.91,6.45a54.67,54.67,0,0,0,13.24,4.47,135.42,135.42,0,0,0,17.83,2.57q9.94.81,20.79.77a220.35,220.35,0,0,0,22.07-1.09,128.2,128.2,0,0,0,16.51-2.8,77.24,77.24,0,0,0,12.42-4.1,69.48,69.48,0,0,0,9.48-5.07ZM764.6,2329c-1-2.53-3.59-4.75-7.56-6.66a68.65,68.65,0,0,0-15.22-4.8,167.79,167.79,0,0,0-21.57-2.89q-12.27-.95-27.12-.88a207.34,207.34,0,0,0-22.71,1.18,117.51,117.51,0,0,0-16.51,3,60.38,60.38,0,0,0-11.86,4.39,83.54,83.54,0,0,0-9.1,5.36Z" transform="translate(-34.3 -24.9)"/><path class="cls-38" d="M626.35,2276.65c-183.21,0-374,16.13-404.48,47.33a36.82,36.82,0,0,1,3.34,3.51c25.72-21.66,183.23-43.48,401.14-43.48,223.5,0,383.53,22.95,402.92,45.15a38.78,38.78,0,0,1,3.07-3.48C1007.14,2293.37,812.8,2276.65,626.35,2276.65Z" transform="translate(-34.3 -24.9)"/><path class="cls-39" d="M101.19,2228.48v91.13c0,29.45,184,53.32,410.88,53.32S923,2349.06,923,2319.61v-91.13Z" transform="translate(-34.3 -24.9)"/><ellipse class="cls-40" cx="477.77" cy="2203.58" rx="410.88" ry="53.32"/><path class="cls-41" d="M512.07,2285.47c-201,0-411.12-19.19-411.12-56.21,0-2,.72-5.61,2.76-5.61s1.16,2.79,1.16,4.83c0,23.48,167.23,49.64,407.2,49.64s407.2-26.16,407.2-49.64c0-2,.34-3.94,2.38-3.94s1.54,2.71,1.54,4.75C923.19,2266.31,713,2285.47,512.07,2285.47Z" transform="translate(-34.3 -24.9)"/><path class="cls-21" d="M473.24,2231.45c4-2.79,8.32-5.54,12.91-8.26a81.07,81.07,0,0,1,17.65-7.36,169.73,169.73,0,0,1,27.09-5.36,344,344,0,0,1,40.57-2.19q23.82-.11,44.72,1.52a303.9,303.9,0,0,1,36.78,4.87q15.82,3.24,25.81,8t11.81,10.93l46.26.47a46,46,0,0,1,8.87.82c2.58.53,3.83,1.2,3.84,2l0,3.81-59.48-.57q-3.12,7-16,12.8T641.53,2263l-21.66-3a24.64,24.64,0,0,1-4.78-1.13c-1.25-.45-1.86-1-1.86-1.49,0-.73,1.67-1.57,5-2.5s7.14-2.11,11.35-3.5a113.82,113.82,0,0,0,12.41-4.91c4-1.88,6.74-4.13,8.14-6.76l-140.38-1.39a131.86,131.86,0,0,1-12.4,8,80.58,80.58,0,0,1-18.21,7.07,190,190,0,0,1-28.25,5.11,399.69,399.69,0,0,1-42.59,2.08c-12.87.06-25.4-.42-37.67-1.46a257.38,257.38,0,0,1-32.68-4.66q-14.28-3.1-23.45-7.68c-6.08-3.05-9.5-6.55-10.21-10.51l-38.09-.39a49.54,49.54,0,0,1-9-.79c-2.63-.51-4-1.19-4-2l0-3.81,52.07.5c2.31-4,7-7.52,14.24-10.49A162.72,162.72,0,0,1,346,2211.3l17.44,2.39c5.29.75,7.92,1.62,7.93,2.62,0,.54-1.07,1.2-3.26,2s-4.81,1.76-7.82,2.87a71.94,71.94,0,0,0-8.68,3.91,18.56,18.56,0,0,0-6.34,5.08Zm-128.48,5.19c1.05,2.5,3.38,4.65,6.92,6.46a55.54,55.54,0,0,0,13.24,4.47,135.35,135.35,0,0,0,17.82,2.56q10,.82,20.79.77a217.09,217.09,0,0,0,22.07-1.09,128.07,128.07,0,0,0,16.52-2.8,76.78,76.78,0,0,0,12.41-4.1,68.52,68.52,0,0,0,9.49-5.06Zm305.62-3.41c-1-2.53-3.6-4.75-7.56-6.65a68.13,68.13,0,0,0-15.22-4.8,167.65,167.65,0,0,0-21.57-2.9q-12.27-.95-27.12-.88a210.22,210.22,0,0,0-22.72,1.18,117.94,117.94,0,0,0-16.51,3,59.9,59.9,0,0,0-11.85,4.38,84.2,84.2,0,0,0-9.1,5.36Z" transform="translate(-34.3 -24.9)"/><path class="cls-42" d="M512.12,2180.93c-183.2,0-374,16.12-404.47,47.33a38.18,38.18,0,0,1,3.34,3.51c25.71-21.67,183.23-43.48,401.13-43.48,223.5,0,383.54,22.95,402.93,45.15a36.2,36.2,0,0,1,3.07-3.48C892.92,2197.65,698.58,2180.93,512.12,2180.93Z" transform="translate(-34.3 -24.9)"/><path class="cls-43" d="M199.75,2133v91.14c0,29.44,184,53.32,410.88,53.32s410.88-23.88,410.88-53.32V2133Z" transform="translate(-34.3 -24.9)"/><ellipse class="cls-44" cx="576.32" cy="2108.13" rx="410.88" ry="53.32"/><path class="cls-45" d="M610.62,2190c-201,0-411.11-19.2-411.11-56.22,0-2,.72-5.61,2.76-5.61s1.15,2.8,1.15,4.83c0,23.48,167.24,49.64,407.2,49.64s407.2-26.16,407.2-49.64c0-2,.35-3.94,2.38-3.94s1.55,2.72,1.55,4.75C1021.75,2170.86,811.59,2190,610.62,2190Z" transform="translate(-34.3 -24.9)"/><path class="cls-21" d="M571.8,2136c4-2.79,8.32-5.54,12.91-8.26a82.07,82.07,0,0,1,17.65-7.36,168.73,168.73,0,0,1,27.09-5.35,344,344,0,0,1,40.57-2.19q23.82-.12,44.72,1.51a303.71,303.71,0,0,1,36.77,4.87q15.84,3.24,25.82,8t11.8,10.94l46.27.47a45.34,45.34,0,0,1,8.87.82c2.58.52,3.83,1.19,3.84,2l0,3.81-59.48-.58q-3.14,7-15.95,12.81t-32.61,10.06l-21.66-3a26.2,26.2,0,0,1-4.78-1.13c-1.25-.46-1.86-1-1.86-1.49,0-.74,1.67-1.57,5-2.51s7.13-2.1,11.34-3.49a115.22,115.22,0,0,0,12.42-4.91c4-1.89,6.73-4.14,8.14-6.76l-140.38-1.39a133.9,133.9,0,0,1-12.4,8,81,81,0,0,1-18.21,7.08,191.43,191.43,0,0,1-28.25,5.1,399.41,399.41,0,0,1-42.6,2.09c-12.86.06-25.39-.43-37.66-1.46a259.2,259.2,0,0,1-32.68-4.66q-14.29-3.11-23.45-7.68t-10.21-10.52l-38.09-.39a49.57,49.57,0,0,1-9-.79c-2.62-.51-4-1.18-4-2v-3.81l52.07.5c2.3-4,7-7.51,14.24-10.49a162.88,162.88,0,0,1,26.42-8l17.44,2.4c5.3.74,7.93,1.61,7.94,2.61,0,.54-1.07,1.21-3.27,2s-4.81,1.76-7.81,2.87a70.42,70.42,0,0,0-8.68,3.91,18.33,18.33,0,0,0-6.34,5.08Zm-128.48,5.19c1.05,2.5,3.38,4.65,6.92,6.46a55.17,55.17,0,0,0,13.23,4.47,135.67,135.67,0,0,0,17.83,2.57q9.94.81,20.79.76a214.38,214.38,0,0,0,22.07-1.09,128.49,128.49,0,0,0,16.52-2.79,77.11,77.11,0,0,0,12.41-4.1,69.62,69.62,0,0,0,9.49-5.07Zm305.62-3.4c-1.05-2.53-3.6-4.75-7.57-6.66a67.86,67.86,0,0,0-15.21-4.8,169.36,169.36,0,0,0-21.58-2.9q-12.27-.94-27.11-.87a207.54,207.54,0,0,0-22.72,1.18,118,118,0,0,0-16.51,3,60.51,60.51,0,0,0-11.85,4.39,84.17,84.17,0,0,0-9.1,5.35Z" transform="translate(-34.3 -24.9)"/><path class="cls-46" d="M610.68,2085.48c-183.2,0-374,16.12-404.47,47.33a38,38,0,0,1,3.33,3.51c25.72-21.67,183.23-43.48,401.14-43.48,223.5,0,383.54,22.95,402.93,45.15a37.45,37.45,0,0,1,3.07-3.48C991.48,2102.2,797.14,2085.48,610.68,2085.48Z" transform="translate(-34.3 -24.9)"/><path class="cls-47" d="M148.48,2037.31v91.13c0,29.45,184,53.32,410.88,53.32s410.88-23.87,410.88-53.32v-91.13Z" transform="translate(-34.3 -24.9)"/><ellipse class="cls-48" cx="525.06" cy="2012.41" rx="410.88" ry="53.32"/><path class="cls-49" d="M559.36,2094.3c-201,0-411.12-19.19-411.12-56.22,0-2,.73-5.6,2.76-5.6s1.16,2.79,1.16,4.83c0,23.48,167.23,49.64,407.2,49.64s407.2-26.16,407.2-49.64c0-2,.35-3.94,2.38-3.94s1.54,2.71,1.54,4.74C970.48,2075.14,760.33,2094.3,559.36,2094.3Z" transform="translate(-34.3 -24.9)"/><path class="cls-21" d="M520.54,2040.28c4-2.79,8.32-5.54,12.91-8.26a80.86,80.86,0,0,1,17.65-7.36,169.81,169.81,0,0,1,27.08-5.36,344,344,0,0,1,40.58-2.19q23.81-.12,44.72,1.52a302,302,0,0,1,36.77,4.87q15.84,3.24,25.82,8t11.8,10.94l46.26.47a45.26,45.26,0,0,1,8.87.82c2.59.53,3.84,1.19,3.84,2l0,3.81-59.47-.57q-3.14,7-15.95,12.8t-32.61,10.06l-21.67-3a25.59,25.59,0,0,1-4.78-1.13c-1.25-.45-1.85-1-1.86-1.49,0-.73,1.68-1.57,5-2.5s7.13-2.11,11.34-3.5a113.82,113.82,0,0,0,12.41-4.91c4-1.88,6.74-4.14,8.15-6.76l-140.39-1.39a133.9,133.9,0,0,1-12.4,8,80.39,80.39,0,0,1-18.21,7.07,189.75,189.75,0,0,1-28.25,5.11,402.22,402.22,0,0,1-42.59,2.08c-12.87.06-25.39-.43-37.66-1.46a257.55,257.55,0,0,1-32.69-4.66q-14.28-3.11-23.45-7.68c-6.08-3-9.5-6.55-10.2-10.51l-38.09-.39a50.48,50.48,0,0,1-9-.79c-2.63-.51-4-1.19-4-2l0-3.81,52.08.49c2.3-4,7-7.51,14.23-10.48a162.33,162.33,0,0,1,26.43-7.95l17.44,2.39c5.3.74,7.93,1.61,7.93,2.61,0,.54-1.07,1.21-3.26,2s-4.81,1.76-7.82,2.87a71,71,0,0,0-8.67,3.91,18.7,18.7,0,0,0-6.35,5.08Zm-128.48,5.19c1,2.5,3.38,4.65,6.92,6.46a54.88,54.88,0,0,0,13.23,4.46A135.42,135.42,0,0,0,430,2059q9.94.83,20.79.77a217.4,217.4,0,0,0,22.07-1.09,127.9,127.9,0,0,0,16.51-2.8,76.91,76.91,0,0,0,12.42-4.1,69.48,69.48,0,0,0,9.48-5.07Zm305.61-3.41c-1-2.53-3.59-4.75-7.56-6.65a67.92,67.92,0,0,0-15.22-4.81,167.54,167.54,0,0,0-21.57-2.89q-12.27-.95-27.12-.88a207.48,207.48,0,0,0-22.71,1.18,116.24,116.24,0,0,0-16.51,3,60,60,0,0,0-11.86,4.38,84,84,0,0,0-9.09,5.36Z" transform="translate(-34.3 -24.9)"/><path class="cls-50" d="M559.42,1989.76c-183.21,0-374,16.12-404.48,47.32a36.92,36.92,0,0,1,3.34,3.52c25.72-21.67,183.23-43.49,401.14-43.49,223.5,0,383.54,23,402.92,45.16a36.2,36.2,0,0,1,3.07-3.48C940.21,2006.47,745.88,1989.76,559.42,1989.76Z" transform="translate(-34.3 -24.9)"/><path class="cls-51" d="M1087.12,2101.55l-74.27,52.83c-24,17.07,63.18,180.81,194.71,365.72s257.61,321,281.61,303.91l74.26-52.82Z" transform="translate(-34.3 -24.9)"/><path class="cls-52" d="M1563.43,2771.19c-24,17.07-150.08-119-281.61-303.91s-218.7-348.66-194.7-365.73,150.07,119,281.6,303.91S1587.43,2754.12,1563.43,2771.19Z" transform="translate(-34.3 -24.9)"/><path class="cls-53" d="M1278.83,2469.41c-116.49-163.77-222.66-346.14-192.49-367.6,1.66-1.18,5-2.66,6.17-1s-1.61,2.56-3.26,3.74c-19.14,13.61,56.48,165,195.57,360.59s257.34,316.66,276.48,303.05c1.65-1.18,3.41-2,4.59-.34s-1.32,2.83-3,4C1532.74,2793.31,1395.31,2633.17,1278.83,2469.41Z" transform="translate(-34.3 -24.9)"/><path class="cls-21" d="M1300.35,2406.45c4.61,1.67,9.33,3.57,14.21,5.74a81.12,81.12,0,0,1,16.23,10.12,168.56,168.56,0,0,1,20.06,19,343.65,343.65,0,0,1,25.3,31.79q13.9,19.35,24.69,37.32a304.44,304.44,0,0,1,17.35,32.79q6.54,14.79,8.44,25.68t-2.08,16l26.44,38a45.23,45.23,0,0,1,4.47,7.71c1.07,2.41,1.25,3.81.6,4.28L1453,2637l-34-48.8q-7.52,1.5-19.67-5.57t-27.1-20.75l-10.1-19.4a24.43,24.43,0,0,1-1.85-4.55c-.36-1.28-.3-2.06.13-2.38q.9-.63,5,2.65t9.42,7.21a113.46,113.46,0,0,0,11.19,7.27c3.88,2.2,7.28,3.09,10.23,2.72l-80.23-115.2a134.2,134.2,0,0,1-13.71-5.47A80.75,80.75,0,0,1,1285.9,2424a191.16,191.16,0,0,1-20.53-20.06,401.17,401.17,0,0,1-26.39-33.5q-11.26-15.67-20.64-31.54a260.17,260.17,0,0,1-15.15-29.33q-5.75-13.44-7.33-23.56c-1-6.73-.17-11.54,2.65-14.41l-21.76-31.27a49.55,49.55,0,0,1-4.57-7.79c-1.11-2.44-1.33-3.92-.65-4.41l3.1-2.22,29.78,42.72c4.6-.45,10.19,1.37,16.79,5.52a162.31,162.31,0,0,1,21.8,16.93l8.16,15.6c2.46,4.74,3.28,7.39,2.46,8-.43.31-1.6-.18-3.52-1.5s-4.22-2.9-6.87-4.71a72.41,72.41,0,0,0-8.21-4.8,18.46,18.46,0,0,0-7.82-2.22Zm-78.7-101.68c-1.43,2.3-1.83,5.45-1.26,9.38a55.5,55.5,0,0,0,4,13.37,135.12,135.12,0,0,0,8.25,16q5.1,8.58,11.42,17.38a217.59,217.59,0,0,0,13.68,17.36,129,129,0,0,0,11.85,11.83,76.44,76.44,0,0,0,10.54,7.74,68.44,68.44,0,0,0,9.63,4.8Zm179.92,247.07c1.45-2.32,1.78-5.69,1-10a68.06,68.06,0,0,0-4.91-15.18,167.11,167.11,0,0,0-10.15-19.26q-6.33-10.54-15-22.6a206.53,206.53,0,0,0-14.13-17.83,117.47,117.47,0,0,0-12-11.72,60.89,60.89,0,0,0-10.44-7.12,84.79,84.79,0,0,0-9.64-4.3Z" transform="translate(-34.3 -24.9)"/><path class="cls-54" d="M1364.05,2408.86c-106.19-149.29-229.89-295.39-273-302.17a35.93,35.93,0,0,1-.93,4.75c32.57,8.4,141.64,124.11,268,301.68,129.54,182.13,203.6,325.84,196.75,354.51a38.09,38.09,0,0,1,4.62.48C1571.15,2728.85,1472.13,2560.8,1364.05,2408.86Z" transform="translate(-34.3 -24.9)"/><path class="cls-55" d="M2221,1491.33a51.15,51.15,0,0,0,16-21.14c4.23-10.88,1.25-15.72,6.56-22.51,6.73-8.62,20.51-12.32,30-8.11a12.07,12.07,0,0,1,5.94,4.7c4.2,7.09-5.12,19.38-12.57,25.92-5.6,4.92-7.91,4.56-13.85,8.75-5.79,4.09-13.09,11.14-19,24.06Z" transform="translate(-34.3 -24.9)"/><path class="cls-56" d="M2532.58,1431.82a51.23,51.23,0,0,1-23-13.21c-8.14-8.37-7.29-14-14.83-18.17-9.56-5.3-23.69-3.34-30.74,4.22a12.09,12.09,0,0,0-3.64,6.65c-1.1,8.17,12.28,15.84,21.68,19,7.08,2.35,9.07,1.11,16.17,2.65,6.93,1.51,16.4,5.15,26.84,14.76Z" transform="translate(-34.3 -24.9)"/><path class="cls-57" d="M2502.8,1441.92c-4.14,19.7,17.16,37.23,32.53,54.44,30.81,34.52,63.07,96.11,51.23,149-6.47,28.87-27.21,60.1-56.49,74.89-31.52,15.93-50.4,1.44-83.19,20.35-2.42,1.4-43.88,26-45.08,59.15-1.49,40.93,58.68,84.46,110.19,87.8,94.19,6.09,207.69-119.18,202.4-243.48-5.75-135.32-151.15-242.73-193-224.52C2514.82,1422.38,2505.13,1430.83,2502.8,1441.92Z" transform="translate(-34.3 -24.9)"/><polygon class="cls-58" points="2426.57 2818.24 2423.2 2852.53 2439.17 2849.63 2449.9 2817.42 2426.57 2818.24"/><path class="cls-59" d="M2558.17,2209.67a862.51,862.51,0,0,1-18.25,155.5c-9.68,45.76-15.31,53.67-18.33,85.3-6.57,68.85,15.62,78.71,19.69,156.52,4.5,85.93-18.35,154.22-27.33,180.27a491.59,491.59,0,0,1-22.25,53.94c-7.88,6.87-19.93,4.23-32.63,1.65-4.68-77.94-10.51-151.28-15.19-229.22l-45.27-351.73Z" transform="translate(-34.3 -24.9)"/><path class="cls-60" d="M2459.07,2842.85c-4.68-77.94-10.51-151.28-15.19-229.22l-45.27-351.73,159.56-52.23c-.11,4-.31,7.92-.47,11.87-74.62,64.8-89.22,116.14-88.49,151.15.88,42.47,24.1,63.52,19.56,125.1-3.24,44-16.47,51.78-16.47,91.51,0,51.15,22,79.92,32.66,109.48,10.33,28.57,14,69-5.95,126.59-2.63,6-5.1,11.27-7.31,15.83C2483.82,2848.07,2471.77,2845.44,2459.07,2842.85Z" transform="translate(-34.3 -24.9)"/><path class="cls-61" d="M2466.86,2889.12c7.56-9.37,14.5-8.68,15.77-15,1-5-2.19-11-6.83-13.24-6.52-3.12-14.23,2.13-16,3.32-11.82,8-8.3,20.17-19.49,25.7-2.26,1.12-5.84,2.32-9.56,6-1.59,1.55-5.5,5.38-4.51,7.94,1.15,3,8.27,2.71,15.05,2.46,8.13-.29,12.2-.43,16.06-3C2462.73,2899.78,2461,2896.35,2466.86,2889.12Z" transform="translate(-34.3 -24.9)"/><polygon class="cls-62" points="2416.51 2570.92 2446.37 2582.61 2455.08 2568.91 2431.73 2553.23 2416.51 2570.92"/><path class="cls-63" d="M2496.4,2614.76c-1.75-11.91,3.46-16.55-.35-21.78-3-4.12-9.58-5.88-14.36-4-6.71,2.68-8.08,11.9-8.39,14-2.11,14.16,9.19,19.79,5.66,31.77-.71,2.41-2.25,5.86-2.11,11.07.07,2.21.23,7.69,2.78,8.7,3,1.16,7.6-4.25,12-9.39,5.3-6.17,8-9.26,8.72-13.81C2501.43,2625,2497.76,2624,2496.4,2614.76Z" transform="translate(-34.3 -24.9)"/><path class="cls-64" d="M2321.62,2155.55c-55.63,113.43-74.52,208-81.66,269.77-4.6,39.71-4.15,64.27,7.29,88.95,40.95,88.34,183.88,94.17,205.61,94.78q10.71-21.95,21.43-43.9c-13.15-24.39-36.1-58.25-75.39-83-30.22-19-42-14.94-49.58-27.71-30.27-51.23,133.14-162.2,108.73-236.07C2449.6,2192.85,2417.1,2166.94,2321.62,2155.55Z" transform="translate(-34.3 -24.9)"/><path class="cls-65" d="M2442.16,1747.8c-60.11,10.33-105.88,21.07-126.31,52.55-21.58,33.26,12.73,58.29,22.06,131.25,14.29,111.69-49.93,153.42-31.46,265.89a286,286,0,0,0,12.52,48.64,115.09,115.09,0,0,0,47.5,59,297.71,297.71,0,0,0,60.15,29.07c61,21.32,91,8.93,173,13.61,134.13,7.67,154.22,46.57,214.82,22.65,61.24-24.18,105.57-89.51,92.58-117.43-7.78-16.72-32.32-6.28-67.51-26.81-45.36-26.45-37.75-62.56-74.55-93.53-52.86-44.49-103.71.44-148.93-38.24-45.73-39.14-51.19-134.3-31.75-191,12.7-37,12.93-77.24,22.36-115.21a24.46,24.46,0,0,0-.56-13.89c-7.5-21.82-47.43-26-77.61-28.89C2482.46,1741.13,2447.1,1747,2442.16,1747.8Z" transform="translate(-34.3 -24.9)"/><path class="cls-66" d="M2807.43,2328.13c-18.57-12.38-8.51-47.46-36-66.09-25.53-17.28-45.44,5.32-83.06-6.21-48.26-14.79-45.74-61.25-92-76.08-33.26-10.67-43.29,10.56-91.26,11.48s-110.65-18.85-150.4-69.61a170.7,170.7,0,0,1-31.46-65.85c-12.81,41.37-26.71,81.36-16.8,141.72a287.23,287.23,0,0,0,17.49,61.7,85.42,85.42,0,0,0,30.34,37.9,300.4,300.4,0,0,0,72.34,37.14c61,21.32,91,8.93,173,13.61,134.13,7.67,154.22,46.57,214.82,22.65,39.14-15.46,71.29-47.7,86.06-76.26C2847.52,2332.79,2820.91,2337.11,2807.43,2328.13Z" transform="translate(-34.3 -24.9)"/><path class="cls-67" d="M2407.44,1643.77s-16.57,31.1-17.61,52.92,23.58,20.23,23.58,20.23l-.93,13.76a29.84,29.84,0,0,1-19.47,26l-9.72,3.57s63.42,13.58,98.06-10.89l-10-1a29.82,29.82,0,0,1-26.78-26.66l-.6-5.89S2455,1647.83,2407.44,1643.77Z" transform="translate(-34.3 -24.9)"/><path class="cls-68" d="M2251.26,1497.53c9.41,17.79-6.23,40.52-16.25,61.29-20.11,41.68-34.13,109.79-8.16,157.33,14.18,26,42.72,50.26,75,56.41,34.69,6.61,48.84-12.52,85.57-3.38,2.71.67,49.35,12.86,59.65,44.42,12.72,38.93-33.11,97.37-81.7,114.78-88.86,31.83-232.51-57.27-261.71-178.21-31.78-131.67,78.36-275,123.59-269C2234.32,1482.06,2246,1487.51,2251.26,1497.53Z" transform="translate(-34.3 -24.9)"/><path class="cls-69" d="M2417.35,1674.69c3.28-.27,6-4.43,8.23-3.19s2.09,7.35,0,11.61a15.33,15.33,0,0,1-5.94,6.37,40.28,40.28,0,0,1,7.1,16.08c3,15.76-5.41,28.44-8.89,35.86-15.71,33.44,8.73,86.32,35.55,113,21.79,21.7,32,13,45,30.7,25.33,34.51-9.63,72.43,3.46,118.87,19.92,70.61,131.42,91.61,136,92.43,1.82.32,3,.52,4.94.82,50,7.95,125.83,20,179.21-21.06,39.95-30.72,58.27-84.17,55.24-131.26-.79-12.38-4.54-59.4-42.85-97.77-6.08-6.09-42.09-42.07-90.75-42.51-25.77-.23-31,8.85-50.67,3.23-27-7.68-43.6-32.21-53.91-47.43-19-28-11.26-34-24.91-47.73-26.73-27-58.1-5.79-86.65-29.6-28.15-23.46-11.17-55.29-38.34-75.6-28-20.94-81.65-13.63-93.08,11.31C2386.33,1640.28,2407.3,1675.52,2417.35,1674.69Z" transform="translate(-34.3 -24.9)"/></g></g></svg>