<svg xmlns="http://www.w3.org/2000/svg" xmlns:xlink="http://www.w3.org/1999/xlink" viewBox="0 0 2757.34 2755.49"><defs><style>.cls-1{mask:url(#mask);filter:url(#luminosity-noclip-2);}.cls-2{mix-blend-mode:multiply;fill:url(#linear-gradient);}.cls-3{isolation:isolate;}.cls-4{fill:url(#linear-gradient-2);}.cls-5{fill:url(#linear-gradient-3);}.cls-6{fill:#bdd0fb;}.cls-7{fill:url(#linear-gradient-4);}.cls-8{fill:#91b3fa;}.cls-9{fill:#7d97f4;}.cls-10{fill:url(#linear-gradient-5);}.cls-11{mask:url(#mask-2);}.cls-12{opacity:0.53;fill:url(#linear-gradient-6);}.cls-13{fill:url(#linear-gradient-7);}.cls-14{fill:url(#linear-gradient-8);}.cls-15{fill:url(#linear-gradient-9);}.cls-16{fill:url(#linear-gradient-10);}.cls-17{fill:url(#linear-gradient-11);}.cls-18,.cls-22,.cls-40{fill:#fff;}.cls-18{opacity:0.78;}.cls-19{fill:url(#linear-gradient-12);}.cls-20{fill:url(#linear-gradient-13);}.cls-21{fill:url(#linear-gradient-14);}.cls-22{mix-blend-mode:soft-light;}.cls-23{fill:url(#linear-gradient-15);}.cls-24{fill:url(#linear-gradient-16);}.cls-25{fill:url(#linear-gradient-17);}.cls-26{fill:url(#linear-gradient-18);}.cls-27{fill:url(#linear-gradient-19);}.cls-28{fill:url(#linear-gradient-20);}.cls-29{fill:url(#linear-gradient-21);}.cls-30{fill:url(#linear-gradient-22);}.cls-31{fill:url(#linear-gradient-23);}.cls-32{fill:url(#linear-gradient-24);}.cls-33{fill:url(#linear-gradient-25);}.cls-34{fill:url(#linear-gradient-26);}.cls-35{fill:url(#linear-gradient-27);}.cls-36{fill:url(#linear-gradient-28);}.cls-37{fill:url(#linear-gradient-29);}.cls-38{fill:url(#linear-gradient-30);}.cls-39{fill:url(#linear-gradient-31);}.cls-41{fill:url(#linear-gradient-32);}.cls-42{fill:url(#linear-gradient-33);}.cls-43{fill:url(#linear-gradient-34);}.cls-44{fill:url(#linear-gradient-35);}.cls-45{fill:url(#linear-gradient-36);}.cls-46{fill:url(#linear-gradient-37);}.cls-47{fill:url(#linear-gradient-38);}.cls-48{fill:url(#linear-gradient-39);}.cls-49{fill:url(#linear-gradient-40);}.cls-50{fill:url(#linear-gradient-41);}.cls-51{fill:url(#linear-gradient-42);}.cls-52{fill:url(#linear-gradient-43);}.cls-53{fill:url(#linear-gradient-44);}.cls-54{fill:url(#linear-gradient-45);}.cls-55{fill:url(#linear-gradient-46);}.cls-56{fill:url(#linear-gradient-47);}.cls-57{fill:url(#linear-gradient-48);}.cls-58{fill:url(#linear-gradient-49);}.cls-59{fill:url(#linear-gradient-50);}.cls-60{fill:url(#linear-gradient-51);}.cls-61{fill:url(#linear-gradient-52);}.cls-62{fill:url(#linear-gradient-53);}.cls-63{fill:url(#linear-gradient-54);}.cls-64{fill:url(#linear-gradient-55);}.cls-65{fill:url(#linear-gradient-56);}.cls-66{fill:url(#linear-gradient-57);}.cls-67{fill:url(#linear-gradient-58);}.cls-68{fill:url(#linear-gradient-59);}.cls-69{fill:url(#linear-gradient-60);}.cls-70{fill:url(#linear-gradient-61);}.cls-71{fill:url(#linear-gradient-62);}.cls-72{filter:url(#luminosity-noclip);}</style><filter id="luminosity-noclip" x="42.83" y="-9592" width="1768.54" height="32766" filterUnits="userSpaceOnUse" color-interpolation-filters="sRGB"><feFlood flood-color="#fff" result="bg"/><feBlend in="SourceGraphic" in2="bg"/></filter><mask id="mask" x="42.83" y="-9592" width="1768.54" height="32766" maskUnits="userSpaceOnUse"><g class="cls-72"/></mask><linearGradient id="linear-gradient" x1="1591.97" y1="651.52" x2="-672.39" y2="3549.2" gradientUnits="userSpaceOnUse"><stop offset="0" stop-color="#fff"/><stop offset="1"/></linearGradient><linearGradient id="linear-gradient-2" x1="2921.43" y1="3043.61" x2="1064.46" y2="1066.84" gradientUnits="userSpaceOnUse"><stop offset="0" stop-color="#dae3fe"/><stop offset="1" stop-color="#e9effd"/></linearGradient><linearGradient id="linear-gradient-3" x1="1945.13" y1="1696.87" x2="2541.07" y2="1696.87" gradientUnits="userSpaceOnUse"><stop offset="0" stop-color="#4f52ff"/><stop offset="1" stop-color="#4042e2"/></linearGradient><linearGradient id="linear-gradient-4" x1="2004.21" y1="2112.34" x2="2355.52" y2="2112.34" xlink:href="#linear-gradient-2"/><linearGradient id="linear-gradient-5" x1="2027.48" y1="787.9" x2="1177.86" y2="-978.16" gradientUnits="userSpaceOnUse"><stop offset="0" stop-color="#4042e2"/><stop offset="1" stop-color="#4f52ff"/></linearGradient><filter id="luminosity-noclip-2" x="42.83" y="200.56" width="1768.54" height="2390.98" filterUnits="userSpaceOnUse" color-interpolation-filters="sRGB"><feFlood flood-color="#fff" result="bg"/><feBlend in="SourceGraphic" in2="bg"/></filter><mask id="mask-2" x="42.83" y="200.56" width="1768.54" height="2390.98" maskUnits="userSpaceOnUse"><g class="cls-1"><path class="cls-2" d="M271.75,257.17l1470.51-56.61c-60.65,449-35,1363.4-11.91,2264.54a141.52,141.52,0,0,0,81,124.34h0s-980.82,11.3-1402.25-18.59a212.41,212.41,0,0,1-194.93-180.5C156.34,2004.26,17.92,1006.86,46.73,478.81,53.32,357.89,150.74,261.83,271.75,257.17Z"/></g></mask><linearGradient id="linear-gradient-6" x1="1591.97" y1="651.52" x2="-672.39" y2="3549.2" gradientUnits="userSpaceOnUse"><stop offset="0" stop-color="#fff"/><stop offset="1" stop-color="#fff"/></linearGradient><linearGradient id="linear-gradient-7" x1="251.95" y1="1026.86" x2="487.04" y2="1026.86" xlink:href="#linear-gradient-2"/><linearGradient id="linear-gradient-8" x1="556.06" y1="924.69" x2="1552.22" y2="924.69" xlink:href="#linear-gradient-2"/><linearGradient id="linear-gradient-9" x1="574.32" y1="1084.61" x2="1242.97" y2="1084.61" xlink:href="#linear-gradient-2"/><linearGradient id="linear-gradient-10" x1="251.95" y1="1484.01" x2="487.04" y2="1484.01" xlink:href="#linear-gradient-2"/><linearGradient id="linear-gradient-11" x1="556.06" y1="1381.83" x2="1552.22" y2="1381.83" xlink:href="#linear-gradient-2"/><linearGradient id="linear-gradient-12" x1="251.95" y1="1941.15" x2="487.04" y2="1941.15" xlink:href="#linear-gradient-2"/><linearGradient id="linear-gradient-13" x1="556.06" y1="1838.98" x2="1552.22" y2="1838.98" xlink:href="#linear-gradient-2"/><linearGradient id="linear-gradient-14" x1="574.32" y1="1998.89" x2="1242.97" y2="1998.89" xlink:href="#linear-gradient-2"/><linearGradient id="linear-gradient-15" x1="1360.98" y1="1842.6" x2="1048" y2="2643.93" gradientUnits="userSpaceOnUse"><stop offset="0" stop-color="#09005d"/><stop offset="1" stop-color="#1a0f91"/></linearGradient><linearGradient id="linear-gradient-16" x1="-2508.91" y1="-10895.44" x2="-2452.09" y2="-10895.44" gradientTransform="translate(-3428.39 -8589.49) rotate(168.9)" gradientUnits="userSpaceOnUse"><stop offset="0" stop-color="#febbba"/><stop offset="1" stop-color="#ff928e"/></linearGradient><linearGradient id="linear-gradient-17" x1="-205.02" y1="1562.99" x2="53.7" y2="1562.99" gradientTransform="translate(1290.1)" xlink:href="#linear-gradient-16"/><linearGradient id="linear-gradient-18" x1="1852.71" y1="694.59" x2="1695.11" y2="1005.36" xlink:href="#linear-gradient-15"/><linearGradient id="linear-gradient-19" x1="2104.36" y1="822.22" x2="1946.76" y2="1132.98" xlink:href="#linear-gradient-15"/><linearGradient id="linear-gradient-20" x1="373.86" y1="1304.21" x2="332.38" y2="1179.75" gradientTransform="translate(1290.1)" xlink:href="#linear-gradient-16"/><linearGradient id="linear-gradient-21" x1="1567.06" y1="1151.47" x2="1716.17" y2="1216.31" gradientTransform="matrix(1, 0, 0, 1, 0, 0)" xlink:href="#linear-gradient-16"/><linearGradient id="linear-gradient-22" x1="4483.46" y1="5363.87" x2="4661.58" y2="5363.87" gradientTransform="matrix(-0.69, -0.73, -0.73, 0.69, 8653.28, 828.83)" xlink:href="#linear-gradient-15"/><linearGradient id="linear-gradient-23" x1="1557.77" y1="1172.84" x2="1706.88" y2="1237.68" gradientTransform="matrix(1, 0, 0, 1, 0, 0)" xlink:href="#linear-gradient-16"/><linearGradient id="linear-gradient-24" x1="1950.87" y1="2746.53" x2="2136.19" y2="2746.53" gradientTransform="matrix(-1, 0, 0, 1, 3801.1, 0)" xlink:href="#linear-gradient-5"/><linearGradient id="linear-gradient-25" x1="2297.52" y1="2573.14" x2="1626.51" y2="2764.4" xlink:href="#linear-gradient-15"/><linearGradient id="linear-gradient-26" x1="1967.98" y1="2659.5" x2="2020.18" y2="2659.5" gradientTransform="matrix(-1, 0, 0, 1, 3801.1, 0)" xlink:href="#linear-gradient-16"/><linearGradient id="linear-gradient-27" x1="1581.43" y1="2742.53" x2="1652.44" y2="2742.53" gradientTransform="matrix(-1, 0, 0, 1, 3801.1, 0)" xlink:href="#linear-gradient-5"/><linearGradient id="linear-gradient-28" x1="1923.44" y1="2534.27" x2="2341.61" y2="2806.57" xlink:href="#linear-gradient-15"/><linearGradient id="linear-gradient-29" x1="1636.12" y1="2615.98" x2="1698.51" y2="2615.98" gradientTransform="matrix(-1, 0, 0, 1, 3801.1, 0)" xlink:href="#linear-gradient-16"/><linearGradient id="linear-gradient-30" x1="-705.67" y1="2707.58" x2="246.25" y2="1391.5" gradientTransform="matrix(-1, 0, 0, 1, 1468.1, 0)" xlink:href="#linear-gradient-15"/><linearGradient id="linear-gradient-31" x1="-506.13" y1="3171.42" x2="-511.92" y2="2636.89" gradientTransform="translate(2043.92 -673.78) rotate(-7.3)" gradientUnits="userSpaceOnUse"><stop offset="0" stop-color="#ff928e"/><stop offset="1" stop-color="#fe7062"/></linearGradient><linearGradient id="linear-gradient-32" x1="-600.2" y1="2526.76" x2="-602.77" y2="2464.37" gradientTransform="translate(2043.92 -673.78) rotate(-7.3)" gradientUnits="userSpaceOnUse"><stop offset="0" stop-color="#e1473d"/><stop offset="1" stop-color="#e9605a"/></linearGradient><linearGradient id="linear-gradient-33" x1="-603.45" y1="2433.09" x2="-590.59" y2="2611.89" xlink:href="#linear-gradient-32"/><linearGradient id="linear-gradient-34" x1="-426.39" y1="2519.61" x2="-428.97" y2="2457.21" xlink:href="#linear-gradient-32"/><linearGradient id="linear-gradient-35" x1="-430.11" y1="2420.64" x2="-417.25" y2="2599.43" xlink:href="#linear-gradient-32"/><linearGradient id="linear-gradient-36" x1="-501.51" y1="2333.58" x2="-518.87" y2="2460.9" xlink:href="#linear-gradient-32"/><linearGradient id="linear-gradient-37" x1="1768.73" y1="1793.98" x2="1709.91" y2="1459.91" gradientTransform="matrix(1, 0, 0, 1, 0, 0)" xlink:href="#linear-gradient-16"/><linearGradient id="linear-gradient-38" x1="-496.28" y1="2432.75" x2="-559.95" y2="3026.97" xlink:href="#linear-gradient-31"/><linearGradient id="linear-gradient-39" x1="-491.67" y1="2506.08" x2="-516.75" y2="2704.8" xlink:href="#linear-gradient-32"/><linearGradient id="linear-gradient-40" x1="-545.42" y1="2662" x2="-472.49" y2="2662" xlink:href="#linear-gradient-31"/><linearGradient id="linear-gradient-41" x1="1919.68" y1="1665.72" x2="1778.42" y2="1937.39" gradientTransform="matrix(1, 0, 0, 1, 0, 0)" xlink:href="#linear-gradient-16"/><linearGradient id="linear-gradient-42" x1="2204.16" y1="872.83" x2="2046.56" y2="1183.59" xlink:href="#linear-gradient-15"/><linearGradient id="linear-gradient-43" x1="2254.65" y1="1031.49" x2="1359.87" y2="2043.5" xlink:href="#linear-gradient-5"/><linearGradient id="linear-gradient-44" x1="-695.09" y1="2697.78" x2="-573.52" y2="2697.78" gradientTransform="translate(1290.1)" xlink:href="#linear-gradient-15"/><linearGradient id="linear-gradient-45" x1="-390.75" y1="2554.36" x2="-833.02" y2="2901.64" gradientTransform="translate(1290.1)" xlink:href="#linear-gradient-5"/><linearGradient id="linear-gradient-46" x1="-661.28" y1="2559.38" x2="-684.51" y2="2762.04" gradientTransform="translate(1290.1)" gradientUnits="userSpaceOnUse"><stop offset="0" stop-color="#a22b25"/><stop offset="1" stop-color="#c0423c"/></linearGradient><linearGradient id="linear-gradient-47" x1="-312.18" y1="2654.28" x2="-754.45" y2="3001.55" gradientTransform="translate(1290.1)" xlink:href="#linear-gradient-5"/><linearGradient id="linear-gradient-48" x1="-509.97" y1="2700.87" x2="-334.97" y2="2700.87" gradientTransform="translate(1290.1)" xlink:href="#linear-gradient-15"/><linearGradient id="linear-gradient-49" x1="-365.8" y1="2527.94" x2="-389.03" y2="2730.6" gradientTransform="translate(1020.88 34.89) rotate(-3.61)" xlink:href="#linear-gradient-46"/><linearGradient id="linear-gradient-50" x1="622.41" y1="2791.13" x2="794.33" y2="1532.96" xlink:href="#linear-gradient-3"/><linearGradient id="linear-gradient-51" x1="2531.37" y1="-1305.52" x2="1796.64" y2="-559.69" gradientTransform="translate(747.24 89.94) rotate(-7.69)" xlink:href="#linear-gradient-31"/><linearGradient id="linear-gradient-52" x1="699.25" y1="1406.94" x2="824.29" y2="1125.61" gradientTransform="matrix(1, 0, 0, 1, 0, 0)" xlink:href="#linear-gradient-46"/><linearGradient id="linear-gradient-53" x1="657.86" y1="966.49" x2="835.44" y2="1237.3" gradientTransform="matrix(1, 0, 0, 1, 0, 0)" xlink:href="#linear-gradient-46"/><linearGradient id="linear-gradient-54" x1="674.49" y1="1013.85" x2="807.83" y2="1170.03" xlink:href="#linear-gradient-15"/><linearGradient id="linear-gradient-55" x1="611.43" y1="996.94" x2="789.01" y2="1267.75" gradientTransform="matrix(1, 0, 0, 1, 0, 0)" xlink:href="#linear-gradient-46"/><linearGradient id="linear-gradient-56" x1="1663.15" y1="624.97" x2="928.41" y2="1370.8" gradientTransform="matrix(1, 0, 0, 1, 0, 0)" xlink:href="#linear-gradient-31"/><linearGradient id="linear-gradient-57" x1="1219.94" y1="1352.37" x2="880.67" y2="1521.14" gradientTransform="matrix(1, 0, 0, 1, 0, 0)" xlink:href="#linear-gradient-46"/><linearGradient id="linear-gradient-58" x1="1214.97" y1="1310.04" x2="1098.92" y2="1431.25" gradientTransform="matrix(1, 0, 0, 1, 0, 0)" xlink:href="#linear-gradient-46"/><linearGradient id="linear-gradient-59" x1="1221.55" y1="1350.37" x2="882.28" y2="1519.14" gradientTransform="matrix(1, 0, 0, 1, 0, 0)" xlink:href="#linear-gradient-46"/><linearGradient id="linear-gradient-60" x1="1363.33" y1="1636.73" x2="378.73" y2="1458.68" gradientTransform="matrix(1, 0, 0, 1, 0, 0)" xlink:href="#linear-gradient-46"/><linearGradient id="linear-gradient-61" x1="1013.78" y1="886.5" x2="124.82" y2="2564.55" gradientTransform="matrix(1, 0, 0, 1, 0, 0)" xlink:href="#linear-gradient-32"/><linearGradient id="linear-gradient-62" x1="1016.88" y1="888.15" x2="127.92" y2="2566.2" gradientTransform="matrix(1, 0, 0, 1, 0, 0)" xlink:href="#linear-gradient-32"/></defs><g class="cls-3"><g id="Illustration"><path class="cls-4" d="M2363.88,2250.54C2295.32,2321.2,2234,2362.74,2187,2394.1c-458,305.81-981.57,217.67-1143.44,187.54-261.16-48.6-481.61-82.89-671-254C-57.84,1938.77-36.9,1127.61,292,625.13,331,565.55,659.34,78.8,1184,10.21c12.83-1.68,22.4-2.63,30.79-3.52C1296-1.91,1799-47.26,2209.12,296.35c58.71,49.18,153.19,137.9,240.8,273.21C2770.27,1064.32,2771.29,1830.6,2363.88,2250.54Z"/><path class="cls-5" d="M2115.52,954.78l233.61-54.39s156.2-14,177.33,124.8,15,961.35,8.39,1131c-2.18,55.91-1.91,107.57,2.84,152.62,9.91,93.83-63.3,175.79-157.64,177.42l-434.92,7.53Z"/><path class="cls-6" d="M1991.23,2560.58s46.67-654.39,378.61-1053.29c4.33-5.2,11.83-3.89,14.12,2.5C2420.12,1610.84,2623.43,2260.67,1991.23,2560.58Z"/><path class="cls-7" d="M2355.51,1697.19c-2.79,38.18-8.32,75.85-14.72,113.46-6.63,37.54-14.41,74.9-23.57,111.94A1699.29,1699.29,0,0,1,2248,2140.81c-14.17,35.48-29.2,70.66-46,105-8.15,17.29-17.25,34.13-26,51.14-9.27,16.73-18.31,33.58-28.34,49.88-38.86,65.85-84.37,127.91-136.32,183.76a4.12,4.12,0,0,1-6.28-5.31l0-.05a1441.39,1441.39,0,0,0,124-189c9.31-16.37,17.59-33.3,26.46-49.9,8.24-16.94,16.84-33.68,24.52-50.88,3.85-8.6,8-17,11.76-25.68l11.37-25.86c3.73-8.65,7.23-17.39,10.85-26.08s7.1-17.45,10.48-26.24c7-17.49,13.54-35.17,20.12-52.83,6.28-17.77,12.56-35.54,18.44-53.46,12.11-35.72,22.87-71.89,33.25-108.18,10.17-36.35,19.63-72.94,28.12-109.76,8.65-36.77,16.34-73.9,22.86-111l0-.12a4.11,4.11,0,0,1,8.15,1Z"/><path class="cls-8" d="M2032.37,2489s342.19-575.58,714.48-584.6a10.25,10.25,0,0,1,10.26,12.37C2741.26,1992,2630.42,2385.81,2032.37,2489Z"/><path class="cls-6" d="M2668,1995.67c-22.55,23.69-45.78,46.47-69.33,69-11.9,11.14-23.79,22.27-35.81,33.28s-24.11,21.93-36.35,32.68q-73.29,64.71-150.93,124.27c-25.65,20.11-52.23,39-78.45,58.35L2257,2341.23c-6.7,4.65-13.35,9.35-20.13,13.88l-20.47,13.37c-54.1,36.41-110.63,69.05-167.56,100.75a4.11,4.11,0,0,1-4.08-7.14l.1-.07,42-24.64,21-12.31c6.94-4.21,13.76-8.63,20.64-12.93l41.27-25.84c13.6-8.85,27-18,40.56-26.94l20.26-13.5,19.94-14,39.86-28c26.06-19.37,52.46-38.26,77.95-58.38,25.84-19.67,51.1-40.07,76.38-60.44l37.44-31.14,37-31.7c12.32-10.58,24.37-21.46,36.58-32.17s24.06-21.8,36-32.77c23.83-22,47.52-44.33,70.27-67.33l.06-.06a4.11,4.11,0,0,1,5.9,5.73Z"/><path class="cls-9" d="M1640.58,966.07s425.38,23.38,708.55-65.68c0,0-188.24-12.9-188.24,421.73,0,332.29,49.28,966.54,6.25,1086.93s-203.92,282.25-434.56,143.15S1640.58,966.07,1640.58,966.07Z"/><path class="cls-10" d="M1527.49,314.47s469.34,51.16,529.8-28.39c0,0-48.1-143.17-190.93-133.65S1527.49,314.47,1527.49,314.47Z"/><path class="cls-8" d="M1,475.55C42,935.5,127.92,1908.37,165.32,2382.28A213.08,213.08,0,0,0,364.1,2578.17c376.74,24.18,1224.59,71.1,1550,27.45h0a216.56,216.56,0,0,1-120.79-196l17.27-2126.56c.61-75.15,75.46-129.14,145.82-102.77,44.33,16.61,77.9,52,100.93,105.79-30.72-89.52-79-155-190.93-133.65,0,0-1094.37,10.94-1625.42,43.87C96.64,205.25-11.79,331.54,1,475.55Z"/><g class="cls-11"><path class="cls-12" d="M271.75,257.17l1470.51-56.61c-60.65,449-35,1363.4-11.91,2264.54a141.52,141.52,0,0,0,81,124.34h0s-980.82,11.3-1402.25-18.59a212.41,212.41,0,0,1-194.93-180.5C156.34,2004.26,17.92,1006.86,46.73,478.81,53.32,357.89,150.74,261.83,271.75,257.17Z"/></g><path class="cls-13" d="M252.29,953.64l17.16,164.71A61,61,0,0,0,327.79,1173l95.9,3.68a61,61,0,0,0,63.35-61V938a61,61,0,0,0-66-60.8L308,886.51A61,61,0,0,0,252.29,953.64Z"/><path class="cls-14" d="M589.52,902.87c159.61-5,772.33-24.88,927.05-29.92a34.54,34.54,0,0,1,35.65,34.54h0A34.57,34.57,0,0,1,1518.94,942L592.49,976.42a34.57,34.57,0,0,1-35.56-30.09l-.58-4.48A34.54,34.54,0,0,1,589.52,902.87Z"/><path class="cls-15" d="M579.49,1120h0a14.69,14.69,0,0,0,13,7.17l636.15-13.82a14.7,14.7,0,0,0,14.38-14.69v-41.94a14.7,14.7,0,0,0-15.25-14.69l-618.41,23.12C581.76,1066.19,565.38,1096.34,579.49,1120Z"/><path class="cls-16" d="M252.29,1410.78l17.16,164.72a61,61,0,0,0,58.34,54.64l95.9,3.68a61,61,0,0,0,63.35-61V1395.17a61,61,0,0,0-66-60.81L308,1343.65A61,61,0,0,0,252.29,1410.78Z"/><path class="cls-17" d="M589.52,1360c159.61-5,772.33-24.88,927.05-29.91a34.53,34.53,0,0,1,35.65,34.54h0a34.57,34.57,0,0,1-33.28,34.53l-926.45,34.4a34.57,34.57,0,0,1-35.56-30.09l-.58-4.48A34.54,34.54,0,0,1,589.52,1360Z"/><path class="cls-18" d="M579.49,1577.16h0a14.7,14.7,0,0,0,13,7.16l636.15-13.82a14.7,14.7,0,0,0,14.38-14.69v-41.94a14.7,14.7,0,0,0-15.25-14.69L609.31,1522.3C581.76,1523.33,565.38,1553.48,579.49,1577.16Z"/><path class="cls-19" d="M252.29,1867.93l17.16,164.71a61,61,0,0,0,58.34,54.64l95.9,3.68A61,61,0,0,0,487,2030V1852.31a61,61,0,0,0-66-60.8L308,1800.8A61,61,0,0,0,252.29,1867.93Z"/><path class="cls-20" d="M589.52,1817.16c159.61-5,772.33-24.89,927.05-29.92a34.54,34.54,0,0,1,35.65,34.54h0a34.57,34.57,0,0,1-33.28,34.54l-926.45,34.39a34.57,34.57,0,0,1-35.56-30.09l-.58-4.48A34.54,34.54,0,0,1,589.52,1817.16Z"/><path class="cls-21" d="M579.49,2034.3h0a14.71,14.71,0,0,0,13,7.17l636.15-13.82A14.7,14.7,0,0,0,1243,2013V1971a14.69,14.69,0,0,0-15.25-14.68l-618.41,23.12C581.76,1980.48,565.38,2010.63,579.49,2034.3Z"/><path class="cls-22" d="M2105.63,1916.15a7.16,7.16,0,0,1-7.15-7c0-.22-.44-22.77-2.61-100.07a7.16,7.16,0,0,1,14.31-.4c2.18,77.39,2.61,100,2.62,100.2a7.18,7.18,0,0,1-7,7.3Z"/><path class="cls-22" d="M2100.43,1727.48a7.17,7.17,0,0,1-7.15-6.94c-1.54-50.32-3.94-105.94-6.48-164.83-3.42-79.56-7-161.83-8.85-241.09-4.94-209.17,29.56-289.46,59.38-320,16.2-16.59,29.78-17.07,31.27-17.07a7.16,7.16,0,0,1,.15,14.31c-1.63.12-83.89,9.16-76.48,322.41,1.87,79.12,5.41,161.32,8.84,240.82,2.54,58.93,4.94,114.6,6.48,165a7.15,7.15,0,0,1-6.93,7.37Z"/><path class="cls-23" d="M1063,2498.92c-7.25,0-14.52-3.43-22.19-10.48-28.2-25.9-35.48-65.71-37.46-103.57-13,14.56-26.32,28.74-39.48,42.76l-7.28-6.83c15.45-16.47,31.11-33.16,46.23-50.4a1123.61,1123.61,0,0,1,7.11-155.82c3.67-31.61,8.94-65.06,22.65-95.57,4.36-9.72,11.61-23.67,24.08-32.39,13-9.1,30.06-10.08,41.48-2.41,12.83,8.62,16.29,25,17.77,36.5,8.72,67.82-17.74,130-41.47,170.19-17.62,29.85-38.94,57.16-61.53,83.13,1.17,38.76,6.54,81.22,34.66,107,5.92,5.45,11.08,8,15.91,7.84,7.92-.28,14.33-8,19.56-15.46a423.91,423.91,0,0,0,55.19-110.12,116.18,116.18,0,0,1,9.82-34.13l9.38,3.29q-4.08,16.76-9.41,33.05a106,106,0,0,0,1.28,33.34c1.17,5.83,6.09,25.07,20.29,27.78,10.6,2,21.65-6,33.85-24.55l50-76-6.32,27.21c-2.23,9.61-6,32.55,7.44,38.06,7.64,3.14,15.7-1.4,25-6.67s18.88-10.65,29.79-9.18l5.15.68-.88,5.12c-.51,2.92-4.55,28.65,8.8,31.6,6.11,1.36,11.22-2.88,18.92-10,6.06-5.6,12.32-11.39,20.55-13.38l2.35,9.71c-5.71,1.38-10.77,6.05-16.12,11-7.59,7-16.19,15-27.86,12.42-15.2-3.36-18.93-20.49-17.28-37.2-6,.87-12.12,4.32-18.52,7.93-10.14,5.71-21.64,12.18-33.74,7.2-10-4.11-15.4-14-15.81-28.23l-23.17,35.22c-9.35,14.21-24.07,32.7-44.06,28.87-13.71-2.61-24.27-15.93-28.21-35.62q-.82-4.12-1.35-8.29a434.55,434.55,0,0,1-46.93,86.6c-6.25,8.95-15,19.28-27.39,19.73ZM1080.38,2089a32.58,32.58,0,0,0-18,5.83c-10.44,7.3-16.81,19.65-20.69,28.3-13.15,29.27-18.26,61.81-21.83,92.62a1112.17,1112.17,0,0,0-7.27,143.34c19.57-23.07,37.89-47.23,53.25-73.25C1088.77,2247,1114.36,2187,1106,2122c-2-15.27-6.24-24.64-13.44-29.48A21.53,21.53,0,0,0,1080.38,2089Z"/><path class="cls-18" d="M1501.27,697.06,329.82,731.82a77.3,77.3,0,0,1-79.49-73.47L246,570.72a77.28,77.28,0,0,1,75.14-81l1177.28-31.13a77.28,77.28,0,0,1,79.31,78.66l-1.52,84A77.28,77.28,0,0,1,1501.27,697.06Z"/><path class="cls-24" d="M1132.27,1620s-39.07-25.63-44.48-19.72c-1.93,2.1-6.42,9.25-10.61,17a14.34,14.34,0,0,0,2.29,16.77l10.08,10.41a22.77,22.77,0,0,0,34.31-1.69A41.27,41.27,0,0,0,1132.27,1620Z"/><path class="cls-25" d="M1172.11,1571.33S1158.7,1536,1143,1539.27s-32.8,15.26-32.8,15.26l-25.16,34s70.63,27.83,95.47,11.88c0,0,72.15,12.47,163.25-2.48-13.19-27.85-21-55.72-25.66-77.36C1272,1546.72,1222.29,1566.23,1172.11,1571.33Z"/><path class="cls-26" d="M1554.26,1315.31S1451,1445.41,1318.14,1520.6c4.61,21.64,12.47,49.51,25.66,77.36,68.91-11.31,148.66-38.3,216.27-98.26Z"/><path class="cls-27" d="M1683.08,1891.94c-20.2-96-40.4-151.5-108-333.37-21.28-57.23-40.61-115.14-31.27-175.49l10.49-67.77s131.45-44.48,277.15-1.87c0,0,198.79,86.35,63.77,512.85C1834.32,1894.38,1763.09,1913.79,1683.08,1891.94Z"/><path class="cls-28" d="M1576.64,1228.81l34.08,81.89a16.34,16.34,0,0,0,12.33,9.8c19.65,3.37,67.18,8.64,98.39-11.89a7.93,7.93,0,0,0,2.13-11.15l-63-90.41Z"/><path class="cls-29" d="M1611.89,1103.53c-1.43,1.35-60.41,117.17-60.41,117.17l66.85,32.27,72.21-101.47S1635.85,1081,1611.89,1103.53Z"/><path class="cls-30" d="M1660.16,1163.68l-33.34,55.58a10.54,10.54,0,0,1-1.83,2.27c-4,3.7-17.55,14.44-28-.19-9-12.47-17.34-23.8-26.34-28.48a10.65,10.65,0,0,0-14.38,4.74c-5.5,10.89-16.14,33.08-22.82,54.12a10.62,10.62,0,0,0,6.17,13c13.54,5.48,40.3,15.4,64,18.68a10.66,10.66,0,0,0,10.08-4.29c10.21-14,39-53.09,48.82-62.88,9.13-9.09,26-5.67,33.57-3.48a10.75,10.75,0,0,0,8.52-1.12c7.7-4.64,21.14-16.19,8.85-35.75a10.67,10.67,0,0,1,3.3-14.5c8.6-5.66,17.93-16.27,9-33.47-9-17.4-25.07-19-36-17.63a11.08,11.08,0,0,1-11.62-6.46,7,7,0,0,0-5.5-4.33,10.36,10.36,0,0,1-8.38-12.16c1.93-9.85.48-22.64-15.25-31.29-28.84-15.86-54.11,10-60.53,31.79s25.82,37.23,46.11,39.81c14.9,1.89,23.07,18.15,26.36,26.65A10.71,10.71,0,0,1,1660.16,1163.68Z"/><path class="cls-31" d="M1648.47,1232.89s14.35-33.76,30.77-32.38,29.34,17.73,9,36.12C1662.92,1259.5,1648.47,1232.89,1648.47,1232.89Z"/><path class="cls-32" d="M1670.14,2737.56c31.75,2.75,86.85,7.2,130.28,9.12,26.11,1.15,41.15-1.41,49.8-4.88,0,1,0,1.9-.08,2.76a9,9,0,0,1-8.53,8.48,1524.67,1524.67,0,0,1-170.59.17,6.39,6.39,0,0,1-5.21-9.61A52.36,52.36,0,0,1,1670.14,2737.56Z"/><path class="cls-33" d="M1800.42,2746.68c-43.43-1.92-98.53-6.37-130.28-9.12,31.21-38.29,130.28-64.1,130.28-64.1h28c19.25,27.74,22,54.15,21.82,68.34C1841.57,2745.27,1826.53,2747.83,1800.42,2746.68Z"/><path class="cls-34" d="M1833.12,2627.78l-2.62,51.81a11.84,11.84,0,0,1-10.11,11.13,46,46,0,0,1-21-1.74,14,14,0,0,1-9.42-10.76l-9-50.44Z"/><path class="cls-35" d="M2196.54,2746.29c13.77-1.92,20-9.07,22.61-16.72a1.6,1.6,0,0,1,0,.21c2,8.06-2.67,16.42-12,20.39-11.35,4.81-23.76,5.63-33.39,5.23-10.33-.42-19.82-4.7-25-11.54l-.08-.11C2159,2748.89,2173.58,2749.49,2196.54,2746.29Z"/><path class="cls-36" d="M2131.63,2627.45h23.08c35.15-.72,57.22,73.41,64.44,102.12-2.61,7.65-8.84,14.8-22.61,16.72-23,3.2-37.52,2.6-47.89-2.54-19-25-28.4-61.58-32.93-82.94C2110.58,2636.52,2131.63,2627.45,2131.63,2627.45Z"/><path class="cls-37" d="M2151.74,2579.35l12.82,51a13.83,13.83,0,0,1-7.2,15.67c-7.17,3.68-17.26,7.55-26.54,6.43a11.56,11.56,0,0,1-9.42-7.71l-18.81-53.62Z"/><path class="cls-38" d="M2167,2594.08c-16,14.15-67.8,16-67.8,16-186.78-448.29-264.65-571.7-264.65-571.7,27,169.21,5.81,603.53,5.81,603.53-30.82,13.6-70.56,0-70.56,0-2.5-277-41.5-574.67-91.8-765.13,126.24-2.84,194.85-30.36,216.77-47.69C2000,1998.75,2167,2594.08,2167,2594.08Z"/><path class="cls-39" d="M1646.23,2002.06l23.23,144.48a47.58,47.58,0,0,0,52.83,39.57L2070,2143.7a34.33,34.33,0,0,0,30.25-33.33c.74-37.33-.72-103.77-16.39-164.3Z"/><path class="cls-40" d="M1734,2176.42a1.15,1.15,0,0,1-1.14-1,1.13,1.13,0,0,1,1-1.27L1743,2173a1.14,1.14,0,0,1,1.28,1,1.15,1.15,0,0,1-1,1.28l-9.08,1.11Zm-21.19-.4a1.26,1.26,0,0,1-.28,0,47,47,0,0,1-8.81-3.15,1.15,1.15,0,0,1,1-2.07,44.08,44.08,0,0,0,8.38,3,1.15,1.15,0,0,1-.27,2.26Zm51.46-3.3a1.14,1.14,0,0,1-.14-2.28l9.09-1.1a1.13,1.13,0,0,1,1.27,1,1.15,1.15,0,0,1-1,1.28l-9.08,1.1Zm30.27-3.69a1.14,1.14,0,0,1-.14-2.28l9.09-1.11a1.11,1.11,0,0,1,1.27,1,1.13,1.13,0,0,1-1,1.27l-9.09,1.11Zm30.28-3.69a1.15,1.15,0,0,1-1.14-1,1.13,1.13,0,0,1,1-1.27l9.08-1.11a1.14,1.14,0,0,1,.28,2.27l-9.08,1.11Zm30.27-3.69a1.15,1.15,0,0,1-1.14-1,1.14,1.14,0,0,1,1-1.27l9.08-1.11a1.11,1.11,0,0,1,1.27,1,1.15,1.15,0,0,1-1,1.28l-9.08,1.11Zm-167.34-2a1.13,1.13,0,0,1-.91-.45,45,45,0,0,1-4.93-8,1.13,1.13,0,0,1,.52-1.52,1.15,1.15,0,0,1,1.53.52,43.64,43.64,0,0,0,4.69,7.57,1.13,1.13,0,0,1-.21,1.6A1.11,1.11,0,0,1,1687.77,2159.67Zm197.61-1.72a1.13,1.13,0,0,1-1.13-1,1.15,1.15,0,0,1,1-1.28l9.08-1.11a1.12,1.12,0,0,1,1.28,1,1.14,1.14,0,0,1-1,1.27l-9.08,1.11Zm30.27-3.69a1.14,1.14,0,0,1-.14-2.28l9.09-1.11a1.16,1.16,0,0,1,1.27,1,1.13,1.13,0,0,1-1,1.27l-9.08,1.11Zm30.27-3.69a1.14,1.14,0,0,1-.13-2.28l9.08-1.11a1.12,1.12,0,0,1,1.27,1,1.14,1.14,0,0,1-1,1.27l-9.09,1.11Zm30.28-3.7a1.14,1.14,0,0,1-.14-2.27l9.08-1.11a1.1,1.1,0,0,1,1.27,1,1.15,1.15,0,0,1-1,1.28l-9.08,1.1Zm30.27-3.69a1.14,1.14,0,0,1-.14-2.28l9.08-1.1a1.13,1.13,0,0,1,1.28,1,1.15,1.15,0,0,1-1,1.28l-9.08,1.1Zm30.27-3.69a1.14,1.14,0,0,1-.14-2.28l9.08-1.11a1.13,1.13,0,0,1,1.28,1,1.14,1.14,0,0,1-1,1.27l-9.08,1.11Zm30.14-4.4a1.14,1.14,0,0,1-.37-2.23,32,32,0,0,0,7.84-4,1.15,1.15,0,0,1,1.31,1.88,34.38,34.38,0,0,1-8.41,4.28A1.24,1.24,0,0,1,2066.88,2135.09Zm-389.18-3.77a1.15,1.15,0,0,1-1.13-1l-1.45-9a1.14,1.14,0,1,1,2.26-.36l1.45,9a1.14,1.14,0,0,1-.95,1.31Zm409.72-17.26a1.33,1.33,0,0,1-.34,0,1.15,1.15,0,0,1-.75-1.44,31.06,31.06,0,0,0,1.45-8.67,1.14,1.14,0,0,1,1.14-1.12h0a1.14,1.14,0,0,1,1.11,1.17,33,33,0,0,1-1.55,9.31A1.13,1.13,0,0,1,2087.42,2114.06Zm-414.56-12.85a1.14,1.14,0,0,1-1.12-1l-1.46-9a1.14,1.14,0,0,1,2.26-.36l1.45,9a1.14,1.14,0,0,1-.94,1.31ZM2089,2083.72a1.14,1.14,0,0,1-1.14-1.13c0-3-.07-6-.14-9.14a1.15,1.15,0,0,1,1.12-1.17,1.06,1.06,0,0,1,1.17,1.12c.07,3.15.11,6.21.14,9.17a1.15,1.15,0,0,1-1.14,1.15Zm-421-12.62a1.15,1.15,0,0,1-1.13-1l-1.45-9a1.14,1.14,0,0,1,2.26-.36l1.45,9a1.14,1.14,0,0,1-1,1.31Zm420.13-17.87a1.14,1.14,0,0,1-1.15-1.08q-.23-4.5-.52-9.12a1.14,1.14,0,0,1,1.07-1.22c.76,0,1.17.44,1.21,1.07.2,3.09.37,6.15.53,9.15a1.14,1.14,0,0,1-1.09,1.2Zm-425-12.24a1.15,1.15,0,0,1-1.13-1l-1.45-9a1.14,1.14,0,1,1,2.26-.36l1.45,9a1.14,1.14,0,0,1-1,1.31Zm422.74-18.18a1.16,1.16,0,0,1-1.14-1c-.29-3-.6-6-1-9.08a1.14,1.14,0,0,1,2.27-.26q.53,4.59,1,9.12a1.14,1.14,0,0,1-1,1.25Zm-427.58-11.93a1.15,1.15,0,0,1-1.13-1l-1.64-10.2,8.38-1.07a1.13,1.13,0,0,1,1.28,1,1.15,1.15,0,0,1-1,1.28l-6,.77,1.26,7.87a1.14,1.14,0,0,1-1,1.31Zm26.93-12.67a1.14,1.14,0,0,1-.15-2.28l9.08-1.16a1.09,1.09,0,0,1,1.28,1,1.15,1.15,0,0,1-1,1.28l-9.08,1.16Zm30.25-3.87a1.15,1.15,0,0,1-.15-2.28l9.08-1.16a1.09,1.09,0,0,1,1.28,1,1.14,1.14,0,0,1-1,1.28l-9.07,1.16Zm366.67-1.8a1.16,1.16,0,0,1-1.13-1c-.45-3-.94-6-1.45-9a1.16,1.16,0,0,1,.94-1.32,1.14,1.14,0,0,1,1.32.94c.51,3,1,6,1.45,9a1.14,1.14,0,0,1-1,1.31Zm-336.42-2.07a1.15,1.15,0,0,1-.15-2.28l9.08-1.16a1.1,1.1,0,0,1,1.28,1,1.14,1.14,0,0,1-1,1.28l-9.07,1.16Zm30.25-3.87a1.15,1.15,0,0,1-.15-2.28l9.08-1.16a1.11,1.11,0,0,1,1.28,1,1.14,1.14,0,0,1-1,1.28l-9.07,1.16Zm30.25-3.87a1.14,1.14,0,0,1-.15-2.28l9.08-1.16a1.12,1.12,0,0,1,1.28,1,1.15,1.15,0,0,1-1,1.28l-9.07,1.16Zm30.25-3.87a1.14,1.14,0,0,1-.14-2.28l9.07-1.16a1.1,1.1,0,0,1,1.28,1,1.15,1.15,0,0,1-1,1.28l-9.07,1.16Zm30.25-3.87a1.14,1.14,0,0,1-.14-2.28l9.07-1.16a1.12,1.12,0,0,1,1.28,1,1.16,1.16,0,0,1-1,1.29l-9.07,1.16Zm30.25-3.87a1.15,1.15,0,0,1-.15-2.28l9.08-1.16a1.11,1.11,0,0,1,1.28,1,1.15,1.15,0,0,1-1,1.28l-9.07,1.16Zm30.25-3.87a1.15,1.15,0,0,1-.15-2.28l9.08-1.16a1.09,1.09,0,0,1,1.28,1,1.15,1.15,0,0,1-1,1.28l-9.07,1.16Zm30.25-3.88a1.14,1.14,0,0,1-.14-2.27l9.07-1.17a1.11,1.11,0,0,1,1.28,1,1.14,1.14,0,0,1-1,1.28l-9.07,1.17Zm119.15-.82a1.14,1.14,0,0,1-1.12-.9c-.65-3-1.33-5.94-2.05-8.89a1.15,1.15,0,0,1,.84-1.38,1.12,1.12,0,0,1,1.38.84q1.08,4.46,2.07,8.94a1.16,1.16,0,0,1-.88,1.37Zm-88.9-3a1.14,1.14,0,0,1-.14-2.28l9.07-1.16a1.08,1.08,0,0,1,1.28,1,1.14,1.14,0,0,1-1,1.28l-9.07,1.17Zm30.25-3.88a1.14,1.14,0,0,1-.14-2.28l9.07-1.16a1.1,1.1,0,0,1,1.28,1,1.14,1.14,0,0,1-1,1.28l-9.07,1.16Zm30.25-3.87a1.13,1.13,0,0,1-1.13-1,1.16,1.16,0,0,1,1-1.29l9.07-1.16a1.1,1.1,0,0,1,1.28,1,1.14,1.14,0,0,1-1,1.28l-9.07,1.16Z"/><path class="cls-41" d="M1734.57,1883.72l-.39-11.32a8.65,8.65,0,0,1,5.88-5.86c10.6-3.11,37.06-9.57,51.22-1.57l3.59,12.76Z"/><path class="cls-42" d="M1767,1868.63a15.8,15.8,0,0,1-7.49.95,6.82,6.82,0,0,1-6-5.9l-4.49-35,17.83-2.28,4.48,35A6.85,6.85,0,0,1,1767,1868.63Z"/><path class="cls-43" d="M1907.26,1861.62l-.39-11.32a8.69,8.69,0,0,1,5.88-5.86c10.6-3.11,37.06-9.57,51.22-1.57l3.59,12.76Z"/><path class="cls-44" d="M1939.69,1846.53a15.67,15.67,0,0,1-7.49,1,6.83,6.83,0,0,1-6-5.89l-5-38.73,17.83-2.28,5,38.7A6.87,6.87,0,0,1,1939.69,1846.53Z"/><path class="cls-45" d="M1748.31,1837.47l190.93-30.88a9.32,9.32,0,0,0,7.86-8.72,78.59,78.59,0,0,0-2.51-24.38,22.3,22.3,0,0,0-23.83-16c-35.88,3.73-126.94,15.41-174.59,41.68a17.68,17.68,0,0,0-9,13.52,42.84,42.84,0,0,0,2,19.53A8.33,8.33,0,0,0,1748.31,1837.47Z"/><path class="cls-46" d="M1743.61,1830.13a3.05,3.05,0,0,1-3-2.36,48,48,0,0,1-.74-15.39,18.32,18.32,0,0,1,10.77-14.17c10.38-4.55,30.32-12.57,47.17-15.21a3.09,3.09,0,0,1,3.49,2.55,3,3,0,0,1-2.55,3.48c-16.78,2.63-37.52,11.2-45.66,14.76a12.2,12.2,0,0,0-7.18,9.42,42.57,42.57,0,0,0,.64,13.19,3,3,0,0,1-2.28,3.65A2.71,2.71,0,0,1,1743.61,1830.13Z"/><path class="cls-47" d="M1645.05,1890.74c61.84-8.71,329.46-45.82,408.5-46.39a16,16,0,0,1,15.19,10.53c7.26,20.21,22.7,67.33,27.73,115.35a14,14,0,0,1-9.67,14.69l-173.38,56.35-63.12,8.07-194.14-13.4a14.92,14.92,0,0,1-13.7-12.22c-4.31-23.93-13.47-80.21-11.61-117.42A16.53,16.53,0,0,1,1645.05,1890.74Z"/><path class="cls-40" d="M1850,2035l-9.35-.62a1.15,1.15,0,0,1-1.06-1.22,1.2,1.2,0,0,1,1.22-1.06l9.13.63,4.89-.65a1.11,1.11,0,0,1,1.28,1,1.15,1.15,0,0,1-1,1.28Zm-30.57-2.09h-.08l-9.12-.63a1.16,1.16,0,0,1-1.07-1.22,1.2,1.2,0,0,1,1.22-1.06l9.13.63a1.14,1.14,0,0,1-.08,2.28Zm56.72-1.26a1.14,1.14,0,0,1-.15-2.28l9.08-1.16a1.09,1.09,0,0,1,1.28,1,1.15,1.15,0,0,1-1,1.28l-9.08,1.16Zm-87.14-.84h-.08l-9.13-.63a1.15,1.15,0,0,1-1.06-1.22,1.18,1.18,0,0,1,1.22-1.06l9.13.63a1.14,1.14,0,0,1-.08,2.28Zm-30.42-2.1h-.08l-9.13-.63a1.14,1.14,0,0,1-1.06-1.22,1.16,1.16,0,0,1,1.22-1.06l9.12.63a1.14,1.14,0,0,1-.07,2.28Zm147.81-.93a1.14,1.14,0,0,1-.15-2.28l3.63-.46,5-1.65a1.15,1.15,0,1,1,.71,2.18l-5.21,1.69-3.85.51Zm-178.24-1.17h-.08L1719,2026a1.15,1.15,0,0,1-1.07-1.22,1.22,1.22,0,0,1,1.22-1.06l9.13.63a1.14,1.14,0,0,1-.08,2.28Zm-30.42-2.1h-.08l-9.13-.63a1.14,1.14,0,0,1-1.06-1.22,1.19,1.19,0,0,1,1.22-1.06l9.12.63a1.14,1.14,0,0,1-.07,2.28Zm-30.43-2.1h-.08l-9.13-.63a1.15,1.15,0,0,1-1.06-1.22,1.27,1.27,0,0,1,1.22-1.07l9.13.64a1.14,1.14,0,0,1-.08,2.28Zm268.24-3.39a1.16,1.16,0,0,1-1.09-.79,1.14,1.14,0,0,1,.73-1.44l8.71-2.83a1.17,1.17,0,0,1,1.44.74,1.15,1.15,0,0,1-.74,1.44l-8.7,2.82A1,1,0,0,1,1935.54,2019Zm29-9.43a1.14,1.14,0,0,1-.35-2.23l8.7-2.83a1.16,1.16,0,0,1,1.44.74,1.14,1.14,0,0,1-.73,1.44l-8.7,2.83A1.49,1.49,0,0,1,1964.54,2009.56Zm-310.42-8.33a1.14,1.14,0,0,1-1.12-1c-.46-2.89-.93-5.92-1.39-9.06a1.14,1.14,0,0,1,2.26-.34c.47,3.14.93,6.16,1.38,9a1.14,1.14,0,0,1-1,1.31Zm339.43-1.09a1.15,1.15,0,0,1-.36-2.24l8.7-2.82a1.15,1.15,0,1,1,.71,2.18l-8.7,2.82A1.12,1.12,0,0,1,1993.55,2000.14Zm29-9.43a1.14,1.14,0,0,1-.35-2.23l8.7-2.83a1.17,1.17,0,0,1,1.44.74,1.14,1.14,0,0,1-.73,1.44l-8.7,2.83A1.49,1.49,0,0,1,2022.55,1990.71Zm29-9.43a1.14,1.14,0,0,1-.36-2.23l8.7-2.82a1.14,1.14,0,1,1,.71,2.17l-8.7,2.83A1.48,1.48,0,0,1,2051.56,1981.28Zm29-9.42a1.15,1.15,0,0,1-1.09-.8,1.13,1.13,0,0,1,.29-1.16q-.44-3.92-1-7.81a1.15,1.15,0,0,1,1-1.29,1.13,1.13,0,0,1,1.28,1c.39,2.89.75,5.78,1.06,8.67l.1.93-1.31.42A1.07,1.07,0,0,1,2080.56,1971.86Zm-430.69-.85a1.16,1.16,0,0,1-1.14-1c-.36-3-.71-6-1-9.1a1.14,1.14,0,0,1,1-1.26,1.15,1.15,0,0,1,1.27,1c.32,3,.68,6.08,1,9.08a1.14,1.14,0,0,1-1,1.27Zm426.61-29a1.14,1.14,0,0,1-1.12-.93c-.58-3-1.18-6-1.8-8.95a1.14,1.14,0,1,1,2.23-.48c.63,3,1.24,6,1.81,9a1.13,1.13,0,0,1-.91,1.33Zm-429.58-1.36a1.15,1.15,0,0,1-1.14-1.07q-.33-4.63-.53-9.17a1.13,1.13,0,0,1,1.08-1.19,1.06,1.06,0,0,1,1.2,1.09c.13,3,.31,6,.53,9.11a1.14,1.14,0,0,1-1.07,1.22Zm422.91-28.41a1.16,1.16,0,0,1-1.11-.86c-.77-3-1.55-6-2.33-8.83a1.15,1.15,0,0,1,.8-1.41,1.12,1.12,0,0,1,1.4.8q1.18,4.32,2.35,8.87a1.14,1.14,0,0,1-.82,1.39A1.45,1.45,0,0,1,2069.81,1912.24Zm-423.63-2.08h0a1.13,1.13,0,0,1-1.1-1.18l.08-2a2.25,2.25,0,0,1,1.92-2.12l5.63-.8a1.11,1.11,0,0,1,1.29,1,1.15,1.15,0,0,1-1,1.29l-5.63.79,0,1.9A1.14,1.14,0,0,1,1646.18,1910.16Zm27.81-6.73a1.15,1.15,0,0,1-.16-2.28l9.07-1.25a1.11,1.11,0,0,1,1.29,1,1.15,1.15,0,0,1-1,1.28l-9.07,1.26Zm30.22-4.15a1.15,1.15,0,0,1-1.13-1,1.14,1.14,0,0,1,1-1.29l9.07-1.24a1.14,1.14,0,1,1,.3,2.27l-9.06,1.23Zm30.24-4.08a1.14,1.14,0,0,1-.15-2.28l9.07-1.21a1.17,1.17,0,0,1,1.29,1,1.16,1.16,0,0,1-1,1.29l-9.07,1.21Zm30.24-4a1.14,1.14,0,0,1-.15-2.28l9.07-1.19a1.13,1.13,0,0,1,1.29,1,1.15,1.15,0,0,1-1,1.28l-9.07,1.19Zm30.25-3.93a1.14,1.14,0,0,1-.14-2.28l9.08-1.17a1.11,1.11,0,0,1,1.27,1,1.15,1.15,0,0,1-1,1.28l-9.07,1.17Zm30.46-3.88-.29-2.27,9-1.13a1.13,1.13,0,0,1,1.28,1,1.15,1.15,0,0,1-1,1.28Zm236.07-.48a1.16,1.16,0,0,1-1.1-.8c-1-3.1-1.9-6-2.79-8.7a1.14,1.14,0,1,1,2.17-.71c.89,2.69,1.83,5.61,2.81,8.73a1.14,1.14,0,0,1-.75,1.43A1,1,0,0,1,2061.47,1882.89Zm-236.27-.65h0Zm30.27-2.6a1.14,1.14,0,0,1-.14-2.28l9.08-1.1a1.16,1.16,0,0,1,1.27,1,1.13,1.13,0,0,1-1,1.27l-9.07,1.11Zm30.27-3.64a1.14,1.14,0,0,1-.13-2.28l9.09-1.06a1.11,1.11,0,0,1,1.26,1,1.13,1.13,0,0,1-1,1.27l-9.09,1.06Zm30.3-3.49a1.14,1.14,0,0,1-.12-2.28l9.09-1a1.16,1.16,0,0,1,1.26,1,1.15,1.15,0,0,1-1,1.27l-9.09,1Zm30.32-3.31a1.15,1.15,0,0,1-.12-2.29l9.1-.94a1.14,1.14,0,1,1,.24,2.27l-9.1,1Zm30.35-3.06a1.14,1.14,0,0,1-.11-2.28l9.11-.86a1.12,1.12,0,0,1,1.25,1,1.14,1.14,0,0,1-1,1.24l-9.11.85Zm30.38-2.7a1.14,1.14,0,0,1-.09-2.28q4.73-.39,9.13-.7a1.13,1.13,0,0,1,1.22,1,1.15,1.15,0,0,1-1,1.23c-2.94.21-6,.45-9.12.7Zm30.43-2a1.14,1.14,0,0,1-1.14-1.09,1.12,1.12,0,0,1,1.08-1.19c3.27-.16,6.33-.28,9.16-.37h0a1.15,1.15,0,0,1,0,2.29q-4.23.12-9.12.36Z"/><path class="cls-48" d="M1910.86,2068.53l-55.29,7.07a14.4,14.4,0,0,1-15.82-10.73l-13.19-52.39a14.37,14.37,0,0,1,12.17-17.75l66.42-8.5a14.38,14.38,0,0,1,16.24,13.67l2.07,53.82A14.41,14.41,0,0,1,1910.86,2068.53Z"/><path class="cls-49" d="M1902.81,2059.61l-42.08,5.39a11,11,0,0,1-12-8.17l-10-39.88a11,11,0,0,1,9.27-13.51l50.56-6.47a10.94,10.94,0,0,1,12.35,10.41l1.57,41A11,11,0,0,1,1902.81,2059.61Z"/><path class="cls-50" d="M1869.92,1635.59c13,53.9,13.39,106.62,11.41,125.82a15,15,0,0,1-13.83,13.39c-8.24.58-19.46,1.34-29.49,1.91-11,.64-23.26-6.33-31.44-12.15a4.92,4.92,0,0,0-7.25,6.22c4,7.87,11,14.06,17.93,19.32,4.17,3.17,18,8.8,17,15a11.1,11.1,0,0,1-2.76,5.21c-7.7,9.24-19.35,14.18-30.84,17.7a8.67,8.67,0,0,0-4,2c-.28,7.44,22.59,15.7,28.49,17.66a65.7,65.7,0,0,0,27.51,3.2c23-2.43,44.26-18.31,56.65-37.46,33.14-51.2,50.27-113,56.53-160.3C1935.07,1622.36,1888.53,1630.17,1869.92,1635.59Z"/><path class="cls-51" d="M1965.89,1658c24.58-185.68-118.52-328.46-118.52-328.46l-85.13,99.26c64.64,80.56,95.36,154.39,109.4,212.37C1890.25,1635.79,1935.07,1627.23,1965.89,1658Z"/><path class="cls-52" d="M1869.61,1640.3a5.28,5.28,0,0,1-5.13-4c-17.29-71.48-53.76-142.24-108.38-210.32a5.27,5.27,0,1,1,8.22-6.6c55.6,69.3,92.75,141.45,110.42,214.44a5.25,5.25,0,0,1-5.13,6.51Z"/><path class="cls-53" d="M716.58,2741.07a10.76,10.76,0,0,0-.28-2.75c-13.69-54.28-81.65-88.1-81.65-88.1l-26.93,2.12c-15.48,47.84-13.49,77.18-11,90.25.07.37.18.72.28,1.07C619.2,2745.65,664.93,2746.94,716.58,2741.07Z"/><path class="cls-54" d="M597,2743.66a11.65,11.65,0,0,0,8.55,8.63c31.6,6.65,81.82,1.3,102.91-1.46,4.65-.6,8-4.91,8.13-9.76C664.93,2746.94,619.2,2745.65,597,2743.66Z"/><path class="cls-55" d="M596.89,2612.22l11.41,54.91a9,9,0,0,0,7.67,7.39,76.34,76.34,0,0,0,17.67-.28c5.88-.87,10-6.85,8.94-13.26l-7.93-48.76Z"/><path class="cls-56" d="M833.21,2743c-29.74-.83-45.13-4.34-53.08-7.59,0,3,0,6,.09,9.09a5.88,5.88,0,0,0,5.61,6l163.3-1.05c5.21,0,8.26-6.08,6-10.86C933.72,2740.3,879.18,2744.26,833.21,2743Z"/><path class="cls-57" d="M955.13,2738.53a7.63,7.63,0,0,0-.65-1.23c-14.42-20.15-51.15-60.28-123.73-77.68l-34.82-1.1s-15.51,26.95-15.8,76.86c8,3.25,23.34,6.76,53.08,7.59C879.18,2744.26,933.72,2740.3,955.13,2738.53Z"/><path class="cls-58" d="M787.92,2607.37c.55,2.56,7.79,41.63,10.6,56.78a7.58,7.58,0,0,0,6.81,6.43c6,.33,15.58.37,23.85-1.88,4.46-1.21,7.45-5.76,7.14-10.8l-3.9-61.8Z"/><path class="cls-59" d="M761.54,1886S809.43,2215.14,844,2606.8c.64,7.3-5.17,13.65-12.33,15.16-10.56,2.22-26.09,4.86-38.94,4.5a14.41,14.41,0,0,1-13.74-12c-11.78-69.06-95.81-439.68-117.86-521.25,0,0-25.33,346.49-17.23,526.25a8.52,8.52,0,0,1-7.52,8.86,143,143,0,0,1-31.26-.09,11.39,11.39,0,0,1-10.15-9.68c-8.39-58.44-56.67-406.32-54.62-656.92.12-14.14,16.58-130.25,16.58-130.25Z"/><path class="cls-60" d="M549.74,1905a13.56,13.56,0,0,1-8.9-11.42c-6.37-61.79-37.21-444.95,157.49-602.57,0,0,11.17-29.21,102.95,42.6s42.64,147.08,20.67,250.9c-26.59,125.63-73.25,228.32-52.6,305.63a10.73,10.73,0,0,1-6.57,12.85C691.49,1929.24,620.47,1930.11,549.74,1905Z"/><path class="cls-61" d="M774.28,1176.19c-.06,5.45-77.81,115.88-77.81,115.88s14,27.49,80.58,49.8l57.51-118.24Z"/><path class="cls-62" d="M835.49,1112.91s27.67,63.55,29.53,96.9,9,55-29.53,61.72-71-12.5-88.65-45.72c0,0-27.58-51.2-21.39-72.16S835.49,1112.91,835.49,1112.91Z"/><path class="cls-63" d="M760,1201.92l2.19-1a5.29,5.29,0,0,0,2.59-7.27c-5.44-10.51-16-34.59-2.34-40.2,17.65-7.24,87.56-21.5,102.65-46.31,14.5-23.84,1.65-54.62-17.65-63.38a2.66,2.66,0,0,0-3.48,1.14l-1.61,3a2.62,2.62,0,0,1-4.84-.49h0a2.61,2.61,0,0,0-4.72-.68c-4.63,7.42-17.15,19.46-50.63,25.63-47.58,8.78-79,28-79.82,60.92a2.62,2.62,0,0,1-4.05,2.16c-3.52-2.14-9.14-3.15-16.65,3.17-13.07,11-7.72,39.49,20.92,62.93a2.6,2.6,0,0,1-.12,4.2c-5.19,3.38-12.93,11.42,7.13,22.15,20.74,11.09,36.23,10.18,42.2,9.19a2.61,2.61,0,0,0,2.12-3.15l-6.37-28.9a2.62,2.62,0,0,1,2.56-3.18Z"/><path class="cls-64" d="M761.21,1208s-10.55-40.6-28.75-29.21,9.45,45.48,24.08,47Z"/><path class="cls-65" d="M830.8,1366.91l5.36,144a397,397,0,0,0,43.53,12.36c8.63-27.8,27.64-61.92,43.21-87.28C865.7,1415.74,830.8,1366.91,830.8,1366.91Z"/><path class="cls-66" d="M1116.36,1364.47c-78.46,84.71-142,89.69-193.46,71.49-15.57,25.36-34.58,59.48-43.21,87.28,209.52,46.19,258.86-146.43,258.86-146.43Z"/><path class="cls-67" d="M1132.27,1355.47s9-9.71,25.77-6.66,31.61,8.86,42,0,14.09,3,14.09,3L1183,1375.57Z"/><path class="cls-68" d="M1113.61,1372.06s6.19-25.89,24.85-22.35,61,26.59,72,22.35,24.88-14.4,32-10.81l-12.62,15.68s32.44-18.71,38-7.21l-54,30.37S1134.92,1392.18,1113.61,1372.06Z"/><path class="cls-69" d="M743.71,1555.33s147.5,123.54,306.78,69.64a37.91,37.91,0,0,1,29.91,2.25l45.79,24.18a40.89,40.89,0,0,0,54.18-15.16c6.36-10.65,11.79-22.8,12.87-34.45l-89.61-36.27,6.61-11s-43.75-3.7-55.2,27.65c0,0-83.32,34.66-223.85-119.91C831.19,1462.27,767.42,1516.49,743.71,1555.33Z"/><path class="cls-70" d="M735.77,1554.06a2.45,2.45,0,0,1-1.41-.44c-62.11-42-91.33-109.69-91.62-110.37a2.53,2.53,0,0,1,4.65-2c.28.67,29,67.06,89.79,108.17a2.53,2.53,0,0,1-1.41,4.62Z"/><path class="cls-71" d="M828.28,1460.18a2.54,2.54,0,0,1-2.13-1.16c-.18-.29-19.16-29.83-55.3-94.54-11.11-19.9-25.72-32.5-43.41-37.45-29.3-8.19-57.53,7.52-57.81,7.68a2.53,2.53,0,0,1-2.5-4.39c1.22-.69,30.26-16.94,61.63-8.16,19,5.31,34.7,18.72,46.5,39.85,36,64.55,55,94,55.14,94.28a2.53,2.53,0,0,1-2.12,3.89Z"/></g></g></svg>