<svg width="95" height="95" viewBox="0 0 95 95" fill="none" xmlns="http://www.w3.org/2000/svg">
<g filter="url(#filter0_d)">
<path d="M30 37.5C30 27.835 37.835 20 47.5 20C57.165 20 65 27.835 65 37.5C65 47.165 57.165 55 47.5 55C37.835 55 30 47.165 30 37.5Z" fill="white"/>
<path d="M45.4688 33.0117L45.0781 33.3828C45 33.4805 45 33.6367 45.0781 33.7148L48.6133 37.25L45.0781 40.8047C45 40.8828 45 41.0391 45.0781 41.1367L45.4688 41.5078C45.5664 41.6055 45.7031 41.6055 45.8008 41.5078L49.9023 37.4258C49.9805 37.3281 49.9805 37.1914 49.9023 37.0938L45.8008 33.0117C45.7031 32.9141 45.5664 32.9141 45.4688 33.0117Z" fill="#184293"/>
<path d="M30.5 37.5C30.5 28.1112 38.1112 20.5 47.5 20.5C56.8888 20.5 64.5 28.1112 64.5 37.5C64.5 46.8888 56.8888 54.5 47.5 54.5C38.1112 54.5 30.5 46.8888 30.5 37.5Z" stroke="#A7DFFF"/>
</g>
<defs>
<filter id="filter0_d" x="0" y="0" width="95" height="95" filterUnits="userSpaceOnUse" color-interpolation-filters="sRGB">
<feFlood flood-opacity="0" result="BackgroundImageFix"/>
<feColorMatrix in="SourceAlpha" type="matrix" values="0 0 0 0 0 0 0 0 0 0 0 0 0 0 0 0 0 0 127 0"/>
<feOffset dy="10"/>
<feGaussianBlur stdDeviation="15"/>
<feColorMatrix type="matrix" values="0 0 0 0 0.0941176 0 0 0 0 0.65098 0 0 0 0 0.960784 0 0 0 0.2 0"/>
<feBlend mode="normal" in2="BackgroundImageFix" result="effect1_dropShadow"/>
<feBlend mode="normal" in="SourceGraphic" in2="effect1_dropShadow" result="shape"/>
</filter>
</defs>
</svg>
