<svg xmlns="http://www.w3.org/2000/svg" xmlns:xlink="http://www.w3.org/1999/xlink" viewBox="0 0 2906.76 2691.06"><defs><style>.cls-1{fill:none;}.cls-2{fill:url(#linear-gradient);}.cls-160,.cls-165,.cls-188,.cls-3{fill:#fff;}.cls-4{isolation:isolate;}.cls-5{fill:#f4f7fa;}.cls-6{fill:url(#linear-gradient-2);}.cls-15,.cls-160,.cls-165,.cls-188,.cls-7{mix-blend-mode:soft-light;}.cls-8{clip-path:url(#clip-path-2);}.cls-9{fill:url(#linear-gradient-3);}.cls-10{clip-path:url(#clip-path-3);}.cls-11{clip-path:url(#clip-path-4);}.cls-12{fill:#bfc8d6;}.cls-13{fill:#d8dee8;}.cls-14{fill:url(#linear-gradient-5);}.cls-15,.cls-167,.cls-178,.cls-184,.cls-188{opacity:0.3;}.cls-16{opacity:0.69;}.cls-17{fill:url(#linear-gradient-6);}.cls-18{fill:url(#linear-gradient-7);}.cls-19{fill:url(#linear-gradient-8);}.cls-20{fill:url(#linear-gradient-9);}.cls-21{fill:url(#linear-gradient-10);}.cls-22{fill:url(#linear-gradient-11);}.cls-23{fill:url(#linear-gradient-12);}.cls-24{fill:url(#linear-gradient-13);}.cls-25{fill:url(#linear-gradient-14);}.cls-26{fill:url(#linear-gradient-15);}.cls-27{fill:url(#linear-gradient-16);}.cls-28{fill:url(#linear-gradient-17);}.cls-29{fill:url(#linear-gradient-18);}.cls-30{fill:url(#linear-gradient-19);}.cls-31{fill:url(#linear-gradient-20);}.cls-32{fill:url(#linear-gradient-21);}.cls-33{fill:url(#linear-gradient-22);}.cls-34{fill:url(#linear-gradient-23);}.cls-35{fill:url(#linear-gradient-24);}.cls-36{fill:url(#linear-gradient-25);}.cls-37{fill:url(#linear-gradient-26);}.cls-38{fill:url(#linear-gradient-27);}.cls-39{fill:url(#linear-gradient-28);}.cls-40{fill:url(#linear-gradient-29);}.cls-41{fill:url(#linear-gradient-30);}.cls-42{fill:url(#linear-gradient-31);}.cls-43{fill:url(#linear-gradient-32);}.cls-44{fill:url(#linear-gradient-33);}.cls-45{fill:url(#linear-gradient-34);}.cls-46{fill:url(#linear-gradient-35);}.cls-47{fill:url(#linear-gradient-36);}.cls-48{fill:url(#linear-gradient-37);}.cls-49{fill:url(#linear-gradient-38);}.cls-50{fill:url(#linear-gradient-39);}.cls-51{fill:url(#linear-gradient-40);}.cls-52{fill:url(#linear-gradient-41);}.cls-53{fill:url(#linear-gradient-42);}.cls-54{fill:url(#linear-gradient-43);}.cls-55{fill:url(#linear-gradient-44);}.cls-56{fill:url(#linear-gradient-45);}.cls-57{fill:url(#linear-gradient-46);}.cls-58{fill:url(#linear-gradient-47);}.cls-59{fill:url(#linear-gradient-48);}.cls-60{fill:url(#linear-gradient-49);}.cls-61{fill:url(#linear-gradient-50);}.cls-62{fill:url(#linear-gradient-51);}.cls-63{fill:url(#linear-gradient-52);}.cls-64{fill:url(#linear-gradient-53);}.cls-65{fill:url(#linear-gradient-54);}.cls-66{fill:url(#linear-gradient-55);}.cls-67{fill:url(#linear-gradient-56);}.cls-68{fill:url(#linear-gradient-57);}.cls-69{fill:url(#linear-gradient-58);}.cls-70{fill:url(#linear-gradient-59);}.cls-71{fill:url(#linear-gradient-60);}.cls-72{fill:url(#linear-gradient-61);}.cls-73{fill:url(#linear-gradient-62);}.cls-74{fill:url(#linear-gradient-63);}.cls-75{fill:url(#linear-gradient-64);}.cls-76{fill:url(#linear-gradient-65);}.cls-77{fill:url(#linear-gradient-66);}.cls-78{fill:url(#linear-gradient-67);}.cls-79{fill:url(#linear-gradient-68);}.cls-80{fill:url(#linear-gradient-69);}.cls-81{fill:url(#linear-gradient-70);}.cls-82{fill:url(#linear-gradient-71);}.cls-83{fill:url(#linear-gradient-72);}.cls-84{fill:url(#linear-gradient-73);}.cls-85{fill:url(#linear-gradient-74);}.cls-86{fill:url(#linear-gradient-75);}.cls-87{fill:url(#linear-gradient-76);}.cls-88{fill:url(#linear-gradient-77);}.cls-89{fill:url(#linear-gradient-78);}.cls-90{fill:url(#linear-gradient-79);}.cls-91{fill:url(#linear-gradient-80);}.cls-92{fill:url(#linear-gradient-81);}.cls-93{fill:url(#linear-gradient-82);}.cls-94{fill:url(#linear-gradient-83);}.cls-95{fill:url(#linear-gradient-84);}.cls-96{fill:url(#linear-gradient-85);}.cls-97{fill:url(#linear-gradient-86);}.cls-98{fill:url(#linear-gradient-87);}.cls-99{fill:url(#linear-gradient-88);}.cls-100{fill:url(#linear-gradient-89);}.cls-101{fill:url(#linear-gradient-90);}.cls-102{fill:url(#linear-gradient-91);}.cls-103{fill:url(#linear-gradient-92);}.cls-104{fill:url(#linear-gradient-93);}.cls-105{fill:url(#linear-gradient-94);}.cls-106{fill:url(#linear-gradient-95);}.cls-107{fill:url(#linear-gradient-96);}.cls-108{fill:url(#linear-gradient-97);}.cls-109{fill:url(#linear-gradient-98);}.cls-110{fill:url(#linear-gradient-99);}.cls-111{fill:url(#linear-gradient-100);}.cls-112{fill:url(#linear-gradient-101);}.cls-113{fill:url(#linear-gradient-102);}.cls-114{fill:url(#linear-gradient-103);}.cls-115{fill:url(#linear-gradient-104);}.cls-116{fill:url(#linear-gradient-105);}.cls-117{fill:url(#linear-gradient-106);}.cls-118{fill:url(#linear-gradient-107);}.cls-119{fill:url(#linear-gradient-108);}.cls-120{fill:url(#linear-gradient-109);}.cls-121{fill:url(#linear-gradient-110);}.cls-122{fill:url(#linear-gradient-111);}.cls-123{fill:url(#linear-gradient-112);}.cls-124{fill:url(#linear-gradient-113);}.cls-125{fill:url(#linear-gradient-114);}.cls-126{fill:url(#linear-gradient-115);}.cls-127{fill:url(#linear-gradient-116);}.cls-128{fill:url(#linear-gradient-117);}.cls-129{fill:url(#linear-gradient-118);}.cls-130{fill:url(#linear-gradient-119);}.cls-131{fill:url(#linear-gradient-120);}.cls-132{fill:url(#linear-gradient-121);}.cls-133{fill:url(#linear-gradient-122);}.cls-134{fill:url(#linear-gradient-123);}.cls-135{fill:url(#linear-gradient-124);}.cls-136{fill:url(#linear-gradient-125);}.cls-137{fill:url(#linear-gradient-126);}.cls-138{fill:url(#linear-gradient-127);}.cls-139{fill:url(#linear-gradient-128);}.cls-140{fill:url(#linear-gradient-129);}.cls-141{fill:url(#linear-gradient-130);}.cls-142{fill:url(#linear-gradient-131);}.cls-143{fill:url(#linear-gradient-132);}.cls-144{fill:url(#linear-gradient-133);}.cls-145{fill:url(#linear-gradient-134);}.cls-146{fill:url(#linear-gradient-135);}.cls-147{fill:url(#linear-gradient-136);}.cls-148{fill:url(#linear-gradient-137);}.cls-149{fill:url(#linear-gradient-138);}.cls-150{fill:url(#linear-gradient-139);}.cls-151{fill:url(#linear-gradient-140);}.cls-152{fill:url(#linear-gradient-141);}.cls-153{fill:url(#linear-gradient-142);}.cls-154{fill:url(#linear-gradient-143);}.cls-155{fill:url(#linear-gradient-144);}.cls-156{fill:url(#linear-gradient-145);}.cls-157{fill:url(#linear-gradient-146);}.cls-158{fill:url(#linear-gradient-147);}.cls-159{fill:url(#linear-gradient-148);}.cls-160{opacity:0.35;}.cls-161{fill:url(#linear-gradient-149);}.cls-162{fill:url(#linear-gradient-150);}.cls-163{fill:url(#linear-gradient-151);}.cls-164{fill:url(#linear-gradient-152);}.cls-165{opacity:0.48;}.cls-166{fill:url(#linear-gradient-153);}.cls-167,.cls-178,.cls-184{mix-blend-mode:multiply;}.cls-167{fill:url(#linear-gradient-154);}.cls-168{opacity:0.75;}.cls-169{fill:url(#linear-gradient-155);}.cls-170{fill:url(#linear-gradient-156);}.cls-171{fill:url(#linear-gradient-157);}.cls-172{fill:url(#linear-gradient-158);}.cls-173{fill:url(#linear-gradient-159);}.cls-174{fill:url(#linear-gradient-160);}.cls-175{fill:url(#linear-gradient-161);}.cls-176{fill:url(#linear-gradient-162);}.cls-177{fill:url(#linear-gradient-163);}.cls-178{fill:url(#linear-gradient-164);}.cls-179{fill:url(#linear-gradient-165);}.cls-180{fill:url(#linear-gradient-166);}.cls-181{fill:url(#linear-gradient-167);}.cls-182{fill:url(#linear-gradient-168);}.cls-183{fill:url(#linear-gradient-169);}.cls-184{fill:url(#linear-gradient-170);}.cls-185{fill:url(#linear-gradient-171);}.cls-186{fill:url(#linear-gradient-172);}.cls-187{fill:url(#linear-gradient-173);}</style><linearGradient id="linear-gradient" x1="875.39" y1="1198.27" x2="215.36" y2="1740.44" gradientUnits="userSpaceOnUse"><stop offset="0" stop-color="#ff9085"/><stop offset="1" stop-color="#fb6fbb"/></linearGradient><clipPath id="clip-path"><path class="cls-3" d="M1160.4,1537c-92-67.35-181.8-99.07-266.82-94.32-37.1,2.08-63.22,10.36-88.48,18.37-32.06,10.17-62.34,19.77-112.69,17.67-90.44-3.78-167.67-34.53-217.47-86.6-77.1-80.6-94.22-215.66-43.63-344.07l3.24,1.28c-50.1,127.15-33.26,260.76,42.9,340.39,49.18,51.41,125.57,81.78,215.11,85.52,49.72,2.07,79.73-7.44,111.48-17.51,25.47-8.07,51.81-16.43,89.35-18.53,85.87-4.8,176.37,27.16,269.07,95Z"/></clipPath><linearGradient id="linear-gradient-2" x1="355" y1="886.77" x2="1113.68" y2="886.77" gradientUnits="userSpaceOnUse"><stop offset="0" stop-color="#ffc444"/><stop offset="1" stop-color="#f36f56"/></linearGradient><clipPath id="clip-path-2"><path class="cls-1" d="M1065.07,1700.94c35.63-108.57,71.89-274.32,29.44-458.34C1045.76,1031.3,937.78,989,840.83,763.15c-138.4-322.43,18.23-556-125-654.52-69.87-48.06-179.74-48.1-247.48.15C275.05,246.43,328,846,634.66,1080c138.68,105.81,259.69,93.26,363.75,230.19C1090.37,1431.15,1083.16,1590.78,1065.07,1700.94Z"/></clipPath><linearGradient id="linear-gradient-3" x1="3721.98" y1="-5843.01" x2="5248.43" y2="-7348.7" gradientTransform="matrix(-0.96, 0.27, 0.27, 0.96, -2597.5, 1081.61)" gradientUnits="userSpaceOnUse"><stop offset="0" stop-color="#e38ddd"/><stop offset="1" stop-color="#9571f6"/></linearGradient><clipPath id="clip-path-3"><path class="cls-1" d="M1127.08,1570c11.31-68.35,17.8-175.1-37.84-270.57-97.06-166.55-274-111.3-443.34-289.74C509.31,865.77,552.36,753.91,401,658.27c-25.33-16-159.19-104.11-258.73-51C86.18,637.13,65.86,698.51,62.05,710,4.38,884.2,181.78,1156.88,413,1281.59c132.85,71.66,175.71,48.24,409.49,131.81A1315.78,1315.78,0,0,1,1127.08,1570Z"/></clipPath><clipPath id="clip-path-4"><path class="cls-2" d="M1129.47,1511.93a738.22,738.22,0,0,0-183.93-96.53c-148.86-52.77-217.08-21.64-280.09-84.57-65.23-65.14-23-129.31-101.08-202-6.57-6.12-90.42-82.2-166.28-53.87-53.07,19.82-73.73,80.1-83.43,108.39-37.63,109.78-15.75,277,101.37,359.56,111,78.22,251.61,40.94,296.25,28.79,78.3-21.32,96.85-51.84,176.45-71.14C985.54,1477,1072.55,1494.43,1129.47,1511.93Z"/></clipPath><linearGradient id="linear-gradient-5" x1="1720.69" y1="75.3" x2="2052.22" y2="261.1" gradientUnits="userSpaceOnUse"><stop offset="0" stop-color="#444b8c"/><stop offset="1" stop-color="#26264f"/></linearGradient><linearGradient id="linear-gradient-6" x1="1663.89" y1="127.6" x2="1672.15" y2="253.52" xlink:href="#linear-gradient"/><linearGradient id="linear-gradient-7" x1="1693.91" y1="205.86" x2="1695.01" y2="222.71" xlink:href="#linear-gradient"/><linearGradient id="linear-gradient-8" x1="1719.83" y1="155.27" x2="1725.51" y2="241.83" xlink:href="#linear-gradient"/><linearGradient id="linear-gradient-9" x1="1748.41" y1="191" x2="1750.93" y2="229.43" xlink:href="#linear-gradient"/><linearGradient id="linear-gradient-10" x1="1774.38" y1="148.31" x2="1780.63" y2="243.58" xlink:href="#linear-gradient"/><linearGradient id="linear-gradient-11" x1="1802.39" y1="170.38" x2="1806.73" y2="236.58" xlink:href="#linear-gradient"/><linearGradient id="linear-gradient-12" x1="1828.35" y1="133.61" x2="1835.79" y2="247" xlink:href="#linear-gradient"/><linearGradient id="linear-gradient-13" x1="1855.14" y1="124.18" x2="1863.32" y2="248.85" xlink:href="#linear-gradient"/><linearGradient id="linear-gradient-14" x1="1883.86" y1="172.93" x2="1888.01" y2="236.13" xlink:href="#linear-gradient"/><linearGradient id="linear-gradient-15" x1="1908.77" y1="113.77" x2="1917.68" y2="249.69" xlink:href="#linear-gradient"/><linearGradient id="linear-gradient-16" x1="1936.21" y1="129.57" x2="1943.81" y2="245.44" xlink:href="#linear-gradient"/><linearGradient id="linear-gradient-17" x1="1965.51" y1="198.93" x2="1967.64" y2="231.34" xlink:href="#linear-gradient"/><linearGradient id="linear-gradient-18" x1="1991.02" y1="164.45" x2="1995.84" y2="237.98" xlink:href="#linear-gradient"/><linearGradient id="linear-gradient-19" x1="2016.7" y1="137.34" x2="2023.59" y2="242.32" xlink:href="#linear-gradient"/><linearGradient id="linear-gradient-20" x1="2044.19" y1="161.35" x2="2049.23" y2="238.31" xlink:href="#linear-gradient"/><linearGradient id="linear-gradient-21" x1="2069.35" y1="124.86" x2="2077.1" y2="243.04" xlink:href="#linear-gradient"/><linearGradient id="linear-gradient-22" x1="2095.34" y1="112.86" x2="2103.92" y2="243.82" xlink:href="#linear-gradient"/><linearGradient id="linear-gradient-23" x1="1721.54" y1="290.11" x2="2051.31" y2="474.92" xlink:href="#linear-gradient-5"/><linearGradient id="linear-gradient-24" x1="1663.9" y1="344.39" x2="1672.14" y2="470.08" xlink:href="#linear-gradient"/><linearGradient id="linear-gradient-25" x1="1693.91" y1="422.35" x2="1695" y2="438.97" xlink:href="#linear-gradient"/><linearGradient id="linear-gradient-26" x1="1719.84" y1="371.45" x2="1725.5" y2="457.79" xlink:href="#linear-gradient"/><linearGradient id="linear-gradient-27" x1="1748.42" y1="406.88" x2="1750.92" y2="445.09" xlink:href="#linear-gradient"/><linearGradient id="linear-gradient-28" x1="1774.39" y1="363.9" x2="1780.62" y2="458.94" xlink:href="#linear-gradient"/><linearGradient id="linear-gradient-29" x1="1802.39" y1="385.67" x2="1806.72" y2="451.64" xlink:href="#linear-gradient"/><linearGradient id="linear-gradient-30" x1="1828.36" y1="348.6" x2="1835.78" y2="461.75" xlink:href="#linear-gradient"/><linearGradient id="linear-gradient-31" x1="1855.15" y1="338.86" x2="1863.31" y2="463.32" xlink:href="#linear-gradient"/><linearGradient id="linear-gradient-32" x1="1883.87" y1="387.31" x2="1888" y2="450.29" xlink:href="#linear-gradient"/><linearGradient id="linear-gradient-33" x1="1908.77" y1="327.86" x2="1917.67" y2="463.56" xlink:href="#linear-gradient"/><linearGradient id="linear-gradient-34" x1="1936.21" y1="343.36" x2="1943.8" y2="459.02" xlink:href="#linear-gradient"/><linearGradient id="linear-gradient-35" x1="1965.52" y1="412.43" x2="1967.63" y2="444.62" xlink:href="#linear-gradient"/><linearGradient id="linear-gradient-36" x1="1991.03" y1="377.66" x2="1995.84" y2="450.96" xlink:href="#linear-gradient"/><linearGradient id="linear-gradient-37" x1="2016.71" y1="350.25" x2="2023.58" y2="455.02" xlink:href="#linear-gradient"/><linearGradient id="linear-gradient-38" x1="2044.19" y1="373.97" x2="2049.23" y2="450.71" xlink:href="#linear-gradient"/><linearGradient id="linear-gradient-39" x1="2069.36" y1="337.19" x2="2077.09" y2="455.15" xlink:href="#linear-gradient"/><linearGradient id="linear-gradient-40" x1="2095.34" y1="324.9" x2="2103.92" y2="455.64" xlink:href="#linear-gradient"/><linearGradient id="linear-gradient-41" x1="1722.39" y1="504.92" x2="2050.41" y2="688.74" xlink:href="#linear-gradient-5"/><linearGradient id="linear-gradient-42" x1="1663.9" y1="561.17" x2="1672.13" y2="686.65" xlink:href="#linear-gradient"/><linearGradient id="linear-gradient-43" x1="1693.92" y1="638.83" x2="1694.99" y2="655.23" xlink:href="#linear-gradient"/><linearGradient id="linear-gradient-44" x1="1719.84" y1="587.63" x2="1725.49" y2="673.74" xlink:href="#linear-gradient"/><linearGradient id="linear-gradient-45" x1="1748.42" y1="622.76" x2="1750.91" y2="660.74" xlink:href="#linear-gradient"/><linearGradient id="linear-gradient-46" x1="1774.39" y1="579.48" x2="1780.61" y2="674.3" xlink:href="#linear-gradient"/><linearGradient id="linear-gradient-47" x1="1802.4" y1="600.95" x2="1806.71" y2="666.7" xlink:href="#linear-gradient"/><linearGradient id="linear-gradient-48" x1="1828.36" y1="563.58" x2="1835.77" y2="676.51" xlink:href="#linear-gradient"/><linearGradient id="linear-gradient-49" x1="1855.15" y1="553.55" x2="1863.3" y2="677.78" xlink:href="#linear-gradient"/><linearGradient id="linear-gradient-50" x1="1883.88" y1="601.7" x2="1887.99" y2="664.46" xlink:href="#linear-gradient"/><linearGradient id="linear-gradient-51" x1="1908.78" y1="541.95" x2="1917.66" y2="677.43" xlink:href="#linear-gradient"/><linearGradient id="linear-gradient-52" x1="1936.22" y1="557.16" x2="1943.79" y2="672.59" xlink:href="#linear-gradient"/><linearGradient id="linear-gradient-53" x1="1965.52" y1="625.93" x2="1967.62" y2="657.9" xlink:href="#linear-gradient"/><linearGradient id="linear-gradient-54" x1="1991.04" y1="590.87" x2="1995.83" y2="663.95" xlink:href="#linear-gradient"/><linearGradient id="linear-gradient-55" x1="2016.72" y1="563.17" x2="2023.57" y2="667.71" xlink:href="#linear-gradient"/><linearGradient id="linear-gradient-56" x1="2044.2" y1="586.59" x2="2049.22" y2="663.12" xlink:href="#linear-gradient"/><linearGradient id="linear-gradient-57" x1="2069.36" y1="549.52" x2="2077.08" y2="667.26" xlink:href="#linear-gradient"/><linearGradient id="linear-gradient-58" x1="2095.35" y1="536.93" x2="2103.91" y2="667.46" xlink:href="#linear-gradient"/><linearGradient id="linear-gradient-59" x1="1723.25" y1="719.73" x2="2049.5" y2="902.56" xlink:href="#linear-gradient-5"/><linearGradient id="linear-gradient-60" x1="1663.91" y1="777.96" x2="1672.12" y2="903.21" xlink:href="#linear-gradient"/><linearGradient id="linear-gradient-61" x1="1693.92" y1="855.32" x2="1694.98" y2="871.49" xlink:href="#linear-gradient"/><linearGradient id="linear-gradient-62" x1="1719.85" y1="803.82" x2="1725.48" y2="889.7" xlink:href="#linear-gradient"/><linearGradient id="linear-gradient-63" x1="1748.43" y1="838.64" x2="1750.91" y2="876.4" xlink:href="#linear-gradient"/><linearGradient id="linear-gradient-64" x1="1774.4" y1="795.06" x2="1780.6" y2="889.65" xlink:href="#linear-gradient"/><linearGradient id="linear-gradient-65" x1="1802.41" y1="816.23" x2="1806.7" y2="881.75" xlink:href="#linear-gradient"/><linearGradient id="linear-gradient-66" x1="1828.37" y1="778.56" x2="1835.76" y2="891.27" xlink:href="#linear-gradient"/><linearGradient id="linear-gradient-67" x1="1855.16" y1="768.23" x2="1863.29" y2="892.24" xlink:href="#linear-gradient"/><linearGradient id="linear-gradient-68" x1="1883.88" y1="816.09" x2="1887.98" y2="878.62" xlink:href="#linear-gradient"/><linearGradient id="linear-gradient-69" x1="1908.79" y1="756.04" x2="1917.66" y2="891.3" xlink:href="#linear-gradient"/><linearGradient id="linear-gradient-70" x1="1936.23" y1="770.95" x2="1943.78" y2="886.17" xlink:href="#linear-gradient"/><linearGradient id="linear-gradient-71" x1="1965.53" y1="839.43" x2="1967.61" y2="871.18" xlink:href="#linear-gradient"/><linearGradient id="linear-gradient-72" x1="1991.04" y1="804.07" x2="1995.82" y2="876.94" xlink:href="#linear-gradient"/><linearGradient id="linear-gradient-73" x1="2016.73" y1="776.08" x2="2023.57" y2="880.4" xlink:href="#linear-gradient"/><linearGradient id="linear-gradient-74" x1="2044.21" y1="799.21" x2="2049.21" y2="875.52" xlink:href="#linear-gradient"/><linearGradient id="linear-gradient-75" x1="2069.37" y1="761.85" x2="2077.08" y2="879.37" xlink:href="#linear-gradient"/><linearGradient id="linear-gradient-76" x1="2095.36" y1="748.97" x2="2103.9" y2="879.28" xlink:href="#linear-gradient"/><linearGradient id="linear-gradient-77" x1="1724.1" y1="934.54" x2="2048.59" y2="1116.38" xlink:href="#linear-gradient-5"/><linearGradient id="linear-gradient-78" x1="1663.91" y1="994.75" x2="1672.11" y2="1119.77" xlink:href="#linear-gradient"/><linearGradient id="linear-gradient-79" x1="1693.93" y1="1071.8" x2="1694.97" y2="1087.75" xlink:href="#linear-gradient"/><linearGradient id="linear-gradient-80" x1="1719.85" y1="1020" x2="1725.47" y2="1105.66" xlink:href="#linear-gradient"/><linearGradient id="linear-gradient-81" x1="1748.44" y1="1054.53" x2="1750.9" y2="1092.06" xlink:href="#linear-gradient"/><linearGradient id="linear-gradient-82" x1="1774.41" y1="1010.64" x2="1780.59" y2="1105.01" xlink:href="#linear-gradient"/><linearGradient id="linear-gradient-83" x1="1802.41" y1="1031.51" x2="1806.69" y2="1096.81" xlink:href="#linear-gradient"/><linearGradient id="linear-gradient-84" x1="1828.38" y1="993.54" x2="1835.75" y2="1106.03" xlink:href="#linear-gradient"/><linearGradient id="linear-gradient-85" x1="1855.17" y1="982.92" x2="1863.28" y2="1106.7" xlink:href="#linear-gradient"/><linearGradient id="linear-gradient-86" x1="1883.89" y1="1030.47" x2="1887.98" y2="1092.79" xlink:href="#linear-gradient"/><linearGradient id="linear-gradient-87" x1="1908.79" y1="970.13" x2="1917.65" y2="1105.17" xlink:href="#linear-gradient"/><linearGradient id="linear-gradient-88" x1="1936.23" y1="984.75" x2="1943.77" y2="1099.74" xlink:href="#linear-gradient"/><linearGradient id="linear-gradient-89" x1="1965.54" y1="1052.93" x2="1967.61" y2="1084.46" xlink:href="#linear-gradient"/><linearGradient id="linear-gradient-90" x1="1991.05" y1="1017.28" x2="1995.81" y2="1089.92" xlink:href="#linear-gradient"/><linearGradient id="linear-gradient-91" x1="2016.73" y1="988.99" x2="2023.56" y2="1093.1" xlink:href="#linear-gradient"/><linearGradient id="linear-gradient-92" x1="2044.22" y1="1011.84" x2="2049.21" y2="1087.92" xlink:href="#linear-gradient"/><linearGradient id="linear-gradient-93" x1="2069.38" y1="974.18" x2="2077.07" y2="1091.48" xlink:href="#linear-gradient"/><linearGradient id="linear-gradient-94" x1="2095.37" y1="961.01" x2="2103.9" y2="1091.1" xlink:href="#linear-gradient"/><linearGradient id="linear-gradient-95" x1="1724.96" y1="1149.35" x2="2047.68" y2="1330.21" xlink:href="#linear-gradient-5"/><linearGradient id="linear-gradient-96" x1="1663.92" y1="1211.54" x2="1672.1" y2="1336.33" xlink:href="#linear-gradient"/><linearGradient id="linear-gradient-97" x1="1693.93" y1="1288.29" x2="1694.96" y2="1304.01" xlink:href="#linear-gradient"/><linearGradient id="linear-gradient-98" x1="1719.86" y1="1236.18" x2="1725.46" y2="1321.62" xlink:href="#linear-gradient"/><linearGradient id="linear-gradient-99" x1="1748.44" y1="1270.41" x2="1750.89" y2="1307.71" xlink:href="#linear-gradient"/><linearGradient id="linear-gradient-100" x1="1774.41" y1="1226.22" x2="1780.58" y2="1320.37" xlink:href="#linear-gradient"/><linearGradient id="linear-gradient-101" x1="1802.42" y1="1246.79" x2="1806.68" y2="1311.87" xlink:href="#linear-gradient"/><linearGradient id="linear-gradient-102" x1="1828.38" y1="1208.52" x2="1835.74" y2="1320.79" xlink:href="#linear-gradient"/><linearGradient id="linear-gradient-103" x1="1855.17" y1="1197.6" x2="1863.27" y2="1321.16" xlink:href="#linear-gradient"/><linearGradient id="linear-gradient-104" x1="1883.9" y1="1244.86" x2="1887.97" y2="1306.96" xlink:href="#linear-gradient"/><linearGradient id="linear-gradient-105" x1="1908.8" y1="1184.22" x2="1917.64" y2="1319.03" xlink:href="#linear-gradient"/><linearGradient id="linear-gradient-106" x1="1936.24" y1="1198.54" x2="1943.77" y2="1313.31" xlink:href="#linear-gradient"/><linearGradient id="linear-gradient-107" x1="1965.54" y1="1266.43" x2="1967.6" y2="1297.74" xlink:href="#linear-gradient"/><linearGradient id="linear-gradient-108" x1="1991.06" y1="1230.49" x2="1995.81" y2="1302.91" xlink:href="#linear-gradient"/><linearGradient id="linear-gradient-109" x1="2016.74" y1="1201.91" x2="2023.55" y2="1305.79" xlink:href="#linear-gradient"/><linearGradient id="linear-gradient-110" x1="2044.22" y1="1224.46" x2="2049.2" y2="1300.33" xlink:href="#linear-gradient"/><linearGradient id="linear-gradient-111" x1="2069.39" y1="1186.51" x2="2077.06" y2="1303.59" xlink:href="#linear-gradient"/><linearGradient id="linear-gradient-112" x1="2095.37" y1="1173.05" x2="2103.89" y2="1302.92" xlink:href="#linear-gradient"/><linearGradient id="linear-gradient-113" x1="1725.81" y1="1364.16" x2="2046.77" y2="1544.03" xlink:href="#linear-gradient-5"/><linearGradient id="linear-gradient-114" x1="1663.92" y1="1428.33" x2="1672.09" y2="1552.89" xlink:href="#linear-gradient"/><linearGradient id="linear-gradient-115" x1="1693.94" y1="1504.77" x2="1694.95" y2="1520.26" xlink:href="#linear-gradient"/><linearGradient id="linear-gradient-116" x1="1719.86" y1="1452.37" x2="1725.45" y2="1537.57" xlink:href="#linear-gradient"/><linearGradient id="linear-gradient-117" x1="1748.45" y1="1486.29" x2="1750.88" y2="1523.37" xlink:href="#linear-gradient"/><linearGradient id="linear-gradient-118" x1="1774.42" y1="1441.8" x2="1780.57" y2="1535.72" xlink:href="#linear-gradient"/><linearGradient id="linear-gradient-119" x1="1802.42" y1="1462.07" x2="1806.68" y2="1526.93" xlink:href="#linear-gradient"/><linearGradient id="linear-gradient-120" x1="1828.39" y1="1423.51" x2="1835.73" y2="1535.55" xlink:href="#linear-gradient"/><linearGradient id="linear-gradient-121" x1="1855.18" y1="1412.29" x2="1863.27" y2="1535.62" xlink:href="#linear-gradient"/><linearGradient id="linear-gradient-122" x1="1883.9" y1="1459.25" x2="1887.96" y2="1521.12" xlink:href="#linear-gradient"/><linearGradient id="linear-gradient-123" x1="1908.81" y1="1398.31" x2="1917.63" y2="1532.9" xlink:href="#linear-gradient"/><linearGradient id="linear-gradient-124" x1="1936.25" y1="1412.34" x2="1943.76" y2="1526.89" xlink:href="#linear-gradient"/><linearGradient id="linear-gradient-125" x1="1965.55" y1="1479.93" x2="1967.59" y2="1511.02" xlink:href="#linear-gradient"/><linearGradient id="linear-gradient-126" x1="1991.06" y1="1443.69" x2="1995.8" y2="1515.9" xlink:href="#linear-gradient"/><linearGradient id="linear-gradient-127" x1="2016.75" y1="1414.82" x2="2023.54" y2="1518.49" xlink:href="#linear-gradient"/><linearGradient id="linear-gradient-128" x1="2044.23" y1="1437.08" x2="2049.19" y2="1512.73" xlink:href="#linear-gradient"/><linearGradient id="linear-gradient-129" x1="2069.39" y1="1398.84" x2="2077.06" y2="1515.71" xlink:href="#linear-gradient"/><linearGradient id="linear-gradient-130" x1="2095.38" y1="1385.09" x2="2103.88" y2="1514.75" xlink:href="#linear-gradient"/><linearGradient id="linear-gradient-131" x1="1726.67" y1="1578.97" x2="2045.87" y2="1757.85" xlink:href="#linear-gradient-5"/><linearGradient id="linear-gradient-132" x1="1663.93" y1="1645.12" x2="1672.08" y2="1769.45" xlink:href="#linear-gradient"/><linearGradient id="linear-gradient-133" x1="1693.94" y1="1721.26" x2="1694.94" y2="1736.52" xlink:href="#linear-gradient"/><linearGradient id="linear-gradient-134" x1="1719.87" y1="1668.55" x2="1725.44" y2="1753.53" xlink:href="#linear-gradient"/><linearGradient id="linear-gradient-135" x1="1748.45" y1="1702.17" x2="1750.87" y2="1739.02" xlink:href="#linear-gradient"/><linearGradient id="linear-gradient-136" x1="1774.42" y1="1657.38" x2="1780.57" y2="1751.08" xlink:href="#linear-gradient"/><linearGradient id="linear-gradient-137" x1="1802.43" y1="1677.35" x2="1806.67" y2="1741.98" xlink:href="#linear-gradient"/><linearGradient id="linear-gradient-138" x1="1828.39" y1="1638.49" x2="1835.73" y2="1750.31" xlink:href="#linear-gradient"/><linearGradient id="linear-gradient-139" x1="1855.18" y1="1626.97" x2="1863.26" y2="1750.09" xlink:href="#linear-gradient"/><linearGradient id="linear-gradient-140" x1="1883.91" y1="1673.64" x2="1887.95" y2="1735.29" xlink:href="#linear-gradient"/><linearGradient id="linear-gradient-141" x1="1908.81" y1="1612.4" x2="1917.62" y2="1746.77" xlink:href="#linear-gradient"/><linearGradient id="linear-gradient-142" x1="1936.25" y1="1626.13" x2="1943.75" y2="1740.46" xlink:href="#linear-gradient"/><linearGradient id="linear-gradient-143" x1="1965.56" y1="1693.43" x2="1967.58" y2="1724.3" xlink:href="#linear-gradient"/><linearGradient id="linear-gradient-144" x1="1991.07" y1="1656.9" x2="1995.79" y2="1728.88" xlink:href="#linear-gradient"/><linearGradient id="linear-gradient-145" x1="2016.75" y1="1627.73" x2="2023.54" y2="1731.18" xlink:href="#linear-gradient"/><linearGradient id="linear-gradient-146" x1="2044.24" y1="1649.7" x2="2049.18" y2="1725.13" xlink:href="#linear-gradient"/><linearGradient id="linear-gradient-147" x1="2069.4" y1="1611.17" x2="2077.05" y2="1727.82" xlink:href="#linear-gradient"/><linearGradient id="linear-gradient-148" x1="2095.39" y1="1597.13" x2="2103.88" y2="1726.57" xlink:href="#linear-gradient"/><linearGradient id="linear-gradient-149" x1="1321.18" y1="2568.47" x2="1128.33" y2="2649.46" gradientUnits="userSpaceOnUse"><stop offset="0" stop-color="#40447e"/><stop offset="1" stop-color="#3c3b6b"/></linearGradient><linearGradient id="linear-gradient-150" x1="1007.4" y1="1711.14" x2="807.45" y2="1795.12" xlink:href="#linear-gradient-149"/><linearGradient id="linear-gradient-151" x1="161.75" y1="1759.55" x2="1983.91" y2="1759.55" xlink:href="#linear-gradient-149"/><linearGradient id="linear-gradient-152" x1="278.8" y1="2346.98" x2="2128.5" y2="840.74" gradientUnits="userSpaceOnUse"><stop offset="0" stop-color="#aa80f9"/><stop offset="1" stop-color="#6165d7"/></linearGradient><linearGradient id="linear-gradient-153" x1="161.75" y1="2483.32" x2="2906.76" y2="2483.32" xlink:href="#linear-gradient-149"/><linearGradient id="linear-gradient-154" x1="430.95" y1="2460.62" x2="2442.2" y2="2460.62" xlink:href="#linear-gradient-149"/><linearGradient id="linear-gradient-155" x1="3420.77" y1="2160.8" x2="1728.4" y2="1681.89" xlink:href="#linear-gradient-2"/><linearGradient id="linear-gradient-156" x1="3416.33" y1="2176.47" x2="1723.96" y2="1697.57" xlink:href="#linear-gradient-2"/><linearGradient id="linear-gradient-157" x1="1684.05" y1="1091.31" x2="1710.51" y2="3228.4" xlink:href="#linear-gradient-2"/><linearGradient id="linear-gradient-158" x1="-3788.23" y1="1061.88" x2="-3741.03" y2="1061.88" gradientTransform="matrix(-1, 0, 0, 1, -1867.08, 0)" gradientUnits="userSpaceOnUse"><stop offset="0" stop-color="#311944"/><stop offset="1" stop-color="#893976"/></linearGradient><linearGradient id="linear-gradient-159" x1="5023.12" y1="2285.64" x2="5041.61" y2="2521.03" gradientTransform="translate(-2691.46)" gradientUnits="userSpaceOnUse"><stop offset="0" stop-color="#311944"/><stop offset="1" stop-color="#a03976"/></linearGradient><linearGradient id="linear-gradient-160" x1="5070.86" y1="2416.69" x2="5067.5" y2="2172.89" gradientTransform="translate(-2691.46)" xlink:href="#linear-gradient-2"/><linearGradient id="linear-gradient-161" x1="5372.63" y1="2258.18" x2="5391.13" y2="2493.57" xlink:href="#linear-gradient-159"/><linearGradient id="linear-gradient-162" x1="5391.18" y1="2412.27" x2="5387.81" y2="2168.47" gradientTransform="translate(-2691.46)" xlink:href="#linear-gradient-2"/><linearGradient id="linear-gradient-163" x1="5012.68" y1="2021.75" x2="5192.94" y2="2021.75" gradientTransform="translate(-2691.46)" gradientUnits="userSpaceOnUse"><stop offset="0" stop-color="#444b8c"/><stop offset="1" stop-color="#3e4177"/></linearGradient><linearGradient id="linear-gradient-164" x1="5012.68" y1="2021.75" x2="5192.94" y2="2021.75" xlink:href="#linear-gradient-163"/><linearGradient id="linear-gradient-165" x1="5062.72" y1="2003.98" x2="5425.6" y2="2003.98" xlink:href="#linear-gradient-163"/><linearGradient id="linear-gradient-166" x1="-4216.54" y1="1194.98" x2="-4196.09" y2="1355.13" xlink:href="#linear-gradient-158"/><linearGradient id="linear-gradient-167" x1="-4204.95" y1="1163.73" x2="-4214.04" y2="1054.7" gradientTransform="matrix(-1, 0, 0, 1, -1867.08, 0)" gradientUnits="userSpaceOnUse"><stop offset="0" stop-color="#26264f"/><stop offset="1" stop-color="#444b8c"/></linearGradient><linearGradient id="linear-gradient-168" x1="-4261.47" y1="1092.9" x2="-4177.42" y2="1181.49" xlink:href="#linear-gradient-158"/><linearGradient id="linear-gradient-169" x1="-4085.78" y1="1943.82" x2="-4162.27" y2="1208.17" gradientTransform="matrix(-1, 0, 0, 1, -1867.08, 0)" gradientUnits="userSpaceOnUse"><stop offset="0" stop-color="#6165d7"/><stop offset="1" stop-color="#aa80f9"/></linearGradient><linearGradient id="linear-gradient-170" x1="-4319.87" y1="1970.07" x2="-4397.11" y2="1227.25" gradientTransform="matrix(-1, 0, 0, 1, -1867.08, 0)" xlink:href="#linear-gradient-152"/><linearGradient id="linear-gradient-171" x1="5078.34" y1="1874.4" x2="2354.67" y2="743.38" gradientTransform="translate(31.51 343.54) rotate(-7.9)" gradientUnits="userSpaceOnUse"><stop offset="0.1" stop-color="#311944"/><stop offset="0.27" stop-color="#371b47"/><stop offset="0.48" stop-color="#462150"/><stop offset="0.51" stop-color="#4a2252"/><stop offset="0.68" stop-color="#5c295c"/><stop offset="1" stop-color="#893976"/></linearGradient><linearGradient id="linear-gradient-172" x1="4946.93" y1="1817.54" x2="2223.19" y2="686.49" gradientTransform="translate(31.51 343.54) rotate(-7.9)" gradientUnits="userSpaceOnUse"><stop offset="0.1" stop-color="#311944"/><stop offset="0.27" stop-color="#371b47"/><stop offset="0.48" stop-color="#462150"/><stop offset="0.72" stop-color="#612a5f"/><stop offset="0.97" stop-color="#853774"/><stop offset="1" stop-color="#893976"/></linearGradient><linearGradient id="linear-gradient-173" x1="1390.34" y1="116.53" x2="3366.14" y2="1353.71" gradientTransform="translate(31.51 343.54) rotate(-7.9)" xlink:href="#linear-gradient-152"/></defs><g class="cls-4"><g id="Illustration"><g id="Database"><path class="cls-5" d="M1959.59,120.44c-196-41.69-399.71-61.67-598.92-48.94C1184.1,82.79,984,113.6,841.88,224c-67.71,52.6-148.46,147.11-170.61,230.49,0,0-116.59,438.87-349.75,532.92S-73.56,2686.44,1694.6,2529.7c0,0,1038.52-41.07,1101.05-1224.12,15.11-285.79,6.67-600-174.29-838.93-138.67-183.12-333-264.54-556.23-321.51Q2012.82,131.79,1959.59,120.44Z"/><path class="cls-6" d="M1065.07,1700.94c35.63-108.57,71.89-274.32,29.44-458.34C1045.76,1031.3,937.78,989,840.83,763.15c-138.4-322.43,18.23-556-125-654.52-69.87-48.06-179.74-48.1-247.48.15C275.05,246.43,328,846,634.66,1080c138.68,105.81,259.69,93.26,363.75,230.19C1090.37,1431.15,1083.16,1590.78,1065.07,1700.94Z"/><g class="cls-7"><g class="cls-8"><path class="cls-3" d="M1086.85,1427.76a823.67,823.67,0,0,0-46.43-133.37C996.32,1196,947.65,1141.81,886,1073.26c-40.22-44.74-85.81-95.45-138.48-168.16C649,769.07,618.4,721.28,591,644.25c-54.23-152.44-45.9-289.11-36.11-357A741.82,741.82,0,0,1,650.94,14.8l3,1.77a738.41,738.41,0,0,0-95.6,271.17c-9.75,67.58-18,203.61,35.94,355.34,27.26,76.62,57.76,124.26,156.09,260,52.58,72.56,98.09,123.2,138.25,167.87,61.83,68.78,110.67,123.11,155,222a827.35,827.35,0,0,1,46.62,133.93Z"/><path class="cls-3" d="M564.53,536.58,562,535.21c-.57-.31-57.81-31.77-108.67-95.8-46.95-59.11-98-158.88-74.39-298.47l3.44.58C359,279.78,409.51,378.6,456,437.14c44.38,55.92,93.64,86.78,105.18,93.57,3.18-111.51,74.67-183.77,134.38-224.86,65.13-44.83,130.67-63.21,131.33-63.39l.92,3.35c-.65.18-65.71,18.44-130.36,63-59.52,41-130.88,113.28-132.86,224.94Z"/><path class="cls-3" d="M580.83,895.2c-57.89,0-125.91-14.22-188.73-63.12l2.14-2.75c141,109.73,308.61,42.83,325.26,35.75C691,755,716.21,673.75,742.43,624.92c28.55-53.17,64.53-80.5,64.89-80.77l2.09,2.78c-.35.27-35.81,27.24-64,79.79-26,48.46-50.94,129.26-22.18,238.92l.37,1.41-1.33.61C721.25,868.14,660.68,895.2,580.83,895.2Z"/><path class="cls-3" d="M710,1105.22c-43.42,0-95.38-7.88-155.85-30l1.2-3.27c198.09,72.37,303.85-8.7,314.76-17.75-48.21-112.79,19.69-295.18,20.38-297l3.26,1.23c-.69,1.83-68.56,184.19-19.93,295.57l.49,1.14-.92.84C872.61,1056.69,817.64,1105.22,710,1105.22Z"/></g></g><path class="cls-9" d="M1127.08,1570c11.31-68.35,17.8-175.1-37.84-270.57-97.06-166.55-274-111.3-443.34-289.74C509.31,865.77,552.36,753.91,401,658.27c-25.33-16-159.19-104.11-258.73-51C86.18,637.13,65.86,698.51,62.05,710,4.38,884.2,181.78,1156.88,413,1281.59c132.85,71.66,175.71,48.24,409.49,131.81A1315.78,1315.78,0,0,1,1127.08,1570Z"/><g class="cls-7"><g class="cls-10"><path class="cls-3" d="M1146.58,1652.31c-33.84-162.51-97.86-271.61-190.31-324.27-45.1-25.69-81.14-29.77-119.29-34.09-41.69-4.72-84.8-9.6-141.83-44.08-55.5-33.56-75.34-65.79-100.46-106.59-22.31-36.24-50.09-81.35-112.4-141.41-54.63-52.65-94.43-77.3-129.55-99.06-38.44-23.81-68.8-42.61-104-88.8-57.42-75.25-87.43-171.67-89.2-286.58l3.48,0c1.76,114.15,31.53,209.87,88.49,284.51,34.86,45.69,65,64.34,103.12,88,35.26,21.84,75.23,46.6,130.12,99.51,62.63,60.36,90.54,105.68,113,142.09,24.87,40.4,44.52,72.31,99.29,105.43,56.38,34.09,99.1,38.92,140.42,43.6,38.52,4.36,74.9,8.48,120.62,34.52,93.36,53.19,158,163.06,192,326.59Z"/><path class="cls-3" d="M354.77,912.85C236,912.85,147.3,867.32,93.1,828.26,32,784.25.31,738.69,0,738.23l2.87-2c.31.45,31.76,45.6,92.38,89.25,55.55,40,147.6,86.88,271.39,83.7-7.45-23.92-69.44-233.51,10.75-323.49L380,588c-83.35,93.53-10.09,320-9.34,322.32l.72,2.21-2.33.07Q361.84,912.86,354.77,912.85Z"/><path class="cls-3" d="M345.64,1106.07c-76,0-172.88-15.64-270.11-73.93l1.79-3c121,72.51,241.42,78.58,321.18,70.9,79.12-7.62,134.83-29.87,144.12-33.77-32.2-118.8-3.5-286.33-3.21-288l3.43.6c-.29,1.69-29.08,169.84,3.54,288l.4,1.44-1.37.61c-.58.27-59.6,26.27-146.58,34.64C382.66,1105.07,364.82,1106.07,345.64,1106.07Z"/><path class="cls-3" d="M448.68,1381.93q-8.69,0-17.56-.19l.07-3.48c121.52,2.63,215-22.63,272.08-44.27,54.54-20.69,87.06-42.1,94.2-47-89.19-110.82-54.24-291.7-53.87-293.52l3.41.68c-.36,1.82-35.28,182.69,54.34,292.08l1.16,1.42-1.48,1.09C799.73,1289.67,671.62,1381.93,448.68,1381.93Z"/></g></g><g class="cls-7"><path class="cls-2" d="M1129.47,1511.93a738.22,738.22,0,0,0-183.93-96.53c-148.86-52.77-217.08-21.64-280.09-84.57-65.23-65.14-23-129.31-101.08-202-6.57-6.12-90.42-82.2-166.28-53.87-53.07,19.82-73.73,80.1-83.43,108.39-37.63,109.78-15.75,277,101.37,359.56,111,78.22,251.61,40.94,296.25,28.79,78.3-21.32,96.85-51.84,176.45-71.14C985.54,1477,1072.55,1494.43,1129.47,1511.93Z"/><g class="cls-11"><path class="cls-3" d="M1160.4,1537c-92-67.35-181.8-99.07-266.82-94.32-37.1,2.08-63.22,10.36-88.48,18.37-32.06,10.17-62.34,19.77-112.69,17.67-90.44-3.78-167.67-34.53-217.47-86.6-77.1-80.6-94.22-215.66-43.63-344.07l3.24,1.28c-50.1,127.15-33.26,260.76,42.9,340.39,49.18,51.41,125.57,81.78,215.11,85.52,49.72,2.07,79.73-7.44,111.48-17.51,25.47-8.07,51.81-16.43,89.35-18.53,85.87-4.8,176.37,27.16,269.07,95Z"/><path class="cls-3" d="M440.85,1340.79l-2.52-.9c-1.48-.53-148.18-54.16-157.29-167.91l3.47-.27C292.79,1275,417.62,1328,437,1335.65c-8.78-146.64,168.34-227.59,170.14-228.4l1.42,3.18c-1.79.8-178.89,81.77-167.91,227.68Z"/><path class="cls-3" d="M468.56,1514.38c-53.28,0-121.4-13.05-199.18-57.31l1.72-3c109,62.06,198.84,62.26,254.95,51.5,54.05-10.36,88-32.53,95.05-37.47-85.06-119.54,18.64-261.45,19.7-262.87l2.79,2.08c-1.05,1.41-104.05,142.42-18.65,260.16l1,1.38-1.35,1c-.36.27-36.37,27.32-97.88,39.11A309,309,0,0,1,468.56,1514.38Z"/></g></g><path class="cls-12" d="M926.05,95.26V1808.85a37.52,37.52,0,0,0,30.1,36.79l440.14,88.91L1516.1,799.94,1400,.27,958.71,58.05A37.53,37.53,0,0,0,926.05,95.26Z"/><path class="cls-13" d="M2178.21,31.09l-775-31c-30.56-1.22-55.39,20.49-55.39,48.49V1886.91c0,28,24.83,49.29,55.39,47.54l775-44.39c28.13-1.61,50.88-24.62,50.88-51.39V81.6C2229.09,54.83,2206.34,32.21,2178.21,31.09Z"/><path class="cls-3" d="M1401.24,214.91V84.82c0-19.9,17.61-35.38,39.29-34.56l703.05,26.43c20.13.75,36.41,16.87,36.41,36v125c0,19.12-16.28,34.18-36.41,33.63l-703-19.28C1418.85,251.44,1401.24,234.82,1401.24,214.91Z"/><path class="cls-13" d="M1474.47,99.37c0,9.18-8.09,16.34-18.09,16s-18.14-8.07-18.14-17.26,8.13-16.36,18.14-16S1474.47,90.19,1474.47,99.37Z"/><path class="cls-13" d="M1531.64,101.38c0,9.15-8.05,16.29-18,16s-18-8-18-17.22,8.08-16.3,18-15.94S1531.64,92.23,1531.64,101.38Z"/><path class="cls-13" d="M1588.48,103.38c0,9.12-8,16.25-17.89,15.91s-17.92-8-17.92-17.17,8-16.26,17.92-15.9S1588.48,94.26,1588.48,103.38Z"/><polygon class="cls-14" points="2140.22 239.89 1624.17 224.89 1624.17 88.15 2140.22 106.73 2140.22 239.89"/><g class="cls-15"><polygon class="cls-3" points="1674.43 216.72 1658.86 216.26 1658.86 105.86 1674.43 106.4 1674.43 216.72"/><polygon class="cls-3" points="1702.05 217.54 1686.53 217.08 1686.53 106.83 1702.05 107.38 1702.05 217.54"/><polygon class="cls-3" points="1729.59 218.35 1714.11 217.9 1714.11 107.8 1729.59 108.34 1729.59 218.35"/><polygon class="cls-3" points="1757.06 219.16 1741.62 218.71 1741.62 108.77 1757.06 109.31 1757.06 219.16"/><polygon class="cls-3" points="1784.45 219.97 1769.05 219.52 1769.05 109.73 1784.45 110.27 1784.45 219.97"/><polygon class="cls-3" points="1811.76 220.78 1796.41 220.33 1796.41 110.69 1811.76 111.23 1811.76 220.78"/><polygon class="cls-3" points="1838.99 221.59 1823.68 221.13 1823.68 111.65 1838.99 112.19 1838.99 221.59"/><polygon class="cls-3" points="1866.15 222.39 1850.89 221.94 1850.89 112.61 1866.15 113.15 1866.15 222.39"/><polygon class="cls-3" points="1893.24 223.19 1878.01 222.74 1878.01 113.56 1893.24 114.1 1893.24 223.19"/><polygon class="cls-3" points="1920.24 223.99 1905.06 223.54 1905.06 114.52 1920.24 115.05 1920.24 223.99"/><polygon class="cls-3" points="1947.18 224.78 1932.04 224.34 1932.04 115.47 1947.18 116 1947.18 224.78"/><polygon class="cls-3" points="1974.04 225.58 1958.94 225.13 1958.94 116.41 1974.04 116.94 1974.04 225.58"/><polygon class="cls-3" points="2000.82 226.37 1985.76 225.92 1985.76 117.36 2000.82 117.89 2000.82 226.37"/><polygon class="cls-3" points="2027.53 227.16 2012.51 226.71 2012.51 118.3 2027.53 118.82 2027.53 227.16"/><polygon class="cls-3" points="2054.16 227.94 2039.19 227.5 2039.19 119.23 2054.16 119.76 2054.16 227.94"/><polygon class="cls-3" points="2080.72 228.73 2065.79 228.29 2065.79 120.17 2080.72 120.7 2080.72 228.73"/><polygon class="cls-3" points="2107.21 229.51 2092.32 229.07 2092.32 121.1 2107.21 121.63 2107.21 229.51"/></g><g class="cls-16"><polygon class="cls-17" points="1674.43 216.72 1658.86 216.26 1658.86 122.32 1674.43 122.85 1674.43 216.72"/><polygon class="cls-18" points="1702.05 217.54 1686.53 217.08 1686.53 205.79 1702.05 206.25 1702.05 217.54"/><polygon class="cls-19" points="1729.59 218.35 1714.11 217.9 1714.11 153.77 1729.59 154.28 1729.59 218.35"/><polygon class="cls-20" points="1757.06 219.16 1741.62 218.71 1741.62 191.06 1757.06 191.53 1757.06 219.16"/><polygon class="cls-21" points="1784.45 219.97 1769.05 219.52 1769.05 148.79 1784.45 149.3 1784.45 219.97"/><polygon class="cls-22" points="1811.76 220.78 1796.41 220.33 1796.41 171.62 1811.76 172.11 1811.76 220.78"/><polygon class="cls-23" points="1838.99 221.59 1823.68 221.13 1823.68 136.67 1838.99 137.19 1838.99 221.59"/><polygon class="cls-24" points="1866.15 222.39 1850.89 221.94 1850.89 128.91 1866.15 129.44 1866.15 222.39"/><polygon class="cls-25" points="1893.24 223.19 1878.01 222.74 1878.01 176.29 1893.24 176.78 1893.24 223.19"/><polygon class="cls-26" points="1920.24 223.99 1905.06 223.54 1905.06 121.98 1920.24 122.51 1920.24 223.99"/><polygon class="cls-27" points="1947.18 224.78 1932.04 224.34 1932.04 137.96 1947.18 138.48 1947.18 224.78"/><polygon class="cls-28" points="1974.04 225.58 1958.94 225.13 1958.94 202 1974.04 202.47 1974.04 225.58"/><polygon class="cls-29" points="2000.82 226.37 1985.76 225.92 1985.76 171.64 2000.82 172.13 2000.82 226.37"/><polygon class="cls-30" points="2027.53 227.16 2012.51 226.71 2012.51 148.59 2027.53 149.09 2027.53 227.16"/><polygon class="cls-31" points="2054.16 227.94 2039.19 227.5 2039.19 170.6 2054.16 171.09 2054.16 227.94"/><polygon class="cls-32" points="2080.72 228.73 2065.79 228.29 2065.79 140.15 2080.72 140.66 2080.72 228.73"/><polygon class="cls-33" points="2107.21 229.51 2092.32 229.07 2092.32 131.25 2107.21 131.76 2107.21 229.51"/></g><path class="cls-3" d="M1401.24,434.56V304.47c0-19.91,17.61-35.58,39.29-35l703.05,18.66c20.13.53,36.41,16.47,36.41,35.6v125c0,19.12-16.28,34.36-36.41,34l-703-11.51C1418.85,470.89,1401.24,454.46,1401.24,434.56Z"/><path class="cls-13" d="M1474.47,318.21c0,9.17-8.09,16.42-18.09,16.19s-18.14-7.87-18.14-17.07,8.13-16.44,18.14-16.19S1474.47,309,1474.47,318.21Z"/><path class="cls-13" d="M1531.64,319.59c0,9.15-8.05,16.38-18,16.14s-18-7.85-18-17,8.08-16.4,18-16.15S1531.64,310.44,1531.64,319.59Z"/><path class="cls-13" d="M1588.48,321c0,9.12-8,16.33-17.89,16.1s-17.92-7.83-17.92-17,8-16.35,17.92-16.1S1588.48,311.83,1588.48,321Z"/><polygon class="cls-34" points="2140.22 451.37 1624.17 442.07 1624.17 305.33 2140.22 318.21 2140.22 451.37"/><g class="cls-15"><polygon class="cls-3" points="1674.43 433.35 1658.86 433.06 1658.86 322.65 1674.43 323.03 1674.43 433.35"/><polygon class="cls-3" points="1702.05 433.86 1686.53 433.57 1686.53 323.32 1702.05 323.7 1702.05 433.86"/><polygon class="cls-3" points="1729.59 434.37 1714.11 434.08 1714.11 323.99 1729.59 324.36 1729.59 434.37"/><polygon class="cls-3" points="1757.06 434.88 1741.62 434.59 1741.62 324.65 1757.06 325.02 1757.06 434.88"/><polygon class="cls-3" points="1784.45 435.38 1769.05 435.1 1769.05 325.31 1784.45 325.69 1784.45 435.38"/><polygon class="cls-3" points="1811.76 435.89 1796.41 435.61 1796.41 325.97 1811.76 326.34 1811.76 435.89"/><polygon class="cls-3" points="1838.99 436.39 1823.68 436.11 1823.68 326.63 1838.99 327 1838.99 436.39"/><polygon class="cls-3" points="1866.15 436.9 1850.89 436.61 1850.89 327.29 1866.15 327.66 1866.15 436.9"/><polygon class="cls-3" points="1893.24 437.4 1878.01 437.12 1878.01 327.94 1893.24 328.31 1893.24 437.4"/><polygon class="cls-3" points="1920.24 437.9 1905.06 437.62 1905.06 328.6 1920.24 328.96 1920.24 437.9"/><polygon class="cls-3" points="1947.18 438.39 1932.04 438.12 1932.04 329.25 1947.18 329.61 1947.18 438.39"/><polygon class="cls-3" points="1974.04 438.89 1958.94 438.61 1958.94 329.89 1974.04 330.26 1974.04 438.89"/><polygon class="cls-3" points="2000.82 439.39 1985.76 439.11 1985.76 330.54 2000.82 330.9 2000.82 439.39"/><polygon class="cls-3" points="2027.53 439.88 2012.51 439.6 2012.51 331.19 2027.53 331.55 2027.53 439.88"/><polygon class="cls-3" points="2054.16 440.38 2039.19 440.1 2039.19 331.83 2054.16 332.19 2054.16 440.38"/><polygon class="cls-3" points="2080.72 440.87 2065.79 440.59 2065.79 332.47 2080.72 332.83 2080.72 440.87"/><polygon class="cls-3" points="2107.21 441.36 2092.32 441.08 2092.32 333.11 2107.21 333.47 2107.21 441.36"/></g><g class="cls-16"><polygon class="cls-35" points="1674.43 433.35 1658.86 433.06 1658.86 339.12 1674.43 339.48 1674.43 433.35"/><polygon class="cls-36" points="1702.05 433.86 1686.53 433.57 1686.53 422.28 1702.05 422.58 1702.05 433.86"/><polygon class="cls-37" points="1729.59 434.37 1714.11 434.08 1714.11 369.96 1729.59 370.3 1729.59 434.37"/><polygon class="cls-38" points="1757.06 434.88 1741.62 434.59 1741.62 406.94 1757.06 407.25 1757.06 434.88"/><polygon class="cls-39" points="1784.45 435.38 1769.05 435.1 1769.05 364.37 1784.45 364.71 1784.45 435.38"/><polygon class="cls-40" points="1811.76 435.89 1796.41 435.61 1796.41 386.9 1811.76 387.22 1811.76 435.89"/><polygon class="cls-41" points="1838.99 436.39 1823.68 436.11 1823.68 351.64 1838.99 351.99 1838.99 436.39"/><polygon class="cls-42" points="1866.15 436.9 1850.89 436.61 1850.89 343.59 1866.15 343.94 1866.15 436.9"/><polygon class="cls-43" points="1893.24 437.4 1878.01 437.12 1878.01 390.67 1893.24 390.99 1893.24 437.4"/><polygon class="cls-44" points="1920.24 437.9 1905.06 437.62 1905.06 336.06 1920.24 336.42 1920.24 437.9"/><polygon class="cls-45" points="1947.18 438.39 1932.04 438.12 1932.04 351.74 1947.18 352.09 1947.18 438.39"/><polygon class="cls-46" points="1974.04 438.89 1958.94 438.61 1958.94 415.49 1974.04 415.78 1974.04 438.89"/><polygon class="cls-47" points="2000.82 439.39 1985.76 439.11 1985.76 384.82 2000.82 385.15 2000.82 439.39"/><polygon class="cls-48" points="2027.53 439.88 2012.51 439.6 2012.51 361.48 2027.53 361.81 2027.53 439.88"/><polygon class="cls-49" points="2054.16 440.38 2039.19 440.1 2039.19 383.2 2054.16 383.52 2054.16 440.38"/><polygon class="cls-50" points="2080.72 440.87 2065.79 440.59 2065.79 352.46 2080.72 352.8 2080.72 440.87"/><polygon class="cls-51" points="2107.21 441.36 2092.32 441.08 2092.32 343.25 2107.21 343.61 2107.21 441.36"/></g><path class="cls-3" d="M1401.24,654.2V524.11c0-19.9,17.61-35.77,39.29-35.43l703.05,10.89c20.13.31,36.41,16.07,36.41,35.2v125c0,19.12-16.28,34.54-36.41,34.43l-703-3.74C1418.85,690.34,1401.24,674.11,1401.24,654.2Z"/><path class="cls-13" d="M1474.47,537c0,9.18-8.09,16.52-18.09,16.4s-18.14-7.68-18.14-16.87,8.13-16.53,18.14-16.39S1474.47,527.87,1474.47,537Z"/><path class="cls-13" d="M1531.64,537.79c0,9.15-8.05,16.47-18,16.35s-18-7.65-18-16.82,8.08-16.49,18-16.35S1531.64,528.64,1531.64,537.79Z"/><path class="cls-13" d="M1588.48,538.53c0,9.13-8,16.43-17.89,16.3s-17.92-7.62-17.92-16.77,8-16.43,17.92-16.3S1588.48,529.41,1588.48,538.53Z"/><polygon class="cls-52" points="2140.22 662.85 1624.17 659.25 1624.17 522.51 2140.22 529.69 2140.22 662.85"/><g class="cls-15"><polygon class="cls-3" points="1674.43 649.98 1658.86 649.86 1658.86 539.45 1674.43 539.66 1674.43 649.98"/><polygon class="cls-3" points="1702.05 650.18 1686.53 650.07 1686.53 539.82 1702.05 540.02 1702.05 650.18"/><polygon class="cls-3" points="1729.59 650.39 1714.11 650.27 1714.11 540.18 1729.59 540.38 1729.59 650.39"/><polygon class="cls-3" points="1757.06 650.59 1741.62 650.48 1741.62 540.54 1757.06 540.74 1757.06 650.59"/><polygon class="cls-3" points="1784.45 650.8 1769.05 650.68 1769.05 540.89 1784.45 541.1 1784.45 650.8"/><polygon class="cls-3" points="1811.76 651 1796.41 650.88 1796.41 541.25 1811.76 541.45 1811.76 651"/><polygon class="cls-3" points="1838.99 651.2 1823.68 651.09 1823.68 541.61 1838.99 541.81 1838.99 651.2"/><polygon class="cls-3" points="1866.15 651.4 1850.89 651.29 1850.89 541.97 1866.15 542.16 1866.15 651.4"/><polygon class="cls-3" points="1893.24 651.61 1878.01 651.49 1878.01 542.32 1893.24 542.52 1893.24 651.61"/><polygon class="cls-3" points="1920.24 651.81 1905.06 651.69 1905.06 542.67 1920.24 542.87 1920.24 651.81"/><polygon class="cls-3" points="1947.18 652.01 1932.04 651.9 1932.04 543.03 1947.18 543.22 1947.18 652.01"/><polygon class="cls-3" points="1974.04 652.21 1958.94 652.1 1958.94 543.38 1974.04 543.58 1974.04 652.21"/><polygon class="cls-3" points="2000.82 652.41 1985.76 652.29 1985.76 543.73 2000.82 543.92 2000.82 652.41"/><polygon class="cls-3" points="2027.53 652.61 2012.51 652.5 2012.51 544.08 2027.53 544.27 2027.53 652.61"/><polygon class="cls-3" points="2054.16 652.8 2039.19 652.69 2039.19 544.43 2054.16 544.62 2054.16 652.8"/><polygon class="cls-3" points="2080.72 653 2065.79 652.89 2065.79 544.77 2080.72 544.97 2080.72 653"/><polygon class="cls-3" points="2107.21 653.2 2092.32 653.09 2092.32 545.12 2107.21 545.32 2107.21 653.2"/></g><g class="cls-16"><polygon class="cls-53" points="1674.43 649.98 1658.86 649.86 1658.86 555.91 1674.43 556.11 1674.43 649.98"/><polygon class="cls-54" points="1702.05 650.18 1686.53 650.07 1686.53 638.77 1702.05 638.9 1702.05 650.18"/><polygon class="cls-55" points="1729.59 650.39 1714.11 650.27 1714.11 586.15 1729.59 586.31 1729.59 650.39"/><polygon class="cls-56" points="1757.06 650.59 1741.62 650.48 1741.62 622.82 1757.06 622.96 1757.06 650.59"/><polygon class="cls-57" points="1784.45 650.8 1769.05 650.68 1769.05 579.95 1784.45 580.12 1784.45 650.8"/><polygon class="cls-58" points="1811.76 651 1796.41 650.88 1796.41 602.18 1811.76 602.33 1811.76 651"/><polygon class="cls-59" points="1838.99 651.2 1823.68 651.09 1823.68 566.62 1838.99 566.8 1838.99 651.2"/><polygon class="cls-60" points="1866.15 651.4 1850.89 651.29 1850.89 558.26 1866.15 558.45 1866.15 651.4"/><polygon class="cls-61" points="1893.24 651.61 1878.01 651.49 1878.01 605.04 1893.24 605.19 1893.24 651.61"/><polygon class="cls-62" points="1920.24 651.81 1905.06 651.69 1905.06 550.14 1920.24 550.33 1920.24 651.81"/><polygon class="cls-63" points="1947.18 652.01 1932.04 651.9 1932.04 565.52 1947.18 565.7 1947.18 652.01"/><polygon class="cls-64" points="1974.04 652.21 1958.94 652.1 1958.94 628.97 1974.04 629.1 1974.04 652.21"/><polygon class="cls-65" points="2000.82 652.41 1985.76 652.29 1985.76 598.01 2000.82 598.17 2000.82 652.41"/><polygon class="cls-66" points="2027.53 652.61 2012.51 652.5 2012.51 574.37 2027.53 574.54 2027.53 652.61"/><polygon class="cls-67" points="2054.16 652.8 2039.19 652.69 2039.19 595.8 2054.16 595.95 2054.16 652.8"/><polygon class="cls-68" points="2080.72 653 2065.79 652.89 2065.79 564.76 2080.72 564.94 2080.72 653"/><polygon class="cls-69" points="2107.21 653.2 2092.32 653.09 2092.32 555.26 2107.21 555.45 2107.21 653.2"/></g><path class="cls-3" d="M1401.24,873.85V743.76c0-19.91,17.61-36,39.29-35.87L2143.58,711c20.13.08,36.41,15.66,36.41,34.79v125c0,19.12-16.28,34.72-36.41,34.84l-703,4C1418.85,909.79,1401.24,893.75,1401.24,873.85Z"/><path class="cls-13" d="M1474.47,755.88c0,9.17-8.09,16.6-18.09,16.59s-18.14-7.47-18.14-16.66,8.13-16.63,18.14-16.6S1474.47,746.7,1474.47,755.88Z"/><path class="cls-13" d="M1531.64,756c0,9.15-8.05,16.56-18,16.55s-18-7.45-18-16.62,8.08-16.57,18-16.54S1531.64,746.84,1531.64,756Z"/><path class="cls-13" d="M1588.48,756.11c0,9.12-8,16.51-17.89,16.5s-17.92-7.43-17.92-16.57,8-16.53,17.92-16.5S1588.48,747,1588.48,756.11Z"/><polygon class="cls-70" points="2140.22 874.33 1624.17 876.44 1624.17 739.69 2140.22 741.17 2140.22 874.33"/><g class="cls-15"><polygon class="cls-3" points="1674.43 866.6 1658.86 866.66 1658.86 756.25 1674.43 756.28 1674.43 866.6"/><polygon class="cls-3" points="1702.05 866.5 1686.53 866.56 1686.53 756.31 1702.05 756.34 1702.05 866.5"/><polygon class="cls-3" points="1729.59 866.4 1714.11 866.46 1714.11 756.36 1729.59 756.4 1729.59 866.4"/><polygon class="cls-3" points="1757.06 866.3 1741.62 866.36 1741.62 756.42 1757.06 756.45 1757.06 866.3"/><polygon class="cls-3" points="1784.45 866.21 1769.05 866.26 1769.05 756.48 1784.45 756.51 1784.45 866.21"/><polygon class="cls-3" points="1811.76 866.11 1796.41 866.16 1796.41 756.53 1811.76 756.56 1811.76 866.11"/><polygon class="cls-3" points="1838.99 866.01 1823.68 866.07 1823.68 756.59 1838.99 756.62 1838.99 866.01"/><polygon class="cls-3" points="1866.15 865.91 1850.89 865.97 1850.89 756.64 1866.15 756.67 1866.15 865.91"/><polygon class="cls-3" points="1893.24 865.82 1878.01 865.87 1878.01 756.7 1893.24 756.73 1893.24 865.82"/><polygon class="cls-3" points="1920.24 865.72 1905.06 865.77 1905.06 756.75 1920.24 756.78 1920.24 865.72"/><polygon class="cls-3" points="1947.18 865.62 1932.04 865.68 1932.04 756.81 1947.18 756.84 1947.18 865.62"/><polygon class="cls-3" points="1974.04 865.52 1958.94 865.58 1958.94 756.86 1974.04 756.89 1974.04 865.52"/><polygon class="cls-3" points="2000.82 865.43 1985.76 865.48 1985.76 756.91 2000.82 756.95 2000.82 865.43"/><polygon class="cls-3" points="2027.53 865.33 2012.51 865.39 2012.51 756.97 2027.53 757 2027.53 865.33"/><polygon class="cls-3" points="2054.16 865.24 2039.19 865.29 2039.19 757.02 2054.16 757.05 2054.16 865.24"/><polygon class="cls-3" points="2080.72 865.14 2065.79 865.19 2065.79 757.08 2080.72 757.11 2080.72 865.14"/><polygon class="cls-3" points="2107.21 865.04 2092.32 865.1 2092.32 757.13 2107.21 757.16 2107.21 865.04"/></g><g class="cls-16"><polygon class="cls-71" points="1674.43 866.6 1658.86 866.66 1658.86 772.71 1674.43 772.73 1674.43 866.6"/><polygon class="cls-72" points="1702.05 866.5 1686.53 866.56 1686.53 855.26 1702.05 855.22 1702.05 866.5"/><polygon class="cls-73" points="1729.59 866.4 1714.11 866.46 1714.11 802.34 1729.59 802.33 1729.59 866.4"/><polygon class="cls-74" points="1757.06 866.3 1741.62 866.36 1741.62 838.71 1757.06 838.67 1757.06 866.3"/><polygon class="cls-75" points="1784.45 866.21 1769.05 866.26 1769.05 795.53 1784.45 795.53 1784.45 866.21"/><polygon class="cls-76" points="1811.76 866.11 1796.41 866.16 1796.41 817.46 1811.76 817.44 1811.76 866.11"/><polygon class="cls-77" points="1838.99 866.01 1823.68 866.07 1823.68 781.6 1838.99 781.61 1838.99 866.01"/><polygon class="cls-78" points="1866.15 865.91 1850.89 865.97 1850.89 772.94 1866.15 772.96 1866.15 865.91"/><polygon class="cls-79" points="1893.24 865.82 1878.01 865.87 1878.01 819.42 1893.24 819.4 1893.24 865.82"/><polygon class="cls-80" points="1920.24 865.72 1905.06 865.77 1905.06 764.22 1920.24 764.24 1920.24 865.72"/><polygon class="cls-81" points="1947.18 865.62 1932.04 865.68 1932.04 779.3 1947.18 779.32 1947.18 865.62"/><polygon class="cls-82" points="1974.04 865.52 1958.94 865.58 1958.94 842.45 1974.04 842.41 1974.04 865.52"/><polygon class="cls-83" points="2000.82 865.43 1985.76 865.48 1985.76 811.2 2000.82 811.19 2000.82 865.43"/><polygon class="cls-84" points="2027.53 865.33 2012.51 865.39 2012.51 787.26 2027.53 787.26 2027.53 865.33"/><polygon class="cls-85" points="2054.16 865.24 2039.19 865.29 2039.19 808.39 2054.16 808.38 2054.16 865.24"/><polygon class="cls-86" points="2080.72 865.14 2065.79 865.19 2065.79 777.06 2080.72 777.08 2080.72 865.14"/><polygon class="cls-87" points="2107.21 865.04 2092.32 865.1 2092.32 767.27 2107.21 767.29 2107.21 865.04"/></g><path class="cls-3" d="M1401.24,1093.49V963.41c0-19.91,17.61-36.16,39.29-36.31l703.05-4.64c20.13-.13,36.41,15.26,36.41,34.39v125c0,19.12-16.28,34.9-36.41,35.24l-703,11.79C1418.85,1129.24,1401.24,1113.4,1401.24,1093.49Z"/><path class="cls-13" d="M1474.47,974.71c0,9.18-8.09,16.7-18.09,16.8s-18.14-7.28-18.14-16.47,8.13-16.71,18.14-16.79S1474.47,965.54,1474.47,974.71Z"/><path class="cls-13" d="M1531.64,974.2c0,9.15-8.05,16.65-18,16.74s-18-7.25-18-16.42,8.08-16.66,18-16.74S1531.64,965.05,1531.64,974.2Z"/><path class="cls-13" d="M1588.48,973.69c0,9.12-8,16.59-17.89,16.69s-17.92-7.23-17.92-16.37,8-16.62,17.92-16.7S1588.48,964.56,1588.48,973.69Z"/><polygon class="cls-88" points="2140.22 1085.81 1624.17 1093.62 1624.17 956.87 2140.22 952.65 2140.22 1085.81"/><g class="cls-15"><polygon class="cls-3" points="1674.43 1083.23 1658.86 1083.46 1658.86 973.05 1674.43 972.91 1674.43 1083.23"/><polygon class="cls-3" points="1702.05 1082.83 1686.53 1083.05 1686.53 972.8 1702.05 972.66 1702.05 1082.83"/><polygon class="cls-3" points="1729.59 1082.42 1714.11 1082.65 1714.11 972.55 1729.59 972.41 1729.59 1082.42"/><polygon class="cls-3" points="1757.06 1082.02 1741.62 1082.24 1741.62 972.3 1757.06 972.16 1757.06 1082.02"/><polygon class="cls-3" points="1784.45 1081.62 1769.05 1081.84 1769.05 972.06 1784.45 971.92 1784.45 1081.62"/><polygon class="cls-3" points="1811.76 1081.22 1796.41 1081.44 1796.41 971.81 1811.76 971.67 1811.76 1081.22"/><polygon class="cls-3" points="1838.99 1080.82 1823.68 1081.04 1823.68 971.56 1838.99 971.43 1838.99 1080.82"/><polygon class="cls-3" points="1866.15 1080.42 1850.89 1080.64 1850.89 971.32 1866.15 971.18 1866.15 1080.42"/><polygon class="cls-3" points="1893.24 1080.03 1878.01 1080.25 1878.01 971.07 1893.24 970.94 1893.24 1080.03"/><polygon class="cls-3" points="1920.24 1079.63 1905.06 1079.85 1905.06 970.83 1920.24 970.69 1920.24 1079.63"/><polygon class="cls-3" points="1947.18 1079.23 1932.04 1079.46 1932.04 970.59 1947.18 970.45 1947.18 1079.23"/><polygon class="cls-3" points="1974.04 1078.84 1958.94 1079.06 1958.94 970.34 1974.04 970.21 1974.04 1078.84"/><polygon class="cls-3" points="2000.82 1078.45 1985.76 1078.67 1985.76 970.1 2000.82 969.97 2000.82 1078.45"/><polygon class="cls-3" points="2027.53 1078.06 2012.51 1078.28 2012.51 969.86 2027.53 969.73 2027.53 1078.06"/><polygon class="cls-3" points="2054.16 1077.67 2039.19 1077.89 2039.19 969.62 2054.16 969.49 2054.16 1077.67"/><polygon class="cls-3" points="2080.72 1077.28 2065.79 1077.5 2065.79 969.38 2080.72 969.25 2080.72 1077.28"/><polygon class="cls-3" points="2107.21 1076.89 2092.32 1077.11 2092.32 969.14 2107.21 969.01 2107.21 1076.89"/></g><g class="cls-16"><polygon class="cls-89" points="1674.43 1083.23 1658.86 1083.46 1658.86 989.51 1674.43 989.36 1674.43 1083.23"/><polygon class="cls-90" points="1702.05 1082.83 1686.53 1083.05 1686.53 1071.76 1702.05 1071.54 1702.05 1082.83"/><polygon class="cls-91" points="1729.59 1082.42 1714.11 1082.65 1714.11 1018.52 1729.59 1018.35 1729.59 1082.42"/><polygon class="cls-92" points="1757.06 1082.02 1741.62 1082.24 1741.62 1054.59 1757.06 1054.39 1757.06 1082.02"/><polygon class="cls-93" points="1784.45 1081.62 1769.05 1081.84 1769.05 1011.11 1784.45 1010.94 1784.45 1081.62"/><polygon class="cls-94" points="1811.76 1081.22 1796.41 1081.44 1796.41 1032.74 1811.76 1032.55 1811.76 1081.22"/><polygon class="cls-95" points="1838.99 1080.82 1823.68 1081.04 1823.68 996.58 1838.99 996.42 1838.99 1080.82"/><polygon class="cls-96" points="1866.15 1080.42 1850.89 1080.64 1850.89 987.62 1866.15 987.47 1866.15 1080.42"/><polygon class="cls-97" points="1893.24 1080.03 1878.01 1080.25 1878.01 1033.8 1893.24 1033.61 1893.24 1080.03"/><polygon class="cls-98" points="1920.24 1079.63 1905.06 1079.85 1905.06 978.29 1920.24 978.15 1920.24 1079.63"/><polygon class="cls-99" points="1947.18 1079.23 1932.04 1079.46 1932.04 993.08 1947.18 992.93 1947.18 1079.23"/><polygon class="cls-100" points="1974.04 1078.84 1958.94 1079.06 1958.94 1055.93 1974.04 1055.73 1974.04 1078.84"/><polygon class="cls-101" points="2000.82 1078.45 1985.76 1078.67 1985.76 1024.38 2000.82 1024.21 2000.82 1078.45"/><polygon class="cls-102" points="2027.53 1078.06 2012.51 1078.28 2012.51 1000.15 2027.53 999.99 2027.53 1078.06"/><polygon class="cls-103" points="2054.16 1077.67 2039.19 1077.89 2039.19 1020.99 2054.16 1020.81 2054.16 1077.67"/><polygon class="cls-104" points="2080.72 1077.28 2065.79 1077.5 2065.79 989.36 2080.72 989.21 2080.72 1077.28"/><polygon class="cls-105" points="2107.21 1076.89 2092.32 1077.11 2092.32 979.28 2107.21 979.14 2107.21 1076.89"/></g><path class="cls-3" d="M1401.24,1313.14V1183.05c0-19.91,17.61-36.35,39.29-36.74l703.05-12.41c20.13-.35,36.41,14.86,36.41,34v125c0,19.12-16.28,35.08-36.41,35.64l-703,19.57C1418.85,1348.69,1401.24,1333,1401.24,1313.14Z"/><path class="cls-13" d="M1474.47,1193.55c0,9.18-8.09,16.78-18.09,17s-18.14-7.07-18.14-16.26,8.13-16.8,18.14-17S1474.47,1184.37,1474.47,1193.55Z"/><path class="cls-13" d="M1531.64,1192.4c0,9.15-8.05,16.74-18,16.95s-18-7.06-18-16.22,8.08-16.76,18-17S1531.64,1183.25,1531.64,1192.4Z"/><path class="cls-13" d="M1588.48,1191.26c0,9.13-8,16.69-17.89,16.9s-17.92-7-17.92-16.18,8-16.7,17.92-16.89S1588.48,1182.14,1588.48,1191.26Z"/><polygon class="cls-106" points="2140.22 1297.29 1624.17 1310.8 1624.17 1174.06 2140.22 1164.13 2140.22 1297.29"/><g class="cls-15"><polygon class="cls-3" points="1674.43 1299.86 1658.86 1300.26 1658.86 1189.85 1674.43 1189.54 1674.43 1299.86"/><polygon class="cls-3" points="1702.05 1299.15 1686.53 1299.55 1686.53 1189.29 1702.05 1188.98 1702.05 1299.15"/><polygon class="cls-3" points="1729.59 1298.44 1714.11 1298.84 1714.11 1188.74 1729.59 1188.43 1729.59 1298.44"/><polygon class="cls-3" points="1757.06 1297.73 1741.62 1298.13 1741.62 1188.19 1757.06 1187.88 1757.06 1297.73"/><polygon class="cls-3" points="1784.45 1297.03 1769.05 1297.42 1769.05 1187.64 1784.45 1187.33 1784.45 1297.03"/><polygon class="cls-3" points="1811.76 1296.33 1796.41 1296.72 1796.41 1187.09 1811.76 1186.78 1811.76 1296.33"/><polygon class="cls-3" points="1838.99 1295.63 1823.68 1296.02 1823.68 1186.54 1838.99 1186.23 1838.99 1295.63"/><polygon class="cls-3" points="1866.15 1294.93 1850.89 1295.32 1850.89 1185.99 1866.15 1185.69 1866.15 1294.93"/><polygon class="cls-3" points="1893.24 1294.23 1878.01 1294.62 1878.01 1185.45 1893.24 1185.14 1893.24 1294.23"/><polygon class="cls-3" points="1920.24 1293.54 1905.06 1293.93 1905.06 1184.91 1920.24 1184.6 1920.24 1293.54"/><polygon class="cls-3" points="1947.18 1292.85 1932.04 1293.24 1932.04 1184.37 1947.18 1184.06 1947.18 1292.85"/><polygon class="cls-3" points="1974.04 1292.16 1958.94 1292.54 1958.94 1183.83 1974.04 1183.52 1974.04 1292.16"/><polygon class="cls-3" points="2000.82 1291.47 1985.76 1291.86 1985.76 1183.29 2000.82 1182.99 2000.82 1291.47"/><polygon class="cls-3" points="2027.53 1290.78 2012.51 1291.17 2012.51 1182.75 2027.53 1182.45 2027.53 1290.78"/><polygon class="cls-3" points="2054.16 1290.1 2039.19 1290.48 2039.19 1182.22 2054.16 1181.91 2054.16 1290.1"/><polygon class="cls-3" points="2080.72 1289.41 2065.79 1289.8 2065.79 1181.68 2080.72 1181.38 2080.72 1289.41"/><polygon class="cls-3" points="2107.21 1288.73 2092.32 1289.12 2092.32 1181.15 2107.21 1180.85 2107.21 1288.73"/></g><g class="cls-16"><polygon class="cls-107" points="1674.43 1299.86 1658.86 1300.26 1658.86 1206.31 1674.43 1205.98 1674.43 1299.86"/><polygon class="cls-108" points="1702.05 1299.15 1686.53 1299.55 1686.53 1288.25 1702.05 1287.86 1702.05 1299.15"/><polygon class="cls-109" points="1729.59 1298.44 1714.11 1298.84 1714.11 1234.71 1729.59 1234.37 1729.59 1298.44"/><polygon class="cls-110" points="1757.06 1297.73 1741.62 1298.13 1741.62 1270.48 1757.06 1270.1 1757.06 1297.73"/><polygon class="cls-111" points="1784.45 1297.03 1769.05 1297.42 1769.05 1226.69 1784.45 1226.35 1784.45 1297.03"/><polygon class="cls-112" points="1811.76 1296.33 1796.41 1296.72 1796.41 1248.02 1811.76 1247.66 1811.76 1296.33"/><polygon class="cls-113" points="1838.99 1295.63 1823.68 1296.02 1823.68 1211.55 1838.99 1211.23 1838.99 1295.63"/><polygon class="cls-114" points="1866.15 1294.93 1850.89 1295.32 1850.89 1202.3 1866.15 1201.98 1866.15 1294.93"/><polygon class="cls-115" points="1893.24 1294.23 1878.01 1294.62 1878.01 1248.18 1893.24 1247.82 1893.24 1294.23"/><polygon class="cls-116" points="1920.24 1293.54 1905.06 1293.93 1905.06 1192.37 1920.24 1192.06 1920.24 1293.54"/><polygon class="cls-117" points="1947.18 1292.85 1932.04 1293.24 1932.04 1206.87 1947.18 1206.54 1947.18 1292.85"/><polygon class="cls-118" points="1974.04 1292.16 1958.94 1292.54 1958.94 1269.42 1974.04 1269.05 1974.04 1292.16"/><polygon class="cls-119" points="2000.82 1291.47 1985.76 1291.86 1985.76 1237.57 2000.82 1237.23 2000.82 1291.47"/><polygon class="cls-120" points="2027.53 1290.78 2012.51 1291.17 2012.51 1213.04 2027.53 1212.72 2027.53 1290.78"/><polygon class="cls-121" points="2054.16 1290.1 2039.19 1290.48 2039.19 1233.59 2054.16 1233.24 2054.16 1290.1"/><polygon class="cls-122" points="2080.72 1289.41 2065.79 1289.8 2065.79 1201.67 2080.72 1201.35 2080.72 1289.41"/><polygon class="cls-123" points="2107.21 1288.73 2092.32 1289.12 2092.32 1191.29 2107.21 1190.98 2107.21 1288.73"/></g><path class="cls-3" d="M1401.24,1532.78V1402.7c0-19.91,17.61-36.55,39.29-37.18l703.05-20.18c20.13-.57,36.41,14.46,36.41,33.59v125c0,19.12-16.28,35.26-36.41,36l-703,27.33C1418.85,1568.14,1401.24,1552.69,1401.24,1532.78Z"/><path class="cls-13" d="M1474.47,1412.39c0,9.17-8.09,16.87-18.09,17.19s-18.14-6.87-18.14-16.07,8.13-16.89,18.14-17.19S1474.47,1403.21,1474.47,1412.39Z"/><path class="cls-13" d="M1531.64,1410.61c0,9.15-8.05,16.82-18,17.14s-18-6.86-18-16,8.08-16.84,18-17.15S1531.64,1401.46,1531.64,1410.61Z"/><path class="cls-13" d="M1588.48,1408.84c0,9.12-8,16.77-17.89,17.09s-17.92-6.84-17.92-16,8-16.79,17.92-17.09S1588.48,1399.71,1588.48,1408.84Z"/><polygon class="cls-124" points="2140.22 1508.77 1624.17 1527.98 1624.17 1391.24 2140.22 1375.61 2140.22 1508.77"/><g class="cls-15"><polygon class="cls-3" points="1674.43 1516.48 1658.86 1517.06 1658.86 1406.65 1674.43 1406.16 1674.43 1516.48"/><polygon class="cls-3" points="1702.05 1515.47 1686.53 1516.04 1686.53 1405.79 1702.05 1405.3 1702.05 1515.47"/><polygon class="cls-3" points="1729.59 1514.46 1714.11 1515.03 1714.11 1404.93 1729.59 1404.45 1729.59 1514.46"/><polygon class="cls-3" points="1757.06 1513.45 1741.62 1514.01 1741.62 1404.07 1757.06 1403.59 1757.06 1513.45"/><polygon class="cls-3" points="1784.45 1512.44 1769.05 1513.01 1769.05 1403.22 1784.45 1402.74 1784.45 1512.44"/><polygon class="cls-3" points="1811.76 1511.44 1796.41 1512 1796.41 1402.37 1811.76 1401.89 1811.76 1511.44"/><polygon class="cls-3" points="1838.99 1510.43 1823.68 1511 1823.68 1401.52 1838.99 1401.04 1838.99 1510.43"/><polygon class="cls-3" points="1866.15 1509.44 1850.89 1510 1850.89 1400.67 1866.15 1400.2 1866.15 1509.44"/><polygon class="cls-3" points="1893.24 1508.44 1878.01 1509 1878.01 1399.83 1893.24 1399.35 1893.24 1508.44"/><polygon class="cls-3" points="1920.24 1507.45 1905.06 1508.01 1905.06 1398.99 1920.24 1398.51 1920.24 1507.45"/><polygon class="cls-3" points="1947.18 1506.46 1932.04 1507.02 1932.04 1398.15 1947.18 1397.67 1947.18 1506.46"/><polygon class="cls-3" points="1974.04 1505.47 1958.94 1506.03 1958.94 1397.31 1974.04 1396.84 1974.04 1505.47"/><polygon class="cls-3" points="2000.82 1504.49 1985.76 1505.04 1985.76 1396.47 2000.82 1396.01 2000.82 1504.49"/><polygon class="cls-3" points="2027.53 1503.51 2012.51 1504.06 2012.51 1395.64 2027.53 1395.17 2027.53 1503.51"/><polygon class="cls-3" points="2054.16 1502.53 2039.19 1503.08 2039.19 1394.81 2054.16 1394.35 2054.16 1502.53"/><polygon class="cls-3" points="2080.72 1501.55 2065.79 1502.1 2065.79 1393.98 2080.72 1393.52 2080.72 1501.55"/><polygon class="cls-3" points="2107.21 1500.58 2092.32 1501.13 2092.32 1393.16 2107.21 1392.69 2107.21 1500.58"/></g><g class="cls-16"><polygon class="cls-125" points="1674.43 1516.48 1658.86 1517.06 1658.86 1423.11 1674.43 1422.61 1674.43 1516.48"/><polygon class="cls-126" points="1702.05 1515.47 1686.53 1516.04 1686.53 1504.74 1702.05 1504.18 1702.05 1515.47"/><polygon class="cls-127" points="1729.59 1514.46 1714.11 1515.03 1714.11 1450.9 1729.59 1450.38 1729.59 1514.46"/><polygon class="cls-128" points="1757.06 1513.45 1741.62 1514.01 1741.62 1486.36 1757.06 1485.82 1757.06 1513.45"/><polygon class="cls-129" points="1784.45 1512.44 1769.05 1513.01 1769.05 1442.28 1784.45 1441.77 1784.45 1512.44"/><polygon class="cls-130" points="1811.76 1511.44 1796.41 1512 1796.41 1463.3 1811.76 1462.77 1811.76 1511.44"/><polygon class="cls-131" points="1838.99 1510.43 1823.68 1511 1823.68 1426.53 1838.99 1426.04 1838.99 1510.43"/><polygon class="cls-132" points="1866.15 1509.44 1850.89 1510 1850.89 1416.97 1866.15 1416.48 1866.15 1509.44"/><polygon class="cls-133" points="1893.24 1508.44 1878.01 1509 1878.01 1462.55 1893.24 1462.03 1893.24 1508.44"/><polygon class="cls-134" points="1920.24 1507.45 1905.06 1508.01 1905.06 1406.45 1920.24 1405.97 1920.24 1507.45"/><polygon class="cls-135" points="1947.18 1506.46 1932.04 1507.02 1932.04 1420.64 1947.18 1420.16 1947.18 1506.46"/><polygon class="cls-136" points="1974.04 1505.47 1958.94 1506.03 1958.94 1482.9 1974.04 1482.36 1974.04 1505.47"/><polygon class="cls-137" points="2000.82 1504.49 1985.76 1505.04 1985.76 1450.76 2000.82 1450.25 2000.82 1504.49"/><polygon class="cls-138" points="2027.53 1503.51 2012.51 1504.06 2012.51 1425.93 2027.53 1425.44 2027.53 1503.51"/><polygon class="cls-139" points="2054.16 1502.53 2039.19 1503.08 2039.19 1446.18 2054.16 1445.68 2054.16 1502.53"/><polygon class="cls-140" points="2080.72 1501.55 2065.79 1502.1 2065.79 1413.97 2080.72 1413.49 2080.72 1501.55"/><polygon class="cls-141" points="2107.21 1500.58 2092.32 1501.13 2092.32 1403.3 2107.21 1402.83 2107.21 1500.58"/></g><path class="cls-3" d="M1401.24,1752.43V1622.34c0-19.91,17.61-36.74,39.29-37.6l703.05-28c20.13-.8,36.41,14,36.41,33.18v125c0,19.13-16.28,35.44-36.41,36.45l-703,35.1C1418.85,1787.59,1401.24,1772.33,1401.24,1752.43Z"/><path class="cls-13" d="M1474.47,1631.22c0,9.18-8.09,17-18.09,17.4s-18.14-6.68-18.14-15.87,8.13-17,18.14-17.4S1474.47,1622.05,1474.47,1631.22Z"/><path class="cls-13" d="M1531.64,1628.81c0,9.15-8.05,16.91-18,17.34s-18-6.65-18-15.82,8.08-16.93,18-17.34S1531.64,1619.66,1531.64,1628.81Z"/><path class="cls-13" d="M1588.48,1626.41c0,9.13-8,16.87-17.89,17.29s-17.92-6.64-17.92-15.78,8-16.88,17.92-17.29S1588.48,1617.29,1588.48,1626.41Z"/><polygon class="cls-142" points="2140.22 1720.24 1624.17 1745.16 1624.17 1608.42 2140.22 1587.09 2140.22 1720.24"/><g class="cls-15"><polygon class="cls-3" points="1674.43 1733.11 1658.86 1733.85 1658.86 1623.45 1674.43 1622.79 1674.43 1733.11"/><polygon class="cls-3" points="1702.05 1731.79 1686.53 1732.53 1686.53 1622.28 1702.05 1621.63 1702.05 1731.79"/><polygon class="cls-3" points="1729.59 1730.47 1714.11 1731.21 1714.11 1621.12 1729.59 1620.46 1729.59 1730.47"/><polygon class="cls-3" points="1757.06 1729.16 1741.62 1729.9 1741.62 1619.96 1757.06 1619.31 1757.06 1729.16"/><polygon class="cls-3" points="1784.45 1727.85 1769.05 1728.59 1769.05 1618.8 1784.45 1618.15 1784.45 1727.85"/><polygon class="cls-3" points="1811.76 1726.55 1796.41 1727.28 1796.41 1617.65 1811.76 1617 1811.76 1726.55"/><polygon class="cls-3" points="1838.99 1725.24 1823.68 1725.97 1823.68 1616.5 1838.99 1615.85 1838.99 1725.24"/><polygon class="cls-3" points="1866.15 1723.94 1850.89 1724.67 1850.89 1615.35 1866.15 1614.7 1866.15 1723.94"/><polygon class="cls-3" points="1893.24 1722.65 1878.01 1723.38 1878.01 1614.2 1893.24 1613.56 1893.24 1722.65"/><polygon class="cls-3" points="1920.24 1721.36 1905.06 1722.09 1905.06 1613.06 1920.24 1612.42 1920.24 1721.36"/><polygon class="cls-3" points="1947.18 1720.07 1932.04 1720.8 1932.04 1611.93 1947.18 1611.29 1947.18 1720.07"/><polygon class="cls-3" points="1974.04 1718.79 1958.94 1719.51 1958.94 1610.79 1974.04 1610.16 1974.04 1718.79"/><polygon class="cls-3" points="2000.82 1717.51 1985.76 1718.23 1985.76 1609.66 2000.82 1609.03 2000.82 1717.51"/><polygon class="cls-3" points="2027.53 1716.23 2012.51 1716.95 2012.51 1608.53 2027.53 1607.9 2027.53 1716.23"/><polygon class="cls-3" points="2054.16 1714.96 2039.19 1715.67 2039.19 1607.41 2054.16 1606.78 2054.16 1714.96"/><polygon class="cls-3" points="2080.72 1713.69 2065.79 1714.4 2065.79 1606.29 2080.72 1605.66 2080.72 1713.69"/><polygon class="cls-3" points="2107.21 1712.42 2092.32 1713.13 2092.32 1605.17 2107.21 1604.54 2107.21 1712.42"/></g><g class="cls-16"><polygon class="cls-143" points="1674.43 1733.11 1658.86 1733.85 1658.86 1639.91 1674.43 1639.24 1674.43 1733.11"/><polygon class="cls-144" points="1702.05 1731.79 1686.53 1732.53 1686.53 1721.24 1702.05 1720.5 1702.05 1731.79"/><polygon class="cls-145" points="1729.59 1730.47 1714.11 1731.21 1714.11 1667.09 1729.59 1666.4 1729.59 1730.47"/><polygon class="cls-146" points="1757.06 1729.16 1741.62 1729.9 1741.62 1702.24 1757.06 1701.53 1757.06 1729.16"/><polygon class="cls-147" points="1784.45 1727.85 1769.05 1728.59 1769.05 1657.86 1784.45 1657.18 1784.45 1727.85"/><polygon class="cls-148" points="1811.76 1726.55 1796.41 1727.28 1796.41 1678.57 1811.76 1677.88 1811.76 1726.55"/><polygon class="cls-149" points="1838.99 1725.24 1823.68 1725.97 1823.68 1641.51 1838.99 1640.84 1838.99 1725.24"/><polygon class="cls-150" points="1866.15 1723.94 1850.89 1724.67 1850.89 1631.65 1866.15 1630.99 1866.15 1723.94"/><polygon class="cls-151" points="1893.24 1722.65 1878.01 1723.38 1878.01 1676.93 1893.24 1676.24 1893.24 1722.65"/><polygon class="cls-152" points="1920.24 1721.36 1905.06 1722.09 1905.06 1620.53 1920.24 1619.88 1920.24 1721.36"/><polygon class="cls-153" points="1947.18 1720.07 1932.04 1720.8 1932.04 1634.42 1947.18 1633.77 1947.18 1720.07"/><polygon class="cls-154" points="1974.04 1718.79 1958.94 1719.51 1958.94 1696.38 1974.04 1695.68 1974.04 1718.79"/><polygon class="cls-155" points="2000.82 1717.51 1985.76 1718.23 1985.76 1663.94 2000.82 1663.27 2000.82 1717.51"/><polygon class="cls-156" points="2027.53 1716.23 2012.51 1716.95 2012.51 1638.82 2027.53 1638.17 2027.53 1716.23"/><polygon class="cls-157" points="2054.16 1714.96 2039.19 1715.67 2039.19 1658.78 2054.16 1658.11 2054.16 1714.96"/><polygon class="cls-158" points="2080.72 1713.69 2065.79 1714.4 2065.79 1626.27 2080.72 1625.63 2080.72 1713.69"/><polygon class="cls-159" points="2107.21 1712.42 2092.32 1713.13 2092.32 1615.31 2107.21 1614.67 2107.21 1712.42"/></g><path class="cls-160" d="M2104.32,1638.86c-114-146.59-260.7-142.39-302.37-280-44.58-147.3,100.86-211.41,64.2-371.35-37.25-162.56-216-163.83-242-328.22-21.06-133.42,90.64-171.83,54.15-291.54C1641,245.21,1507,228.35,1480.5,108.43c-8.21-37.23-3.46-72.92,7.36-105L1403.17.05c-30.56-1.22-55.39,20.49-55.39,48.49V1886.91c0,28,24.83,49.29,55.39,47.54l775-44.39a54.91,54.91,0,0,0,21.95-6C2185.92,1769.4,2145.81,1692.23,2104.32,1638.86Z"/><path class="cls-161" d="M2906.76,2462.74l-2745-24.13V2510c0,19.37,12,35.85,28.19,38.78l776.21,140.58a105.68,105.68,0,0,0,27.84,1.32L2876.93,2530.4c16.81-1.43,29.83-18,29.83-37.86Z"/><path class="cls-162" d="M1910.61,2347,190.14,2477.61c-30.79,2.34-55.82-22.5-55.82-55.47V1101.05c0-33,25-59.71,55.82-59.71H1910.61c25.36,0,45.87,24.17,45.87,54V2289.56C1956.48,2319.37,1936,2345.09,1910.61,2347Z"/><path class="cls-163" d="M1938,2347,217.57,2477.61c-30.79,2.34-55.82-22.5-55.82-55.47V1101.05c0-33,25-59.71,55.82-59.71H1938c25.36,0,45.87,24.17,45.87,54V2289.56C1983.91,2319.37,1963.4,2345.09,1938,2347Z"/><path class="cls-164" d="M1884.44,2262.82,282,2376.26c-25.06,1.77-45.42-18.61-45.42-45.53V1174.11c0-26.91,20.36-48.83,45.42-48.94l1602.43-7.12c20.93-.1,37.85,19.71,37.85,44.22V2215.74C1922.29,2240.26,1905.37,2261.34,1884.44,2262.82Z"/><path class="cls-3" d="M1138.57,1077.48c0,12.27-8.86,22.25-19.79,22.29s-19.84-9.91-19.84-22.21,8.89-22.28,19.84-22.29S1138.57,1065.2,1138.57,1077.48Z"/><path class="cls-165" d="M1523.52,1984.68c-132.63-76.65-236.92,20.48-337.57-75.35-61-58.1-31.06-101.43-106.14-188.25-83.16-96.16-137.3-63.83-220.87-150.38-105.67-109.44-52.82-194.58-143.85-273.15-110.42-95.31-229.51-7.09-334.62-98.5-45.34-39.43-70.22-96.75-83.21-157.71H194.41c-18,0-32.66,15.69-32.66,35.05V2445.81c0,19.36,14.64,33.93,32.66,32.56l1753.44-133.69c8.61-.65,16.24-6,21.13-13.87-128.35-5-207.21-51.25-257.62-99C1612.75,2138.31,1629.86,2046.14,1523.52,1984.68Z"/><path class="cls-166" d="M2006.61,2341.09,161.75,2478.56l804.4,145.67a105.25,105.25,0,0,0,27.84,1.32l1912.77-162.81L2036,2342A138.54,138.54,0,0,0,2006.61,2341.09Z"/><polygon class="cls-167" points="430.95 2482.01 1966.85 2365.86 2442.2 2431.23 919.52 2555.38 430.95 2482.01"/><g class="cls-168"><polygon class="cls-3" points="563.53 1215.99 387.07 1216.61 387.07 1159.5 563.53 1159.5 563.53 1215.99"/><polygon class="cls-3" points="1488.07 1212.76 675.61 1215.6 675.61 1159.5 1488.07 1159.5 1488.07 1212.76"/><polygon class="cls-3" points="845.93 1309.81 675.61 1311.42 675.61 1255.33 845.93 1254.31 845.93 1309.81"/><polygon class="cls-3" points="1739.37 1301.36 954.14 1308.79 954.14 1253.66 1739.37 1248.98 1739.37 1301.36"/><polygon class="cls-3" points="845.93 1404.62 675.61 1407.24 675.61 1351.15 845.93 1349.12 845.93 1404.62"/><polygon class="cls-3" points="1739.37 1390.84 954.14 1402.95 954.14 1347.83 1739.37 1338.46 1739.37 1390.84"/><polygon class="cls-3" points="563.53 1505.46 387.07 1509.23 387.07 1452.13 563.53 1448.97 563.53 1505.46"/><polygon class="cls-3" points="1488.07 1485.69 675.61 1503.06 675.61 1446.97 1488.07 1432.43 1488.07 1485.69"/><polygon class="cls-3" points="845.93 1594.23 675.61 1598.88 675.61 1542.79 845.93 1538.73 845.93 1594.23"/><polygon class="cls-3" points="1739.37 1569.8 954.14 1591.27 954.14 1536.14 1739.37 1517.41 1739.37 1569.8"/><polygon class="cls-3" points="845.93 1689.03 675.61 1694.71 675.61 1638.61 845.93 1633.53 845.93 1689.03"/><polygon class="cls-3" points="1739.37 1659.27 954.14 1685.43 954.14 1630.31 1739.37 1606.89 1739.37 1659.27"/><polygon class="cls-3" points="845.93 1783.84 675.61 1790.53 675.61 1734.43 845.93 1728.34 845.93 1783.84"/><polygon class="cls-3" points="1739.37 1748.75 954.14 1779.59 954.14 1724.46 1739.37 1696.37 1739.37 1748.75"/><polygon class="cls-3" points="1121.19 1866.19 956.75 1873.63 956.75 1818.52 1121.19 1811.65 1121.19 1866.19"/><polygon class="cls-3" points="1859.28 1832.8 1225.7 1861.46 1225.7 1807.29 1859.28 1780.84 1859.28 1832.8"/><polygon class="cls-3" points="563.53 1987.91 387.07 1996.94 387.07 1939.84 563.53 1931.42 563.53 1987.91"/><polygon class="cls-3" points="1488.07 1940.57 675.61 1982.17 675.61 1926.08 1488.07 1887.31 1488.07 1940.57"/><polygon class="cls-3" points="845.93 2068.26 675.61 2077.99 675.61 2021.9 845.93 2012.75 845.93 2068.26"/><polygon class="cls-3" points="1739.37 2017.18 954.14 2062.07 954.14 2006.95 1739.37 1964.8 1739.37 2017.18"/><polygon class="cls-3" points="845.93 2163.06 675.61 2173.81 675.61 2117.72 845.93 2107.56 845.93 2163.06"/><polygon class="cls-3" points="1739.37 2106.66 954.14 2156.23 954.14 2101.11 1739.37 2054.28 1739.37 2106.66"/><polygon class="cls-3" points="563.53 2277.38 387.07 2289.57 387.07 2232.47 563.53 2220.89 563.53 2277.38"/><polygon class="cls-3" points="1488.07 2213.5 675.61 2269.64 675.61 2213.54 1488.07 2160.24 1488.07 2213.5"/></g><path class="cls-169" d="M2112.65,2038.85c54.2,27.52,122.29,2.25,152.09-56.43s10-128.57-44.19-156.09c-2.8-1.42-5.67-2.62-8.54-3.77a687,687,0,0,0,22.75-97.94c3.11,0,6.22-.06,9.39-.34,61.84-5.51,110.91-62.33,109.62-126.92s-52.47-112.47-114.31-107c-3.23.29-6.41.8-9.56,1.36a629.66,629.66,0,0,0-26.48-93.52c2.85-1.67,5.68-3.39,8.44-5.33,52.91-37.06,69.82-110.21,37.78-163.39s-100.9-66.23-153.8-29.17c-2.71,1.9-5.26,4-7.78,6a558.75,558.75,0,0,0-68.61-64c1.74-2.86,3.45-5.76,5-8.8,29.8-58.68,68.73-122.79,14.11-149.46-126.36-61.68-180.58-8.88-210.38,49.81-1.54,3-2.87,6.13-4.15,9.22a558.81,558.81,0,0,0-92.19-17.6c.19-3.26.34-6.53.28-9.84-1.3-64.58,17.87-99.53-44.2-100.74-135.35-2.63-181,56.12-179.73,120.7.07,3.38.35,6.68.69,9.95a631.39,631.39,0,0,0-91.13,33.82c-1.41-2.88-2.87-5.74-4.55-8.52-32-53.18-100.9-66.23-153.8-29.17s-69.82,110.22-37.78,163.39c1.64,2.73,3.44,5.27,5.27,7.79a687.8,687.8,0,0,0-65.65,76.16c-2.62-1.64-5.28-3.25-8.09-4.68-54.19-27.51-122.29-2.25-152.08,56.44s-10,128.57,44.18,156.08c2.81,1.43,5.68,2.63,8.55,3.78a686.83,686.83,0,0,0-22.75,97.93c-3.11,0-6.23.07-9.39.35-61.84,5.51-110.92,62.33-109.62,126.91s52.47,112.47,114.31,107c3.23-.29,6.4-.8,9.56-1.36a631,631,0,0,0,26.47,93.53c-2.84,1.67-5.67,3.39-8.44,5.32-52.9,37.06-69.81,110.22-37.77,163.39s138.11,77.88,191,40.82c2.71-1.9-32-15.6-29.43-17.68a558,558,0,0,0,68.61,64c-1.74,2.86-3.45,5.76-5,8.8-29.79,58.68-10,128.56,44.19,156.08s122.29,2.25,152.09-56.43c1.54-3,2.87-6.13,4.15-9.22a558.58,558.58,0,0,0,92.19,17.59c-.2,3.27-.35,6.54-.28,9.85,1.29,64.58,52.47,112.46,114.31,107s110.91-62.33,109.61-126.92c-.06-3.37-.35-6.67-.68-10a629,629,0,0,0,91.13-33.82c1.41,2.88,2.87,5.75,4.55,8.53,32,53.17,100.89,66.23,153.8,29.16s69.82-110.21,37.78-163.39c-1.64-2.72-3.44-5.27-5.27-7.78a686.66,686.66,0,0,0,65.64-76.16C2107.19,2035.82,2109.84,2037.43,2112.65,2038.85ZM1437,2047.43c-196.79-99.92-268.61-353.64-160.43-566.72s355.41-304.81,552.19-204.9,268.61,353.64,160.43,566.71S1633.8,2147.34,1437,2047.43Z"/><path class="cls-170" d="M2244.15,1724.28c61.84-5.52,110.91-62.34,109.62-126.92s-52.47-112.47-114.31-107c-3.23.29-6.41.8-9.56,1.36a630,630,0,0,0-26.48-93.52c2.85-1.67,5.68-3.39,8.44-5.33,52.91-37.06,118.36-126.62,81-176.22-70.84-94.15-144.15-53.4-197-16.34-2.71,1.9-5.26,4-7.78,6a559.6,559.6,0,0,0-68.61-64.05c1.74-2.85,3.45-5.75,5-8.79,16.22-31.94,17.65-67.15,6.94-97.09q-76.65,134.91-151,271c157,115,207,341.74,108.83,535-83.15,163.78-248.44,255.75-409.84,244.22-7.2,18.68-14.27,37.45-22,55.94-20.92,50.18-44.69,99.33-68.49,148.41q22.45,4.23,45.08,6.62c-.2,3.27-.35,6.54-.28,9.85,1.29,64.58,40.5,119.45,152.57,113.5,62-3.28,72.65-68.88,71.35-133.47-.06-3.37-.34-6.67-.68-10a629,629,0,0,0,91.13-33.82c1.41,2.88,2.87,5.75,4.55,8.52,32,53.18,143.18,75.77,196.09,38.71s27.53-119.75-4.51-172.93c-1.64-2.72-3.44-5.27-5.27-7.78a686.66,686.66,0,0,0,65.64-76.16c2.63,1.64,5.28,3.25,8.09,4.67,54.2,27.52,122.29,2.25,152.09-56.43s10-128.57-44.19-156.09c-2.8-1.43-5.67-2.62-8.54-3.77a687,687,0,0,0,22.75-97.94C2237.87,1724.61,2241,1724.56,2244.15,1724.28Z"/><path class="cls-171" d="M2171,2045.48c54.19,27.52,122.29,2.25,152.08-56.43s10-128.57-44.18-156.09c-2.81-1.43-5.68-2.62-8.55-3.77a687,687,0,0,0,22.75-97.94c3.11,0,6.23-.06,9.39-.34,61.84-5.51,110.92-62.34,109.62-126.92s-52.47-112.47-114.31-107c-3.23.29-6.4.8-9.56,1.36a630.84,630.84,0,0,0-26.47-93.52c2.84-1.67,5.67-3.39,8.44-5.33,52.9-37.06,69.81-110.21,37.77-163.39S2207,1169.92,2154.13,1207c-2.71,1.9-5.26,4-7.78,6a558.16,558.16,0,0,0-68.61-64c1.75-2.85,3.45-5.75,5-8.79,29.79-58.69,10-128.57-44.19-156.09s-122.29-2.25-152.08,56.44c-1.55,3-2.88,6.13-4.16,9.22a558.61,558.61,0,0,0-92.19-17.6c.2-3.26.35-6.53.28-9.84-1.29-64.58-52.47-112.47-114.31-107s-110.91,62.34-109.61,126.92c.06,3.38.35,6.67.68,10A631.39,631.39,0,0,0,1476,1086c-1.41-2.88-2.87-5.74-4.54-8.52-32-53.18-100.9-66.24-153.81-29.17s-69.82,110.22-37.78,163.39c1.65,2.72,3.44,5.27,5.27,7.79a686.66,686.66,0,0,0-65.64,76.16c-2.63-1.64-5.28-3.25-8.09-4.68-54.2-27.51-122.29-2.25-152.09,56.44s-10,128.57,44.19,156.08c2.8,1.43,5.67,2.63,8.55,3.77a687.32,687.32,0,0,0-22.76,97.94c-3.1,0-6.22.06-9.39.34-61.83,5.52-110.91,62.34-109.62,126.92s52.48,112.47,114.31,107c3.23-.29,6.41-.8,9.56-1.36a629.79,629.79,0,0,0,26.48,93.53c-2.85,1.66-5.68,3.38-8.44,5.32-52.91,37.06-69.82,110.22-37.78,163.39s100.9,66.23,153.8,29.17c2.71-1.9,5.26-4,7.78-6a559.52,559.52,0,0,0,68.61,64c-1.74,2.86-3.45,5.75-5,8.79-29.8,58.69-10,128.57,44.18,156.09s122.29,2.25,152.09-56.44c1.54-3,2.87-6.12,4.15-9.21a559.82,559.82,0,0,0,92.19,17.59c-.19,3.27-.34,6.53-.28,9.85,1.3,64.57,52.47,112.46,114.31,106.95s110.91-62.33,109.62-126.92c-.07-3.37-.35-6.67-.69-9.95a629,629,0,0,0,91.13-33.82c1.41,2.88,2.88,5.75,4.55,8.52,32,53.18,100.9,66.24,153.8,29.17s69.82-110.21,37.78-163.39c-1.64-2.72-3.44-5.27-5.27-7.78a687,687,0,0,0,65.65-76.17C2165.48,2042.45,2168.14,2044.05,2171,2045.48Zm-675.64,8.57c-196.78-99.91-268.61-353.63-160.42-566.71s355.4-304.81,552.18-204.9,268.61,353.64,160.43,566.71S1692.09,2154,1495.31,2054.05Z"/><path class="cls-172" d="M1921.14,1089.62s-11.23-1.56-7.73-23c2.75-16.82.67-22.47-3.3-19.49s-4.53,12.7-4.53,12.7-14.48-12.35-20.45-28.54-9.79-2.55-11.07,5.54,8.52,33.22,14,37.91,13.63,25.33,13.63,25.33Z"/><path class="cls-173" d="M2367.73,2403s-74.45,33.84-75.67,39.24,47.88-1.81,67.92-1,36.53-5.14,34.72-13.63-8.83-29.84-8.83-29.84Z"/><path class="cls-174" d="M2365,2375.57l4.52,33.52s11.79,4.2,19.71-.76l3.38-36.77Z"/><path class="cls-175" d="M2715.62,2376.38l8.66,13.9a16.6,16.6,0,0,1,2,13c-3,11.56-9.07,34.09-11.71,40-3.59,8-51.77,12.76-51.77,12.76s-4.3-6.05,5.7-13.35,16.44-8.45,20-19.23,5.88-41.25,5.88-41.25Z"/><path class="cls-176" d="M2679.57,2341.05c3.17,2.52,18.64,49.49,18.64,49.49s5,6.4,14.53-3.05,4.3-4.24,4.3-4.24l-1.78-46.19Z"/><path class="cls-177" d="M2324,1702.13c-3.93,100-4.09,208.62,1.67,324.68,6.48,130.69,19.49,251.47,35.9,361,6.1.19,12.51.22,19.2,0q6.78-.2,13.13-.64a829.49,829.49,0,0,0,27.59-88.22,849,849,0,0,0,19.26-103.31c14.34-113.25-2.46-123.13,9.17-207.06,10.31-74.34,25-77.24,42.16-182.78,18.67-114.51,4.77-131.69-2-137.89C2461.37,1641.5,2393.8,1659.48,2324,1702.13Z"/><path class="cls-178" d="M2490.14,1667.92c-27.44-25.2-90.18-10-156.45,28.51,76.23,82.37,84.54,135.81,75.41,170.47-10.33,39.19-41.74,50.47-41.62,93.32.15,52.65,47.67,66.6,46.66,122.32-.67,36.84-21.55,36.46-26.48,82-5.84,53.84,21.44,72.39,12.61,112.23-3.8,17.13-14.65,39.53-45.55,62.6,2.22,16.36,4.51,32.55,6.89,48.44,6.1.19,12.51.23,19.2,0q6.78-.2,13.13-.64a829.49,829.49,0,0,0,27.59-88.22,849,849,0,0,0,19.26-103.31c14.34-113.25-2.46-123.13,9.17-207.06,10.31-74.34,25-77.24,42.16-182.78C2510.79,1691.3,2496.89,1674.12,2490.14,1667.92Z"/><path class="cls-179" d="M2371.27,1700.45a2245.57,2245.57,0,0,1,307.8,658.8,40.1,40.1,0,0,0,22,3.4,40.87,40.87,0,0,0,24.89-13.44,646.71,646.71,0,0,0,5.71-159.44c-2.25-25.39-6.24-67.66-22.42-119.84-18.12-58.45-30.58-61.74-54.23-123.58-24.54-64.19-18.59-80.21-42.09-160.54A1060.72,1060.72,0,0,0,2560.42,1645Z"/><path class="cls-180" d="M2346.69,1157.32s2.14,28.12,11.53,48.94c8.5,18.81,50.42,29.51,59,33.5s-15.26,17.18-39.49,20.38-93.81-.17-106.61-9,9.79-8.83,26.94-15.74,26.13-41.14,22.6-56.45S2346.69,1157.32,2346.69,1157.32Z"/><path class="cls-181" d="M2311.71,1135.82c-12.77-16.94-7.33-50.19,4.06-54.46,3.26-1.22,5.46.5,37.93,27.08,16.13,13.2,24,20,24.39,29.09.27,5.54-2.14,12.17-5.82,16.83-1.9,2.4-5,5.16-11.52,10.22-5.79,4.49-5.46,4.38-7.21,5.66-4.2,3.09-12,8.06-24.84,12.62a65.89,65.89,0,0,0,.28-11.47,58.12,58.12,0,0,0-2.79-14.62C2322.43,1146.09,2315.85,1141.32,2311.71,1135.82Z"/><path class="cls-182" d="M2344.4,1179.34s-15.82,12.67-35.09,4.22c-17.25-7.57-5.45-48.13,8.89-52.44,4.78-1.44,12.74.13,18.25,4.08,3.25,2.33,3.93,4.28,9.32,8,5,3.41,6.75,3.37,7.9,5.37,1.43,2.49,1.4,7.32-6.26,17.65,4.61-2.2,9.13-2,11.5.36a6.33,6.33,0,0,1,1.52,3.14C2361.26,1175.13,2355,1179.41,2344.4,1179.34Z"/><path class="cls-183" d="M2638.31,1735.75c-27.39,24.81-74.83,26.82-85.19,27.26-48.74,2.07-55.7-19.09-103.92-17s-61.12,24.15-95.41,15.33c-6.08-1.56-29.81-8.47-55-41.42-71.47-93.4-11.73-196.17-83-328.28-10.74-19.92-20.19-37.44-39.19-56.23-61.48-60.8-120.11-33.15-197.59-81.94-63.57-40-106.23-120.5-87.78-156.77,8.36-16.44,15.6-14.27,26.83-15.59,18.87,32,65.57,71,119.28,93.74,51,21.55,90.24,11.25,168.23,12.34,47.66.67,129.48,1.81,194.36,25,162.25,58.09,222.32,255.6,240.08,314C2655.54,1577.25,2689.53,1689.37,2638.31,1735.75Z"/><path class="cls-184" d="M2505.42,1690.89c17.69-22.82-73.58-85.68-61.34-159,10.32-61.75,83.51-67.92,102.23-124.94,8.08-24.64,6.56-60.51-27.85-113.89,75.46,81.84,109,192,121.55,233.15,15.53,51,49.52,163.17-1.7,209.55-27.39,24.81-74.83,26.82-85.19,27.26-48.74,2.07-55.7-19.09-103.92-17s-61.12,24.15-95.41,15.33c-6.08-1.56-29.81-8.47-55-41.42-.37-.49-.69-1-1.06-1.48,19-18.15,41.88-32.78,69.15-38.88C2434,1664.52,2491.09,1709.37,2505.42,1690.89Z"/><path class="cls-185" d="M2760.94,909.08c24.44,8.42,51.64-6.21,60.75-32.67s-3.3-54.73-27.73-63.15c-1.27-.43-2.55-.77-3.82-1.09a292.45,292.45,0,0,0,3.85-42.58c1.31-.18,2.62-.38,3.94-.69,25.72-5.94,43.06-32.74,38.74-59.86s-28.68-44.3-54.4-38.36c-1.34.31-2.65.71-3.95,1.13A268,268,0,0,0,2761.71,634c1.1-.87,2.19-1.76,3.24-2.74,20.11-18.7,23-50.5,6.36-71s-46.37-22-66.49-3.29c-1,1-2,2-2.92,3a238.51,238.51,0,0,0-32.64-23c.56-1.3,1.11-2.62,1.59-4,9.11-26.46,21.76-55.74-2.8-63.77-56.83-18.59-76.58,6.82-85.69,33.28-.47,1.37-.85,2.74-1.21,4.12a239.15,239.15,0,0,0-39.86-2c-.11-1.38-.23-2.77-.46-4.16-4.32-27.12,1.71-43-24.5-39.84-57.16,6.81-73,34.22-68.64,61.34.23,1.42.54,2.79.87,4.16a267.83,267.83,0,0,0-36.4,19.57c-.76-1.13-1.54-2.25-2.41-3.33-16.61-20.52-46.37-22-66.48-3.29s-23,50.51-6.36,71c.85,1.05,1.76,2,2.67,3a292.75,292.75,0,0,0-23.19,35.91c-1.2-.53-2.41-1.06-3.68-1.49-24.43-8.42-51.63,6.2-60.75,32.66s3.3,54.73,27.74,63.15c1.26.44,2.54.78,3.82,1.09a291.21,291.21,0,0,0-3.86,42.58c-1.31.19-2.62.39-3.93.69-25.72,5.94-43.07,32.74-38.75,59.87s28.68,44.29,54.4,38.36c1.34-.31,2.65-.71,3.95-1.13a268,268,0,0,0,16.61,37.84c-1.09.87-2.19,1.76-3.24,2.73-20.11,18.71-23,50.5-6.35,71s62.72,24.72,82.83,6c1-1-14.37-4.69-13.43-5.72a237.64,237.64,0,0,0,32.64,23c-.56,1.31-1.11,2.63-1.59,4-9.11,26.45,3.31,54.73,27.74,63.15s51.64-6.2,60.75-32.66c.48-1.37.85-2.75,1.21-4.13a237.08,237.08,0,0,0,39.86,2c.11,1.39.24,2.77.46,4.16,4.32,27.13,28.67,44.3,54.39,38.36s43.07-32.74,38.75-59.86c-.23-1.42-.54-2.79-.87-4.15a268.34,268.34,0,0,0,36.4-19.57c.76,1.13,1.55,2.25,2.41,3.32,16.61,20.52,46.37,22,66.49,3.29s23-50.5,6.35-71c-.85-1.05-1.76-2-2.67-3a292.88,292.88,0,0,0,23.19-35.92C2758.46,908.12,2759.67,908.64,2760.94,909.08ZM2476.89,952.2c-88.72-30.57-133.81-133.23-100.71-229.3S2508,573.74,2596.76,604.32s133.81,133.22,100.71,229.29S2565.61,982.77,2476.89,952.2Z"/><path class="cls-186" d="M2797.93,768.9c25.72-5.94,43.06-32.74,38.74-59.86s-28.68-44.3-54.4-38.36c-1.34.31-2.65.71-3.94,1.13A269.18,269.18,0,0,0,2761.71,634c1.1-.87,2.19-1.76,3.24-2.74,20.11-18.7,42.44-60.25,23.82-79-35.34-35.51-63.83-14.06-83.95,4.65-1,1-2,2-2.92,3a238.51,238.51,0,0,0-32.64-23c.56-1.3,1.11-2.62,1.59-4a52.38,52.38,0,0,0-2.76-41.3q-24.39,61.3-47.75,123c72.85,39.27,107.15,131.82,77.13,219-25.45,73.84-89.68,122.24-158.33,126.83-1.94,8.28-3.82,16.6-6,24.84-5.87,22.36-13,44.44-20.16,66.51q9.71.46,19.37.15c.11,1.39.24,2.77.46,4.16,4.32,27.13,24,47.94,70.89,38.89,25.92-5,26.57-33.27,22.25-60.39-.23-1.42-.54-2.79-.87-4.15a268.94,268.94,0,0,0,36.4-19.57c.76,1.13,1.55,2.25,2.41,3.32,16.61,20.52,64.74,23.54,84.85,4.83s4.59-52-12-72.56c-.85-1.05-1.76-2-2.67-3a292.88,292.88,0,0,0,23.19-35.92c1.2.54,2.41,1.06,3.68,1.5,24.44,8.42,51.64-6.21,60.75-32.67s-3.3-54.73-27.73-63.15c-1.27-.43-2.55-.77-3.82-1.09A292.44,292.44,0,0,0,2794,769.6C2795.3,769.41,2796.61,769.21,2797.93,768.9Z"/><path class="cls-187" d="M2822.87,768.27c25.72-5.93,43.05-32.72,38.73-59.84s-28.66-44.32-54.4-38.36a36.16,36.16,0,0,0-3.94,1.14,268.36,268.36,0,0,0-16.61-37.86c1.09-.86,2.18-1.75,3.25-2.72,20.11-18.72,22.95-50.52,6.36-71s-46.38-22-66.49-3.3c-1,1-2,2-2.94,3a236.77,236.77,0,0,0-32.62-22.95c.56-1.32,1.11-2.63,1.57-4,9.12-26.48-3.3-54.75-27.73-63.15s-51.63,6.2-60.75,32.65c-.46,1.36-.86,2.74-1.2,4.11a239.29,239.29,0,0,0-39.85-2c-.14-1.37-.27-2.77-.46-4.15-4.33-27.12-28.68-44.29-54.4-38.37s-43.08,32.73-38.75,59.85c.23,1.44.54,2.82.87,4.16A268.58,268.58,0,0,0,2437.1,545c-.75-1.13-1.55-2.26-2.41-3.32a43.54,43.54,0,0,0-41.15-15.84,47.73,47.73,0,0,0-25.33,12.54c-20.11,18.71-22.95,50.48-6.36,71,.85,1,1.75,2,2.68,3a291.55,291.55,0,0,0-23.2,35.93,35.89,35.89,0,0,0-3.68-1.5c-24.44-8.43-51.63,6.2-60.76,32.65s3.3,54.74,27.73,63.15a36.08,36.08,0,0,0,3.84,1.08,288.59,288.59,0,0,0-3.85,42.59c-1.33.19-2.63.39-3.94.7-25.72,5.93-43.08,32.72-38.75,59.87s28.68,44.29,54.39,38.36c1.34-.33,2.64-.72,3.94-1.14a264.73,264.73,0,0,0,16.64,37.83c-1.12.89-2.2,1.78-3.25,2.75-20.11,18.69-22.95,50.48-6.36,71s46.38,22,66.49,3.3c1-1,2-2,2.91-3a238.13,238.13,0,0,0,32.65,23c-.56,1.28-1.11,2.6-1.6,4-9.09,26.45,3.33,54.71,27.76,63.15s51.63-6.2,60.75-32.68c.46-1.36.83-2.74,1.2-4.12a236,236,0,0,0,39.85,2c.11,1.4.24,2.77.46,4.15,4.33,27.15,28.69,44.32,54.4,38.39s43.08-32.76,38.75-59.87c-.22-1.42-.53-2.79-.87-4.16a269.58,269.58,0,0,0,36.41-19.56c.75,1.13,1.52,2.23,2.41,3.32,16.59,20.52,46.37,22,66.48,3.27a54,54,0,0,0,14.45-56.29,47.82,47.82,0,0,0-8.09-14.72c-.85-1.06-1.76-2-2.68-3a298.88,298.88,0,0,0,23.2-35.92c1.2.54,2.39,1,3.66,1.5,24.43,8.4,51.66-6.2,60.75-32.68s-3.29-54.71-27.73-63.15c-1.27-.44-2.52-.77-3.81-1.09a294,294,0,0,0,3.85-42.58A36.6,36.6,0,0,0,2822.87,768.27ZM2722.4,833c-22.45,65.16-75.12,110.55-134.34,123.46a159,159,0,0,1-86.22-4.87C2413.11,921,2368,818.37,2401.11,722.3c14.8-43,42.71-77.29,77-99.42,42.38-27.41,94.55-36.1,143.61-19.18C2710.43,634.26,2755.5,736.93,2722.4,833Z"/><path class="cls-188" d="M2755.33,1016.86c-20.11,18.72-49.89,17.25-66.48-3.27-.89-1.09-1.66-2.19-2.41-3.32a269.58,269.58,0,0,1-36.41,19.56c.34,1.37.65,2.74.87,4.16,4.33,27.11-13,53.91-38.75,59.87s-50.07-11.24-54.4-38.39c-.22-1.38-.35-2.75-.46-4.15a236,236,0,0,1-39.85-2c-.37,1.38-.74,2.76-1.2,4.12-9.12,26.48-36.31,41.08-60.75,32.68s-36.85-36.7-27.76-63.15c.49-1.39,1-2.71,1.6-4a238.13,238.13,0,0,1-32.65-23c-.91,1-1.9,2-2.91,3-20.11,18.71-49.89,17.24-66.49-3.3s-13.75-52.32,6.36-71c1.05-1,2.13-1.86,3.25-2.75a264.73,264.73,0,0,1-16.64-37.83c-1.3.42-2.6.81-3.94,1.14-25.71,5.93-50.07-11.24-54.39-38.36s13-53.94,38.75-59.87c1.31-.31,2.61-.51,3.94-.7a288.59,288.59,0,0,1,3.85-42.59,36.08,36.08,0,0,1-3.84-1.08c-24.43-8.41-36.85-36.7-27.73-63.15s36.32-41.08,60.76-32.65a35.89,35.89,0,0,1,3.68,1.5,291.55,291.55,0,0,1,23.2-35.93c-.93-1-1.83-1.93-2.68-3-16.59-20.55-13.75-52.32,6.36-71a47.73,47.73,0,0,1,25.33-12.54c34.93,24.13,68.79,56.47,84.56,97-34.28,22.13-62.19,56.46-77,99.42-33.1,96.07,12,198.71,100.73,229.29a159,159,0,0,0,86.22,4.87c43.6,24.94,102.92,30.85,181.72,4.11A54,54,0,0,1,2755.33,1016.86Z"/></g></g></g></svg>