<svg xmlns="http://www.w3.org/2000/svg" xmlns:xlink="http://www.w3.org/1999/xlink" viewBox="0 0 2895.9 2936.09"><defs><style>.cls-1{fill:url(#linear-gradient);}.cls-2{fill:none;}.cls-3{fill:url(#linear-gradient-2);}.cls-4{isolation:isolate;}.cls-5{fill:#f4f7fa;}.cls-6{clip-path:url(#clip-path);}.cls-7{fill:#beb8f2;}.cls-8{fill:#bfc8d6;}.cls-9{fill:#d8dee8;}.cls-10{fill:url(#linear-gradient-4);}.cls-11{fill:url(#linear-gradient-5);}.cls-12,.cls-24{opacity:0.3;}.cls-12,.cls-16,.cls-24{mix-blend-mode:multiply;}.cls-12{fill:url(#linear-gradient-6);}.cls-13{fill:url(#linear-gradient-7);}.cls-14{fill:url(#linear-gradient-8);}.cls-15{fill:url(#linear-gradient-9);}.cls-16{opacity:0.54;}.cls-17{fill:url(#linear-gradient-10);}.cls-18{fill:url(#linear-gradient-11);}.cls-19{fill:url(#linear-gradient-12);}.cls-20{clip-path:url(#clip-path-2);}.cls-21{clip-path:url(#clip-path-3);}.cls-22{fill:#fcfdfe;}.cls-23{fill:url(#linear-gradient-14);}.cls-24{fill:url(#linear-gradient-15);}.cls-25{fill:url(#linear-gradient-16);}.cls-26{fill:url(#linear-gradient-17);}.cls-27{fill:url(#linear-gradient-18);}.cls-28{fill:url(#linear-gradient-19);}.cls-29{fill:url(#linear-gradient-20);}.cls-30{fill:url(#linear-gradient-21);}.cls-31{fill:url(#linear-gradient-22);}.cls-32{fill:url(#linear-gradient-23);}.cls-33{fill:url(#linear-gradient-24);}</style><linearGradient id="linear-gradient" x1="1013.69" y1="1652.92" x2="735.66" y2="2443.11" gradientUnits="userSpaceOnUse"><stop offset="0" stop-color="#aa80f9"/><stop offset="1" stop-color="#6165d7"/></linearGradient><linearGradient id="linear-gradient-2" x1="738.32" y1="1904.19" x2="1056.87" y2="3940.62" gradientUnits="userSpaceOnUse"><stop offset="0" stop-color="#e38ddd"/><stop offset="1" stop-color="#9571f6"/></linearGradient><clipPath id="clip-path" transform="translate(-18.01)"><path class="cls-1" d="M1557.14,2724.19q88.24-98.78,172.58-202.14c1.86.11-92.28-169.23-222-191-254-39.93-268.08-254.22-304.59-357.69-46.87-149.61-164.31-256-278-164.14-128.09,99.34-315.69-96.76-443.21-311.12C426.16,1388.15,251,1344.46,144.6,1389.87c-110.41,44.06-152.12,177.22-33.09,389.72,128.24,254,384.19,258.22,525.94,321,139.29,61.48,76,258.06,254.77,266.34,153.87,11.52,312.36-20.14,353.83,121C1285.47,2628.71,1362,2706.93,1557.14,2724.19Z"/></clipPath><linearGradient id="linear-gradient-4" x1="3551.09" y1="2193.79" x2="-298.26" y2="1112.4" gradientUnits="userSpaceOnUse"><stop offset="0" stop-color="#311944"/><stop offset="1" stop-color="#893976"/></linearGradient><linearGradient id="linear-gradient-5" x1="1635.93" y1="1035.58" x2="3.28" y2="3488.38" gradientUnits="userSpaceOnUse"><stop offset="0" stop-color="#ffc444"/><stop offset="1" stop-color="#f36f56"/></linearGradient><linearGradient id="linear-gradient-6" x1="1714.31" y1="961.01" x2="1223.82" y2="1646.93" xlink:href="#linear-gradient-5"/><linearGradient id="linear-gradient-7" x1="788.23" y1="176.66" x2="1527.4" y2="2154.21" xlink:href="#linear-gradient-5"/><linearGradient id="linear-gradient-8" x1="342.93" y1="4073.73" x2="1814.83" y2="106.6" gradientUnits="userSpaceOnUse"><stop offset="0" stop-color="#ebeff2"/><stop offset="1" stop-color="#fff"/></linearGradient><linearGradient id="linear-gradient-9" x1="1845.14" y1="951.56" x2="969.58" y2="2712.62" xlink:href="#linear-gradient-5"/><linearGradient id="linear-gradient-10" x1="865.03" y1="781" x2="1805.43" y2="2534.09" gradientUnits="userSpaceOnUse"><stop offset="0" stop-color="#ff9085"/><stop offset="1" stop-color="#fb6fbb"/></linearGradient><linearGradient id="linear-gradient-11" x1="966.35" y1="736.31" x2="1906.75" y2="2489.4" xlink:href="#linear-gradient-10"/><linearGradient id="linear-gradient-12" x1="-13.14" y1="-453.55" x2="2134.98" y2="3550.96" xlink:href="#linear-gradient-10"/><clipPath id="clip-path-2" transform="translate(-18.01)"><rect class="cls-2" y="1662.12" width="1630.9" height="1053.76"/></clipPath><clipPath id="clip-path-3" transform="translate(-18.01)"><path class="cls-3" d="M1578.17,2715c11.46-13.06,24.88-51.57,24.24-63-4.25-76.4-2.92-220-59.85-277.45-9.73-9.81-64.45,21.3-79.3,17.51-39.71,11.37-52.78,17.78-95.84,10-127.12-22.83-115.08-286.42-319.18-195.69-149.5,66.46-213,194-360.49.94s-583.65-397.56-664-101.54c-46.14,169.88,202,226.07,245.7,390.13C311,2651.73,435.51,2700.54,608,2664.21s155,67.88,212.22,200.4c68.75,159.19,278.48,13.5,369.57-62C1263.14,2741.77,1491,2636.4,1578.17,2715Z"/></clipPath><linearGradient id="linear-gradient-14" x1="2829.05" y1="2797.92" x2="2424.06" y2="1427.67" xlink:href="#linear-gradient-4"/><linearGradient id="linear-gradient-15" x1="2491.71" y1="2435.52" x2="2438.53" y2="2012.41" xlink:href="#linear-gradient-4"/><linearGradient id="linear-gradient-16" x1="2672.97" y1="1665.65" x2="2522.47" y2="4437.23" xlink:href="#linear-gradient-10"/><linearGradient id="linear-gradient-17" x1="2403.96" y1="2962.74" x2="1999.16" y2="1593.12" xlink:href="#linear-gradient-4"/><linearGradient id="linear-gradient-18" x1="2287.94" y1="1643.93" x2="2137.59" y2="4412.91" xlink:href="#linear-gradient-10"/><linearGradient id="linear-gradient-19" x1="1939.07" y1="3142.14" x2="1531.2" y2="1762.13" xlink:href="#linear-gradient-4"/><linearGradient id="linear-gradient-20" x1="1835.44" y1="1618.18" x2="1685.18" y2="4385.44" xlink:href="#linear-gradient-10"/><linearGradient id="linear-gradient-21" x1="1408.75" y1="3333.24" x2="1003.93" y2="1963.56" xlink:href="#linear-gradient-4"/><linearGradient id="linear-gradient-22" x1="1336.99" y1="1590.91" x2="1186.95" y2="4354.12" xlink:href="#linear-gradient-10"/><linearGradient id="linear-gradient-23" x1="934.73" y1="3769.96" x2="433.18" y2="2073.01" xlink:href="#linear-gradient-4"/><linearGradient id="linear-gradient-24" x1="779.98" y1="1560.82" x2="630.19" y2="4319.45" xlink:href="#linear-gradient-10"/></defs><g class="cls-4"><g id="Illustration"><path class="cls-5" d="M1286.09.24C902.77,6.66,309.7,144.8,139,499.79,79.37,623.77,83.4,806,91.48,1170.58c2.37,107.15,6.3,263.32,33.93,457.1,57.4,402.52,96.47,676.55,244.36,836.11,370.54,399.81,1709,388.26,2280.61-331.53,311.8-392.65,359.77-951.21,74.67-1412.83C2411.16,211.19,1799.26-8.35,1286.09.24Z" transform="translate(-18.01)"/><path class="cls-1" d="M1557.14,2724.19q88.24-98.78,172.58-202.14c1.86.11-92.28-169.23-222-191-254-39.93-268.08-254.22-304.59-357.69-46.87-149.61-164.31-256-278-164.14-128.09,99.34-315.69-96.76-443.21-311.12C426.16,1388.15,251,1344.46,144.6,1389.87c-110.41,44.06-152.12,177.22-33.09,389.72,128.24,254,384.19,258.22,525.94,321,139.29,61.48,76,258.06,254.77,266.34,153.87,11.52,312.36-20.14,353.83,121C1285.47,2628.71,1362,2706.93,1557.14,2724.19Z" transform="translate(-18.01)"/><g class="cls-6"><path class="cls-7" d="M1656.54,2655.93c-1-1.36-308.83-266.19-656.42-484-53.61-37.43-108.89-74.2-162.35-109.77-297.72-198-578.92-385.13-708-746.38l-4.82,1.87c129.64,362.94,411.55,550.48,710,749,53.43,35.55,108.69,72.31,162.35,109.77,349.47,219,653.55,481.16,655.25,483Z" transform="translate(-18.01)"/><path class="cls-7" d="M563.33,1877.39l.83-5.28c-140.4-24.08-324-71.61-422.67-97.15-79.84-20.66-80-20.5-81.78-18.45l1.9,1.81.45,2.58c3.4-.09,36.41,8.45,78.19,19.26C239,1805.72,422.71,1853.28,563.33,1877.39Z" transform="translate(-18.01)"/><path class="cls-7" d="M451.06,1776.75c-60.08-111-71-207.92-69.61-269.73,1.52-67.32,17.89-111.34,21.11-115.19l-1.5-1.36-.27-3.36c-1.54.13-2.45,1.38-3.6,3.65-16.45,32.45-56.25,193.51,49.39,388.63Z" transform="translate(-18.01)"/><path class="cls-7" d="M1217.16,2323.37l3.61-3.82c-173.23-177.72-186-467.75-183.38-584.2.13-6.26.17-8.28,0-9.21l-5.09.8,2.54-.4-2.54.38c.08.67,0,4.21-.09,8.31-1.86,84,4.66,165.19,19.37,241.39C1079.87,2123,1135.57,2239.66,1217.16,2323.37Z" transform="translate(-18.01)"/><path class="cls-7" d="M757.6,2315.78l-1.72-2,.88,2.5-3-.91v-3.21l0,0c2.49-2.6,178.06-133.12,361.11-65.27l-1.72,5C932,2184.79,759.17,2314.4,757.6,2315.78Zm-1.73-2-.88-2.51Z" transform="translate(-18.01)"/><path class="cls-7" d="M1605.53,2613.26c-32-38.68-70.5-118.07-72.13-276.57-.09-9-.09-9-1.07-10l-3.52,3.91,1.76-2-2.47.65c.09.62.12,3.77.16,7.4,1.65,160.13,40.81,240.66,73.37,280Z" transform="translate(-18.01)"/><path class="cls-7" d="M1527,2555.74l3-4.39c-74.35-54.61-209.46-27.21-283.38-6-2.34.67-3.85,1.11-4.41,1.23l1,5.25c.61-.13,2.23-.59,4.76-1.31C1321,2529.56,1454.41,2502.39,1527,2555.74Z" transform="translate(-18.01)"/></g><path class="cls-8" d="M2495.91,1315.66l12.51-27.56c4.69-10.33,1.91-22.73-6.23-27.73l-32.39-19.9a357.1,357.1,0,0,0,18-78.34l36.16-2.54c9.31-.65,16.85-10.39,16.85-21.76v-30.22c0-11.37-7.54-20.15-16.85-19.62l-35.21,2a332.21,332.21,0,0,0-16.34-77.94L2502.19,990a18.07,18.07,0,0,0,2.62-2.4l3.81,9.91,48.91-60.14-63.85-5.44a15.8,15.8,0,0,0-10.55-6.29,15,15,0,0,0-10.64,2.94l-29.41,21.37a269.9,269.9,0,0,0-48.53-58.16l2.21-4.63,44.95,9.18,5.71-74.41-68.26-11.27c-7.86-3-16.73.81-21,9.71l-17,35c-21.8-10.84-3.73-22.26-28.51-25.56l25.92-38.16c0-11.9-75.92-19.82-86.17-19.82h-27.45c-10.39,0-18.84,9.77-18.84,21.83V834.5a243.35,243.35,0,0,0-73.6,23.9L2179.37,824s-82.58-15.65-92-9.44l-25.13,16.61c-9.5,6.28-12.77,20-7.27,30.66l19,36.78c-20.81,18.53-29.66,29.22-45.41,53.68l-44.15-10c-9.76-6-22.27-1.93-27.94,9.12l-15.13,29.46c-5.71,11.12-2.32,25,7.55,30.88l35.6,21.34a356.91,356.91,0,0,0-19.44,86.88l-42.71,2.44c-11.5.66-20.85,11.47-20.85,24.16v33.73c0,11.5,7.7,20.46,17.7,21.43l48.54,7.78a323.17,323.17,0,0,0,19.85,71.45l-38.69,28.12c-9.87,7.18-13.26,21.45-7.55,31.84l15.13,27.54c5.67,10.32,95.63,16.6,95.63,16.6L2023.56,1345a259.11,259.11,0,0,0,54,54l-22.55,46.5c-5.5,11.34-2.23,24.67,7.27,29.74l25.13,13.4a16.22,16.22,0,0,0,4.94,1.67l-.1.47,78.41,9.66,7.67-59.17a221.77,221.77,0,0,0,27.78,2.51v50.62c0,9,4.71,16.13,11.42,18.61l-.34,1.48,77.67,9.7,1.56-96a256.56,256.56,0,0,0,41-20l20.71,40.07a15.61,15.61,0,0,0,11.39,8.67l75.06,10.18-25.71-70.76-10.37,3.19-17.11-33.55a320.47,320.47,0,0,0,47.62-60.58l33.5,20.08C2480.71,1330.5,2491.19,1326.05,2495.91,1315.66Zm-257.22-25.93c-73.5,6.55-134.45-57.94-134.45-144.18s61-158.39,134.45-161.08c71.68-2.62,128.5,62.13,128.5,144.56S2310.37,1283.35,2238.69,1289.73Zm313.88-165.6,50.86-24.07-50.86-6.17Zm-62.42,205.45,58.18,7.85,8.49-19.84-48.2-29.3Z" transform="translate(-18.01)"/><path class="cls-9" d="M2598.93,1099.17l-35,2a331.64,331.64,0,0,0-16.24-77.71l29.6-22c8.09-6,10.85-18.74,6.19-28.45L2571,947.12c-4.69-9.76-15.11-12.87-23.28-6.9l-29.24,21.32a268.36,268.36,0,0,0-48.27-58l16.83-35.24c4.83-10.12,2-22.92-6.41-28.63l-22.4-15.27c-8.46-5.77-19.33-2.23-24.24,8l-16.87,34.9a221.9,221.9,0,0,0-69.82-21.45v-40.3c0-11.88-8.24-21.52-18.44-21.51H2301.6c-10.33,0-18.73,9.75-18.73,21.78v40.74a241.7,241.7,0,0,0-73.18,23.86l-18.24-35.85c-5.36-10.53-17.26-14.08-26.6-7.89l-25,16.57c-9.45,6.27-12.69,20-7.22,30.58l18.89,36.67a314.41,314.41,0,0,0-54.84,64.67l-34.2-21c-9.7-6-22.14-1.91-27.78,9.1l-15,29.39c-5.67,11.09-2.3,24.88,7.51,30.78l35.39,21.26a356.94,356.94,0,0,0-19.32,86.64l-42.47,2.45c-11.43.66-20.73,11.45-20.73,24.1v33.63c0,12.65,9.3,22.24,20.73,21.43l43.59-3.08a325,325,0,0,0,21.28,82l-38.47,28c-9.81,7.16-13.18,21.39-7.51,31.75l15,27.46c5.64,10.28,18.08,12.74,27.78,5.53l38.9-28.95a258,258,0,0,0,53.66,53.85l-22.41,46.37c-5.47,11.31-2.23,24.6,7.22,29.65l25,13.36c9.34,5,21.24-.09,26.6-11.31l22.23-46.55a220.28,220.28,0,0,0,69.19,13.08v50.48c0,12,8.4,20.69,18.73,19.37l27.29-3.5c10.2-1.3,18.44-12,18.44-23.88v-49.92a249.72,249.72,0,0,0,66.1-28l20.59,40c4.91,9.55,15.78,11.69,24.24,4.83l22.4-18.15c8.37-6.78,11.24-20,6.41-29.44l-20-39.29a320.22,320.22,0,0,0,47.34-60.42l33.32,20c8.17,4.91,18.59.47,23.28-9.9l12.44-27.48c4.66-10.3,1.9-22.67-6.19-27.65l-32.21-19.83a356.4,356.4,0,0,0,17.91-78.13l35.95-2.54c9.27-.66,16.75-10.37,16.75-21.71v-30.14C2615.68,1107.39,2608.2,1098.63,2598.93,1099.17Zm-283.65,201.28c-73.08,6.56-133.68-57.72-133.68-143.71s60.6-158,133.68-160.67c71.27-2.65,127.77,61.89,127.77,144.09S2386.55,1294.05,2315.28,1300.45Z" transform="translate(-18.01)"/><path class="cls-8" d="M1849.08,943.77l16.73-36.87c6.28-13.82,2.56-30.41-8.33-37.1l-43.33-26.62a477.74,477.74,0,0,0,24.09-104.82l48.37-3.39c12.47-.88,22.55-13.91,22.55-29.12V665.41c0-15.2-10.08-26.95-22.55-26.24l-47.1,2.69a443.71,443.71,0,0,0-21.86-104.27L1857.48,508a24.22,24.22,0,0,0,3.51-3.21l5.1,13.25,65.42-80.45-85.41-7.29a21.1,21.1,0,0,0-14.12-8.4,20,20,0,0,0-14.24,3.93l-39.34,28.59a360.47,360.47,0,0,0-64.94-77.82l3-6.19,60.13,12.28,7.64-99.56-91.33-15.07c-10.5-4.05-22.38,1.08-28.16,13L1642,327.91c-29.17-14.5-5-29.77-38.15-34.19l34.67-51.06c0-15.91-101.56-26.51-115.28-26.51h-36.73c-13.9,0-25.2,13.07-25.2,29.2V300a325.87,325.87,0,0,0-98.48,32l62.73-46.09S1315.09,265,1302.52,273.28l-33.62,22.21c-12.72,8.41-17.09,26.79-9.73,41l25.43,49.21c-27.83,24.79-39.68,39.09-60.75,71.81l-59.07-13.33c-13-8-29.8-2.58-37.39,12.19l-20.23,39.43c-7.64,14.88-3.11,33.39,10.1,41.3l47.63,28.56a477.47,477.47,0,0,0-26,116.23l-57.14,3.27c-15.39.88-27.9,15.35-27.9,32.32v45.13c0,15.39,10.3,27.37,23.69,28.68l64.93,10.41A432.75,432.75,0,0,0,1169,897.32L1117.26,935c-13.21,9.59-17.74,28.68-10.1,42.59l20.23,36.85c7.59,13.8,127.95,22.2,127.95,22.2L1217.12,983a346.52,346.52,0,0,0,72.22,72.28l-30.17,62.22c-7.36,15.17-3,33,9.73,39.78l33.62,17.94a21.61,21.61,0,0,0,6.61,2.23l-.13.63L1413.89,1191l10.26-79.17a298.8,298.8,0,0,0,37.18,3.36v67.73c0,12,6.3,21.57,15.28,24.89l-.46,2,103.92,13,2.08-128.4a344.34,344.34,0,0,0,54.86-26.69l27.7,53.61c3.44,6.66,9,10.6,15.24,11.6l100.43,13.61-34.4-94.66-13.88,4.26-22.88-44.89a429.23,429.23,0,0,0,63.7-81L1817.74,957C1828.75,963.63,1842.77,957.67,1849.08,943.77Zm-344.14-34.69c-98.33,8.76-179.88-77.52-179.88-192.91s81.55-211.9,179.88-215.5c95.9-3.51,171.93,83.12,171.93,193.4S1600.84,900.54,1504.94,909.08Zm420-221.56,68-32.21-68-8.25Zm-83.52,274.87,77.84,10.5,11.36-26.54-64.48-39.19Z" transform="translate(-18.01)"/><path class="cls-9" d="M1986.91,654.12l-46.84,2.71a443.36,443.36,0,0,0-21.73-104l39.6-29.48c10.82-8,14.53-25.07,8.29-38.05l-16.64-34.63c-6.28-13.06-20.22-17.22-31.16-9.24L1879.31,470a358.89,358.89,0,0,0-64.57-77.57l22.51-47.16c6.46-13.52,2.63-30.65-8.58-38.29l-30-20.43c-11.33-7.72-25.86-3-32.44,10.63l-22.57,46.69a296.48,296.48,0,0,0-93.41-28.69V261.26c0-15.91-11-28.8-24.67-28.79l-36.51,0c-13.83,0-25.06,13-25.06,29.13v54.52a323.15,323.15,0,0,0-97.91,31.92l-24.4-48c-7.17-14.1-23.09-18.84-35.59-10.55l-33.43,22.16c-12.64,8.39-17,26.72-9.67,40.91l25.29,49.06A420.36,420.36,0,0,0,1315,488.21L1269.2,460c-13-8-29.62-2.56-37.16,12.18l-20.12,39.32c-7.6,14.84-3.09,33.29,10,41.18l47.35,28.45a477.19,477.19,0,0,0-25.85,115.91l-56.82,3.28c-15.29.89-27.73,15.32-27.73,32.24v45c0,16.92,12.44,29.76,27.73,28.67l58.32-4.12a435.06,435.06,0,0,0,28.47,109.69L1222,949.37c-13.13,9.57-17.64,28.61-10,42.47l20.12,36.73c7.54,13.77,24.19,17.06,37.16,7.4l52-38.73a345.12,345.12,0,0,0,71.79,72l-30,62c-7.31,15.12-3,32.9,9.67,39.66l33.43,17.87c12.5,6.68,28.42-.11,35.59-15.13l29.74-62.28a295.08,295.08,0,0,0,92.57,17.51v67.53c0,16.08,11.23,27.68,25.06,25.91l36.51-4.68c13.64-1.74,24.67-16,24.67-32V1119a334.15,334.15,0,0,0,88.43-37.49l27.55,53.45c6.58,12.77,21.11,15.64,32.44,6.46l30-24.28c11.21-9.08,15-26.7,8.58-39.4l-26.73-52.56a427.62,427.62,0,0,0,63.34-80.84l44.57,26.77c10.94,6.58,24.88.63,31.16-13.24l16.64-36.77c6.24-13.78,2.53-30.32-8.29-37l-43.09-26.53a477.32,477.32,0,0,0,24-104.53l48.1-3.4c12.4-.88,22.41-13.88,22.41-29V680.28C2009.32,665.12,1999.31,653.41,1986.91,654.12Zm-379.5,269.3c-97.77,8.77-178.85-77.22-178.85-192.28s81.08-211.33,178.85-215c95.35-3.53,170.94,82.81,170.94,192.78S1702.76,914.86,1607.41,923.42Z" transform="translate(-18.01)"/><path class="cls-10" d="M1980.32,1532.61c1,466.18-246.76,846.62-688,859.13-6.82.19-119.44,0-126.31,0-450.8,1.1-817.1-381.77-818.14-855.15s363.55-858,814.36-859.13c10.54,0,109.49,1,119.94,1.35C1718.37,695.11,1979.3,1070.3,1980.32,1532.61Z" transform="translate(-18.01)"/><ellipse class="cls-11" cx="1298.67" cy="1542.27" rx="816.26" ry="857.14"/><ellipse class="cls-12" cx="1298.67" cy="1542.27" rx="795.69" ry="835.54"/><ellipse class="cls-13" cx="1298.67" cy="1542.27" rx="771.67" ry="810.32"/><ellipse class="cls-14" cx="1282.17" cy="1542.27" rx="755.17" ry="793"/><path class="cls-15" d="M1379.91,1519.56l575.25,223.06A699.62,699.62,0,0,0,1984,1543.08C1984,1185.23,1716.42,893,1379.91,875Z" transform="translate(-18.01)"/><g class="cls-16"><path class="cls-9" d="M1110.57,1524.27c-59.73-193.41,156.19-333,122.15-558.43-15-99.48-73.48-181-145.37-246.38-339.86,104.27-587.79,434.32-586.93,824.79,1.05,473.39,367.34,856.25,818.15,855.15a780.31,780.31,0,0,0,311.91-65.68c-13.92-273.58-97.84-428.12-187.08-521.22C1305.86,1669,1156.1,1671.76,1110.57,1524.27Z" transform="translate(-18.01)"/></g><ellipse class="cls-17" cx="1280.05" cy="1554.68" rx="48.01" ry="50.42"/><path class="cls-18" d="M1298.06,1152.88c-16.76,0-30.35,14.26-30.35,31.86v339.88c0,17.59,13.59,31.86,30.35,31.86s30.34-14.27,30.34-31.86V1184.74C1328.4,1167.14,1314.81,1152.88,1298.06,1152.88Z" transform="translate(-18.01)"/><path class="cls-19" d="M1305.89,1549.92,762.25,1390.09A19.29,19.29,0,0,0,738.74,1402a17.15,17.15,0,0,0,11.18,22.46l543.64,159.83a19.3,19.3,0,0,0,23.52-11.87A17.15,17.15,0,0,0,1305.89,1549.92Z" transform="translate(-18.01)"/><g class="cls-20"><path class="cls-3" d="M1578.17,2715c11.46-13.06,24.88-51.57,24.24-63-4.25-76.4-2.92-220-59.85-277.45-9.73-9.81-64.45,21.3-79.3,17.51-39.71,11.37-52.78,17.78-95.84,10-127.12-22.83-115.08-286.42-319.18-195.69-149.5,66.46-213,194-360.49.94s-583.65-397.56-664-101.54c-46.14,169.88,202,226.07,245.7,390.13C311,2651.73,435.51,2700.54,608,2664.21s155,67.88,212.22,200.4c68.75,159.19,278.48,13.5,369.57-62C1263.14,2741.77,1491,2636.4,1578.17,2715Z" transform="translate(-18.01)"/><g class="cls-21"><path class="cls-22" d="M1575.47,2519.82l-1-3.56C1025.8,2667.14,447.06,2476.13,26.35,2005.32l-2.76,2.46C223,2230.91,467.37,2397.26,730.34,2488.84,1006.8,2585.12,1299,2595.84,1575.47,2519.82Z" transform="translate(-18.01)"/><path class="cls-22" d="M841.2,2934.05c78.95-134.13,263.75-298.57,412-366.54l-1.54-3.36c-148.79,68.24-334.32,233.34-413.59,368Z" transform="translate(-18.01)"/><path class="cls-22" d="M1467.42,2548.21l0-3.7c-84.74-1.05-165.7-44.91-240.61-130.35-54.93-62.65-105.4-145.78-150-247.1l-3.38,1.49c44.75,101.66,95.42,185.11,150.6,248C1299.7,2502.86,1381.58,2547.14,1467.42,2548.21Z" transform="translate(-18.01)"/><path class="cls-22" d="M693.52,2474.39l.23-3.69c-159.63-10.2-303.83,76.41-396.69,150.87l2.31,2.88C391.72,2550.4,535.06,2464.26,693.52,2474.39Z" transform="translate(-18.01)"/><path class="cls-22" d="M367.34,2308l2.59-2.64C241.4,2179,214.37,1991.82,209.7,1891.46l-3.69.17C210.71,1992.53,237.91,2180.78,367.34,2308Z" transform="translate(-18.01)"/></g></g><path class="cls-23" d="M2751.91,1418.49l-67.68-456.92-151.29,15.22c-12.77-2.37-37,10.91-42.77,24.3L2291.49,1464c-6.15,14.36,3.29,30.84,17.59,30.74l56.73-2.38V2571.5c0,19.23,14,33,31.13,30.84l136,30.22c16.27-2.1,168.56-84.14,168.56-102.68V1448.16l34.38-.18C2748.92,1447.92,2757.49,1432.13,2751.91,1418.49Z" transform="translate(-18.01)"/><path class="cls-24" d="M2515.86,1487.54l-150.05,4.86V2571.5c0,19.23,14,33,31.13,30.84l136,30.22c6.69-.86,36.53-15.32,69.26-33.3Z" transform="translate(-18.01)"/><path class="cls-25" d="M2898.32,1455.8,2701.71,973.25c-6.63-16.27-26.56-17.29-33.23-1.64L2461.57,1457.2c-6.09,14.28,3.25,30.67,17.39,30.58l36.9-.24V2603.78c0,19.13,13.84,32.86,30.85,30.66l272.79-35.28c16-2.07,28.88-18.7,28.88-37.15V1485.39l34.06-.22C2895.36,1485.09,2903.85,1469.37,2898.32,1455.8Z" transform="translate(-18.01)"/><path class="cls-26" d="M2096.9,2691.8l-142.08-33c-17.89,2.28-32.43-11.37-32.43-30.49V1746.84c0-19.12,14.54-35,32.43-35.58l304.65-9c16.74-.49,158.43,7.53,158.43,7.53l-128.17,872.86C2289.73,2601.1,2096.9,2691.8,2096.9,2691.8Z" transform="translate(-18.01)"/><path class="cls-27" d="M2410.54,2652l-301.73,39c-17.71,2.29-32.12-11.27-32.12-30.3V1753.44c0-19,14.41-34.89,32.12-35.42l301.73-9c16.58-.49,30,14,30,32.29V2615C2440.51,2633.31,2427.12,2649.9,2410.54,2652Z" transform="translate(-18.01)"/><path class="cls-28" d="M1620.82,2753.61,1471,2720.56c-19.68,2.51-35.69-11.71-35.69-31.77l4.52-617.65c0-20.06,16-37.28,35.69-38.45l334.7-20c18.36-1.1,172.33,20.11,172.33,20.11L1839,2638.66C1839,2657.94,1639.39,2751.21,1620.82,2753.61Z" transform="translate(-18.01)"/><path class="cls-29" d="M1961.21,2710.15,1629.66,2753c-19.49,2.52-35.34-11.61-35.34-31.58V2084.1c0-20,15.85-37.1,35.34-38.28l331.55-20c18.18-1.09,32.87,13.58,32.87,32.77v612.57C1994.08,2690.34,1979.39,2707.8,1961.21,2710.15Z" transform="translate(-18.01)"/><path class="cls-30" d="M1077.42,2816.62l-140.24-27.9c-21.77,2.78-39.48-12.07-39.48-33.18V2434.6c0-21.1,17.71-39.81,39.48-41.77l369.65-33.27c20.23-1.83,160.29,14.57,160.29,14.57L1343.41,2700.2C1343.41,2720.44,1097.94,2814,1077.42,2816.62Z" transform="translate(-18.01)"/><path class="cls-31" d="M1467.12,2774l-366,47.33c-21.56,2.79-39.09-12-39.09-33V2449c0-21,17.53-39.61,39.09-41.57l366-33.28c20-1.82,36.22,13,36.22,33.18v325.58C1503.34,2753,1487.16,2771.45,1467.12,2774Z" transform="translate(-18.01)"/><path class="cls-32" d="M755.49,2551.37l-410.22,42.35c-17.52,1.81-32.63,12.84-39.67,27.22a40.08,40.08,0,0,0-4.24,17.62v176.36c0,22.26,18.84,40.49,43.91,49.37l145,28.81C513,2890.16,796,2789.47,796,2768.17l68-81.78,68.81-116.52S777.91,2549.06,755.49,2551.37Z" transform="translate(-18.01)"/><path class="cls-33" d="M921.25,2844.63l-406.11,52.52c-24,3.09-43.46-12.34-43.46-34.48V2658.1c0-22.14,19.5-42.13,43.46-44.63l406.11-42.38c22.19-2.32,40.11,13,40.11,34.19v195.79C961.36,2822.26,943.44,2841.76,921.25,2844.63Z" transform="translate(-18.01)"/></g></g></svg>