<svg width="60" height="60" viewBox="0 0 60 60" fill="none" xmlns="http://www.w3.org/2000/svg">
<path d="M29.9941 60C46.5661 60 60 46.5661 60 29.9941C60 13.4221 46.5661 0 29.9941 0C13.4221 0 0 13.4339 0 29.9941C0 46.5544 13.4339 60 29.9941 60ZM23.3066 34.3075C23.4476 31.8394 26.1038 31.9804 26.6092 30.0411C27.1146 28.1019 25.6337 27.855 26.2331 25.8335C26.8325 23.8119 27.9491 23.8825 27.7258 21.9314C27.5024 19.9804 24.2821 19.6866 25.0108 16.0666C25.7395 12.4466 29.8296 13.3046 31.6278 11.3536C33.4261 9.40255 32.4623 8.59158 33.8844 6.71107C35.3066 4.83056 37.9275 3.03232 42.8874 5.13614C45.2615 6.14691 48.5759 8.60333 51.1381 11.5064C53.9119 14.6562 55.7218 18.335 56.4505 20.6268C57.1792 22.9187 53.2302 22.0842 50.6445 25.1166C48.0588 28.1489 49.1048 36.7052 43.7453 43.3457C38.3859 49.9863 26.9853 52.76 26.1508 51.4789C25.3164 50.1978 34.3311 47.5064 37.1048 45.1792C39.8786 42.8521 39.7258 39.3379 38.8208 37.6102C37.9158 35.8825 36.2821 34.0842 33.7316 33.332C31.1812 32.5798 30.8051 33.2615 31.2282 33.6729C31.6513 34.0842 33.7316 34.3898 33.2615 35.7179C32.7914 37.046 30.5818 37.1518 28.5602 37.2341C26.5387 37.3164 23.1655 36.7875 23.3066 34.3075ZM5.08913 40.0078C3.52595 39.7023 1.49265 33.1792 2.02155 27.6317C2.55044 22.0842 4.57199 17.7356 6.22919 15.1851C7.88639 12.6347 12.5406 9.0382 13.8688 10.3898C15.1969 11.7414 11.4476 13.3516 12.6934 16.5367C13.9393 19.7218 16.713 18.335 17.0069 22.4603C17.3007 26.5857 20.1567 25.9158 20.9089 28.2429C21.6611 30.57 19.6043 31.2282 19.5455 33.4025C19.4868 35.5769 21.4378 35.6592 22.7071 36.6347C23.9765 37.6102 19.2047 37.8335 18.0294 37.763C16.8541 37.6925 14.8913 37.6807 13.951 36.3526C13.0108 35.0245 15.7728 34.6836 15.8903 34.2018C16.0078 33.7199 14.6092 33.3438 12.2116 34.8952C9.81391 36.4466 8.46229 40.6895 5.08913 40.0078Z" fill="url(#paint0_radial_1595_2477)"/>
<defs>
<radialGradient id="paint0_radial_1595_2477" cx="0" cy="0" r="1" gradientUnits="userSpaceOnUse" gradientTransform="translate(98.3789 -13.4856) scale(135.598 135.598)">
<stop offset="0.47" stop-color="#2E3192"/>
<stop offset="1" stop-color="#1B1464"/>
</radialGradient>
</defs>
</svg>
