<svg id="Layer_1" data-name="Layer 1" xmlns="http://www.w3.org/2000/svg" xmlns:xlink="http://www.w3.org/1999/xlink" viewBox="0 0 1493.6 510.5"><defs><style>.cls-1{fill:url(#radial-gradient);}.cls-2{fill:url(#radial-gradient-2);}.cls-3{fill:url(#radial-gradient-8);}</style><radialGradient id="radial-gradient" cx="837.04" cy="-114.74" r="1153.71" gradientUnits="userSpaceOnUse"><stop offset="0.47" stop-color="#2e3192"/><stop offset="1" stop-color="#1b1464"/></radialGradient><radialGradient id="radial-gradient-2" cx="837.04" cy="-114.74" r="1153.71" gradientUnits="userSpaceOnUse"><stop offset="1" stop-color="#2e3192"/><stop offset="1" stop-color="#1b1464"/></radialGradient><radialGradient id="radial-gradient-8" cx="837.04" cy="-114.74" r="1153.87" xlink:href="#radial-gradient"/></defs><path class="cls-1" d="M255.2,510.5c141,0,255.3-114.3,255.3-255.3S396.2,0,255.2,0,0,114.3,0,255.2,114.3,510.5,255.2,510.5ZM198.3,291.9c1.2-21,23.8-19.8,28.1-36.3s-8.3-18.6-3.2-35.8,14.6-16.6,12.7-33.2-29.3-19.1-23.1-49.9,41-23.5,56.3-40.1,7.1-23.5,19.2-39.5,34.4-31.3,76.6-13.4c20.2,8.6,48.4,29.5,70.2,54.2,23.6,26.8,39,58.1,45.2,77.6s-27.4,12.4-49.4,38.2-13.1,98.6-58.7,155.1S229.6,448.9,222.5,438s69.6-33.8,93.2-53.6S338,334.7,330.3,320s-21.6-30-43.3-36.4-24.9-.6-21.3,2.9,21.3,6.1,17.3,17.4-22.8,12.2-40,12.9S197.1,313,198.3,291.9Zm-155,48.5C30,337.8,12.7,282.3,17.2,235.1S38.9,150.9,53,129.2s53.7-52.3,65-40.8-20.6,25.2-10,52.3,34.2,15.3,36.7,50.4,26.8,29.4,33.2,49.2-11.1,25.4-11.6,43.9,16.1,19.2,26.9,27.5-29.8,10.2-39.8,9.6-26.7-.7-34.7-12,15.5-14.2,16.5-18.3-10.9-7.3-31.3,5.9S72,346.2,43.3,340.4Z"/><path class="cls-2" d="M706.9,346.9a44.8,44.8,0,0,0-20.6-5.7v-1.8a45.3,45.3,0,0,0,18-7.4,36.9,36.9,0,0,0,16.1-31.2c0-8.9-2.3-16.7-7-23.2s-11.6-11.8-20.8-15.4-20.5-5.4-33.8-5.4H582.2V433.2h83.1c12.8,0,23.8-2.2,33-6.4A51.8,51.8,0,0,0,719.8,409a45.3,45.3,0,0,0,7.5-25.8,42.2,42.2,0,0,0-5.4-21.7A40.4,40.4,0,0,0,706.9,346.9Zm-76.7-52.6h20.2a24,24,0,0,1,14.9,4.4c3.9,2.9,5.9,7,5.9,12.5a15.1,15.1,0,0,1-10.4,14.9,27.5,27.5,0,0,1-11,2H630.2Zm40.5,96.2c-4,2.9-10.1,4.5-18.1,4.5H630.2V357.7h23a33.8,33.8,0,0,1,12.6,2.2,19,19,0,0,1,8,6.6,17.7,17.7,0,0,1,2.8,10.5c0,6-1.9,10.5-5.9,13.5Z"/><path class="cls-1" d="M880,348.6c5.6-8.6,8.4-19.2,8.4-31.9s-2.7-23.3-8.1-32.2A52.8,52.8,0,0,0,857.4,264c-9.9-4.9-21.3-7.2-34.4-7.2H746.8V433.2h48V375h16.5l31,58.2h52l-35.9-65.8A51.1,51.1,0,0,0,880,348.6Zm-44.7-19.7a18.9,18.9,0,0,1-9.2,6.8,47.5,47.5,0,0,1-14.5,2H794.8V295h16.8a42.3,42.3,0,0,1,14.5,2.3,18.9,18.9,0,0,1,9.2,7.1c2.2,3.1,3.1,7.2,3.1,12.3s-.9,9-3.1,12.2Z"/><path class="cls-1" d="M1033.1,264.7c-13-6.9-27.4-10.3-43.4-10.3s-30.6,3.4-43.6,10.3a76.2,76.2,0,0,0-30.8,30.6c-7.6,13.4-11.4,30.1-11.4,49.7s3.8,36,11.4,49.5a77.1,77.1,0,0,0,30.8,30.7,91.9,91.9,0,0,0,43.6,10.4c16,0,30.4-3.4,43.4-10.4a75.9,75.9,0,0,0,30.9-30.6c7.7-13.5,11.4-29.9,11.4-49.6s-3.7-36.3-11.4-49.7A75.9,75.9,0,0,0,1033.1,264.7Zm-11,107c-2.8,7.3-6.9,12.8-12.4,16.6s-12.1,5.6-20,5.6-14.6-1.8-20-5.6-9.6-9.3-12.4-16.6-4.1-16.1-4.1-26.7,1.3-19.5,4.1-26.8a34.3,34.3,0,0,1,64.8,0c2.8,7.3,4.1,16.2,4.1,26.8S1024.9,364.5,1022.1,371.7Z"/><polygon class="cls-1" points="1199.5 356.6 1197.5 356.6 1156.5 256.8 1096.9 256.8 1096.9 433.2 1143.7 433.2 1143.7 330.6 1145.1 330.6 1184.4 431.9 1212.6 431.9 1251.9 331.2 1253.3 331.2 1253.3 433.2 1300.2 433.2 1300.2 256.8 1240.5 256.8 1199.5 356.6"/><path class="cls-1" d="M1482,295.3a75.9,75.9,0,0,0-30.9-30.6c-13-6.9-27.4-10.3-43.4-10.3s-30.6,3.4-43.6,10.3a76.2,76.2,0,0,0-30.8,30.6c-7.6,13.4-11.4,30.1-11.4,49.7s3.8,36,11.4,49.5a77.7,77.7,0,0,0,30.8,30.7,91.9,91.9,0,0,0,43.6,10.4c16,0,30.4-3.4,43.4-10.4a75.9,75.9,0,0,0,30.9-30.6c7.7-13.5,11.6-29.9,11.6-49.6S1489.7,308.7,1482,295.3Zm-41.9,76.4c-2.8,7.3-6.9,12.8-12.4,16.6s-12,5.6-20,5.6-14.6-1.8-20-5.6a33.5,33.5,0,0,1-12.3-16.6q-4.2-10.8-4.2-26.7c0-10.6,1.4-19.5,4.2-26.8a33.2,33.2,0,0,1,12.3-16.5,34.5,34.5,0,0,1,20-5.7c8,0,14.7,1.9,20,5.7a34,34,0,0,1,12.4,16.5c2.8,7.3,4.1,16.2,4.1,26.8S1442.9,364.5,1440.1,371.7Z"/><path class="cls-1" d="M688.3,194c4.3-6.1,6.6-13.6,6.6-22.5a39.8,39.8,0,0,0-2.4-14.1,34.9,34.9,0,0,0-7.5-11.8,49.1,49.1,0,0,0-13-9.1,84.5,84.5,0,0,0-19.2-6.2l-11-2.4a54.9,54.9,0,0,1-8.2-2.2,21.6,21.6,0,0,1-5.7-2.8,10,10,0,0,1-3.3-3.5,9.5,9.5,0,0,1,1-9.6,10.1,10.1,0,0,1,5.2-3.6,28.5,28.5,0,0,1,9.2-1.4c5.9,0,10.3,1.2,13.2,3.7a14.5,14.5,0,0,1,5,10.3h34.9a40.5,40.5,0,0,0-24.9-38.5c-8-3.6-17.3-5.4-28.2-5.4a70.5,70.5,0,0,0-28.3,5.3,47.3,47.3,0,0,0-19.3,15,37.8,37.8,0,0,0-6.8,22.5c-.1,10.5,3.4,18.8,10.2,24.9S612.1,153,624,155.5l13.4,2.9a60.6,60.6,0,0,1,11.9,3.6,16.8,16.8,0,0,1,6.3,4.1,8.2,8.2,0,0,1,2,5.4,9.7,9.7,0,0,1-2.1,5.9,14.1,14.1,0,0,1-5.9,4,30,30,0,0,1-9.9,1.4,29.1,29.1,0,0,1-12-2.2,17.5,17.5,0,0,1-7.7-6.3,20.1,20.1,0,0,1-3.1-10.4H582.2c0,11.3,2.5,20.5,7.3,27.8a42.8,42.8,0,0,0,20.2,15.9c8.7,3.5,18.9,5.2,30.5,5.2s21.3-1.6,29.4-4.7S683.9,200.2,688.3,194Z"/><polygon class="cls-3" points="780 211.2 780 106.2 820.5 106.2 820.5 76.7 703.5 76.7 703.5 106.2 744.1 106.2 744.1 211.2 780 211.2"/><path class="cls-1" d="M832.2,76.7v86.2c0,10.2,2.5,19.1,7.3,26.6a46.5,46.5,0,0,0,20.3,17.2,79.4,79.4,0,0,0,60.9,0A47.1,47.1,0,0,0,941,189.5c4.9-7.5,7.3-16.4,7.3-26.6V76.7H911.8v83.1a21.2,21.2,0,0,1-2.8,11,19.2,19.2,0,0,1-7.5,7.7,24.4,24.4,0,0,1-22.3,0,20.3,20.3,0,0,1-7.7-7.7,21.1,21.1,0,0,1-2.7-11V76.7Z"/><path class="cls-1" d="M1055.3,84.7c-10.1-5.3-22.1-8-35.9-8H968.2V211.2h51.7c13.7,0,25.6-2.7,35.5-8a54.9,54.9,0,0,0,23.3-23.2c5.5-10,8.3-22,8.3-36s-2.8-26.1-8.3-36.1A56.3,56.3,0,0,0,1055.3,84.7Zm-8.8,81.1a21.9,21.9,0,0,1-10.8,11.2,41.6,41.6,0,0,1-17,3.3h-14V107.7h12.9a44.8,44.8,0,0,1,17.7,3.2,21.5,21.5,0,0,1,11,11.2c2.6,5.2,3.9,12.4,3.9,21.9S1048.9,160.6,1046.5,165.8Z"/><rect class="cls-1" x="1103.5" y="76.7" width="36.5" height="134.53"/><path class="cls-1" d="M1255.1,82.8a73.3,73.3,0,0,0-66.4,0,59.6,59.6,0,0,0-23.5,23.2c-5.7,10.4-8.6,23-8.6,38s2.9,27.4,8.6,37.7a59.4,59.4,0,0,0,23.5,23.4A69,69,0,0,0,1222,213a68.2,68.2,0,0,0,33.1-7.9,58.3,58.3,0,0,0,23.5-23.2c5.8-10.3,8.8-22.9,8.8-37.9s-3-27.6-8.8-38A58.3,58.3,0,0,0,1255.1,82.8Zm-8.5,81.6a26.1,26.1,0,0,1-49.2,0,65,65,0,0,1,0-40.9,26.1,26.1,0,0,1,49.2,0A65,65,0,0,1,1246.6,164.4Z"/></svg>