<svg id="Layer_1" data-name="Layer 1" xmlns="http://www.w3.org/2000/svg" xmlns:xlink="http://www.w3.org/1999/xlink" viewBox="0 0 751.3 1033.1"><defs><style>.cls-1{fill:url(#radial-gradient);}</style><radialGradient id="radial-gradient" cx="394.41" cy="568.71" r="552.47" gradientUnits="userSpaceOnUse"><stop offset="0.47" stop-color="#2e3192"/><stop offset="1" stop-color="#1b1464"/></radialGradient></defs><path class="cls-1" d="M375.3,637c175.9,0,318.5-142.6,318.5-318.5S551.2,0,375.3,0,56.8,142.6,56.8,318.5,199.4,637,375.3,637Zm-71-272.7c1.5-26.3,29.6-24.7,35-45.4s-10.4-23.1-4-44.6,18.3-20.7,15.9-41.4-36.6-23.9-28.8-62.3,51.1-29.3,70.2-50,8.8-29.4,23.9-49.3,43-39.1,95.6-16.8c25.3,10.8,60.4,36.8,87.7,67.7,29.4,33.4,48.6,72.5,56.4,96.8s-34.2,15.5-61.7,47.7-16.4,123-73.3,193.5-177.9,100-186.7,86.4,86.8-42.2,116.3-66.9,27.8-62.1,18.2-80.4-27-37.4-54.1-45.4-31-.8-26.6,3.6,26.6,7.6,21.7,21.7-28.5,15.3-50,16.1S302.7,390.6,304.3,364.3ZM110.8,424.8c-16.6-3.3-38.1-72.5-32.5-131.4s27-105.1,44.6-132.2,67-65.3,81.2-50.9-25.7,31.4-12.5,65.3,42.6,19.1,45.8,62.9,33.4,36.6,41.4,61.3-13.8,31.8-14.5,54.9,20.1,23.9,33.6,34.3-37.2,12.7-49.7,11.9-33.3-.9-43.3-14.9,19.3-17.8,20.6-22.9-13.6-9.1-39.1,7.4S146.6,432,110.8,424.8Z"/><path class="cls-1" d="M102.8,960a36.3,36.3,0,0,0-17-4.7v-1.5a37.7,37.7,0,0,0,14.8-6.1A30.5,30.5,0,0,0,113.9,922c0-7.4-1.9-13.8-5.8-19.2s-9.5-9.7-17.1-12.7-16.9-4.4-27.9-4.4H0v145.4H68.5c10.5,0,19.6-1.8,27.2-5.3a42.2,42.2,0,0,0,17.7-14.6,37.8,37.8,0,0,0,6.2-21.3,34.7,34.7,0,0,0-4.5-17.9A32.9,32.9,0,0,0,102.8,960ZM39.5,916.6H56.2a20.2,20.2,0,0,1,12.3,3.6c3.2,2.4,4.8,5.8,4.8,10.3a13.1,13.1,0,0,1-2.2,7.6,13.8,13.8,0,0,1-6.3,4.7,23.4,23.4,0,0,1-9.1,1.7H39.5Zm33.4,79.3c-3.3,2.4-8.3,3.7-14.9,3.7H39.5V968.9h19a27.3,27.3,0,0,1,10.4,1.8,16.1,16.1,0,0,1,6.6,5.4,15.3,15.3,0,0,1,2.3,8.7C77.8,989.7,76.2,993.4,72.9,995.9Z"/><path class="cls-1" d="M245.5,961.4c4.6-7.1,6.9-15.9,6.9-26.3s-2.2-19.2-6.7-26.6a43.7,43.7,0,0,0-18.9-16.9c-8.1-4-17.5-5.9-28.3-5.9H135.7v145.4h39.5v-48h13.6l25.6,48h42.9l-29.6-54.2A42.7,42.7,0,0,0,245.5,961.4Zm-36.9-16.3a15.1,15.1,0,0,1-7.6,5.6,37.9,37.9,0,0,1-11.9,1.7H175.2V917.2h13.9a32.7,32.7,0,0,1,11.9,1.9,15.4,15.4,0,0,1,7.6,5.8c1.8,2.6,2.6,6,2.6,10.2S210.4,942.5,208.6,945.1Z"/><path class="cls-1" d="M371.7,892.2c-10.7-5.7-22.6-8.5-35.8-8.5s-25.2,2.8-35.9,8.5a62.2,62.2,0,0,0-25.4,25.2c-6.3,11.1-9.4,24.8-9.4,41s3.1,29.7,9.4,40.8a63.1,63.1,0,0,0,25.4,25.3,75,75,0,0,0,35.9,8.6c13.2,0,25.1-2.8,35.8-8.6a63.1,63.1,0,0,0,25.5-25.2c6.3-11.1,9.4-24.7,9.4-40.9s-3.1-29.9-9.4-41A63.1,63.1,0,0,0,371.7,892.2Zm-9.1,88.2c-2.3,6-5.7,10.6-10.2,13.7s-10,4.6-16.5,4.6-12-1.5-16.5-4.6-7.9-7.7-10.2-13.7-3.4-13.3-3.4-22,1.1-16.1,3.4-22.1a28.3,28.3,0,0,1,53.4,0c2.3,6,3.4,13.4,3.4,22.1S364.9,974.5,362.6,980.4Z"/><polygon class="cls-1" points="508.9 968 507.2 968 473.4 885.7 424.3 885.7 424.3 1031.1 462.9 1031.1 462.9 946.5 464 946.5 496.4 1030 519.7 1030 552.1 947 553.2 947 553.2 1031.1 591.9 1031.1 591.9 885.7 542.7 885.7 508.9 968"/><path class="cls-1" d="M741.8,917.4a63.1,63.1,0,0,0-25.5-25.2c-10.7-5.7-22.6-8.5-35.8-8.5s-25.2,2.8-35.9,8.5a62.8,62.8,0,0,0-25.4,25.2c-6.3,11.1-9.4,24.8-9.4,41s3.1,29.7,9.4,40.8a63.7,63.7,0,0,0,25.4,25.3,75.3,75.3,0,0,0,35.9,8.6c13.2,0,25.1-2.8,35.8-8.6a63.1,63.1,0,0,0,25.5-25.2c6.3-11.1,9.5-24.7,9.5-40.9S748.1,928.5,741.8,917.4Zm-34.6,63c-2.3,6-5.7,10.6-10.2,13.7s-9.9,4.6-16.5,4.6-12-1.5-16.5-4.6a27.7,27.7,0,0,1-10.1-13.7c-2.3-5.9-3.5-13.3-3.5-22s1.2-16.1,3.5-22.1A27.4,27.4,0,0,1,664,922.7a28.4,28.4,0,0,1,16.5-4.7c6.6,0,12.1,1.6,16.5,4.7a28.1,28.1,0,0,1,10.2,13.6c2.3,6,3.4,13.4,3.4,22.1S709.5,974.5,707.2,980.4Z"/><path class="cls-1" d="M170.9,833.9c3.6-5,5.5-11.2,5.5-18.5a34.2,34.2,0,0,0-2-11.7,28.7,28.7,0,0,0-6.2-9.7,40.5,40.5,0,0,0-10.7-7.5,69.9,69.9,0,0,0-15.8-5.1l-9.1-2a44.2,44.2,0,0,1-6.8-1.8,18.7,18.7,0,0,1-4.7-2.3,8.2,8.2,0,0,1-2.7-2.9,7.9,7.9,0,0,1,.8-7.9,8.3,8.3,0,0,1,4.3-3,23.1,23.1,0,0,1,7.6-1.1c4.9,0,8.5,1,10.9,3a11.9,11.9,0,0,1,4.1,8.5h28.8a33.4,33.4,0,0,0-20.5-31.7c-6.6-3-14.3-4.5-23.3-4.5a59,59,0,0,0-23.3,4.4,38.3,38.3,0,0,0-15.9,12.4A30.3,30.3,0,0,0,86.3,771c-.1,8.7,2.8,15.5,8.4,20.5s13.4,8.6,23.2,10.7l11.1,2.4a53.4,53.4,0,0,1,9.8,2.9,14.6,14.6,0,0,1,5.2,3.4,6.7,6.7,0,0,1,1.6,4.5,7.6,7.6,0,0,1-1.7,4.8,11.2,11.2,0,0,1-4.9,3.3,23.9,23.9,0,0,1-8.1,1.2,25,25,0,0,1-9.9-1.8,14.4,14.4,0,0,1-6.4-5.2,16.5,16.5,0,0,1-2.5-8.6H83.5c0,9.3,2,16.9,6,22.9a34.6,34.6,0,0,0,16.6,13.1c7.2,2.9,15.6,4.3,25.2,4.3s17.5-1.3,24.2-3.9S167.3,839,170.9,833.9Z"/><polygon class="cls-1" points="246.5 848.1 246.5 761.5 279.9 761.5 279.9 737.2 183.5 737.2 183.5 761.5 216.9 761.5 216.9 848.1 246.5 848.1"/><path class="cls-1" d="M289.6,737.2v71.1q0,12.6,6,21.9a38.3,38.3,0,0,0,16.7,14.2,65.5,65.5,0,0,0,50.2,0,39.1,39.1,0,0,0,16.8-14.2q6-9.3,6-21.9V737.2H355.2v68.5a17.4,17.4,0,0,1-2.3,9.1,16.3,16.3,0,0,1-6.2,6.3,17.8,17.8,0,0,1-9.3,2.3,17.4,17.4,0,0,1-9.1-2.3,15.9,15.9,0,0,1-6.3-6.3,17.4,17.4,0,0,1-2.3-9.1V737.2Z"/><path class="cls-1" d="M473.5,743.8c-8.3-4.4-18.2-6.6-29.6-6.6H401.7V848.1h42.6c11.3,0,21.1-2.2,29.3-6.6a45.9,45.9,0,0,0,19.2-19.1c4.5-8.3,6.8-18.2,6.8-29.7s-2.3-21.5-6.8-29.8A46.7,46.7,0,0,0,473.5,743.8Zm-7.3,66.9a17.8,17.8,0,0,1-8.9,9.2,33,33,0,0,1-14,2.7H431.8V762.8h10.6a36.7,36.7,0,0,1,14.6,2.6,17.8,17.8,0,0,1,9.1,9.2c2.1,4.3,3.2,10.3,3.2,18.1S468.2,806.4,466.2,810.7Z"/><rect class="cls-1" x="513.2" y="737.2" width="30.1" height="110.91"/><path class="cls-1" d="M638.2,742.2a60.8,60.8,0,0,0-54.7,0,49,49,0,0,0-19.4,19.2c-4.7,8.5-7.1,18.9-7.1,31.3s2.4,22.6,7.1,31.1a49.3,49.3,0,0,0,19.4,19.3,58,58,0,0,0,27.4,6.5,56.7,56.7,0,0,0,27.3-6.5,47.8,47.8,0,0,0,19.4-19.2q7.2-12.7,7.2-31.2c0-12.4-2.4-22.8-7.2-31.3A48.4,48.4,0,0,0,638.2,742.2Zm-7,67.3a21.5,21.5,0,0,1-40.6,0,53.9,53.9,0,0,1,0-33.7,21.5,21.5,0,0,1,40.6,0,53.9,53.9,0,0,1,0,33.7Z"/></svg>