<svg width="159" height="176" viewBox="0 0 159 176" fill="none" xmlns="http://www.w3.org/2000/svg">
<g clip-path="url(#clip0_2106_2415)">
<path d="M35.6614 29.3921L34.4492 36.3473L40.4927 38.2094L39.7418 30.7839L35.6614 29.3921Z" fill="#A0616A"/>
<path d="M0 173.366C0 173.585 0.160624 173.76 0.360645 173.76H158.639C158.839 173.76 159 173.585 159 173.366C159 173.148 158.839 172.972 158.639 172.972H0.360645C0.160624 172.972 0 173.148 0 173.366Z" fill="#2E3192"/>
<path d="M107.896 78.9282H45.5682C38.5002 78.9282 32.7705 85.1903 32.7705 92.9149V158.968C32.7705 166.692 38.5002 172.954 45.5682 172.954H107.896C114.964 172.954 120.693 166.692 120.693 158.968V92.9149C120.693 85.1903 114.964 78.9282 107.896 78.9282V78.9282Z" fill="white"/>
<path d="M107.896 173.285H45.5685C38.3448 173.285 32.4678 166.862 32.4678 158.968V92.915C32.4678 85.0202 38.3448 78.5972 45.5685 78.5972H107.896C115.12 78.5972 120.997 85.0202 120.997 92.915V158.968C120.997 166.862 115.12 173.285 107.896 173.285H107.896ZM45.5685 79.2596C38.6789 79.2596 33.0739 85.3854 33.0739 92.915V158.968C33.0739 166.497 38.6789 172.623 45.5685 172.623H107.896C114.786 172.623 120.391 166.497 120.391 158.968V92.915C120.391 85.3854 114.786 79.2596 107.896 79.2596H45.5685V79.2596Z" fill="#2E3192"/>
<path d="M112.411 107.564H87.3587C86.2962 107.564 85.4316 106.62 85.4316 105.458C85.4316 104.297 86.2962 103.352 87.3587 103.352H112.411C113.474 103.352 114.338 104.297 114.338 105.458C114.338 106.62 113.474 107.564 112.411 107.564H112.411Z" fill="#FF006B"/>
<path d="M88.9079 124.127H64.5559C63.9419 124.127 63.4424 123.581 63.4424 122.91C63.4424 122.239 63.9419 121.693 64.5559 121.693H88.9079C89.5218 121.693 90.0211 122.239 90.0211 122.91C90.0211 123.581 89.5218 124.127 88.9079 124.127V124.127Z" fill="#FF006B"/>
<path d="M54.4893 83.4517H40.5862C40.5343 83.4517 40.4922 83.4977 40.4922 83.5544V85.3233C40.4922 85.3801 40.5343 85.4261 40.5862 85.4261H54.4893C54.5412 85.4261 54.5833 85.3801 54.5833 85.3233V83.5544C54.5833 83.4977 54.5412 83.4517 54.4893 83.4517Z" fill="#FF006B"/>
<path d="M101.319 85.4261C102.117 85.4261 102.765 84.719 102.765 83.8466C102.765 82.9743 102.117 82.2671 101.319 82.2671C100.521 82.2671 99.874 82.9743 99.874 83.8466C99.874 84.719 100.521 85.4261 101.319 85.4261Z" fill="#2E3192"/>
<path d="M105.294 85.4261C106.092 85.4261 106.739 84.719 106.739 83.8466C106.739 82.9743 106.092 82.2671 105.294 82.2671C104.496 82.2671 103.849 82.9743 103.849 83.8466C103.849 84.719 104.496 85.4261 105.294 85.4261Z" fill="#2E3192"/>
<path d="M109.268 85.4261C110.067 85.4261 110.714 84.719 110.714 83.8466C110.714 82.9743 110.067 82.2671 109.268 82.2671C108.47 82.2671 107.823 82.9743 107.823 83.8466C107.823 84.719 108.47 85.4261 109.268 85.4261Z" fill="#2E3192"/>
<path d="M45.417 130.641C45.417 130.859 45.5776 131.035 45.7776 131.035H107.687C107.887 131.035 108.048 130.859 108.048 130.641C108.048 130.422 107.887 130.247 107.687 130.247H45.7776C45.5776 130.247 45.417 130.422 45.417 130.641Z" fill="#2E3192"/>
<path d="M64.2976 33.4241C65.6156 32.2339 67.2459 32.0124 67.9388 32.9292C68.6318 33.846 68.1249 35.5538 66.8063 36.7443C66.2856 37.2277 65.6664 37.5678 65.0008 37.7361L59.3581 42.7021L57.2822 39.7585L63.0653 35.1754C63.3422 34.4925 63.7648 33.8919 64.2976 33.4241H64.2976Z" fill="#A0616A"/>
<path d="M31.6838 44.6287C31.681 44.4091 31.6829 42.4934 32.9805 41.2826C34.4712 39.8917 36.5746 40.4547 37.3124 40.6521C39.0166 41.1083 39.1564 41.9072 40.7568 42.7282C43.7511 44.2641 39.9994 43.478 41.781 42.9855C42.3978 42.815 51.2701 42.1425 53.4786 40.6569C57.7739 37.7677 60.7005 36.0156 60.7005 36.0156L62.6137 40.1975C62.6137 40.1975 59.8472 44.4017 55.9536 47.5162C51.9597 50.7109 49.9627 52.3083 46.9278 52.9255C46.6665 52.9787 40.2389 54.1781 35.0619 49.951C33.8811 48.9868 31.7176 47.2203 31.6838 44.6287V44.6287V44.6287Z" fill="#184293"/>
<path d="M37.6189 33.9928C41.2998 33.9928 44.2837 30.7317 44.2837 26.7088C44.2837 22.686 41.2998 19.4248 37.6189 19.4248C33.938 19.4248 30.9541 22.686 30.9541 26.7088C30.9541 30.7317 33.938 33.9928 37.6189 33.9928Z" fill="#A0616A"/>
<path d="M89.8152 75.646L82.9514 67.9673L79.4082 72.0066L84.522 79.3691L89.5944 80.0032L89.8152 75.646Z" fill="#A0616A"/>
<path d="M50.6219 61.2465C51.0234 61.2829 52.2992 61.5623 53.5186 60.829C54.3508 60.3286 54.7776 59.5846 54.9218 59.3479C56.7102 56.4124 63.5745 51.8348 69.735 51.5531C71.1301 51.4893 72.0484 51.666 72.8831 52.1415C74.0666 52.8157 74.5391 53.7815 76.0409 56.044C76.8624 57.2816 77.7714 58.4475 78.6028 59.6772C83.4704 66.8762 85.3157 67.4414 85.1271 69.7494C84.9178 72.3101 82.3909 74.7396 80.7113 74.4591C80.0235 74.3443 79.7571 73.8216 78.8382 72.7634C76.1438 69.6608 75.029 70.234 73.1107 67.8576C70.871 65.0831 71.1642 62.7826 69.9956 62.6937C68.912 62.6113 68.4515 64.5739 66.1381 67.1809C65.0796 68.3739 64.3258 68.9211 62.0293 70.6623C53.0861 77.443 52.9434 77.9195 51.1386 78.4603C50.3489 78.6969 44.7444 80.3762 42.7479 77.7038C39.6236 73.5218 47.0045 60.918 50.6219 61.2465L50.6219 61.2465Z" fill="#12264D"/>
<path d="M87.716 77.3809C88.2208 77.1332 88.8111 76.8435 89.001 76.1774C89.1295 75.7267 89.0555 75.1709 88.7899 74.7869C88.4834 74.3438 88.0298 74.2854 88.0482 74.207C88.0761 74.0876 89.1488 74.1343 90.3262 74.5892C90.5484 74.675 91.5551 75.077 92.8355 76.1695C93.8614 77.0449 93.7234 77.2203 94.3667 77.7251C96.3415 79.2744 98.1936 78.0533 99.2622 79.5063C99.6746 80.067 99.8505 80.8631 99.6769 81.5069C99.3284 82.7996 97.6335 83.2445 96.7072 83.4742C94.4763 84.0274 92.7878 83.5758 91.0246 83.2511C85.0283 82.1468 81.6592 83.1526 81.2083 81.6343C81.123 81.347 81.2616 81.3715 81.724 79.2628C82.1803 77.1816 82.1653 76.61 82.5539 76.4434C83.1389 76.1925 83.5317 77.3337 85.0054 77.7242C86.3114 78.0703 87.3889 77.5415 87.716 77.3809L87.716 77.3809Z" fill="#12264D"/>
<path d="M77.6125 100.766L75.8783 90.1997L70.8711 91.3676L71.3197 100.598L75.1911 104.236L77.6125 100.766Z" fill="#A0616A"/>
<path d="M52.5809 64.7982C52.8944 65.0748 53.8065 66.0889 55.1923 66.2305C56.138 66.3272 56.8735 65.9735 57.1143 65.8662C60.1024 64.5347 68.1343 64.9596 73.3765 68.5073C74.5637 69.3107 75.2328 70.0204 75.6791 70.9261C76.312 72.2103 76.2067 73.2995 76.2869 76.0933C76.3308 77.6215 76.4839 79.1441 76.5401 80.6718C76.8688 89.6159 78.1053 91.2161 76.7634 93.01C75.2746 95.0005 71.9353 95.46 70.6897 94.1972C70.1796 93.68 70.2278 93.084 70.0111 91.6445C69.3757 87.4237 68.1587 87.2138 67.7924 84.0701C67.3647 80.3999 68.7893 78.6762 67.8681 77.8856C67.0138 77.1524 65.6244 78.4937 62.3707 79.2312C60.8818 79.5686 59.9769 79.5588 57.182 79.5902C46.2981 79.7124 45.9351 80.0191 44.1639 79.3589C43.3889 79.0701 37.8886 77.0201 37.6097 73.5836C37.1732 68.2058 49.7564 62.3064 52.5809 64.7982L52.5809 64.7982V64.7982Z" fill="#12264D"/>
<path d="M74.985 100.914C75.53 101.019 76.1672 101.141 76.6666 100.707C77.0046 100.413 77.2289 99.9075 77.2064 99.4267C77.1805 98.872 76.8352 98.5453 76.8906 98.4917C76.9751 98.41 77.8387 99.1069 78.5793 100.206C78.719 100.413 79.3454 101.364 79.8436 103.054C80.2427 104.408 80.0383 104.468 80.3113 105.28C81.1493 107.774 83.3093 107.901 83.4469 109.759C83.5 110.476 83.2365 111.242 82.7622 111.669C81.8095 112.524 80.1785 111.852 79.294 111.474C77.1639 110.563 75.9987 109.153 74.7066 107.802C70.3123 103.208 67.0078 101.973 67.4148 100.44C67.4918 100.15 67.5939 100.255 69.0599 98.7939C70.5068 97.3518 70.7881 96.8697 71.1953 96.9703C71.8083 97.1218 71.547 98.3071 72.5657 99.5346C73.4685 100.622 74.6319 100.846 74.985 100.914H74.985Z" fill="#12264D"/>
<path d="M38.5279 28.1016C38.7873 27.0872 38.4614 26.7175 38.7936 26.2622C38.7936 26.2622 38.9273 26.079 40.1223 25.5845C39.7697 23.3488 40.0337 22.9707 40.0337 22.9707C40.338 22.535 40.9474 22.4297 41.3624 22.4867C42.2399 22.6072 42.3953 23.4742 42.9568 23.4548C43.7325 23.4279 44.6628 21.7309 44.374 20.2601C44.1385 19.0603 43.1228 18.1693 42.8682 18.3239C42.6158 18.4772 41.707 17.8013 41.3624 17.9367C41.127 18.0292 40.0192 17.9062 39.768 18.0335C39.4936 18.1726 38.708 19.0387 38.6329 18.9295C38.1109 18.1713 38.1221 17.9065 37.8192 17.7431C37.2826 17.4535 36.6993 17.9888 35.6934 18.5176C33.6237 19.6056 33.0176 18.9566 32.0616 19.8729C31.5787 20.3358 31.3197 21.2204 30.8215 22.9707C30.1248 25.4186 29.7764 26.6425 30.1129 27.8111C30.4561 29.0029 30.9614 28.7435 31.7073 30.425C32.5376 32.2967 32.2514 33.3846 33.036 33.8132C33.6424 34.1445 34.6168 33.9337 34.9847 33.3292C35.6146 32.2943 33.9865 30.8943 34.5418 29.2633C34.8827 28.2621 35.9343 27.5029 36.5791 27.7143C37.3083 27.9533 37.362 29.3822 37.8192 29.3601C38.2108 29.3411 38.4827 28.2783 38.5279 28.1016L38.5279 28.1016L38.5279 28.1016Z" fill="#12264D"/>
<path d="M33.478 35.0719C34.8418 33.4006 40.3971 35.1304 40.9186 37.7825C41.133 38.8733 40.3413 39.3339 40.5642 40.5899C40.8904 42.427 42.7368 42.3018 44.1074 44.1718C46.0532 46.8267 44.0486 49.422 46.2333 53.8526C46.7001 54.7994 47.0936 55.5974 47.9163 56.3696C49.8041 58.1418 51.5611 57.534 52.5223 59.1771C53.2412 60.4058 52.9459 61.9202 52.8767 62.2749C52.593 63.7296 51.8241 64.084 51.2822 65.276C50.3808 67.2591 51.4015 68.715 51.4594 71.0845C51.5319 74.049 50.0904 78.1584 47.2076 79.5068C43.9689 81.0215 40.0628 78.5127 38.1726 76.0217C37.0447 74.5352 36.7173 73.1641 36.2239 71.4717C34.0186 63.9079 32.7728 64.592 31.0863 58.5962C29.1584 51.7419 28.7794 43.7118 31.0863 41.1708C31.3921 40.834 32.2336 40.0555 32.7693 38.6538C33.4902 36.7675 32.8674 35.82 33.478 35.0719H33.478V35.0719Z" fill="#184293"/>
<path d="M53.6312 73.9768C54.6886 75.4452 54.8525 77.2317 53.9974 77.967C53.1422 78.7023 51.5921 78.1079 50.5345 76.6389C50.1047 76.0585 49.8083 75.3739 49.6701 74.6426L45.2617 68.3594L47.5396 66.4604L52.0585 72.5888C52.6766 72.9076 53.2159 73.3835 53.6312 73.9768H53.6312H53.6312Z" fill="#A0616A"/>
<path d="M37.4857 41.441C37.6819 41.3932 39.3982 41.0043 40.7476 42.1456C42.2976 43.4567 42.2225 45.8221 42.1962 46.6517C42.1354 48.5681 41.4482 48.8807 41.0394 50.7605C40.2746 54.2775 41.7311 57.546 42.5358 59.3517C42.8144 59.9768 43.7092 61.8894 45.4906 63.9491C48.955 67.9551 52.0462 70.0631 52.0462 70.0631L48.7254 73.2891C48.7254 73.2891 43.4357 71.5271 39.8515 67.9968C36.1749 64.3755 30.5208 51.5628 29.3488 48.4417C29.2478 48.1729 30.6776 52.5427 33.4076 46.1413C34.0303 44.6812 35.1713 42.0059 37.4857 41.441H37.4857Z" fill="#184293"/>
<path d="M83.0189 139.663C80.9081 140.017 79.3641 141.494 79.5702 142.962C79.7763 144.43 81.6543 145.333 83.7658 144.979C84.611 144.85 85.4157 144.502 86.1126 143.963L95.0386 142.342L94.4429 138.486L85.537 139.863C84.7243 139.578 83.8608 139.509 83.0189 139.663H83.0189Z" fill="#FFB6B6"/>
<path d="M121.482 127.644L118.021 135.67L100.622 142.072L86.1838 142.913L85.8223 139.123L101.47 135.548L117.526 127.255L121.482 127.644Z" fill="#184293"/>
<path d="M89.3923 158.121L86.285 166.711L82.2637 163.715L84.6399 154.725L89.3923 158.121Z" fill="#FFB6B6"/>
<path d="M76.4138 154.925L68.1885 163.515L71.4786 167.31L79.8867 160.119L76.4138 154.925Z" fill="#FFB6B6"/>
<path d="M123.024 126.957L122.933 126.258L120.831 121.763L113.885 123.761L115.164 129.954L123.024 126.957Z" fill="#FFB6B6"/>
<path d="M120.1 156.922L120.313 159.923C120.313 159.923 121.196 172.504 114.068 173.503C106.939 174.502 103.832 175.501 99.6276 167.71L93.0473 154.925L89.2038 159.923L84.0908 155.524C84.0908 155.524 87.7465 139.942 90.6711 139.343C91.0367 139.268 91.4022 139.231 91.7621 139.222C94.1833 139.167 96.4656 140.462 97.9142 142.582L106.208 154.725L109.224 153.227L120.1 156.922V156.922Z" fill="#12264D"/>
<path d="M80.6178 166.312L82.2629 162.916L87.0153 166.511C87.0153 166.511 88.112 170.906 86.4669 171.506C84.8219 172.105 80.2522 171.306 80.2522 171.306C80.2522 171.306 71.8441 173.303 71.6613 171.506C71.4785 169.708 75.4998 169.308 75.4998 169.308L80.6178 166.312L80.6178 166.312H80.6178Z" fill="#12264D"/>
<path d="M98.5315 163.915L85.8279 155.166L79.339 161.517L74.9521 155.924C74.9521 155.924 82.9947 142.939 85.3709 142.34C87.7471 141.74 91.5856 141.341 91.5856 141.341L103.284 153.127L98.5315 163.915V163.915Z" fill="#12264D"/>
<path d="M68.0059 162.716L72.21 167.71L71.6556 168.228C71.6556 168.228 70.5649 173.42 68.0059 171.664C65.4469 169.907 65.2641 169.508 65.2641 169.508C65.2641 169.508 57.9527 171.306 57.2216 168.11C56.4905 164.913 58.5011 165.513 58.5011 165.513L60.3268 166.711L68.0059 162.716L68.0059 162.716Z" fill="#12264D"/>
<path d="M116.079 125.958C119.309 125.958 121.928 123.096 121.928 119.566C121.928 116.035 119.309 113.173 116.079 113.173C112.848 113.173 110.229 116.035 110.229 119.566C110.229 123.096 112.848 125.958 116.079 125.958Z" fill="#FFB6B6"/>
<path d="M114.708 128.655L123.116 125.858C123.116 125.858 126.406 134.249 125.858 138.044C125.309 141.84 120.313 159.923 120.313 159.923L109.224 153.226C109.224 153.226 109.041 149.231 108.493 147.433C107.945 145.635 106.208 140.142 110.047 135.547C113.885 130.952 114.708 128.655 114.708 128.655L114.708 128.655Z" fill="#184293"/>
<path d="M96.2022 170.603C94.8338 172.395 94.5705 174.618 95.6139 175.57C96.6574 176.522 98.6122 175.84 99.9808 174.048C100.537 173.34 100.929 172.497 101.126 171.59L106.836 163.918L104.054 161.458L98.2112 168.932C97.429 169.305 96.7401 169.878 96.2022 170.603L96.2022 170.603Z" fill="#FFB6B6"/>
<path d="M121.157 132.686L123.145 141.289L113.418 158.306L103.488 169.213L100.27 166.294L110.284 152.677L117.875 135.13L121.157 132.686Z" fill="#184293"/>
<path d="M110.687 118.467C112.187 118.463 112.272 118.474 112.514 118.467C114.375 118.414 114.861 117.614 115.805 117.668C117.488 117.766 115.266 126.988 114.342 131.252C113.436 135.434 116.498 139.181 116.718 139.443C119.827 143.137 125.286 143.813 126.223 142.24C126.982 140.966 124.294 139.03 124.944 136.247C125.579 133.526 128.511 133.815 129.331 131.252C130.189 128.568 127.304 127.214 125.492 120.665C124.451 116.903 124.635 116.202 123.664 113.873C121.068 107.645 108.344 110.297 109.773 116.07C110.049 117.187 109.314 118.471 110.687 118.467V118.467Z" fill="#12264D"/>
<path d="M129.363 42.5797H67.8901C66.1516 42.5797 64.7373 41.0339 64.7373 39.134V3.44567C64.7373 1.54583 66.1516 0 67.8901 0H129.363C131.102 0 132.516 1.54583 132.516 3.44567V39.134C132.516 41.0339 131.102 42.5797 129.363 42.5797Z" fill="white"/>
<path d="M129.363 42.5797H67.8901C66.1516 42.5797 64.7373 41.0339 64.7373 39.134V3.44567C64.7373 1.54583 66.1516 0 67.8901 0H129.363C131.102 0 132.516 1.54583 132.516 3.44567V39.134C132.516 41.0339 131.102 42.5797 129.363 42.5797ZM67.8901 0.575401C66.442 0.575401 65.2638 1.86303 65.2638 3.44567V39.134C65.2638 40.7167 66.442 42.0043 67.8901 42.0043H129.363C130.812 42.0043 131.99 40.7167 131.99 39.134V3.44567C131.99 1.86303 130.812 0.575401 129.363 0.575401H67.8901Z" fill="#2E3192"/>
<path d="M124.619 4.31556C125.055 4.31556 125.409 3.92913 125.409 3.45246C125.409 2.97578 125.055 2.58936 124.619 2.58936C124.183 2.58936 123.829 2.97578 123.829 3.45246C123.829 3.92913 124.183 4.31556 124.619 4.31556Z" fill="#2E3192"/>
<path d="M126.725 4.31556C127.161 4.31556 127.515 3.92913 127.515 3.45246C127.515 2.97578 127.161 2.58936 126.725 2.58936C126.289 2.58936 125.936 2.97578 125.936 3.45246C125.936 3.92913 126.289 4.31556 126.725 4.31556Z" fill="#2E3192"/>
<path d="M128.831 4.31556C129.267 4.31556 129.62 3.92913 129.62 3.45246C129.62 2.97578 129.267 2.58936 128.831 2.58936C128.395 2.58936 128.041 2.97578 128.041 3.45246C128.041 3.92913 128.395 4.31556 128.831 4.31556Z" fill="#2E3192"/>
<path d="M69.2122 17.4058C68.9945 17.4058 68.8174 17.5993 68.8174 17.8373C68.8174 17.9533 68.8584 18.0607 68.9328 18.1399C69.0079 18.2239 69.1062 18.2689 69.2122 18.2689H128.304C128.522 18.2689 128.699 18.0753 128.699 17.8373C128.699 17.7213 128.658 17.614 128.584 17.5347C128.508 17.4507 128.41 17.4058 128.304 17.4058H69.2122Z" fill="#184293"/>
<path d="M120.933 17.2622V18.413H69.212C69.0673 18.413 68.9356 18.3497 68.8409 18.2433C68.7434 18.1397 68.6855 17.9958 68.6855 17.8376C68.6855 17.5211 68.9225 17.2622 69.212 17.2622H120.933Z" fill="#FF006B"/>
<path d="M127.646 15.1043H122.381C121.8 15.1043 121.328 14.5882 121.328 13.9535C121.328 13.3189 121.801 12.8027 122.381 12.8027H127.646C128.227 12.8027 128.699 13.3189 128.699 13.9535C128.699 14.5882 128.227 15.1043 127.646 15.1043Z" fill="#184293"/>
<path d="M93.1616 9.06235H69.6077C69.0271 9.06235 68.5547 8.54623 68.5547 7.91155C68.5547 7.27686 69.0271 6.76074 69.6077 6.76074H93.1616C93.7422 6.76074 94.2146 7.27686 94.2146 7.91155C94.2146 8.54623 93.7422 9.06235 93.1616 9.06235Z" fill="#184293"/>
<path d="M69.2122 30.3525C68.9945 30.3525 68.8174 30.5461 68.8174 30.7841C68.8174 30.9001 68.8584 31.0074 68.9328 31.0867C69.0079 31.1707 69.1062 31.2156 69.2122 31.2156H128.304C128.522 31.2156 128.699 31.0221 128.699 30.7841C128.699 30.6681 128.658 30.5607 128.584 30.4815C128.508 30.3975 128.41 30.3525 128.304 30.3525H69.2122Z" fill="#184293"/>
<path d="M100.663 30.2085V31.3593H69.212C69.0673 31.3593 68.9356 31.296 68.8409 31.1895C68.7434 31.086 68.6855 30.9421 68.6855 30.7839C68.6855 30.4674 68.9225 30.2085 69.212 30.2085H100.663Z" fill="#FF006B"/>
<path d="M127.646 28.0506H122.381C121.8 28.0506 121.328 27.5345 121.328 26.8998C121.328 26.2651 121.801 25.749 122.381 25.749H127.646C128.227 25.749 128.699 26.2651 128.699 26.8998C128.699 27.5345 128.227 28.0506 127.646 28.0506Z" fill="#184293"/>
</g>
<defs>
<clipPath id="clip0_2106_2415">
<rect width="159" height="176" fill="white"/>
</clipPath>
</defs>
</svg>
