<svg width="159" height="176" viewBox="0 0 159 176" fill="none" xmlns="http://www.w3.org/2000/svg">
<g clip-path="url(#clip0_2426_2372)">
<path d="M35.6614 29.3921L34.4492 36.3473L40.4927 38.2094L39.7418 30.7839L35.6614 29.3921Z" fill="#A0616A"/>
<path d="M0 173.366C0 173.585 0.160624 173.76 0.360645 173.76H158.639C158.839 173.76 159 173.585 159 173.366C159 173.148 158.839 172.972 158.639 172.972H0.360645C0.160624 172.972 0 173.148 0 173.366Z" fill="#2E3192"/>
<path d="M107.897 78.9282H45.5692C38.5012 78.9282 32.7715 85.1903 32.7715 92.9149V158.968C32.7715 166.692 38.5012 172.954 45.5691 172.954H107.897C114.965 172.954 120.694 166.692 120.694 158.968V92.9149C120.694 85.1903 114.965 78.9282 107.897 78.9282V78.9282Z" fill="white"/>
<path d="M107.897 173.285H45.5695C38.3458 173.285 32.4688 166.862 32.4688 158.968V92.915C32.4688 85.0202 38.3458 78.5972 45.5695 78.5972H107.897C115.121 78.5972 120.998 85.0202 120.998 92.915V158.968C120.998 166.862 115.121 173.285 107.897 173.285H107.897ZM45.5695 79.2596C38.6799 79.2596 33.0748 85.3854 33.0748 92.915V158.968C33.0748 166.497 38.6799 172.623 45.5695 172.623H107.897C114.787 172.623 120.392 166.497 120.392 158.968V92.915C120.392 85.3854 114.787 79.2596 107.897 79.2596H45.5695V79.2596Z" fill="#2E3192"/>
<path d="M112.411 107.565H87.3587C86.2962 107.565 85.4316 106.62 85.4316 105.458C85.4316 104.297 86.2962 103.352 87.3587 103.352H112.411C113.474 103.352 114.338 104.297 114.338 105.458C114.338 106.62 113.474 107.565 112.411 107.565H112.411Z" fill="url(#paint0_linear_2426_2372)"/>
<path d="M88.9089 124.127H64.5568C63.9429 124.127 63.4434 123.581 63.4434 122.91C63.4434 122.239 63.9429 121.694 64.5568 121.694H88.9089C89.5228 121.694 90.0221 122.239 90.0221 122.91C90.0221 123.581 89.5228 124.127 88.9089 124.127V124.127Z" fill="url(#paint1_linear_2426_2372)"/>
<path d="M54.4893 83.4519H40.5862C40.5343 83.4519 40.4922 83.4979 40.4922 83.5546V85.3236C40.4922 85.3803 40.5343 85.4263 40.5862 85.4263H54.4893C54.5412 85.4263 54.5833 85.3803 54.5833 85.3236V83.5546C54.5833 83.4979 54.5412 83.4519 54.4893 83.4519Z" fill="url(#paint2_linear_2426_2372)"/>
<path d="M101.32 85.4264C102.118 85.4264 102.765 84.7192 102.765 83.8469C102.765 82.9745 102.118 82.2673 101.32 82.2673C100.522 82.2673 99.875 82.9745 99.875 83.8469C99.875 84.7192 100.522 85.4264 101.32 85.4264Z" fill="#2E3192"/>
<path d="M105.295 85.4264C106.093 85.4264 106.74 84.7192 106.74 83.8469C106.74 82.9745 106.093 82.2673 105.295 82.2673C104.497 82.2673 103.85 82.9745 103.85 83.8469C103.85 84.7192 104.497 85.4264 105.295 85.4264Z" fill="#2E3192"/>
<path d="M109.269 85.4264C110.068 85.4264 110.715 84.7192 110.715 83.8469C110.715 82.9745 110.068 82.2673 109.269 82.2673C108.471 82.2673 107.824 82.9745 107.824 83.8469C107.824 84.7192 108.471 85.4264 109.269 85.4264Z" fill="#2E3192"/>
<path d="M45.418 130.641C45.418 130.86 45.5786 131.035 45.7786 131.035H107.688C107.888 131.035 108.049 130.86 108.049 130.641C108.049 130.422 107.888 130.247 107.688 130.247H45.7786C45.5786 130.247 45.418 130.422 45.418 130.641Z" fill="#2E3192"/>
<path d="M64.2986 33.4241C65.6166 32.2339 67.2468 32.0124 67.9398 32.9292C68.6327 33.846 68.1259 35.5538 66.8073 36.7443C66.2865 37.2277 65.6674 37.5678 65.0017 37.7361L59.359 42.7021L57.2832 39.7585L63.0663 35.1754C63.3432 34.4925 63.7657 33.8919 64.2986 33.4241H64.2986Z" fill="#A0616A"/>
<path d="M31.6838 44.6287C31.681 44.4091 31.6829 42.4934 32.9805 41.2826C34.4712 39.8917 36.5746 40.4547 37.3124 40.6521C39.0166 41.1083 39.1564 41.9072 40.7568 42.7282C43.7511 44.2641 39.9994 43.478 41.781 42.9855C42.3978 42.815 51.2701 42.1425 53.4786 40.6569C57.7739 37.7677 60.7005 36.0156 60.7005 36.0156L62.6137 40.1975C62.6137 40.1975 59.8472 44.4017 55.9536 47.5162C51.9597 50.7109 49.9627 52.3083 46.9278 52.9255C46.6665 52.9787 40.2389 54.1781 35.0619 49.951C33.8811 48.9868 31.7176 47.2203 31.6838 44.6287V44.6287V44.6287Z" fill="#184293"/>
<path d="M37.6179 33.9931C41.2988 33.9931 44.2828 30.7319 44.2828 26.7091C44.2828 22.6862 41.2988 19.425 37.6179 19.425C33.9371 19.425 30.9531 22.6862 30.9531 26.7091C30.9531 30.7319 33.9371 33.9931 37.6179 33.9931Z" fill="#A0616A"/>
<path d="M89.8152 75.646L82.9514 67.9673L79.4082 72.0066L84.522 79.3691L89.5944 80.0032L89.8152 75.646Z" fill="#A0616A"/>
<path d="M50.6229 61.2467C51.0244 61.2832 52.3002 61.5625 53.5196 60.8293C54.3518 60.3289 54.7786 59.5848 54.9228 59.3482C56.7112 56.4127 63.5755 51.835 69.736 51.5533C71.1311 51.4895 72.0494 51.6662 72.884 52.1417C74.0675 52.8159 74.54 53.7818 76.0419 56.0442C76.8634 57.2818 77.7724 58.4477 78.6038 59.6774C83.4714 66.8765 85.3166 67.4416 85.128 69.7496C84.9188 72.3104 82.3918 74.7398 80.7123 74.4594C80.0245 74.3445 79.7581 73.8218 78.8392 72.7637C76.1447 69.6611 75.03 70.2343 73.1116 67.8579C70.8719 65.0833 71.1651 62.7828 69.9966 62.694C68.913 62.6116 68.4525 64.5741 66.1391 67.1812C65.0806 68.3741 64.3267 68.9214 62.0302 70.6626C53.0871 77.4433 52.9444 77.9198 51.1396 78.4606C50.3499 78.6972 44.7454 80.3765 42.7489 77.7041C39.6246 73.5221 47.0055 60.9182 50.6229 61.2467L50.6229 61.2467Z" fill="#12264D"/>
<path d="M87.717 77.3812C88.2218 77.1334 88.8121 76.8438 89.002 76.1777C89.1305 75.7269 89.0565 75.1712 88.7909 74.7871C88.4844 74.344 88.0308 74.2856 88.0491 74.2072C88.0771 74.0878 89.1497 74.1345 90.3272 74.5894C90.5494 74.6752 91.556 75.0772 92.8365 76.1698C93.8624 77.0451 93.7244 77.2206 94.3677 77.7253C96.3425 79.2746 98.1946 78.0536 99.2632 79.5065C99.6756 80.0673 99.8515 80.8634 99.6779 81.5071C99.3294 82.7999 97.6345 83.2448 96.7082 83.4745C94.4773 84.0276 92.7887 83.5761 91.0256 83.2513C85.0293 82.1471 81.6602 83.1528 81.2093 81.6346C81.1239 81.3472 81.2626 81.3717 81.7249 79.2631C82.1813 77.1818 82.1663 76.6103 82.5549 76.4436C83.1399 76.1928 83.5327 77.3339 85.0064 77.7244C86.3123 78.0705 87.3899 77.5417 87.717 77.3812L87.717 77.3812Z" fill="#12264D"/>
<path d="M77.6125 100.766L75.8783 90.1997L70.8711 91.3676L71.3197 100.598L75.1911 104.236L77.6125 100.766Z" fill="#A0616A"/>
<path d="M52.5799 64.7982C52.8934 65.0748 53.8055 66.0889 55.1913 66.2305C56.137 66.3272 56.8725 65.9735 57.1133 65.8662C60.1014 64.5347 68.1333 64.9596 73.3756 68.5073C74.5627 69.3107 75.2318 70.0204 75.6781 70.9261C76.311 72.2103 76.2057 73.2995 76.2859 76.0933C76.3298 77.6215 76.4829 79.1441 76.5391 80.6718C76.8678 89.6159 78.1043 91.2161 76.7624 93.01C75.2736 95.0005 71.9344 95.46 70.6887 94.1972C70.1786 93.68 70.2268 93.084 70.0101 91.6445C69.3747 87.4237 68.1578 87.2138 67.7914 84.0701C67.3638 80.3999 68.7884 78.6762 67.8671 77.8856C67.0128 77.1524 65.6235 78.4937 62.3697 79.2312C60.8808 79.5686 59.9759 79.5588 57.181 79.5902C46.2971 79.7124 45.9342 80.0191 44.1629 79.3589C43.388 79.0701 37.8877 77.0201 37.6087 73.5836C37.1723 68.2058 49.7555 62.3064 52.5799 64.7982L52.5799 64.7982V64.7982Z" fill="#12264D"/>
<path d="M74.9831 100.914C75.528 101.019 76.1653 101.141 76.6647 100.707C77.0026 100.413 77.2269 99.9072 77.2045 99.4265C77.1786 98.8717 76.8332 98.545 76.8887 98.4914C76.9731 98.4098 77.8367 99.1067 78.5773 100.206C78.7171 100.413 79.3434 101.364 79.8416 103.053C80.2408 104.407 80.0364 104.468 80.3094 105.28C81.1473 107.774 83.3073 107.9 83.445 109.758C83.4981 110.476 83.2346 111.242 82.7602 111.668C81.8076 112.524 80.1766 111.852 79.2921 111.474C77.1619 110.562 75.9967 109.152 74.7046 107.802C70.3104 103.208 67.0059 101.973 67.4128 100.44C67.4898 100.149 67.592 100.255 69.058 98.7936C70.5049 97.3516 70.7862 96.8695 71.1934 96.9701C71.8063 97.1215 71.545 98.3068 72.5638 99.5344C73.4666 100.622 74.6299 100.846 74.983 100.914H74.9831Z" fill="#12264D"/>
<path d="M38.5269 28.1016C38.7864 27.0872 38.4605 26.7175 38.7926 26.2622C38.7926 26.2622 38.9263 26.079 40.1213 25.5845C39.7687 23.3488 40.0327 22.9707 40.0327 22.9707C40.337 22.535 40.9465 22.4297 41.3614 22.4867C42.239 22.6072 42.3943 23.4742 42.9558 23.4548C43.7315 23.4279 44.6618 21.7309 44.3731 20.2601C44.1375 19.0603 43.1218 18.1693 42.8672 18.3239C42.6148 18.4772 41.706 17.8013 41.3614 17.9367C41.126 18.0292 40.0182 17.9062 39.767 18.0335C39.4927 18.1726 38.707 19.0387 38.6319 18.9295C38.11 18.1713 38.1211 17.9065 37.8183 17.7431C37.2817 17.4535 36.6983 17.9888 35.6924 18.5176C33.6227 19.6056 33.0166 18.9566 32.0607 19.8729C31.5777 20.3358 31.3188 21.2204 30.8205 22.9707C30.1238 25.4186 29.7754 26.6425 30.1119 27.8111C30.4551 29.0029 30.9604 28.7435 31.7063 30.425C32.5366 32.2967 32.2505 33.3846 33.035 33.8132C33.6414 34.1445 34.6158 33.9337 34.9837 33.3292C35.6137 32.2943 33.9855 30.8943 34.5409 29.2633C34.8817 28.2621 35.9333 27.5029 36.5782 27.7143C37.3073 27.9533 37.361 29.3822 37.8183 29.3601C38.2098 29.3411 38.4817 28.2783 38.5269 28.1016L38.5269 28.1016L38.5269 28.1016Z" fill="#12264D"/>
<path d="M33.4789 35.0716C34.8428 33.4003 40.3981 35.1302 40.9195 37.7822C41.134 38.8731 40.3423 39.3337 40.5652 40.5897C40.8913 42.4268 42.7378 42.3015 44.1084 44.1716C46.0542 46.8265 44.0496 49.4218 46.2342 53.8524C46.7011 54.7992 47.0945 55.5971 47.9172 56.3694C49.8051 58.1416 51.562 57.5338 52.5233 59.1768C53.2422 60.4055 52.9468 61.9199 52.8776 62.2747C52.5939 63.7293 51.825 64.0838 51.2832 65.2757C50.3818 67.2589 51.4024 68.7148 51.4604 71.0842C51.5329 74.0488 50.0914 78.1582 47.2086 79.5065C43.9699 81.0213 40.0638 78.5125 38.1736 76.0214C37.0457 74.535 36.7183 73.1639 36.2249 71.4715C34.0196 63.9077 32.7737 64.5918 31.0873 58.596C29.1594 51.7417 28.7804 43.7116 31.0873 41.1705C31.3931 40.8337 32.2346 40.0552 32.7703 38.6535C33.4912 36.7673 32.8684 35.8198 33.4789 35.0716H33.4789V35.0716Z" fill="#184293"/>
<path d="M53.6312 73.9768C54.6886 75.4452 54.8525 77.2317 53.9974 77.967C53.1422 78.7023 51.5921 78.1079 50.5345 76.6389C50.1047 76.0585 49.8083 75.3739 49.6701 74.6426L45.2617 68.3594L47.5396 66.4604L52.0585 72.5888C52.6766 72.9076 53.2159 73.3835 53.6312 73.9768H53.6312H53.6312Z" fill="#A0616A"/>
<path d="M37.4857 41.441C37.6819 41.3932 39.3982 41.0043 40.7476 42.1456C42.2976 43.4567 42.2225 45.8221 42.1962 46.6517C42.1354 48.5681 41.4482 48.8807 41.0394 50.7605C40.2746 54.2775 41.7311 57.546 42.5358 59.3517C42.8144 59.9768 43.7092 61.8894 45.4906 63.9491C48.955 67.9551 52.0462 70.0631 52.0462 70.0631L48.7254 73.2891C48.7254 73.2891 43.4357 71.5271 39.8515 67.9968C36.1749 64.3755 30.5208 51.5628 29.3488 48.4417C29.2478 48.1729 30.6776 52.5427 33.4076 46.1413C34.0303 44.6812 35.1713 42.0059 37.4857 41.441H37.4857Z" fill="#184293"/>
<path d="M83.0179 139.664C80.9071 140.017 79.3631 141.494 79.5692 142.962C79.7754 144.43 81.6533 145.333 83.7648 144.979C84.61 144.85 85.4147 144.502 86.1116 143.964L95.0376 142.342L94.4419 138.486L85.536 139.864C84.7233 139.578 83.8598 139.51 83.0179 139.664H83.0179Z" fill="#FFB6B6"/>
<path d="M121.482 127.644L118.021 135.67L100.622 142.072L86.1838 142.914L85.8223 139.124L101.47 135.548L117.526 127.256L121.482 127.644Z" fill="#184293"/>
<path d="M89.3903 158.121L86.283 166.711L82.2617 163.715L84.6379 154.725L89.3903 158.121Z" fill="#FFB6B6"/>
<path d="M76.4128 154.925L68.1875 163.515L71.4776 167.311L79.8858 160.119L76.4128 154.925Z" fill="#FFB6B6"/>
<path d="M123.024 126.958L122.933 126.258L120.831 121.764L113.885 123.761L115.164 129.954L123.024 126.958Z" fill="#FFB6B6"/>
<path d="M120.099 156.923L120.312 159.923C120.312 159.923 121.195 172.505 114.067 173.503C106.938 174.502 103.831 175.501 99.6266 167.71L93.0463 154.925L89.2028 159.923L84.0898 155.524C84.0898 155.524 87.7456 139.943 90.6701 139.343C91.0357 139.268 91.4013 139.231 91.7611 139.223C94.1823 139.168 96.4646 140.462 97.9132 142.583L106.207 154.725L109.223 153.227L120.099 156.923V156.923Z" fill="#12264D"/>
<path d="M80.6168 166.312L82.2619 162.916L87.0143 166.512C87.0143 166.512 88.111 170.906 86.466 171.506C84.8209 172.105 80.2512 171.306 80.2512 171.306C80.2512 171.306 71.8431 173.304 71.6603 171.506C71.4776 169.708 75.4988 169.308 75.4988 169.308L80.6168 166.312L80.6168 166.312H80.6168Z" fill="#12264D"/>
<path d="M98.5305 163.915L85.8269 155.166L79.338 161.517L74.9512 155.924C74.9512 155.924 82.9937 142.939 85.3699 142.34C87.7461 141.74 91.5846 141.341 91.5846 141.341L103.283 153.127L98.5305 163.915V163.915Z" fill="#12264D"/>
<path d="M68.005 162.716L72.209 167.71L71.6546 168.228C71.6546 168.228 70.5639 173.42 68.005 171.664C65.446 169.907 65.2632 169.508 65.2632 169.508C65.2632 169.508 57.9518 171.306 57.2206 168.11C56.4895 164.913 58.5001 165.513 58.5001 165.513L60.3258 166.711L68.005 162.716L68.005 162.716Z" fill="#12264D"/>
<path d="M116.078 125.959C119.308 125.959 121.927 123.097 121.927 119.566C121.927 116.036 119.308 113.174 116.078 113.174C112.847 113.174 110.229 116.036 110.229 119.566C110.229 123.097 112.847 125.959 116.078 125.959Z" fill="#FFB6B6"/>
<path d="M114.707 128.656L123.115 125.859C123.115 125.859 126.405 134.249 125.857 138.045C125.308 141.84 120.312 159.923 120.312 159.923L109.223 153.227C109.223 153.227 109.04 149.232 108.492 147.434C107.944 145.636 106.207 140.142 110.046 135.548C113.884 130.953 114.707 128.656 114.707 128.656L114.707 128.656Z" fill="#184293"/>
<path d="M96.2012 170.603C94.8328 172.395 94.5695 174.619 95.613 175.57C96.6564 176.522 98.6112 175.841 99.9798 174.048C100.536 173.34 100.928 172.497 101.125 171.59L106.835 163.918L104.053 161.458L98.2102 168.932C97.428 169.306 96.7391 169.879 96.2012 170.603L96.2012 170.603Z" fill="#FFB6B6"/>
<path d="M121.157 132.686L123.145 141.289L113.418 158.306L103.488 169.213L100.27 166.295L110.284 152.677L117.875 135.131L121.157 132.686Z" fill="#184293"/>
<path d="M110.686 118.467C112.186 118.464 112.271 118.474 112.513 118.467C114.374 118.414 114.86 117.614 115.804 117.668C117.487 117.766 115.265 126.989 114.341 131.253C113.435 135.434 116.497 139.181 116.717 139.443C119.826 143.138 125.285 143.813 126.222 142.24C126.981 140.966 124.293 139.03 124.943 136.247C125.578 133.526 128.51 133.816 129.33 131.253C130.188 128.568 127.303 127.215 125.491 120.665C124.45 116.903 124.634 116.203 123.663 113.873C121.067 107.646 108.343 110.297 109.772 116.07C110.048 117.187 109.313 118.471 110.686 118.468V118.467Z" fill="#12264D"/>
<path d="M129.364 42.5797H67.891C66.1526 42.5797 64.7383 41.0339 64.7383 39.134V3.44567C64.7383 1.54583 66.1526 0 67.891 0H129.364C131.103 0 132.517 1.54583 132.517 3.44567V39.134C132.517 41.0339 131.103 42.5797 129.364 42.5797Z" fill="white"/>
<path d="M129.364 42.5797H67.891C66.1526 42.5797 64.7383 41.0339 64.7383 39.134V3.44567C64.7383 1.54583 66.1526 0 67.891 0H129.364C131.103 0 132.517 1.54583 132.517 3.44567V39.134C132.517 41.0339 131.103 42.5797 129.364 42.5797ZM67.891 0.575401C66.4429 0.575401 65.2648 1.86303 65.2648 3.44567V39.134C65.2648 40.7167 66.4429 42.0043 67.891 42.0043H129.364C130.813 42.0043 131.991 40.7167 131.991 39.134V3.44567C131.991 1.86303 130.813 0.575401 129.364 0.575401H67.891Z" fill="#2E3192"/>
<path d="M124.62 4.31556C125.056 4.31556 125.41 3.92913 125.41 3.45246C125.41 2.97578 125.056 2.58936 124.62 2.58936C124.184 2.58936 123.83 2.97578 123.83 3.45246C123.83 3.92913 124.184 4.31556 124.62 4.31556Z" fill="#2E3192"/>
<path d="M126.725 4.31556C127.161 4.31556 127.515 3.92913 127.515 3.45246C127.515 2.97578 127.161 2.58936 126.725 2.58936C126.289 2.58936 125.936 2.97578 125.936 3.45246C125.936 3.92913 126.289 4.31556 126.725 4.31556Z" fill="#2E3192"/>
<path d="M128.833 4.31556C129.269 4.31556 129.622 3.92913 129.622 3.45246C129.622 2.97578 129.269 2.58936 128.833 2.58936C128.397 2.58936 128.043 2.97578 128.043 3.45246C128.043 3.92913 128.397 4.31556 128.833 4.31556Z" fill="#2E3192"/>
<path d="M69.2132 17.406C68.9955 17.406 68.8184 17.5996 68.8184 17.8376C68.8184 17.9536 68.8594 18.0609 68.9338 18.1401C69.0088 18.2242 69.1072 18.2691 69.2132 18.2691H128.305C128.523 18.2691 128.7 18.0755 128.7 17.8376C128.7 17.7215 128.659 17.6142 128.585 17.535C128.509 17.451 128.411 17.406 128.305 17.406H69.2132Z" fill="#184293"/>
<path d="M120.935 17.262V18.4128H69.214C69.0692 18.4128 68.9376 18.3495 68.8428 18.243C68.7454 18.1394 68.6875 17.9956 68.6875 17.8374C68.6875 17.5209 68.9244 17.262 69.214 17.262H120.935Z" fill="url(#paint3_linear_2426_2372)"/>
<path d="M127.648 15.1043H122.383C121.802 15.1043 121.33 14.5882 121.33 13.9535C121.33 13.3189 121.802 12.8027 122.383 12.8027H127.648C128.229 12.8027 128.701 13.3189 128.701 13.9535C128.701 14.5882 128.229 15.1043 127.648 15.1043Z" fill="#184293"/>
<path d="M93.1616 9.06259H69.6077C69.0271 9.06259 68.5547 8.54647 68.5547 7.91179C68.5547 7.27711 69.0271 6.76099 69.6077 6.76099H93.1616C93.7422 6.76099 94.2146 7.27711 94.2146 7.91179C94.2146 8.54647 93.7422 9.06259 93.1616 9.06259Z" fill="#184293"/>
<path d="M69.2132 30.3523C68.9955 30.3523 68.8184 30.5459 68.8184 30.7838C68.8184 30.8999 68.8594 31.0072 68.9338 31.0864C69.0088 31.1704 69.1072 31.2154 69.2132 31.2154H128.305C128.523 31.2154 128.7 31.0218 128.7 30.7838C128.7 30.6678 128.659 30.5605 128.585 30.4813C128.509 30.3973 128.411 30.3523 128.305 30.3523H69.2132Z" fill="#184293"/>
<path d="M100.665 30.2085V31.3593H69.214C69.0692 31.3593 68.9376 31.296 68.8428 31.1895C68.7454 31.086 68.6875 30.9421 68.6875 30.7839C68.6875 30.4674 68.9244 30.2085 69.214 30.2085H100.665Z" fill="url(#paint4_linear_2426_2372)"/>
<path d="M127.648 28.0509H122.383C121.802 28.0509 121.33 27.5348 121.33 26.9001C121.33 26.2654 121.802 25.7493 122.383 25.7493H127.648C128.229 25.7493 128.701 26.2654 128.701 26.9001C128.701 27.5348 128.229 28.0509 127.648 28.0509Z" fill="#184293"/>
</g>
<defs>
<linearGradient id="paint0_linear_2426_2372" x1="99.8849" y1="103.352" x2="99.8849" y2="107.565" gradientUnits="userSpaceOnUse">
<stop stop-color="#FF5C00"/>
<stop offset="1" stop-color="#FF006B"/>
</linearGradient>
<linearGradient id="paint1_linear_2426_2372" x1="76.7327" y1="121.694" x2="76.7327" y2="124.127" gradientUnits="userSpaceOnUse">
<stop stop-color="#FF5C00"/>
<stop offset="1" stop-color="#FF006B"/>
</linearGradient>
<linearGradient id="paint2_linear_2426_2372" x1="47.5378" y1="83.4519" x2="47.5378" y2="85.4263" gradientUnits="userSpaceOnUse">
<stop stop-color="#FF5C00"/>
<stop offset="1" stop-color="#FF006B"/>
</linearGradient>
<linearGradient id="paint3_linear_2426_2372" x1="94.8113" y1="17.262" x2="94.8113" y2="18.4128" gradientUnits="userSpaceOnUse">
<stop stop-color="#FF5C00"/>
<stop offset="1" stop-color="#FF006B"/>
</linearGradient>
<linearGradient id="paint4_linear_2426_2372" x1="84.6764" y1="30.2085" x2="84.6764" y2="31.3593" gradientUnits="userSpaceOnUse">
<stop stop-color="#FF5C00"/>
<stop offset="1" stop-color="#FF006B"/>
</linearGradient>
<clipPath id="clip0_2426_2372">
<rect width="159" height="176" fill="white"/>
</clipPath>
</defs>
</svg>
